<svg id="圖層_3" data-name="圖層 3" xmlns="http://www.w3.org/2000/svg" viewBox="0 0 110.25 110.26"><defs><style>.cls-1{fill:#fff;}</style></defs><path class="cls-1" d="M55.13,0c-.69,0-1.38,0-2.07,0a1,1,0,0,0,0,2h2a1,1,0,0,0,0-2ZM48,.46h-.13c-.68.09-1.37.19-2,.31a1,1,0,0,0,.17,2l.16,0,.65-.1h.64l.69-.1A1,1,0,0,0,49,1.33a1,1,0,0,0-1-.87ZM41,1.85a1.27,1.27,0,0,0-.26,0c-.66.18-1.33.37-2,.58a1,1,0,0,0,.3,1.95,1,1,0,0,0,.29,0c.64-.2,1.28-.39,1.93-.56A1,1,0,0,0,42,2.6a1,1,0,0,0-1-.75ZM34.29,4.16a.91.91,0,0,0-.39.08c-.63.26-1.27.54-1.9.83a1,1,0,0,0-.48,1.33,1,1,0,0,0,.9.58,1,1,0,0,0,.42-.09h.32l0,0h.06l0,0h.24l0,0h.06l1.07-.47a1,1,0,0,0-.38-1.92ZM27.91,7.34a1,1,0,0,0-.51.13c-.59.35-1.19.71-1.77,1.08a1,1,0,0,0,1.07,1.69h.08l0,0h0c.53-.33,1.06-.66,1.61-1a1,1,0,0,0,.35-1.37,1,1,0,0,0-.86-.49Zm-5.91,4a1,1,0,0,0-.61.21c-.55.42-1.09.86-1.62,1.3a1,1,0,0,0-.12,1.41,1,1,0,0,0,.76.36,1,1,0,0,0,.64-.23l.29-.24h0l0,0h0l0,0h0l0,0h0l0,0h0l0,0h0l0,0h0l0,0h0l0,0h0l0,0h.07l0,0h0l0,0h0l0,0h0l0,0h0l0,0h0l0,0h0l.05,0h0l0,0h0l.63-.5a1,1,0,0,0,.18-1.4,1,1,0,0,0-.79-.39Zm-5.33,4.73a1,1,0,0,0-.71.29c-.49.49-1,1-1.44,1.5a1,1,0,0,0,.06,1.42,1.05,1.05,0,0,0,.68.26A1,1,0,0,0,16,19.2h0l0,0h0l0,0h0l0,0h0l0-.05h0l.3-.32h0l0,0h0l0,0h0l0,0h0l0,0h0l0,0h0l0,0h0l0,0h0l0,0h0l0,0h0v0h.07l0,0h.06l0,0h0l0,0h0l0,0h0a.08.08,0,0,1,0,0h0l0,0h0v0h0l0,0h0l0,0h0l0,0h.06v0h0l0,0h0l0,0h0v0h0a1,1,0,0,0,0-1.41,1,1,0,0,0-.7-.29ZM12,21.43a1,1,0,0,0-.8.39c-.42.55-.83,1.12-1.23,1.68a1,1,0,0,0,.25,1.39,1,1,0,0,0,.57.18,1,1,0,0,0,.82-.42c.26-.36.51-.72.78-1.08h0l.09-.13h0l0,0h0l0,0h0l0,0h0l0,0h0l0-.05h0l0,0h0l.1-.14a1,1,0,0,0-.19-1.4,1,1,0,0,0-.6-.2ZM8.07,27.37a1,1,0,0,0-.87.51c-.34.6-.68,1.21-1,1.82a1,1,0,0,0,.43,1.35,1,1,0,0,0,.46.11A1,1,0,0,0,8,30.63l.48-.92h0l0-.05h0l0,0h0v0h0l0,0h0l0,0h0v0h0v0h0v0h0l0,0h0l0-.05h0l0-.05h0c.06-.11.12-.22.19-.33h0l0-.05h0a1,1,0,0,0-.38-1.37,1.05,1.05,0,0,0-.49-.13ZM5,33.79a1,1,0,0,0-.92.62c-.26.64-.51,1.29-.75,1.94a1,1,0,0,0,.6,1.28,1.06,1.06,0,0,0,.34.06A1,1,0,0,0,5.16,37c.23-.63.47-1.25.72-1.87a1,1,0,0,0-.55-1.3A1,1,0,0,0,5,33.79ZM2.72,40.55a1,1,0,0,0-1,.75c-.17.67-.34,1.35-.48,2A1,1,0,0,0,2,44.51a.78.78,0,0,0,.22,0,1,1,0,0,0,1-.79c.14-.65.3-1.3.47-2A1,1,0,0,0,3,40.58l-.25,0Zm-1.33,7a1,1,0,0,0-1,.88c-.08.68-.15,1.37-.21,2.06a1,1,0,0,0,.91,1.08h.09a1,1,0,0,0,1-.91c0-.28,0-.56.08-.85h0v-.06h0v0h0v0h0v0h0v0h0v0h0V49.5h0c0-.28.06-.55.1-.82a1,1,0,0,0-.88-1.12ZM1,54.67H1a1,1,0,0,0-1,1c0,.69,0,1.39.06,2.07a1,1,0,0,0,1,1h0a1,1,0,0,0,1-1.05c0-.39,0-.79-.05-1.18H2v-.06H2v-.06H2v-.06H2v0H2v0H2v0H2v0H2v0H2v0H2v0H2v0H2v0H2v0H2v0H2v0H2v0H2v0H2v0H2v0H2v0H2v0H2v0H2v0H2a1,1,0,0,0-1-1Zm.53,7.11H1.39a1,1,0,0,0-.85,1.13c.1.68.21,1.37.33,2a1,1,0,0,0,1,.82l.18,0a1,1,0,0,0,.81-1.16v0h0c-.07-.41-.14-.82-.2-1.23h0v-.06h0v0h0v0h0v0h0v0h0v0h0c0-.15,0-.31-.07-.47a1,1,0,0,0-1-.85Zm1.46,7a.84.84,0,0,0-.27,0A1,1,0,0,0,2,70c.18.67.39,1.34.6,2a1,1,0,0,0,1,.7,1,1,0,0,0,.3,0,1,1,0,0,0,.65-1.26l-.21-.68h0s0,0,0,0h0v0h0v0h0v0h0v0h0v0h0v0h0v0h0v0h0v0h0v0h0v0h0v0h0v0h0v0h0v0h0v0h0v0h0v0h0v0h0v0h0s0,0,0,0h0s0,0,0,0h0a.43.43,0,0,0,0,0h0v0H4L4,69.48a1,1,0,0,0-1-.73Zm2.37,6.72a.92.92,0,0,0-.39.09,1,1,0,0,0-.52,1.31c.27.63.55,1.27.85,1.89a1,1,0,0,0,.9.57,1.07,1.07,0,0,0,.43-.09,1,1,0,0,0,.48-1.34h0v0h0v0h0v0h0v0H7v0H7v0H7v0H7v0H7v0H7v0H7l0,0h0v0h0v0h0v0h0v0h0v0h0v0h0v0h0v0h0v0h0v0h0v0h0l0,0h0v0h0v0h0l0,0h0v0h0s0,0,0,0h0s0,0,0,0h0v0h0v0h0l0,0h0v0h0s0,0,0,0h0l0-.06h0l-.29-.66a1,1,0,0,0-.92-.61ZM8.6,81.82a1.06,1.06,0,0,0-.51.14,1,1,0,0,0-.35,1.38c.36.59.72,1.18,1.1,1.76a1,1,0,0,0,.84.45,1,1,0,0,0,.54-.16,1,1,0,0,0,.3-1.38c-.07-.11-.14-.22-.22-.33h0l0-.05h0v0h0l0,0h0l0,0h0c-.25-.38-.48-.77-.72-1.17a1,1,0,0,0-.86-.49Zm4.05,5.87a1,1,0,0,0-.62.22,1,1,0,0,0-.17,1.4c.43.54.87,1.08,1.32,1.6a1,1,0,0,0,.76.36,1,1,0,0,0,.76-1.65h0v0h0l0,0h0l0,0h0l0,0h0c-.4-.47-.79-1-1.17-1.43a1,1,0,0,0-.78-.38ZM17.42,93a1,1,0,0,0-.71.3,1,1,0,0,0,0,1.42c.49.48,1,1,1.51,1.41a1,1,0,0,0,.67.26,1,1,0,0,0,.74-.33,1,1,0,0,0-.07-1.41c-.37-.33-.74-.67-1.1-1h0l0,0h0v0h0l0,0h0v0h0l-.24-.23a1,1,0,0,0-.7-.28Zm5.43,4.62a1,1,0,0,0-.8.4,1,1,0,0,0,.2,1.4c.55.41,1.12.82,1.69,1.21a1,1,0,0,0,.56.17A1,1,0,0,0,25.08,99c-.56-.38-1.1-.76-1.63-1.16a1,1,0,0,0-.6-.2Zm6,3.87A1,1,0,0,0,28,102a1,1,0,0,0,.39,1.36c.6.34,1.21.67,1.83,1a1,1,0,0,0,.45.11,1,1,0,0,0,.89-.55,1,1,0,0,0-.43-1.34l-.34-.18h-.18l-.05,0h0l-1.19-.65a1,1,0,0,0-.49-.12Zm6.45,3a1,1,0,0,0-.94.63,1,1,0,0,0,.57,1.3c.64.25,1.29.49,1.94.72a1,1,0,0,0,1.28-.61,1,1,0,0,0-.61-1.27l-1.88-.7a.92.92,0,0,0-.36-.07Zm6.78,2.17a1,1,0,0,0-.24,2c.67.16,1.35.32,2,.46l.2,0a1,1,0,0,0,.2-2h-.12c-.61-.12-1.22-.26-1.83-.41a1,1,0,0,0-.24,0Zm7,1.25a1,1,0,0,0-.11,2c.68.08,1.38.15,2.07.19h.07a1,1,0,0,0,.08-2l-.72-.06h-.32l-1-.09Zm9.16.25h-.06l-.8,0h-1.2a1,1,0,0,0,0,2h0c.69,0,1.39,0,2.07-.07a1,1,0,0,0,0-2Zm7.07-.87-.19,0h0l-1,.19h-.36l-.57.08a1,1,0,0,0,.15,2h.15c.68-.1,1.37-.22,2-.35a1,1,0,0,0-.19-2Zm6.9-1.79a.89.89,0,0,0-.32,0l-1.46.46h-.22l-.23.06a1,1,0,0,0,.28,2,.9.9,0,0,0,.28,0c.66-.19,1.33-.4,2-.61a1,1,0,0,0,.64-1.27,1,1,0,0,0-1-.68Zm6.6-2.69a1,1,0,0,0-.44.1c-.6.29-1.2.57-1.81.84A1,1,0,0,0,76,105.1a1,1,0,0,0,.92.6,1,1,0,0,0,.4-.09c.63-.28,1.27-.57,1.89-.87a1,1,0,0,0,.46-1.34,1,1,0,0,0-.9-.56ZM85,99.3a1,1,0,0,0-.55.17l-1,.68h0l0,0h0l0,0h0l0,0h-.15l0,0h0l-.3.19a1,1,0,0,0-.34,1.38,1,1,0,0,0,1.38.33c.58-.36,1.17-.73,1.75-1.11A1,1,0,0,0,85,99.3ZM90.67,95a1,1,0,0,0-.66.24l0,0h0l0,0h-.09l0,0h0l-1.32,1.1h0a1,1,0,0,0-.15,1.4,1,1,0,0,0,.77.37,1,1,0,0,0,.63-.22c.54-.43,1.07-.88,1.59-1.33A1,1,0,0,0,90.67,95Zm5-5a1,1,0,0,0-.75.33l-.12.14h0s0,0,0,0h0l0,0h0s0,0,0,0h0v0h0v0h0l0,0h0l0,0h0c-.27.3-.55.59-.83.89h0l0,0h-.06s0,0,0,0h0l0,0h0l0,0h0a1,1,0,0,0,0,1.41,1,1,0,0,0,.69.28,1,1,0,0,0,.72-.31c.47-.5,1-1,1.4-1.53a1,1,0,0,0-.08-1.41,1,1,0,0,0-.67-.25Zm4.36-5.64a1,1,0,0,0-.83.44l-.07.11h0l0,0h0l0,0h0v0h0v0h0l0,0h0c-.3.43-.6.87-.92,1.3a1,1,0,0,0,.22,1.39,1,1,0,0,0,1.4-.21c.41-.56.81-1.13,1.19-1.7a1,1,0,0,0-.27-1.39,1,1,0,0,0-.56-.17Zm3.58-6.17a1,1,0,0,0-.89.56h0v0h0v0h0v0h0v0h0v0h0v0h0v0h0v0h0v0h0v0h0v0h0v0h0v0h0v0h0v0h0v0h0v0h0v0h0v0h0v0h0v0h0v0h0v0h0v0h0l0,0h0v0h0v0h0v0h0v0h0v0h0v0h0v0h0v0h0v0h0v0h0v0h0v0h0v0h0v0h0v0h0v0h0v0h0v0h0l0,0h0v0h0l0,0h0v0h0v0h0v0h0v0h0a1,1,0,0,0,.4,1.35,1.07,1.07,0,0,0,.48.12,1,1,0,0,0,.88-.52c.33-.6.65-1.22,1-1.84a1,1,0,0,0-.45-1.34,1.06,1.06,0,0,0-.45-.11Zm2.74-6.57a1,1,0,0,0-1,.67c-.2.61-.42,1.22-.65,1.83h0l0,0h0a1,1,0,0,0,.58,1.3,1.13,1.13,0,0,0,.36.06,1,1,0,0,0,.93-.64c.25-.64.49-1.3.71-2a1,1,0,0,0-.63-1.27.86.86,0,0,0-.32,0Zm1.84-6.89a1,1,0,0,0-1,.81h0v0h0v0h0v0h0v0h0v0h0v0h0v0h0v0h0v0h0v0h0a.43.43,0,0,0,0,.05h0a.07.07,0,0,0,0,0h0v0h0v0h0a.43.43,0,0,0,0,0h0l-.27,1.21a1,1,0,0,0,.74,1.2.91.91,0,0,0,.23,0,1,1,0,0,0,1-.77c.16-.67.31-1.35.44-2a1,1,0,0,0-.78-1.17l-.2,0Zm.92-7.07a1,1,0,0,0-1,.94l0,.51h0v0h0v0h0v0h0v0h0v0h0v0h0v0h0v0h0v0h0v0h0v0h0v0h0v0h0v.06h0s0,0,0,.06h0c0,.31,0,.6-.08.91a1,1,0,0,0,.89,1.09H109a1,1,0,0,0,1-.9c.07-.68.13-1.38.17-2.06a1,1,0,0,0-.93-1.07Zm0-7.12h-.06a1,1,0,0,0-.94,1.06c0,.67.08,1.33.1,2a1,1,0,0,0,1,1h0a1,1,0,0,0,1-1c0-.69,0-1.38-.1-2.07a1,1,0,0,0-1-.93Zm-.93-7.07-.2,0a1,1,0,0,0-.79,1.18c.06.28.12.57.17.86h0v0h0v0h0v0h0v0h0v0h0v0h0v0h0v0h0v0h0v0h0v0h0v0h0v0h0v0h0v0h0v0h0v0h0v0h0v0h0v0h0v0h0a0,0,0,0,1,0,0h0s0,0,0,.06h0c0,.1,0,.2,0,.31a1,1,0,0,0,1,.84l.16,0a1,1,0,0,0,.83-1.14c-.11-.68-.24-1.37-.37-2a1,1,0,0,0-1-.81Zm-1.87-6.88a1,1,0,0,0-.32.06,1,1,0,0,0-.62,1.27h0v0h0v0h0v0h0v0h0v0h0v0h0v0h0v0h0v0h0v0h0v0h0v0h0v0h0v0h0l0,0h0l0,.05h0a.14.14,0,0,1,0,.06h0a.14.14,0,0,1,0,.06h0s0,0,0,.06h0s0,0,0,.06h0c0,.07,0,.14.07.21h0a.14.14,0,0,0,0,.06h0V39h0a.43.43,0,0,0,0,0h0v0h0v0h0v0h0v0h0v0h0v0h0v0h0v0h0v0h0v0h0c0,.11.07.22.1.33a1,1,0,1,0,1.92-.58c-.2-.66-.42-1.32-.64-2a1,1,0,0,0-1-.68ZM103.6,30a1,1,0,0,0-.45.1,1,1,0,0,0-.45,1.34c.3.6.59,1.2.86,1.81a1,1,0,0,0,.92.59,1,1,0,0,0,.41-.09,1,1,0,0,0,.5-1.32c-.29-.63-.59-1.26-.9-1.88a1,1,0,0,0-.89-.55ZM100,23.84a1,1,0,0,0-.56.17,1,1,0,0,0-.27,1.39h0l0,0h0l0,0h0s0,0,0,0h0a.56.56,0,0,1,0,.08h0l0,0h0l.39.6h0l0,.05h0l0,0h0v0h0v0h0l0,0h0v0h0v0h0l0,0h0l0,0h0l0,.05h0l.25.4a1,1,0,0,0,.84.46.93.93,0,0,0,.53-.15A1,1,0,0,0,102,26c-.36-.59-.74-1.17-1.13-1.74a1,1,0,0,0-.83-.44Zm-4.37-5.63a1,1,0,0,0-.66.25,1,1,0,0,0-.09,1.41h0l0,0h0l0,0h0l0,0h0l.65.75h0l0,.05h0l0,0h0l0,0h0l0,0h0l0,0h0l0,0h0l0,0h0v0h0v0h0v0h0l0,0h0l0,0h0l.25.3a1,1,0,0,0,1.41.14,1,1,0,0,0,.14-1.41c-.44-.53-.89-1.06-1.35-1.58a1,1,0,0,0-.75-.33Zm-5.07-5a1,1,0,0,0-.75.35A1,1,0,0,0,89.9,15l.62.53h0l0,0h0l0,0h0l0,0h0l0,0h0v0h0l0,0h0l0,0h0v0h0l0,0h.14l0,0h0v0h.16v0h0l0,0h0l0,0h0l0,0h0l.16.15a1.06,1.06,0,0,0,.69.26,1,1,0,0,0,.73-.31,1,1,0,0,0,0-1.42c-.5-.47-1-.93-1.54-1.38a1,1,0,0,0-.66-.25ZM84.88,8.9a1,1,0,0,0-.55,1.83c.56.37,1.11.75,1.65,1.13a1,1,0,0,0,.58.19,1,1,0,0,0,.81-.42,1,1,0,0,0-.23-1.39c-.56-.4-1.13-.8-1.71-1.18a1,1,0,0,0-.55-.16ZM78.69,5.38a1,1,0,0,0-.91.56,1,1,0,0,0,.47,1.34l.52.25h0l0,0h.27l0,0h0l0,0h0l.86.44A1,1,0,0,0,81,6.42c-.61-.33-1.23-.64-1.85-.94a1,1,0,0,0-.43-.1ZM72.08,2.7a1,1,0,0,0-1,.69,1,1,0,0,0,.63,1.26l.92.32h.8l.17.07a1.07,1.07,0,0,0,.35.06,1,1,0,0,0,.35-1.94c-.65-.24-1.31-.47-2-.69a1.12,1.12,0,0,0-.31,0ZM65.17.93a1,1,0,0,0-.18,2l.92.18h.42l.62.14a.82.82,0,0,0,.22,0,1,1,0,0,0,.22-2c-.67-.15-1.35-.3-2-.42l-.19,0ZM58.1.08a1,1,0,0,0-.06,2l.8,0h1.29a1,1,0,0,0,.09-2C59.54.17,58.84.12,58.15.08Z"/><path class="cls-1" d="M77.75,49.93a2.09,2.09,0,0,1-2.19,2.13,1.89,1.89,0,0,1-2-2V41.42H57V54.13a2.09,2.09,0,0,1-2.18,2.12,1.91,1.91,0,0,1-2-2V41.42h-16v8.51a2.11,2.11,0,0,1-2.25,2.13,1.93,1.93,0,0,1-2-2V40.16a2.12,2.12,0,0,1,3.74-1.38H52.8V34.64H38c-1.9,0-2.07-2.94-.12-2.94H70.16a.91.91,0,0,0,.86-.63,1.52,1.52,0,0,1,1.32-.8,1.43,1.43,0,0,1,1.44,1.49,3.09,3.09,0,0,1-3.22,2.88H57v4.14H74a2.12,2.12,0,0,1,3.74,1.38ZM72.4,77.7A2.24,2.24,0,0,1,70.05,80a2,2,0,0,1-2.13-2.13H38.65c-1.89,0-2-3,0-3H67.92V69.31H41.07c-1.9,0-2-2.94-.12-2.94h27V61.31H39.46c-1.9,0-2-2.87-.12-2.87h29a2.21,2.21,0,0,1,1.78-.86,2.34,2.34,0,0,1,2.24,2.35ZM46.82,45.27a1.23,1.23,0,0,0,1.09-.63,1.21,1.21,0,0,1,1-.63,1.31,1.31,0,0,1,1.33,1.32,2.78,2.78,0,0,1-2.94,2.53H40.78a1.3,1.3,0,0,1-.06-2.59Zm-.18,6.15a1.33,1.33,0,0,0,1.1-.57,1.26,1.26,0,0,1,1.09-.75,1.33,1.33,0,0,1,1.38,1.38,2.9,2.9,0,0,1-3.05,2.65H41c-1.78,0-1.89-2.71-.11-2.71Zm20.82-6.15a1.09,1.09,0,0,0,1-.57,1.26,1.26,0,0,1,2.36.69,2.73,2.73,0,0,1-2.93,2.47h-7c-1.66,0-1.78-2.59-.11-2.59Zm-.12,6.15a1.07,1.07,0,0,0,1-.57,1.27,1.27,0,0,1,1.15-.63,1.31,1.31,0,0,1,1.32,1.38,2.77,2.77,0,0,1-2.93,2.53H61c-1.72,0-1.84-2.71-.11-2.71Z"/></svg>