<svg id="圖層_3" data-name="圖層 3" xmlns="http://www.w3.org/2000/svg" viewBox="0 0 56.91 52.27"><defs><style>.cls-1{fill:#221714;}</style></defs><path class="cls-1" d="M18.94,2.72a1.22,1.22,0,0,0,1.14-.66,1.53,1.53,0,0,1,1.34-.79A1.55,1.55,0,0,1,23,2.78a3.31,3.31,0,0,1-3.33,3H15.37A48.26,48.26,0,0,1,11.13,19.9h6.11a2,2,0,0,1,1.27-.48,2,2,0,0,1,2.06,2.06V44.65a2,2,0,0,1-2.06,2,1.92,1.92,0,0,1-2-1.82H10.71v.67a2,2,0,0,1-2.06,2,1.88,1.88,0,0,1-2-1.93v-18a34.3,34.3,0,0,1-3.81,4.48,1.81,1.81,0,0,1-1.21.54,1.56,1.56,0,0,1-1.21-2.6,53,53,0,0,0,7.2-11.62A48.86,48.86,0,0,0,11.19,5.81H5.62c-2.11,0-2.29-3.09-.24-3.09ZM10.71,23V41.75h5.74V23ZM22.08,52.27a1.55,1.55,0,0,1-.54-3c13.13-4,20.08-11,25.71-23.29a2.1,2.1,0,0,1,1.94-1.34,2.3,2.3,0,0,1,2.17,3.21A39.87,39.87,0,0,1,32.43,48.58a43.07,43.07,0,0,1-10,3.69ZM24.2,30a1.69,1.69,0,0,1-1.27.6,1.58,1.58,0,0,1-1.39-2.42,46.21,46.21,0,0,0,5.14-10.58A55.26,55.26,0,0,0,29,10,2.1,2.1,0,0,1,31.1,8.17,2.32,2.32,0,0,1,33.4,11C32.49,16,27.71,26,24.2,30Zm17.12,2.72a2.36,2.36,0,0,1-4.48.85c-.9-2.18-3.57-3-6.11-3a1.24,1.24,0,1,1,0-2.48,14.68,14.68,0,0,1,5.39.91c.3.18.66.12.66-.36V2.12A2.07,2.07,0,0,1,38.9,0a2.29,2.29,0,0,1,2.42,2.3ZM54.51,28a2.32,2.32,0,0,1-2.18-1.69,57.56,57.56,0,0,0-3.27-8.11,77.32,77.32,0,0,0-4.47-7.56,1.61,1.61,0,0,1,1.33-2.54,1.65,1.65,0,0,1,1.21.48c3.51,3.57,8.41,11.31,9.68,16.22A2.44,2.44,0,0,1,54.51,28Z"/></svg>