<svg id="圖層_3" data-name="圖層 3" xmlns="http://www.w3.org/2000/svg" viewBox="0 0 48.85 49.96"><defs><style>.cls-1{fill:#221714;}</style></defs><path class="cls-1" d="M25.79,16.62v3.56H45.17a1.35,1.35,0,0,0,1-.63,1.3,1.3,0,0,1,1.21-.69,1.39,1.39,0,0,1,1.44,1.44A3.09,3.09,0,0,1,45.74,23H1.47c-1.84,0-2-2.82-.17-2.82H21.65V16.62H11.19A2.12,2.12,0,0,1,9,18.69a2,2,0,0,1-2-2.07V2.07A2.09,2.09,0,0,1,9.06,0a2.12,2.12,0,0,1,1.61.75H37.4A2.1,2.1,0,0,1,39,0a2.14,2.14,0,0,1,2.12,2.07V16.33a2.14,2.14,0,0,1-2.18,2.18,1.85,1.85,0,0,1-2-1.89ZM2.16,49.1c-.12,0-.23.06-.4.06a1.45,1.45,0,0,1-.64-2.76,46.81,46.81,0,0,0,12.42-7.48,1.87,1.87,0,0,1,1.33-.51A2.16,2.16,0,0,1,16.3,42.2C13,45,6.36,48,2.16,49.1Zm38-12.71a2.07,2.07,0,0,1-2.19,2.13,1.83,1.83,0,0,1-2-2H26.19V47.84a2.17,2.17,0,0,1-4,1.15c-1.2-2-3.62-2.25-6-2.25a1.27,1.27,0,1,1,0-2.53,14.22,14.22,0,0,1,5.17.81.3.3,0,0,0,.46-.29V36.57H12.16A2,2,0,0,1,10,38.69a1.9,1.9,0,0,1-2-2V27a2.07,2.07,0,0,1,2.07-2.12,2,2,0,0,1,1.61.8H36.43A2,2,0,0,1,38,24.9,2.12,2.12,0,0,1,40.11,27ZM11.19,3.51V7.19H36.94V3.51Zm0,6.38v4H36.94v-4Zm1,18.51v5.41H36V28.4Zm20.93,10c.63.05,2.53.4,7.19,2.53a23.48,23.48,0,0,1,6.78,4.14A2.27,2.27,0,0,1,45.51,49a2.08,2.08,0,0,1-1.32-.46,45.57,45.57,0,0,0-12.13-7.25A1.53,1.53,0,0,1,33.09,38.41Z"/></svg>