<svg id="圖層_3" data-name="圖層 3" xmlns="http://www.w3.org/2000/svg" viewBox="0 0 51.7 51.54"><defs><style>.cls-1{fill:#221714;}</style></defs><path class="cls-1" d="M30.33,46.14a1.9,1.9,0,0,1-1.67,2.13c-.79,0-1.59-.69-1.59-2V46.2H19.9c0,1.44-.88,2.19-1.72,2.19s-1.54-.69-1.54-2V9.06a2,2,0,0,1,1.63-2.13,1.69,1.69,0,0,1,1.41,1H21A54.56,54.56,0,0,0,22.72,1.7c.22-1,.83-1.44,1.45-1.44a1.92,1.92,0,0,1,1.54,2.53,20.66,20.66,0,0,1-2,5.12h3.09A1.44,1.44,0,0,1,28.08,7c.84,0,1.59.8,1.59,2.07V22.28c0,1.38-.79,2.19-1.63,2.19s-1.41-.58-1.54-1.84H19.9v6.55h7.39A1.54,1.54,0,0,1,28.7,28c.79,0,1.63.75,1.63,2.13ZM19.9,10.73v9.08h6.6V10.73ZM19.9,32V43.27h7.17V32ZM48.8,3.37a1,1,0,0,0,.84-.64,1.05,1.05,0,0,1,1-.74c.57,0,1.09.51,1.09,1.43A2.68,2.68,0,0,1,49.2,6.3H42.29v7.82h5.06a1.4,1.4,0,0,1,1.23-.63,1.92,1.92,0,0,1,1.63,2.12V42.29c0,1.44-.84,2.24-1.63,2.24a1.65,1.65,0,0,1-1.45-1.15,2.2,2.2,0,0,0-1.19-1.32,5.58,5.58,0,0,0-1.8-.29c-1.32,0-1.32-2.47,0-2.47h.35a5.91,5.91,0,0,1,2,.35h.09c.22,0,.39-.23.39-.52V17.05H42.29V49a1.9,1.9,0,0,1-1.72,2.13c-.75,0-1.54-.69-1.54-2v-32H34.68V42.18c0,1.43-.84,2.24-1.72,2.24s-1.54-.69-1.54-2.13V15.61c0-1.2.7-2.12,1.63-2.12a1.21,1.21,0,0,1,1.14.63H39V6.3H31.15c-1.58,0-1.76-2.93,0-2.93Z"/><path class="cls-1" d="M14.9,34.88A116.67,116.67,0,0,0,13,16.81C11.88,10.76,4.32.52,4.32.52A1.82,1.82,0,0,0,1.24,2s7.7,9.05,8.33,16.53A101.79,101.79,0,0,1,11.38,35a26.19,26.19,0,0,1-1.06,8.91s-1.15,3.07-3,2.86c-3-1.06-4.18-.57-6.24-.57a1,1,0,1,0,0,2.06c2.23,0,4.84.14,6.09,1.8A1.86,1.86,0,0,0,9,51.53h.08a1.82,1.82,0,0,0,1.75-1.16C14.38,46.17,15,40.63,14.9,34.88Z"/><path class="cls-1" d="M3.58,35.15a1.2,1.2,0,0,1-.66.21,1.15,1.15,0,0,1-1-1.93c2.21-2.29,7.39-11.17,8-16.11.09-.72,1.17.94,1.74.92,1.15,0,1.91,1,1.61,2.58C12.73,24.07,5.59,34,3.58,35.15Z"/><path class="cls-1" d="M2.52,18.24C1,19.34-.89,17.45.45,16.07A99.12,99.12,0,0,0,11.11,1.74a2.38,2.38,0,0,1,.52-.68,2.11,2.11,0,0,1,3,2.76C12.8,7.37,5.66,15.8,2.52,18.24Z"/></svg>