<svg id="圖層_3" data-name="圖層 3" xmlns="http://www.w3.org/2000/svg" viewBox="0 0 50.16 50.92"><defs><style>.cls-1{fill:#221714;}</style></defs><path class="cls-1" d="M10.05,32.83a17.27,17.27,0,0,0-1.56,7v7.59A2.16,2.16,0,0,1,6.25,49.5a1.84,1.84,0,0,1-1.89-2V37.72c0-1.44-2-1.73-3-1.79a1.32,1.32,0,1,1-.06-2.64,9.33,9.33,0,0,1,4.42,1A.47.47,0,0,0,6.37,34L13.56,18.4a1.37,1.37,0,0,1,1.26-.86A1.29,1.29,0,0,1,16,19.43Zm-2.3-12a2.5,2.5,0,0,1-.69.06,32.34,32.34,0,0,1-5.46-.69,1.51,1.51,0,0,1,0-3,17.66,17.66,0,0,1,3.86-.46A12.81,12.81,0,0,1,8,17,2,2,0,0,1,7.75,20.81ZM5.05,2.36a18.65,18.65,0,0,1,5.4,2.81c1.78,1.38,3.39,3,1.72,4.6a2.06,2.06,0,0,1-1.49.64,1.94,1.94,0,0,1-1.27-.52A62.56,62.56,0,0,0,3.78,5.17,1.57,1.57,0,0,1,5.05,2.36ZM35.35,11V21.79h6.72a2.3,2.3,0,0,1,4.43,1.15c-1,6.21-5.18,13.22-9.37,17.77a47.32,47.32,0,0,0,12,6.26,1.51,1.51,0,0,1-.46,2.94c-.86,0-1.84.69-2.47.69a3.42,3.42,0,0,1-1-.18,34.13,34.13,0,0,1-11.09-7,33.8,33.8,0,0,1-14.38,7.41c-1.84.41-2.81-2.24-.92-2.87a38.33,38.33,0,0,0,12.6-7.13C28.1,37,25.11,32.71,24,27.66a1.67,1.67,0,0,1,1.61-2.07,1.44,1.44,0,0,1,1.44,1.15A28.41,28.41,0,0,0,34.2,38.12a34.84,34.84,0,0,0,7.18-13.34h-19c-.75,8.17-3.62,18.28-9.14,24.67a1.4,1.4,0,0,1-1.15.57,1.48,1.48,0,0,1-1.32-2.3,47.33,47.33,0,0,0,6.78-18.17,93.56,93.56,0,0,0,.63-13.62s0-3.86.06-6.39a2.1,2.1,0,0,1,2.18-2.18,2.3,2.3,0,0,1,1.67.69H31V2.13A2,2,0,0,1,33.05,0a2.18,2.18,0,0,1,2.3,2.24V8.05h10a2.44,2.44,0,0,1,1.55-.63A2.14,2.14,0,0,1,49,10.18,23.64,23.64,0,0,1,44.43,18a1.5,1.5,0,0,1-1.21.63,1.57,1.57,0,0,1-1.44-2.3A42.91,42.91,0,0,0,44.2,11ZM31,21.79V11H22.7v4.95c0,1.84,0,3.39-.12,5.86Z"/></svg>