<svg id="圖層_3" data-name="圖層 3" xmlns="http://www.w3.org/2000/svg" viewBox="0 0 45.25 49.73"><defs><style>.cls-1{fill:#221714;}</style></defs><path class="cls-1" d="M45.25,19.66a2.09,2.09,0,0,1-2.19,2.13,1.88,1.88,0,0,1-2-1.95V11.15H24.49V23.86A2.1,2.1,0,0,1,22.31,26a1.91,1.91,0,0,1-2-2V11.15h-16v8.51A2.1,2.1,0,0,1,2,21.79a1.93,1.93,0,0,1-2-2V9.89A2.12,2.12,0,0,1,3.74,8.51H20.3V4.37H5.52c-1.9,0-2.07-2.93-.12-2.93H37.66a.91.91,0,0,0,.86-.63A1.53,1.53,0,0,1,39.84,0a1.44,1.44,0,0,1,1.44,1.5,3.08,3.08,0,0,1-3.22,2.87H24.49V8.51h17a2.12,2.12,0,0,1,3.74,1.38ZM39.9,47.43a2.24,2.24,0,0,1-2.36,2.3,2,2,0,0,1-2.12-2.12H6.15c-1.9,0-2-3-.06-3H35.42V39H8.57c-1.9,0-2-2.93-.12-2.93h27V31.05H7c-1.9,0-2-2.88-.12-2.88h29a2.24,2.24,0,0,1,1.78-.86,2.34,2.34,0,0,1,2.24,2.36ZM14.32,15a1.22,1.22,0,0,0,1.09-.64,1.21,1.21,0,0,1,1-.63,1.31,1.31,0,0,1,1.33,1.32,2.78,2.78,0,0,1-2.94,2.53H8.28A1.29,1.29,0,0,1,8.22,15Zm-.18,6.15a1.31,1.31,0,0,0,1.1-.58,1.26,1.26,0,0,1,1.09-.74,1.32,1.32,0,0,1,1.38,1.38,2.9,2.9,0,0,1-3.05,2.64H8.45c-1.78,0-1.9-2.7-.11-2.7ZM35,15a1.1,1.1,0,0,0,1-.58,1.3,1.3,0,0,1,1.09-.63,1.29,1.29,0,0,1,1.27,1.32,2.73,2.73,0,0,1-2.93,2.47h-7c-1.66,0-1.78-2.58-.11-2.58Zm-.12,6.15a1.06,1.06,0,0,0,1-.58A1.27,1.27,0,0,1,37,20a1.31,1.31,0,0,1,1.32,1.38,2.77,2.77,0,0,1-2.93,2.53h-6.9c-1.72,0-1.84-2.7-.11-2.7Z"/></svg>