<svg id="圖層_3" data-name="圖層 3" xmlns="http://www.w3.org/2000/svg" viewBox="0 0 360.56 231.27"><defs><style>.cls-1{fill:#e9d32f;}</style></defs><path class="cls-1" d="M36.69,126.69c-2.62,23.27-2.77,88.75-18.61,95.52a6.61,6.61,0,0,1-2.17.44C7.64,223.37,3,207.11,1.09,185c-2.85-32.6.09-77.48,6.35-98.37C9,81.79,11,79.9,13,79.73c2.19-.19,3.82,1.63,4.06,4.3a5.33,5.33,0,0,1-.26,2.72C9.18,114.88,6,165.41,8.58,194.85,9.81,209,12.35,218.3,16.24,218a3.23,3.23,0,0,0,1.88-.9c15-10.87,14.1-74.29,17.61-101.32a2,2,0,0,1,1.8-1.87,2.12,2.12,0,0,1,2.36,1.75C40.15,118.54,56.43,226.21,82,224a12,12,0,0,0,4.52-1.62c8.61-5.17,10.6-30.1,7.77-62.46-3.24-37-12.7-83.47-26.46-120.27l-.06-.73a2.42,2.42,0,0,1,2-2.63c1-.08,1.75.34,2.12,1.78C86.15,83.87,95.35,127.44,98.33,161.5c2.83,32.36.23,55.88-8.55,64.74-2.93,2.95-6,4.69-9.37,5C64.11,232.65,44.2,201.3,36.69,126.69Z"/><path class="cls-1" d="M108.46,173.61C107.33,160.71,104.09,48,111,37.08a3.13,3.13,0,0,1,2.57-1.45c2.19-.19,4.75,1,5.09,4.95a16.2,16.2,0,0,1-.35,4.44c-.71,3-3.42,5.69-4,13.58-2.18,25.45-3,89-2.52,105.65,2.13-9.26,9.32-30.73,18.26-32.25l.73-.06c13.63-1.19,8.66,34.54,21.56,33.42l1.22-.11c9.36-2.29,22.53-19.87,26.48-25.12a1,1,0,0,1,.93-.57c.25,0,.25,0,.27.22a1.6,1.6,0,0,1-.38,1.26c-10.63,15.89-19.74,23.79-26.63,26.36l-2.87.74c-14.36,1.26-14.88-32.78-20.72-32.27-8.48,1.24-17.65,33.67-18,37.86a2,2,0,0,1-1.8,1.88A2.2,2.2,0,0,1,108.46,173.61Z"/><path class="cls-1" d="M222.42,161.92c-.66-7.54,1.34-18.26.73-25.31-.3-3.41-1.25-5.78-3-6.6l-4.66-2.78c-9.49,20.44-20.67,30-28.21,30.66-5.37.23-8.88-3.39-9.37-9a16.67,16.67,0,0,1,3.2-11.06c2.2-2.89,4.31-4.06,6-4.21a2.32,2.32,0,0,1,2.65,2.22c.32,3.65-5.63,8.59-8.13,10.77l.06.73c.45,5.11,2.39,7.63,6.54,7.52,6.82-.6,17.73-10.38,25.95-28.51a4.49,4.49,0,0,1-1.21-2.59,1.93,1.93,0,0,1,1.78-2.12,2,2,0,0,1,2.14,2l-.12,1.49c4.54,4.26,9.3,2.61,10,10.64.68,7.79-1.82,21.25-1.22,28.06.3,3.41,1.36,4.29,3.06,4.14,9-.78,25.34-32.61,29.77-35.21.24,0,.24,0,.27.22l-.18.76C254.09,140,237.76,169.16,228,170,224.62,170.31,222.87,167,222.42,161.92Zm-34.85-25.63c-1.22.1-4.33,3.81-5.71,7.61C185.21,140.17,187.63,137,187.57,136.29Z"/><path class="cls-1" d="M256.37,146.45a26.71,26.71,0,0,1-.85-4.09c-.77-8.76,4.92-16.61,8.57-16.93,1-.09,1.74.33,2.12,1.77l.32,1c.43,4.87-5.81,12-7.36,13.89.73,5.57,3.6,7.53,7.25,7.21,9.24-.81,24.42-15.13,28.46-19.41l.22-.26c.24,0,.53.44.55.69l-.2.5c-4.64,5.8-19.77,20.61-30.24,21.53C261.32,152.64,258.25,151.19,256.37,146.45Zm8-18.1a19.4,19.4,0,0,0-4.85,9c-.24,0-.2.51-.18.75C261,135.25,263.38,131.37,264.34,128.35Z"/><path class="cls-1" d="M287,14.57c-.53-6.08-.35-12.47-.35-12.47.38-1.26.8-2,1.53-2.1.49,0,1,.65,1.15,1.86l.41,7.57L291,20.84c.12,1.46-.3,2.23-1,2.3C288.25,23.29,287.36,18.71,287,14.57Z"/><path class="cls-1" d="M310.74,179.45a3.65,3.65,0,0,1-1.48-2.81c-.42-4.87,5.27-15.42,24.24-34-4-15.33-26.2-5.3-27.92-13.73l0-.49c-.37-4.14,4.77-12.68,10.12-13.15l.73-.06a3.39,3.39,0,0,1,3.22,3.15c.11,1.22-.29,2.23-1.75,2.36l-1.24-.13c-2.57,1.45-5.72,4.66-5.57,6.37.68,7.78,19.93-2,24.51,14,7-6.74,16.19-13.92,24.25-17.07l.49,0c.24,0,.24,0,.26.23l-.44.53c-9.15,4.72-16.49,10.51-23.94,17.78l.11,1.22c1.78,20.43-13,36-21.8,36.72A6.05,6.05,0,0,1,310.74,179.45Zm23.16-35.12c-17.84,17.49-23.34,27.53-22.95,31.91.17,1.95,1.45,2.57,3.39,2.4C320.91,178.07,335.22,165.05,333.9,144.33Z"/></svg>