<svg id="圖層_3" data-name="圖層 3" xmlns="http://www.w3.org/2000/svg" viewBox="0 0 282.56 231.24"><defs><style>.cls-1{fill:#e9d32f;}</style></defs><path class="cls-1" d="M49.73,228.27A8.36,8.36,0,0,1,46,221.73c-1.61-18.49,41.93-58.83,50.09-66.41-17.85-24.67-85.38-28.81-94-51.35a33.29,33.29,0,0,1-2-8.41c-3.21-36.74,57.73-82.77,85-85.15,5.11-.45,8.86.45,11.07,3.2a19.1,19.1,0,0,1,4.07,10.18c.43,4.87-.76,10.86-4.54,18.05a5.89,5.89,0,0,1-4.37,3.32,4.29,4.29,0,0,1-4.79-4.23l.3-2.24c.88-4,2.89-3.44,4.55-4.07a16.1,16.1,0,0,0,1.73-8.24,10.83,10.83,0,0,0-3.05-6.85c-1.86-1.55-4.35-2.07-7.76-1.77C59.93,19.72,6.23,61.68,9.06,94a23.63,23.63,0,0,0,1.59,7c7.89,20.15,69.23,26.31,88.34,51.36,5.72-4.67,29.07-23.63,37.33-27.29l1.2-.35c.24,0,.48,0,.5.2s-.44.53-1.13,1.08c-12.1,7.43-29.66,22.45-36.51,28.2a32.73,32.73,0,0,1,5,14.52c2.14,24.57-23,50.8-41.18,59a29.17,29.17,0,0,1-7.43,1.88C54,229.85,51.56,229.58,49.73,228.27Zm51.54-58.21a33.31,33.31,0,0,0-4.09-13.12c-34.89,32.72-49.34,55.31-48.51,64.8a4.54,4.54,0,0,0,1.25,3.08c1.1,1.37,3.11,1.93,5.79,1.7C70.55,225.22,103.68,197.56,101.27,170.06Z"/><path class="cls-1" d="M144.88,200.57c-1.22-5.53-3-18.12-5.95-45.57l-1.09-9.71c-2.74-31.38-3.84-66.35-4.3-94C108.36,55,73.76,60.19,51.45,65.81a14.54,14.54,0,0,1-3.14.52c-2.67.24-4-.38-4.06-1.6-.13-1.46,1.43-3.31,4.5-4.56a9.77,9.77,0,0,1,3.59-1.05c2.68-.24,4.95.55,5,1.28C67.93,58,82.47,56,101.6,53.34l32-4.52c-.3-17.38-.31-31.59-.59-40.4l-.67-4.84C132.18,2.12,134.46.2,136.65,0c1.46-.13,2.76.74,3,3.17l0,.49c-.15,3.94-.34,21.36-.31,44.16,17.92-2.55,37.3-5.23,56.52-6.91a390,390,0,0,1,51.35-1.55c1.22-.11,1.77.58,1.83,1.31.05.49-.4,1-1.37,1.1l-.49,0c-14.77-.66-33.08.2-51.57,1.82-19.95,1.75-40.32,4.26-56.29,6.64.28,34.05,1,79.34,3.95,112.43,1.34,15.33,3.2,28.16,5.6,36l.48,2.66c.19,2.19-.45,3.22-1.43,3.31S145.63,203.45,144.88,200.57Z"/><path class="cls-1" d="M189.27,167c-2.68.24-3.91-2.6-4.29-7-.83-9.48,1.88-26.15,1-36.37-.3-3.4-1-6.28-2.38-7.63s-3.66-2.62-5.56-4.67c-3.14,6.16-6.74,12.61-13.07,13.16l-2-.07c1.46,16.79-1.06,24.36-4.2,24.88-1.7.15-3.62-2.13-4.09-7.49-.38-4.37.23-14.23,3.51-18.69a2.33,2.33,0,0,1-1.4-2.08,2.87,2.87,0,0,1,2.44-2.91c1.46-.13,3,1,3.59,4.59l2.47.27c5.84-.51,9.93-7,11.9-12.56a11.91,11.91,0,0,1-1.89-4.74c-.21-2.44,1.18-3.29,3.13-3.46,1-.09,1.75.33,1.9,2a16,16,0,0,1-.57,4.71c2.75,3.43,7.15,3.29,8.73,7.32a26.64,26.64,0,0,1,1.32,6.75c1.07,12.17-2,32.78-1.41,39.84.17,1.95.45,2.41,1.18,2.35,3.89-.34,18.29-40.34,27.23-47.49l.24,0c.49,0,.75.17.77.42l-.22.26c-9.56,8.44-21.54,48-28.11,48.55Zm-27.89-38.5L161,126.6a45.35,45.35,0,0,0-1.8,15.84l.47,2.66C161.3,144.46,161.76,132.9,161.38,128.52Z"/><path class="cls-1" d="M223.94,216c-1.76-20.2,11.05-55.89,31.21-80.45-1.5-6-7.15-22.91-11.94-24.45l-.25,0c-3.65.32-13.16,34.49-22.16,35.28l-1.24-.14c-2.52-.76-3.59-4.59-4-9.21-.71-8,.59-18.44,1.09-21.18a3.5,3.5,0,0,1,3-2.71c1.21-.11,2.51.76,2.68,2.71l.07.73c-.42,6.41-2.68,19.84-2.25,24.71.1,1.22.15,1.7.65,1.9l.76.18c5.59-.49,12.48-22.66,13.46-25.45,3.08-9.58,5.68-13.49,8.36-13.72l1.24.14c5.81,1.94,11.69,21.53,13.26,28.26,11.05-11,13.77-13.47,23.7-20.47l.49,0c.24,0,.49,0,.53.45,0,.24-.2.5-.42.77-8.58,5.65-19.38,16.65-23.58,21.92A169.46,169.46,0,0,1,261.69,157c2.47,28.22.32,68.13-21,73.67l-2.9.5C229,232,224.8,225.7,223.94,216Zm35.2-57.27a149.19,149.19,0,0,0-3-20.33c-15.14,17.51-31.77,57.21-30,77.4.73,8.28,4.36,13.35,12.39,12.65l1-.09C259.63,223.14,261.46,185.22,259.14,158.7Z"/></svg>