<svg id="圖層_3" data-name="圖層 3" xmlns="http://www.w3.org/2000/svg" xmlns:xlink="http://www.w3.org/1999/xlink" viewBox="0 0 142.49 43.72"><defs><style>.cls-1,.cls-2{fill:none;}.cls-2{stroke:#fff;stroke-linecap:round;stroke-linejoin:round;stroke-width:0.3px;}.cls-3{fill:#fbd997;}.cls-4{opacity:0.5;fill:url(#New_Pattern_Swatch_7);}</style><pattern id="New_Pattern_Swatch_7" data-name="New Pattern Swatch 7" width="26.82" height="26.82" patternTransform="translate(51.34 8.37)" patternUnits="userSpaceOnUse" viewBox="0 0 26.82 26.82"><rect class="cls-1" width="26.82" height="26.82"/><path class="cls-2" d="M21.41,30.15a43,43,0,0,0,1.05-6.41,1,1,0,0,0-2.1,0A43,43,0,0,0,21.41,30.15Z"/><path class="cls-2" d="M31.18,34a2.66,2.66,0,0,0,0-3.73l-7.91-7.9a2.64,2.64,0,0,0-3.73,0l-7.9,7.9a2.64,2.64,0,0,0,0,3.73l7.9,7.91a2.66,2.66,0,0,0,3.73,0Z"/><path class="cls-2" d="M4.36,34a2.66,2.66,0,0,0,0-3.73l-7.91-7.9a2.64,2.64,0,0,0-3.73,0l-7.9,7.9a2.64,2.64,0,0,0,0,3.73l7.9,7.91a2.66,2.66,0,0,0,3.73,0Z"/><path class="cls-2" d="M32.73,18.83a43,43,0,0,0-6.41-1,1.05,1.05,0,1,0,0,2.1A43,43,0,0,0,32.73,18.83Z"/><path class="cls-2" d="M44.5,20.69a2.66,2.66,0,0,0,0-3.73l-7.91-7.9a2.64,2.64,0,0,0-3.73,0L25,17a2.64,2.64,0,0,0,0,3.73l7.9,7.91a2.64,2.64,0,0,0,3.73,0Z"/><path class="cls-2" d="M7.91,20.82a43.21,43.21,0,0,0-1,6.41,1,1,0,0,0,2.1,0A43.21,43.21,0,0,0,7.91,20.82Z"/><path class="cls-2" d="M7.91,16.83A43,43,0,0,0,9,10.43a1.05,1.05,0,1,0-2.1,0A43,43,0,0,0,7.91,16.83Z"/><path class="cls-2" d="M5.91,18.83a43,43,0,0,0-6.41-1,1,1,0,0,0-1,1A1,1,0,0,0-.5,19.88,43,43,0,0,0,5.91,18.83Z"/><path class="cls-2" d="M9.9,18.83a43.21,43.21,0,0,0,6.41,1.05,1,1,0,1,0,0-2.1A43.21,43.21,0,0,0,9.9,18.83Z"/><path class="cls-2" d="M8.69,19.61a23.93,23.93,0,0,0,2.1,2.93.59.59,0,0,0,.83,0,.57.57,0,0,0,0-.82A24,24,0,0,0,8.69,19.61Z"/><path class="cls-2" d="M7.12,18.05A23.93,23.93,0,0,0,5,15.12a.59.59,0,0,0-.83,0,.59.59,0,0,0,0,.82A24,24,0,0,0,7.12,18.05Z"/><path class="cls-2" d="M7.12,19.61a24,24,0,0,0-2.93,2.11.59.59,0,0,0,0,.82.59.59,0,0,0,.83,0A23.93,23.93,0,0,0,7.12,19.61Z"/><path class="cls-2" d="M8.69,18.05a24,24,0,0,0,2.93-2.11.57.57,0,0,0,0-.82.59.59,0,0,0-.83,0A23.93,23.93,0,0,0,8.69,18.05Z"/><path class="cls-2" d="M8.69,19.61a23.93,23.93,0,0,0,2.1,2.93.59.59,0,0,0,.83,0,.57.57,0,0,0,0-.82A24,24,0,0,0,8.69,19.61Z"/><path class="cls-2" d="M7.12,18.05A23.93,23.93,0,0,0,5,15.12a.59.59,0,0,0-.83,0,.59.59,0,0,0,0,.82A24,24,0,0,0,7.12,18.05Z"/><path class="cls-2" d="M7.12,19.61a24,24,0,0,0-2.93,2.11.59.59,0,0,0,0,.82.59.59,0,0,0,.83,0A23.93,23.93,0,0,0,7.12,19.61Z"/><path class="cls-2" d="M8.69,18.05a24,24,0,0,0,2.93-2.11.57.57,0,0,0,0-.82.59.59,0,0,0-.83,0A23.93,23.93,0,0,0,8.69,18.05Z"/><path class="cls-2" d="M17.67,20.69a2.64,2.64,0,0,0,0-3.73l-7.9-7.9A2.64,2.64,0,0,0,6,9.06L-1.86,17a2.64,2.64,0,0,0,0,3.73L6,28.6a2.64,2.64,0,0,0,3.73,0Z"/><path class="cls-2" d="M21.41,7.32a43.21,43.21,0,0,0-1.05,6.41,1.05,1.05,0,1,0,2.1,0A43.21,43.21,0,0,0,21.41,7.32Z"/><path class="cls-2" d="M21.41,3.33a43,43,0,0,0,1.05-6.41,1,1,0,0,0-1.05-1,1,1,0,0,0-1.05,1A43,43,0,0,0,21.41,3.33Z"/><path class="cls-2" d="M19.41,5.33a43,43,0,0,0-6.4-1,1.05,1.05,0,1,0,0,2.1A43,43,0,0,0,19.41,5.33Z"/><path class="cls-2" d="M23.4,5.33a43.21,43.21,0,0,0,6.41,1,1,1,0,1,0,0-2.1A43.21,43.21,0,0,0,23.4,5.33Z"/><path class="cls-2" d="M22.19,6.11A24,24,0,0,0,24.3,9a.57.57,0,0,0,.82,0,.59.59,0,0,0,0-.83A23.93,23.93,0,0,0,22.19,6.11Z"/><path class="cls-2" d="M20.63,4.54a24,24,0,0,0-2.11-2.93.59.59,0,0,0-.82,0,.59.59,0,0,0,0,.83A23.93,23.93,0,0,0,20.63,4.54Z"/><path class="cls-2" d="M20.63,6.11a23.93,23.93,0,0,0-2.93,2.1.59.59,0,0,0,0,.83.57.57,0,0,0,.82,0A24,24,0,0,0,20.63,6.11Z"/><path class="cls-2" d="M22.19,4.54a23.93,23.93,0,0,0,2.93-2.1.59.59,0,0,0,0-.83.59.59,0,0,0-.82,0A24,24,0,0,0,22.19,4.54Z"/><path class="cls-2" d="M22.19,6.11A24,24,0,0,0,24.3,9a.57.57,0,0,0,.82,0,.59.59,0,0,0,0-.83A23.93,23.93,0,0,0,22.19,6.11Z"/><path class="cls-2" d="M20.63,4.54a24,24,0,0,0-2.11-2.93.59.59,0,0,0-.82,0,.59.59,0,0,0,0,.83A23.93,23.93,0,0,0,20.63,4.54Z"/><path class="cls-2" d="M20.63,6.11a23.93,23.93,0,0,0-2.93,2.1.59.59,0,0,0,0,.83.57.57,0,0,0,.82,0A24,24,0,0,0,20.63,6.11Z"/><path class="cls-2" d="M22.19,4.54a23.93,23.93,0,0,0,2.93-2.1.59.59,0,0,0,0-.83.59.59,0,0,0-.82,0A24,24,0,0,0,22.19,4.54Z"/><path class="cls-2" d="M31.18,7.19a2.66,2.66,0,0,0,0-3.73l-7.91-7.9a2.64,2.64,0,0,0-3.73,0l-7.9,7.9a2.64,2.64,0,0,0,0,3.73l7.9,7.9a2.64,2.64,0,0,0,3.73,0Z"/><path class="cls-2" d="M-3.42,5.33A43.21,43.21,0,0,0,3,6.38a1,1,0,0,0,0-2.1A43.21,43.21,0,0,0-3.42,5.33Z"/><path class="cls-2" d="M4.36,7.19a2.66,2.66,0,0,0,0-3.73l-7.91-7.9a2.64,2.64,0,0,0-3.73,0l-7.9,7.9a2.64,2.64,0,0,0,0,3.73l7.9,7.9a2.64,2.64,0,0,0,3.73,0Z"/><path class="cls-2" d="M44.5-6.13a2.66,2.66,0,0,0,0-3.73l-7.91-7.9a2.64,2.64,0,0,0-3.73,0L25-9.86a2.64,2.64,0,0,0,0,3.73l7.9,7.91a2.66,2.66,0,0,0,3.73,0Z"/><path class="cls-2" d="M7.91-6a43.21,43.21,0,0,0-1,6.41A1,1,0,0,0,9,.41,43.21,43.21,0,0,0,7.91-6Z"/><path class="cls-2" d="M17.67-6.13a2.64,2.64,0,0,0,0-3.73l-7.9-7.9a2.64,2.64,0,0,0-3.73,0l-7.9,7.9a2.64,2.64,0,0,0,0,3.73L6,1.78a2.66,2.66,0,0,0,3.73,0Z"/></pattern></defs><path class="cls-3" d="M3.12,12.49H38.33a3.13,3.13,0,0,0,0-6.25H23.55a3.12,3.12,0,0,1,0-6.24h41.6a3.12,3.12,0,0,1,0,6.24H56.3a3.13,3.13,0,1,0,0,6.25h63.89a3.12,3.12,0,1,1,0,6.24H92A3.13,3.13,0,1,0,92,25h47.35a3.13,3.13,0,0,1,0,6.25H71.25a3.13,3.13,0,1,0,0,6.25H87.61a3.12,3.12,0,1,1,0,6.24H51.71a3.12,3.12,0,1,1,0-6.24h1.57a3.13,3.13,0,1,0,0-6.25H24.83a3.13,3.13,0,1,1,0-6.25h-.17a3.13,3.13,0,0,0,0-6.25H3.12a3.12,3.12,0,0,1,0-6.24Z"/><path class="cls-4" d="M3.12,12.49H38.33a3.13,3.13,0,0,0,0-6.25H23.55a3.12,3.12,0,0,1,0-6.24h41.6a3.12,3.12,0,0,1,0,6.24H56.3a3.13,3.13,0,1,0,0,6.25h63.89a3.12,3.12,0,1,1,0,6.24H92A3.13,3.13,0,1,0,92,25h47.35a3.13,3.13,0,0,1,0,6.25H71.25a3.13,3.13,0,1,0,0,6.25H87.61a3.12,3.12,0,1,1,0,6.24H51.71a3.12,3.12,0,1,1,0-6.24h1.57a3.13,3.13,0,1,0,0-6.25H24.83a3.13,3.13,0,1,1,0-6.25h-.17a3.13,3.13,0,0,0,0-6.25H3.12a3.12,3.12,0,0,1,0-6.24Z"/></svg>