<svg id="圖層_3" data-name="圖層 3" xmlns="http://www.w3.org/2000/svg" viewBox="0 0 220.24 207.65"><defs><style>.cls-1{fill:#e9d42f;}</style></defs><path class="cls-1" d="M62.8,205.32l-2.89-27.45c-1.49-17-2.54-34.59-3.1-52.2l-18.43,5-2.41.46c-2.68.23-4.49-.84-4.72-3.51l.05-2.22A2.88,2.88,0,0,1,34,122.52a2.85,2.85,0,0,1,2.89,2.2l.11,1.22c0,.48.06.73.3.71l.25,0C42,125,49,123.17,56.43,121.29c-.3-9-.38-18.35-.44-27.42L55.48,82.4c-1.9-21.66-8.8-38.95-33.62-36.78A86.7,86.7,0,0,0,2.87,50l-.48,0A2,2,0,0,1,0,48c-.07-.73.38-1.26,1.06-1.81,6.8-3.53,31.14-14,59-24,.39-4,.78-7.91,1.41-11.89.25-2.72,1.87-3.84,3.57-4a3.88,3.88,0,0,1,4.46,3.29L68.1,19.27c26.16-9.16,54.12-17.49,71.4-19,5.35-.47,9.77-.36,12.8.6,1,.4,1.81,1.06,1.85,1.55,0,.24-.45.53-.93.57L152,2.86a30.1,30.1,0,0,0-10.59-.55C123.87,3.84,93.85,13.83,67.73,23.47c-4.4,31-5.94,63.77-5.77,96.6,16.8-4.16,36.56-8.1,45.8-8.91l2.44-.21c2.19-.19,3.22.45,3.27.94.06.73-1.11,1.32-2.33,1.43l-3.43.06c-9.73.85-28.63,6.18-45.87,10.87.21,27.69,1.62,55,3.88,80.81a2.28,2.28,0,0,1-1.49,2.59C63.74,207.69,63,207,62.8,205.32ZM59.41,26.4c-16.85,6.38-31.07,12-37.93,14.84,21.16-1.85,30.7,9.08,35.23,24.38C57,51.86,58,38.78,59.41,26.4Z"/><path class="cls-1" d="M122.53,165c-2.44.22-3.46-3.12-3.81-7a34.41,34.41,0,0,1,.23-8.6c.37-4.2,1.18-8.93,2.21-11.22l-.62-1.42a2.27,2.27,0,0,1,2-2.63c1.22-.1,3,1,4.83,4.73a27.4,27.4,0,0,0,9.88.85,40.19,40.19,0,0,0,14.12-3.93l.46-.28.29.46c0,.24-.2.51-.42.77-3,2-9.5,3.53-15.34,4a29.21,29.21,0,0,1-8.6-.23l.46,2.41c.55,6.33-.89,20.68-4.94,22Zm3.39-22.85c-.06-.73-.13-1.46-.39-1.68-1.46,5.77-2,16.6-1.73,19.52l.31.71C124.84,160.66,126.37,147.29,125.92,142.18Z"/><path class="cls-1" d="M152,162.46c-2.43.21-3.46-3.13-3.8-7a33.9,33.9,0,0,1,.23-8.6c.37-4.2,1.18-8.93,2.21-11.23l-.62-1.42a2.25,2.25,0,0,1,2-2.62c1.21-.11,3,1,4.82,4.73a27.62,27.62,0,0,0,9.88.85,40.63,40.63,0,0,0,14.13-3.93l.46-.29.29.46c0,.25-.2.51-.43.78-3,2-9.49,3.52-15.33,4a29.55,29.55,0,0,1-8.6-.23l.45,2.41c.56,6.33-.89,20.67-4.94,22Zm3.4-22.85c-.07-.73-.13-1.46-.39-1.68-1.46,5.76-2,16.59-1.73,19.51l.31.71C154.28,158.09,155.8,144.72,155.36,139.61Z"/><path class="cls-1" d="M216.93,179.33c-2.84-1.71-6.26-12.69-8.24-35.32-.8-9.24-1.54-20.46-1.49-33.94-.79,2.27-2.24,8-3.07,9.82a2.15,2.15,0,0,1,1.13,1.62c0,.49-.18.75-1.4.86l-.73.06C196,138.51,188.91,156,183,158.52l-1.69.39c-2.92.26-4.65-2.78-5-7.16-1-11.19,6.1-31.18,21.19-32.5l3.93.15a94.1,94.1,0,0,0,6.26-20.9c.37-9.84,2.29-74.73,6.61-75.84.49,0,.79.67,1,2.85a105.3,105.3,0,0,1,0,14c-.33,13-2.51,35.77-3.9,56.24-1,8.18-1.35,32.23.37,51.94,1,11.68,2.65,21.83,5.53,26.73a9.43,9.43,0,0,0,2.38,2,3.34,3.34,0,0,1,.61,1.42,1.92,1.92,0,0,1-1.77,2.11A2.1,2.1,0,0,1,216.93,179.33Zm-16.54-57.39-1.48-.12c-10.95,1-18.68,24.68-18,32,.12,1.46.68,2.15,1.4,2.08l.49,0C185.13,154.9,192.79,138.78,200.39,121.94Z"/></svg>