<svg id="圖層_3" data-name="圖層 3" xmlns="http://www.w3.org/2000/svg" viewBox="0 0 240.37 204.31"><defs><style>.cls-1{fill:#e9d32f;}</style></defs><path class="cls-1" d="M19.86,201.13c-2.63-18.89-4.25-31.75-5.46-45.62-.58-6.57-.93-13.4-1.37-21.21-4.83-2-7.84-2.74-11.66-4.37-1-.4-1.3-.87-1.36-1.6a3.55,3.55,0,0,1,.78-2.27c5.08-6.33,6.77-6.72,11.36-13C11.07,75.39,12.53,27.7,14.3,3,14.39,1.31,16.25.16,18,0a3.4,3.4,0,0,1,3.73,3.35l.11,1.22C19.92,28,15.74,72.78,16.37,108,34.19,84.65,50.68,60.16,65.81,37c2.87-3.68,4.92-8.27,7.3-11.91a3.08,3.08,0,0,1,2.28-1.92,2.76,2.76,0,0,1,2.69,2.71,3.25,3.25,0,0,1-.32,2c-16,27.63-38.36,57.54-61.41,85.54.56,6.33.54,11.72.89,18.55,37.52,14.13,96.33,24.92,136.44,37.84a2,2,0,0,1,1.84-1.39,2.89,2.89,0,0,1,2.91,2.44,3.94,3.94,0,0,1-.56,2,4.41,4.41,0,0,1-2.35,1.19,5.66,5.66,0,0,1-2.74-.5c-17.1-4.88-95.37-25.24-135.48-38.16l1,13.89c1.44,16.55,3.57,29.6,6.46,51.41l0,.24c.19,2.19-.94,3.27-1.92,3.36C21.37,204.43,20.05,203.32,19.86,201.13Zm-7.5-82.95c-3.33,4-5.19,5.12-9,9.37L13,130.88C12.57,126.25,12.5,122.58,12.36,118.18Z"/><path class="cls-1" d="M122,150c-.91-10.46,1.44-25.62,1-31-.58-3.87-5.53-4.41-9.11-6.06-4,13.1-11.9,32.17-20.41,32.92-4.89.18-7-3.81-7.74-12.81l-.38-12.71a2,2,0,0,1,1.8-1.88A1.88,1.88,0,0,1,89.25,120l0,.24a83.8,83.8,0,0,0-.23,14.24c.72,8.27,2.33,9.85,4.79,9.88,8-.71,15.89-23,18.77-32.05a5.65,5.65,0,0,1-1-2.61c-.21-2.43,1.35-4.28,2.32-4.37.73-.06,1.26.38,1.36,1.6a10.88,10.88,0,0,1-.61,4.22c6.87,2.83,11.19,1.72,12,8.51.63,7.3-1.81,24.18-1,33.18.36,4.14,1,5.56,2.94,5.63,6.81-.59,23.45-34.66,30.46-41.4l.46-.28a.52.52,0,0,1,.53.44l-.42.77c-6.37,5.71-22.83,41.71-31.35,42.46C124.19,160.62,122.63,156.83,122,150Zm-36-38.53a2.87,2.87,0,0,1,2.19-2.89,1.55,1.55,0,0,1,1.86,1.55c.1,1.22-.5,2.74-1.47,2.83C86.67,112.91,86.12,112.22,86.06,111.49Z"/><path class="cls-1" d="M159.38,128.61a123.86,123.86,0,0,1-.52-14.42c.42-.77,1.53-2.09,2.5-2.18a2.85,2.85,0,0,1,2.65,2.22l-.2.51c-1.48,5.52-1.43,11.65-1,16.76s1.32,9.44,1.53,11.88c.07.73.11,1.21-.11,1.48l-.69.55C161.6,145.58,160.11,136.88,159.38,128.61Zm2.35-26.44a19.54,19.54,0,0,1-.44-2.17c-.1-1.21.06-2.21,1.27-2.31l.49,0A1.3,1.3,0,0,1,164.64,99c.13,1.46-.9,3.75-1.87,3.84C162.28,102.86,162,102.64,161.73,102.17Z"/><path class="cls-1" d="M179.74,142.76c-.53-.44-1-2.85-1.26-6-.6-6.82-.58-17.85-.11-20.83.66-3.74-.36-4.14.89-6.7a2.66,2.66,0,0,1,2.31-1.67,2.18,2.18,0,0,1,2.38,2l-.14,1.23c-1.41,6.26-.75,13.8-.45,22.84,3.45-8.15,10.34-24.68,18.86-25.43,8-.7,4.45,22.9,15,22.47,6.08-.53,14.49-10.83,22.2-20.82l.46-.28a.52.52,0,0,1,.53.44l-.2.51c-5.26,7.08-14.68,19.92-22.89,21.37l-.73.06c-12.65,1.11-9.66-20.73-14.28-20.32-8,.7-17.72,30-19.12,30.85a3.16,3.16,0,0,1-1.91.65A1.75,1.75,0,0,1,179.74,142.76Z"/></svg>