<svg id="圖層_3" data-name="圖層 3" xmlns="http://www.w3.org/2000/svg" xmlns:xlink="http://www.w3.org/1999/xlink" viewBox="0 0 97.2 39.16"><defs><style>.cls-1,.cls-2{fill:none;}.cls-2{stroke:#fff;stroke-linecap:round;stroke-linejoin:round;stroke-width:0.3px;}.cls-3{fill:#e5e5e5;}.cls-4{opacity:0.5;fill:url(#New_Pattern_Swatch_7);}.cls-5{fill:#f1d89f;}.cls-6{opacity:0.7;fill:url(#New_Pattern_Swatch_4);}</style><pattern id="New_Pattern_Swatch_7" data-name="New Pattern Swatch 7" width="26.82" height="26.82" patternTransform="translate(1.44 55.36)" patternUnits="userSpaceOnUse" viewBox="0 0 26.82 26.82"><rect class="cls-1" width="26.82" height="26.82"/><path class="cls-2" d="M21.41,30.15a43,43,0,0,0,1.05-6.41,1,1,0,0,0-2.1,0A43,43,0,0,0,21.41,30.15Z"/><path class="cls-2" d="M31.18,34a2.66,2.66,0,0,0,0-3.73l-7.91-7.9a2.64,2.64,0,0,0-3.73,0l-7.9,7.9a2.64,2.64,0,0,0,0,3.73l7.9,7.91a2.66,2.66,0,0,0,3.73,0Z"/><path class="cls-2" d="M4.36,34a2.66,2.66,0,0,0,0-3.73l-7.91-7.9a2.64,2.64,0,0,0-3.73,0l-7.9,7.9a2.64,2.64,0,0,0,0,3.73l7.9,7.91a2.66,2.66,0,0,0,3.73,0Z"/><path class="cls-2" d="M32.73,18.83a43,43,0,0,0-6.41-1,1.05,1.05,0,1,0,0,2.1A43,43,0,0,0,32.73,18.83Z"/><path class="cls-2" d="M44.5,20.69a2.66,2.66,0,0,0,0-3.73l-7.91-7.9a2.64,2.64,0,0,0-3.73,0L25,17a2.64,2.64,0,0,0,0,3.73l7.9,7.91a2.64,2.64,0,0,0,3.73,0Z"/><path class="cls-2" d="M7.91,20.82a43.21,43.21,0,0,0-1,6.41,1,1,0,0,0,2.1,0A43.21,43.21,0,0,0,7.91,20.82Z"/><path class="cls-2" d="M7.91,16.83A43,43,0,0,0,9,10.43a1.05,1.05,0,1,0-2.1,0A43,43,0,0,0,7.91,16.83Z"/><path class="cls-2" d="M5.91,18.83a43,43,0,0,0-6.41-1,1,1,0,0,0-1,1A1,1,0,0,0-.5,19.88,43,43,0,0,0,5.91,18.83Z"/><path class="cls-2" d="M9.9,18.83a43.21,43.21,0,0,0,6.41,1.05,1,1,0,1,0,0-2.1A43.21,43.21,0,0,0,9.9,18.83Z"/><path class="cls-2" d="M8.69,19.61a23.93,23.93,0,0,0,2.1,2.93.59.59,0,0,0,.83,0,.57.57,0,0,0,0-.82A24,24,0,0,0,8.69,19.61Z"/><path class="cls-2" d="M7.12,18.05A23.93,23.93,0,0,0,5,15.12a.59.59,0,0,0-.83,0,.59.59,0,0,0,0,.82A24,24,0,0,0,7.12,18.05Z"/><path class="cls-2" d="M7.12,19.61a24,24,0,0,0-2.93,2.11.59.59,0,0,0,0,.82.59.59,0,0,0,.83,0A23.93,23.93,0,0,0,7.12,19.61Z"/><path class="cls-2" d="M8.69,18.05a24,24,0,0,0,2.93-2.11.57.57,0,0,0,0-.82.59.59,0,0,0-.83,0A23.93,23.93,0,0,0,8.69,18.05Z"/><path class="cls-2" d="M8.69,19.61a23.93,23.93,0,0,0,2.1,2.93.59.59,0,0,0,.83,0,.57.57,0,0,0,0-.82A24,24,0,0,0,8.69,19.61Z"/><path class="cls-2" d="M7.12,18.05A23.93,23.93,0,0,0,5,15.12a.59.59,0,0,0-.83,0,.59.59,0,0,0,0,.82A24,24,0,0,0,7.12,18.05Z"/><path class="cls-2" d="M7.12,19.61a24,24,0,0,0-2.93,2.11.59.59,0,0,0,0,.82.59.59,0,0,0,.83,0A23.93,23.93,0,0,0,7.12,19.61Z"/><path class="cls-2" d="M8.69,18.05a24,24,0,0,0,2.93-2.11.57.57,0,0,0,0-.82.59.59,0,0,0-.83,0A23.93,23.93,0,0,0,8.69,18.05Z"/><path class="cls-2" d="M17.67,20.69a2.64,2.64,0,0,0,0-3.73l-7.9-7.9A2.64,2.64,0,0,0,6,9.06L-1.86,17a2.64,2.64,0,0,0,0,3.73L6,28.6a2.64,2.64,0,0,0,3.73,0Z"/><path class="cls-2" d="M21.41,7.32a43.21,43.21,0,0,0-1.05,6.41,1.05,1.05,0,1,0,2.1,0A43.21,43.21,0,0,0,21.41,7.32Z"/><path class="cls-2" d="M21.41,3.33a43,43,0,0,0,1.05-6.41,1,1,0,0,0-1.05-1,1,1,0,0,0-1.05,1A43,43,0,0,0,21.41,3.33Z"/><path class="cls-2" d="M19.41,5.33a43,43,0,0,0-6.4-1,1.05,1.05,0,1,0,0,2.1A43,43,0,0,0,19.41,5.33Z"/><path class="cls-2" d="M23.4,5.33a43.21,43.21,0,0,0,6.41,1,1,1,0,1,0,0-2.1A43.21,43.21,0,0,0,23.4,5.33Z"/><path class="cls-2" d="M22.19,6.11A24,24,0,0,0,24.3,9a.57.57,0,0,0,.82,0,.59.59,0,0,0,0-.83A23.93,23.93,0,0,0,22.19,6.11Z"/><path class="cls-2" d="M20.63,4.54a24,24,0,0,0-2.11-2.93.59.59,0,0,0-.82,0,.59.59,0,0,0,0,.83A23.93,23.93,0,0,0,20.63,4.54Z"/><path class="cls-2" d="M20.63,6.11a23.93,23.93,0,0,0-2.93,2.1.59.59,0,0,0,0,.83.57.57,0,0,0,.82,0A24,24,0,0,0,20.63,6.11Z"/><path class="cls-2" d="M22.19,4.54a23.93,23.93,0,0,0,2.93-2.1.59.59,0,0,0,0-.83.59.59,0,0,0-.82,0A24,24,0,0,0,22.19,4.54Z"/><path class="cls-2" d="M22.19,6.11A24,24,0,0,0,24.3,9a.57.57,0,0,0,.82,0,.59.59,0,0,0,0-.83A23.93,23.93,0,0,0,22.19,6.11Z"/><path class="cls-2" d="M20.63,4.54a24,24,0,0,0-2.11-2.93.59.59,0,0,0-.82,0,.59.59,0,0,0,0,.83A23.93,23.93,0,0,0,20.63,4.54Z"/><path class="cls-2" d="M20.63,6.11a23.93,23.93,0,0,0-2.93,2.1.59.59,0,0,0,0,.83.57.57,0,0,0,.82,0A24,24,0,0,0,20.63,6.11Z"/><path class="cls-2" d="M22.19,4.54a23.93,23.93,0,0,0,2.93-2.1.59.59,0,0,0,0-.83.59.59,0,0,0-.82,0A24,24,0,0,0,22.19,4.54Z"/><path class="cls-2" d="M31.18,7.19a2.66,2.66,0,0,0,0-3.73l-7.91-7.9a2.64,2.64,0,0,0-3.73,0l-7.9,7.9a2.64,2.64,0,0,0,0,3.73l7.9,7.9a2.64,2.64,0,0,0,3.73,0Z"/><path class="cls-2" d="M-3.42,5.33A43.21,43.21,0,0,0,3,6.38a1,1,0,0,0,0-2.1A43.21,43.21,0,0,0-3.42,5.33Z"/><path class="cls-2" d="M4.36,7.19a2.66,2.66,0,0,0,0-3.73l-7.91-7.9a2.64,2.64,0,0,0-3.73,0l-7.9,7.9a2.64,2.64,0,0,0,0,3.73l7.9,7.9a2.64,2.64,0,0,0,3.73,0Z"/><path class="cls-2" d="M44.5-6.13a2.66,2.66,0,0,0,0-3.73l-7.91-7.9a2.64,2.64,0,0,0-3.73,0L25-9.86a2.64,2.64,0,0,0,0,3.73l7.9,7.91a2.66,2.66,0,0,0,3.73,0Z"/><path class="cls-2" d="M7.91-6a43.21,43.21,0,0,0-1,6.41A1,1,0,0,0,9,.41,43.21,43.21,0,0,0,7.91-6Z"/><path class="cls-2" d="M17.67-6.13a2.64,2.64,0,0,0,0-3.73l-7.9-7.9a2.64,2.64,0,0,0-3.73,0l-7.9,7.9a2.64,2.64,0,0,0,0,3.73L6,1.78a2.66,2.66,0,0,0,3.73,0Z"/></pattern><pattern id="New_Pattern_Swatch_4" data-name="New Pattern Swatch 4" width="36.03" height="36.03" patternTransform="translate(65.97 74.16)" patternUnits="userSpaceOnUse" viewBox="0 0 36.03 36.03"><rect class="cls-1" width="36.03" height="36.03"/><path class="cls-2" d="M12.22,12.22c0-4.76,2.6-8.62,5.8-8.62s5.79,3.86,5.79,8.62c4.76,0,8.62,2.6,8.62,5.8s-3.86,5.79-8.62,5.79c0,4.76-2.59,8.62-5.79,8.62s-5.8-3.86-5.8-8.62C7.46,23.81,3.6,21.22,3.6,18S7.46,12.22,12.22,12.22Z"/><path class="cls-2" d="M10.69,10.69C10.69,5.9,14,2,18,2s7.33,3.88,7.33,8.67C30.13,10.69,34,14,34,18s-3.88,7.33-8.66,7.33C25.35,30.13,22.06,34,18,34s-7.33-3.88-7.33-8.66C5.9,25.35,2,22.06,2,18S5.9,10.69,10.69,10.69Z"/><path class="cls-2" d="M18,20.33s-2,4.27-2,6.1a2,2,0,0,0,4.07,0C20.05,24.6,18,20.33,18,20.33Z"/><path class="cls-2" d="M18,15.7s2-4.26,2-6.09a2,2,0,0,0-4.07,0C16,11.44,18,15.7,18,15.7Z"/><path class="cls-2" d="M15.7,18s-4.26-2-6.09-2a2,2,0,0,0,0,4.07C11.44,20.05,15.7,18,15.7,18Z"/><path class="cls-2" d="M20.33,18s4.27,2,6.1,2a2,2,0,0,0,0-4.07C24.6,16,20.33,18,20.33,18Z"/><circle class="cls-2" cx="18.02" cy="18.02" r="0.97"/><circle class="cls-2" cx="34.01" cy="2.02" r="0.97"/><circle class="cls-2" cx="34.01" cy="34.2" r="0.97"/><circle class="cls-2" cx="2.02" cy="2.02" r="0.97" transform="translate(-0.14 0.15) rotate(-4.07)"/><circle class="cls-2" cx="2.02" cy="34.2" r="0.97"/><rect class="cls-1" width="36.03" height="36.03"/></pattern></defs><path class="cls-3" d="M20.58,30.07h6.53a2.27,2.27,0,0,1,0,4.54H2.26a2.28,2.28,0,0,0,0,4.55H52.07a2.28,2.28,0,0,0,0-4.55H40.17a2.27,2.27,0,0,1,0-4.54H94.93a2.27,2.27,0,0,0,0-4.54H55.87a2.27,2.27,0,1,1,0-4.54H69.54a2.28,2.28,0,0,0,0-4.55H41.66a2.28,2.28,0,0,0,0,4.55H42.8a2.27,2.27,0,1,1,0,4.54H20.58a2.27,2.27,0,0,0,0,4.54Z"/><path class="cls-4" d="M20.58,30.07h6.53a2.27,2.27,0,0,1,0,4.54H2.26a2.28,2.28,0,0,0,0,4.55H52.07a2.28,2.28,0,0,0,0-4.55H40.17a2.27,2.27,0,0,1,0-4.54H94.93a2.27,2.27,0,0,0,0-4.54H55.87a2.27,2.27,0,1,1,0-4.54H69.54a2.28,2.28,0,0,0,0-4.55H41.66a2.28,2.28,0,0,0,0,4.55H42.8a2.27,2.27,0,1,1,0,4.54H20.58a2.27,2.27,0,0,0,0,4.54Z"/><path class="cls-5" d="M50.93,8.52H44.81a2.13,2.13,0,0,1,0-4.26h9.55a2.13,2.13,0,1,0,0-4.26h-33a2.13,2.13,0,1,0,0,4.26H32.55a2.13,2.13,0,1,1,0,4.26h-20a2.13,2.13,0,0,0,0,4.26h5.25a2.13,2.13,0,0,1,0,4.26H16a2.13,2.13,0,0,0,0,4.26H31.16a2.13,2.13,0,0,0,0-4.26H30.09a2.13,2.13,0,1,1,0-4.26H50.93a2.13,2.13,0,0,0,0-4.26Z"/><path class="cls-6" d="M50.93,8.52H44.81a2.13,2.13,0,0,1,0-4.26h9.55a2.13,2.13,0,1,0,0-4.26h-33a2.13,2.13,0,1,0,0,4.26H32.55a2.13,2.13,0,1,1,0,4.26h-20a2.13,2.13,0,0,0,0,4.26h5.25a2.13,2.13,0,0,1,0,4.26H16a2.13,2.13,0,0,0,0,4.26H31.16a2.13,2.13,0,0,0,0-4.26H30.09a2.13,2.13,0,1,1,0-4.26H50.93a2.13,2.13,0,0,0,0-4.26Z"/></svg>