<svg id="圖層_3" data-name="圖層 3" xmlns="http://www.w3.org/2000/svg" viewBox="0 0 448.56 229.16"><defs><style>.cls-1{fill:#e9d32f;}</style></defs><path class="cls-1" d="M97.56,207.44a23,23,0,0,1-2.49-8.85l-.35-6.83-1.61-15.55c-1.87-21.41-2.52-45.63-3.14-69.6v-5.39c-17.16,2.72-39.16,6.36-56.68,10.59-.48,30.94.4,63.47,2.23,84.39l.75,8.52c.12,1.46-.54,2.25-1.27,2.31s-1.53-.6-1.63-1.82l-1.56-15.06c-2-22.63-3.19-50.47-3.32-77.18-9.83,2.57-18.16,5.51-22.83,8.13a7.39,7.39,0,0,1-3.3,1.51A2,2,0,0,1,0,120.86c-.13-1.46.94-3.27,3.77-4.5,3.79-1.56,12.91-3.83,24.72-6.09-.31-26,.71-50.81,2.58-68.63-1.46.13-2.07-1.28-2.24-3.23-.49-5.6,3.21-16.46,5.56-17.65a4.67,4.67,0,0,1,1.68-.39c2-.17,3.14,2.18,3.39,5.1A17.5,17.5,0,0,1,39,30.9c-3.54,12.82-5.42,44.61-5.89,78.48,17.84-3.52,39.57-7.38,57-10.13-.8-45.53,1-86.88,3.53-96.91C94,.84,94.62.05,95.1,0c.73-.06,1.28.63,1.39,1.84a6.3,6.3,0,0,1-.34,1.75c-2.57,9.79-2.73,50-2,95.05,11.84-2,21-3.31,23.72-3.54,1.46-.13,2,.31,2,1,0,.49-.38,1.26-1.84,1.39-2.68.23-11.9,1.29-24,3.08,0,25.5,1.56,48.65,3.47,70.55,1.07,12.16,2.31,23.58,3.89,33.25l0,.24c.17,1.95-.91,3.51-2.37,3.64A1.78,1.78,0,0,1,97.56,207.44Z"/><path class="cls-1" d="M155.15,151.17c-.66-7.55,1.35-18.26.73-25.32-.3-3.41-1.24-5.77-3-6.6l-4.65-2.78c-9.49,20.44-20.67,30-28.21,30.66-5.38.23-8.88-3.39-9.37-9a16.62,16.62,0,0,1,3.2-11.07c2.2-2.89,4.3-4,6-4.2a2.29,2.29,0,0,1,2.64,2.22c.32,3.65-5.62,8.58-8.13,10.76l.07.73c.44,5.11,2.38,7.64,6.54,7.52,6.81-.6,17.72-10.38,25.94-28.51a4.54,4.54,0,0,1-1.2-2.59,1.92,1.92,0,0,1,1.77-2.11,2,2,0,0,1,2.14,2l-.12,1.48c4.54,4.26,9.3,2.62,10,10.64.68,7.79-1.82,21.25-1.22,28.06.29,3.41,1.35,4.3,3,4.15,9-.79,25.34-32.62,29.78-35.22.24,0,.24,0,.26.23l-.18.75c-4.35,6.26-20.68,35.39-30.42,36.25C157.36,159.55,155.6,156.28,155.15,151.17ZM120.3,125.53c-1.21.11-4.32,3.81-5.7,7.61C118,129.41,120.37,126.26,120.3,125.53Z"/><path class="cls-1" d="M279.11,189.35c-1.52-6.24-2.47-14.24-3.26-23.25-2-22.87-2.38-52.5-3.31-79.88-.91-18.79-1.52-34.19-2.3-45.89-6.79.84-14.53,2-22.52,3.2-3.21,8.13-6.78,17.75-10.95,28.91C231.66,86.86,213,147.82,200.07,149c-4.14.36-8-2-9.41-17.81l-.72-8.27c-.17-2,.28-5.17,2.47-5.36a2.22,2.22,0,0,1,2.61,1.73c.25,2.92-.64,4-.42,6.41l.35,6.83c.94,10.71,2.76,14.72,5.19,14.51,12.17-1.07,30.06-62.7,45.66-103-21,3.32-44.25,7.06-60.54,11.43l-.73.06c-1.7.15-2.47-.27-2.54-1-.13-1.46,2.58-4.15,7.43-4.82,13.94-3.18,30-4.34,57.36-8.45,7.25-18,14-31.13,19.06-31.58,5.15,0,7,7.24,8.41,23.29l.36,4.14c19.36-2.92,39.71-5.68,59.91-7.45,15.08-1.32,30.21-2.15,44.73-1.46,2.68-.23,4,.63,4.07,1.61.06.73-.85,1.54-2.07,1.65l-.24,0c-14.77-.67-33.08.2-51.57,1.81-19.22,1.69-38.86,4.14-54.59,6.5,1.46,30.76,2.65,83.61,5.68,118.16,1.19,13.62,2.77,23.29,4.22,31.5a2.73,2.73,0,0,1-2.7,2.69C280.83,192.15,279.55,191.52,279.11,189.35Zm-88.38-82.73a2,2,0,0,1,1.75-2.36c1.22-.11,1.75.34,1.83,1.31.13,1.46-1.16,3.54-2.13,3.62C191.69,109.23,190.92,108.81,190.73,106.62ZM270,37.9l-.4-4.62c-1.2-13.63-2.76-20.35-5.68-20.1-3.17.28-7.77,9.26-15.22,27.81C255.25,39.93,262.51,38.8,270,37.9Z"/><path class="cls-1" d="M291.93,134.05c-3.5-.67-4.75-3.75-5-6.91a20.79,20.79,0,0,1,.48-5.69c1.64-6.51,8.26-17.63,16.05-18.32l1-.08c3,.23,5.15,2.74,5.32,4.68a2.64,2.64,0,0,1-2.69,2.93c1.8,3.77,4.73,14.79,14.32,15.18l3.43-.06c4.62-.4,11.73-3.23,22.3-16.9l.93-.58.51.21-.4,1c-5.72,10.31-15.79,18.54-25.52,19.4l-1,.08c-6.13.05-12.53-3.07-15.83-12.83-2.15,6.31-6.08,17.44-12.16,18Zm9-17.7,1.81-4.57a2.66,2.66,0,0,1,2.3-1.67c-.26-.23-.79-.67-.84-1.16l-.24,0c-4.38.39-12.32,13.34-11.93,17.72a1.75,1.75,0,0,0,1.12,1.62l.75.18C296.81,128.23,299.38,121.14,300.92,116.35Z"/><path class="cls-1" d="M347,228.28c-3.57-1.65-5.35-5.17-5.76-9.79C339.4,197.56,365.82,152.1,378.8,135a87.94,87.94,0,0,0-.4-13c-.94-10.7-3.24-23-6.89-22.68-1,.08-1.66.63-2.53,1.93-.08,4.67-1.53,7.74-2.5,7.82l-.57-.93.14-3.93c-3.71,5.22-16.51,24.24-22.1,24.73-1.22.11-2.28-.78-2.49-3.21l0-.25c-.56-6.32,9.27-28.51,18.33-31.51l2.41-.46c3.89-.34,6.27,1.66,6.5,4.34,1.8-1.88,3.2-2.73,4.66-2.86,5.59-.49,8.1,11.3,9.18,23.71l.72,11c15.05-18.48,24.05-24.9,27.31-26.91l.24,0c.49,0,.75.18.77.43l-.44.53c-10.35,7.77-19.05,17.6-27.83,29.4-.05,7.85-1.55,21.46-2.53,29.88-4,29.78-15.41,64.85-29.28,66.06A7.5,7.5,0,0,1,347,228.28Zm29.57-65.59c.93-6.21,1.63-17.8,1.85-23.7-12.56,19-32.92,55.34-34.64,74.86l0,3.19c.47,5.35,3.22,8.79,6.87,8.47C358.46,224.83,370.32,209.08,376.56,162.69Zm-10.87-62.55,0-.49c-.23-2.67-1-3.58-2.27-3.48-5.35.47-18.13,25.37-17.83,28.78a.24.24,0,0,0,.27.22C347,124.82,356.05,113.24,365.69,100.14Z"/><path class="cls-1" d="M409.28,116.43a28,28,0,0,1-.85-4.09c-.76-8.76,4.93-16.62,8.58-16.94,1-.08,1.74.34,2.11,1.78l.33.95c.43,4.87-5.81,12-7.37,13.89.74,5.57,3.6,7.53,7.25,7.21,9.25-.81,24.42-15.13,28.46-19.41l.22-.26c.25,0,.53.44.55.68l-.2.51c-4.64,5.8-19.77,20.61-30.23,21.52C414.24,122.62,411.17,121.17,409.28,116.43Zm8-18.11a19.4,19.4,0,0,0-4.85,9c-.24,0-.2.51-.18.75C413.94,105.23,416.3,101.35,417.26,98.32Z"/></svg>