<svg id="圖層_3" data-name="圖層 3" xmlns="http://www.w3.org/2000/svg" viewBox="0 0 254.86 192.07"><defs><style>.cls-1{fill:#e9d32f;}</style></defs><path class="cls-1" d="M11.06,190.31c-2.67-22.08-5.4-44.89-7.4-67.76C.25,83.62-1.25,44,1.23,5.09,1.92,1.84,4,.19,5.93,0S9.45.94,9.68,3.61l-.07,2C5.08,35.15,4.52,65.11,5.88,94.65c6.57-28.52,22.62-72.09,35-75.87l1.21-.11C52.59,17.75,57.23,53.88,59,73.83L59.79,86C63.51,66.81,82.56,10,94.48,8.94,103,8.2,106.75,23.07,108.58,44c2.34,26.77,1.64,63.6,4,90.37,1.81,20.68,5.3,35.33,13.15,35.37a2,2,0,0,1,2.14,2,1.8,1.8,0,0,1-1.78,2.12l-.24,0c-12.51-.13-18-28.58-20.82-61.43-2.47-28.22-3-59.8-4.75-79.51C99.17,20.54,97.5,12.6,94.82,12.83,80.47,14.09,61.36,87.1,59.57,100.26c0,2.21-1,5.72-2.19,5.83l-.49,0c-4.46-.59-6.77-83-14.8-82.31C37.27,24.73,29.07,37.46,22,55,14.57,73.55,8.17,95.68,6.66,112l.89,10.22c2,22.87,4.71,45.44,7.62,67.49a2,2,0,0,1-1.75,2.36A2.31,2.31,0,0,1,11.06,190.31Z"/><path class="cls-1" d="M127.94,139.14c-2.44.21-3.47-3.13-3.81-7a34.38,34.38,0,0,1,.23-8.6c.37-4.2,1.18-8.93,2.21-11.23l-.62-1.42a2.26,2.26,0,0,1,2-2.62c1.22-.11,3,1,4.83,4.73a27.83,27.83,0,0,0,9.88.85,40.37,40.37,0,0,0,14.12-3.94l.46-.28.29.46c0,.25-.2.51-.42.78-3,2-9.5,3.52-15.34,4a29.56,29.56,0,0,1-8.6-.23l.45,2.41c.56,6.32-.88,20.67-4.94,22Zm3.39-22.85c-.06-.73-.13-1.46-.39-1.68-1.46,5.76-2,16.59-1.73,19.51l.31.71C130.25,134.77,131.78,121.4,131.33,116.29Z"/><path class="cls-1" d="M166.19,150.5c-5.84.51-8.67-26.21-10-38.84-.19-2.19-1.16-2.1-1.29-3.56l-.08-1c.11-1.48,1.51-2.33,3.21-2.48,1.22-.11,2.74.49,2.85,1.71l-.22.26c-.08,2,.06,14.71,1,25.9.81,9.25,2.25,17.21,4.68,17,1.42-.62,4.87-22.74,5.21-24.48,1.74-10.94,2.29-21.53,3.56-23.85A2.24,2.24,0,0,1,177,100a2.86,2.86,0,0,1,1.74.34c5.19,3.23,6.84,5.29,18.42,6a1.07,1.07,0,0,1,.75.18c0,.24-.2.51-.68.55-8.87-.45-13.7-2.48-17.06-4.39-1-.65-1.83-1.31-2.32-1.27-1,.09-3.68,16.75-4.81,23.47-.47,3-3.22,24.8-6.34,25.56Z"/><path class="cls-1" d="M197.19,118.12a124.6,124.6,0,0,1-.53-14.41c.42-.78,1.54-2.1,2.51-2.18a2.82,2.82,0,0,1,2.64,2.22l-.2.5c-1.48,5.53-1.43,11.65-1,16.76s1.31,9.45,1.53,11.88c.06.73.1,1.22-.12,1.48l-.69.55C199.41,135.09,197.91,126.4,197.19,118.12Zm2.34-26.43a18.94,18.94,0,0,1-.43-2.17c-.11-1.22.05-2.21,1.27-2.32l.48,0a1.28,1.28,0,0,1,1.59,1.33c.13,1.46-.9,3.76-1.87,3.84C200.08,92.37,199.82,92.15,199.53,91.69Z"/><path class="cls-1" d="M215.58,118.23a27.7,27.7,0,0,1-.85-4.09c-.76-8.76,4.92-16.61,8.57-16.93,1-.09,1.75.34,2.12,1.77l.33,1c.42,4.86-5.81,12-7.37,13.88.74,5.57,3.6,7.53,7.25,7.21,9.25-.81,24.42-15.13,28.46-19.41l.22-.26c.24,0,.53.44.55.69l-.2.5c-4.64,5.8-19.77,20.61-30.23,21.53C220.54,124.42,217.47,123,215.58,118.23Zm8-18.1a19.36,19.36,0,0,0-4.85,9c-.25,0-.2.51-.18.75C220.24,107,222.6,103.15,223.56,100.13Z"/></svg>