<svg id="圖層_3" data-name="圖層 3" xmlns="http://www.w3.org/2000/svg" viewBox="0 0 52.54 86.1"><defs><style>.cls-1{fill:#040000;}</style></defs><path class="cls-1" d="M51.17,20.64a2.84,2.84,0,0,0-1.61.4,3.87,3.87,0,0,1-1.38.41,3,3,0,0,1-.92-.18c-5.92-2.18-16-9.6-21.39-15.58A68.23,68.23,0,0,1,10.35,17.48c-1.44.8-7.36,4-8.8,4a1.41,1.41,0,0,1-.69-2.7C10.52,14.32,19.72,6.5,24,.86a2.33,2.33,0,0,1,3.91,2.47C34.15,9.54,43.46,15,51.63,17.94A1.39,1.39,0,0,1,51.17,20.64ZM39.55,35.3a2.1,2.1,0,0,1-2.24,2.24,2,2,0,0,1-2.13-2H15.75V47.2c2.59-.63,6.67-1.66,9.37-2.64a1.38,1.38,0,0,1,.46-.06c1.44,0,1.84,2.13.52,2.82-1.55.75-2.65,1.15-10,3.33A84.05,84.05,0,0,1,5.92,53a1,1,0,0,1-.4.06,1.94,1.94,0,0,1-.23-3.85c.11,0-.12.05,6-1V18.63a2.32,2.32,0,0,1,2.3-2.13,2,2,0,0,1,1.67.81H23.4v-4.6a2.06,2.06,0,0,1,2.18-2.13,2.1,2.1,0,0,1,2.19,2.13v4.6H35.7a1.77,1.77,0,0,1,1.55-.81,2.28,2.28,0,0,1,2.3,2.13ZM15.75,20v4.94H35.18V20Zm0,7.65v5.11H35.18V27.6Zm34,23.86c-1.09,0-1.33,1.26-2.76,1.26a1,1,0,0,1-.35,0c-7.82-1.21-16.61-6.44-22.08-14.26A1.53,1.53,0,0,1,26,36.05a1.46,1.46,0,0,1,1.27.63,30.8,30.8,0,0,0,6.09,5.87,49.89,49.89,0,0,0,9.2-7A2,2,0,0,1,44,35a2.17,2.17,0,0,1,1.55,3.62c-2,2.18-6.44,4.6-9.2,5.86A35.69,35.69,0,0,0,49.9,48.7,1.39,1.39,0,0,1,49.79,51.46Z"/><path class="cls-1" d="M35.45,75.93l-9.34-6.32a2.11,2.11,0,0,0-3.3,1.75V84a2.09,2.09,0,0,0,1.13,1.86,2.05,2.05,0,0,0,1,.25,2.12,2.12,0,0,0,1.18-.36l9.34-6.32a2.11,2.11,0,0,0,0-3.49Z"/></svg>