<svg id="圖層_3" data-name="圖層 3" xmlns="http://www.w3.org/2000/svg" viewBox="0 0 140.64 260.04"><defs><style>.cls-1{fill:#231815;}</style></defs><polygon class="cls-1" points="18.09 198.43 18.08 198.43 18.09 198.43 18.09 198.43"/><path class="cls-1" d="M109.46,205.28v0h0Z"/><path class="cls-1" d="M109.43,205.25s0,0,0,0h0Z"/><path class="cls-1" d="M76.18,226.36h0Z"/><path class="cls-1" d="M109.44,205.3s0,0,0,0h0Z"/><path class="cls-1" d="M76.19,226.38h0l0,0h0v0h0Z"/><path class="cls-1" d="M18.1,198.45h0Z"/><path class="cls-1" d="M126.2,158.42a15.43,15.43,0,0,0-.79,3.25A8.76,8.76,0,0,0,126.2,158.42Z"/><path class="cls-1" d="M125.14,144.89a35.12,35.12,0,0,0-2.42-5.45,6.78,6.78,0,0,0-1.53-1.91c-.71-.6-1.45-1.17-2.14-1.81a11.67,11.67,0,0,0-3.88-2.73c-1.4.24-1.74.8-1.13,1.92a9.61,9.61,0,0,0,1.4,2.1,16.8,16.8,0,0,1,3,4.23,33,33,0,0,1,1.75,4.91,23.83,23.83,0,0,1,.65,4.32c.07.88.45,1.74.42,2.54-.07,1.76.65,3.6-.37,5.3a1.22,1.22,0,0,0-.08.69,1.55,1.55,0,0,1-.36,1.19,5.6,5.6,0,0,0-.91,1.83c-.84,2.36-2.79,3.74-4.4,5.42-.31.31-.94.31-1,1,0,0-.24.13-.36.11a1.23,1.23,0,0,0-1.25.65,4.07,4.07,0,0,1-1.69,1.25c-1.46.6-2.74,1.54-4.2,2.16a6.25,6.25,0,0,0-2,1.11,5.07,5.07,0,0,1-3.68,1.14,30.28,30.28,0,0,0-5.93.46,19.9,19.9,0,0,1-3.45.37,8.9,8.9,0,0,1-6-1.38c-1.65-1.22-3.53-2.09-5.11-3.39-1-.82-2.32-.95-3.28-1.78s-2.14-.59-3-1.41c-.08-.08-.27-.06-.41-.06-1.83.07-3.73-.35-5.45.67a2.93,2.93,0,0,1-.94.28,3.8,3.8,0,0,0-1.52.56,2.16,2.16,0,0,1-1.64.49.82.82,0,0,0-1,.59c0,.2-.2.37-.4.34a3.21,3.21,0,0,0-2.27.75c-.66.44-1.35.89-2,1.26a12.85,12.85,0,0,1-2.67,1.26c-1.15.35-2.33.54-3.47.88a22,22,0,0,1-6.26,1,9.73,9.73,0,0,0-4.09.68c-1.4.64-2.91,1.5-4.62.87-.12,0-.28.06-.42.08a12,12,0,0,1-4.75-.55,18.3,18.3,0,0,1-4.72-2.31c-.45-.28-.93-.47-1.09-1.13a1.7,1.7,0,0,0-1.08-1.06,1.19,1.19,0,0,1-.68-.66,6.14,6.14,0,0,0-1.22-1.52,10.12,10.12,0,0,1-1.93-2.28c-.54-1.12-1.12-2.22-1.63-3.36-.73-1.63-1.71-3.17-1.9-5a30.84,30.84,0,0,1,.1-7,20.39,20.39,0,0,1,2.94-7.71c1.48-2.54,3.46-4.78,4.7-7.48.54-1.18.24-1.82-1.17-2.08-.68.77-1.75,1.26-1.86,2.47,0,.14-.31.22-.42.37a2.46,2.46,0,0,0-.61.93A5.21,5.21,0,0,1,20,141.84c-2.8,2.64-4.42,6.12-6.76,9.08l-.22.3c0,2.54-.13,5.09-.36,7.63l.36-.24a21.78,21.78,0,0,1,.47,3.8,1.2,1.2,0,0,0,.3.91,9.64,9.64,0,0,1,1.66,3.27,31.65,31.65,0,0,0,2.89,5.46c1.06,1.79,3,2.8,4,4.67,0,0,.09,0,.13.06,1.27.63,1.74,2.18,3.32,2.58a12,12,0,0,0-3.57,2.93,22.28,22.28,0,0,0-3.65,6.14c-1,2.26-2.45,4.38-2.8,6.92a1.89,1.89,0,0,1-.29.65,28.71,28.71,0,0,0-1.8,5.19,4.47,4.47,0,0,0-.19,3.21c.81-1.26,2.06-2,2-3.47,0-.07.41-.16.63-.24.79-.64,1-1.8,2-2.26,0-.67.88-1,.68-1.77,0,0,.09-.17.16-.19,1.22-.28,1.46-1.32,1.8-2.3a.84.84,0,0,1,.21-.35.52.52,0,0,1,.36-.16.31.31,0,0,1,.24.42c-.47.73-.2,1.75-1.13,2.34a18.27,18.27,0,0,0-2.29,2,1.38,1.38,0,0,1-.54,1.11,1,1,0,0,0-.29.91,1.64,1.64,0,0,0,.25-.07c.38-.27.77-1,1.2-.53s-.44.69-.62,1.09-.8.66,0,.94c.61-.34.78-1.21,1.61-1.37a2.91,2.91,0,0,1-.8,2.2,12.73,12.73,0,0,0-1.9,2.58c1.18,0,1.25-1.44,2.33-1.52-.25,1.66-.58,3.3-.86,4.94-.39,2.27-.62,4.57-1.06,6.83s-.61,4.54-1,6.79c-.3,1.62-.42,3.25-.62,4.88a56.19,56.19,0,0,0-.36,5.65,20.83,20.83,0,0,0,.25,5.28c.27,1.15.69,2.24,1,3.38.06.24.09.51.36.56s.41-.19.5-.41a42.77,42.77,0,0,0,1.93-4.53,23.53,23.53,0,0,0,.79-4.56c.34-3.5.94-7,1.36-10.43.14-1.07.14-2.16.33-3.22.29-1.66.4-3.33.68-5s.32-3.47.45-5.21a25.39,25.39,0,0,1,.32-3.92c.82-3.43,1-6.94,1.74-10.38.53-2.43,1.12-4.85,1.72-7.25.08-.32.27-.61.37-.92.52-1.68,1.68-3.16,1.45-5.09,2.18.28,3.93,1.77,6.19,1.58,0,.32,0,.55,0,.77-.08,1.92-.71,3.74-.93,5.64-.12,1.11-.39,2.22-.61,3.32-.54,2.7-1,5.41-.28,8.15A23.21,23.21,0,0,0,34,204a9.05,9.05,0,0,0,2.23,3.32,19.46,19.46,0,0,0,2.82,2,1,1,0,0,1,.61,1.22c-.07.32-.07.66-.15,1-.56,2.43-1.11,4.86-1.76,7.26s-.86,5.06-1.36,7.58a32.42,32.42,0,0,0-.51,7c.08,2.81-.77,5.58-.26,8.39a.32.32,0,0,1,0,.14c-.6,1.54-.29,3.14-.34,4.73a2.05,2.05,0,0,0,2.3,2c.86-.06,1.6-1.25,1.56-2.4-.07-1.9-.18-3.79-.17-5.69,0-4.06-.08-8.11.14-12.18q.16-3.21.41-6.41c.27-3.8,1.37-7.49,1.8-11.37,1.38.42,2.73.84,4,1.3,1,.37,2.08.76,3.1,1.16a4,4,0,0,0,1.56.58c1.26,0,2.53.19,3.8.31a3.44,3.44,0,0,1,2.08.67,30.14,30.14,0,0,0-1.77,4.55,45.77,45.77,0,0,0-1.36,7.37c-.06,1.26-.09,2.52-.19,3.78-.18,2.44-.16,4.89-.34,7.33-.28,3.73-.17,7.47-.28,11.21,0,1.79,0,3.58-.08,5.37-.07,1.07,0,2.13,0,3.19a3.06,3.06,0,0,0,1.17,2.24,1.3,1.3,0,0,0,1.66.24,2.89,2.89,0,0,0,1.72-2.1,45.68,45.68,0,0,0,.48-5.2c0-4.77-.23-9.53-.34-14.29-.17-7-.2-13.94,1.09-20.84a11.79,11.79,0,0,1,.5-1.76.88.88,0,0,1,1.18-.68,21.76,21.76,0,0,0,6.64.35,6.41,6.41,0,0,1,1.38.09.53.53,0,0,1,.54.54c.06,1.26.17,2.52.21,3.79.08,2.53.05,5.07.2,7.6.11,1.83.1,3.67.22,5.49a34.58,34.58,0,0,0,1,7.37,3.68,3.68,0,0,0,1.63,2.19,4.61,4.61,0,0,0,6.55-1.8,15.36,15.36,0,0,0,1.85-7,47.1,47.1,0,0,0-.22-7.6,52.8,52.8,0,0,0-1.11-7.38,39.07,39.07,0,0,1-.51-3.93c-.06-.4,0-.72.4-.76.56,0,1.24-.3,1.67,0,1.06.83,2.24.5,3.3.36a34.67,34.67,0,0,0,6.77-1.26A1.55,1.55,0,0,1,91,213c0,.4.11.81.13,1.23.17,3.11.34,6.23.48,9.35s.29,6,.28,9c0,1.75.06,3.51.06,5.27s-.06,3.23-.1,4.85a24.93,24.93,0,0,1-.46,5.72,4.55,4.55,0,0,0,0,1.91,10.77,10.77,0,0,1,0,1.79c0,.21-.27.46,0,.62a.65.65,0,0,0,.78-.16A7.75,7.75,0,0,0,94.62,249a26.43,26.43,0,0,0,.79-5.88c.06-1.74-.1-3.48-.08-5.2,0-2.9-.14-5.77-.33-8.65-.19-2.67-.4-5.34-.61-8-.2-2.43-.43-4.86-.86-7.28-.25-1.39-.14-1.41,1.14-1.88.53-.19,1.08-.35,1.6-.57a7.59,7.59,0,0,0,2.38-1.43,16.94,16.94,0,0,1,3.23-2.92c.06.39.24.74.27,1.17a54.2,54.2,0,0,0,1,7.42c.67,3,.78,6.09,1.3,9.11.37,2.13.63,4.27.88,6.42.18,1.53.49,3.07.75,4.6.54,3,1,6.06,2.66,8.8s5.11,3,7,.48a9.68,9.68,0,0,0,1.87-5.68,37,37,0,0,0,0-5.57c-.14-1,.1-2,0-3-.32-3.46-.18-6.92-.56-10.38-.32-3-.34-6.08-.71-9.12-.35-2.83-.41-5.7-.72-8.54-.48-4.4-1.09-8.79-2-13.14-.3-1.48-.73-2.9-1.08-4.35a38.35,38.35,0,0,0-2.81-8.9,4.27,4.27,0,0,1,.79-.59,35.62,35.62,0,0,0,6.17-3.6,24.63,24.63,0,0,0,4.76-4c1-1.22,1.75-2.62,2.71-3.86.33-.43.34-1.23.61-1.65a8.57,8.57,0,0,0,.63-1.14,15.43,15.43,0,0,1,.79-3.25c0-.31,0-.62,0-.93s-.09-.56.16-.77A117.43,117.43,0,0,0,125.14,144.89ZM86.82,179.33l4.09.53c.2,0,.38.13.37.35s-.26.36-.51.31c-.72-.15-1.46-.27-2.16-.49-.33-.1-.64,0-1-.11s-.48.11-.7.27-.34,0-.43-.19a.84.84,0,0,1-.08-.41C86.44,179.36,86.62,179.3,86.82,179.33ZM87,181s0-.08.05-.13A9.92,9.92,0,0,0,89.73,182c.58.11,1.12.25.8,1.11a2,2,0,0,0,.14,1.19,13,13,0,0,1,.19,4.81.88.88,0,0,1-.94-.27,2.21,2.21,0,0,0-1.64-.94c-.24,0-.75-.16-.7-.71A25.19,25.19,0,0,0,87,181Zm-.37,8c1.19.7,2.27,1.72,3.9,1.28.16,1.37-.71,2.13-1.49,2.81a8.82,8.82,0,0,1-3.9,1.57c-.54.14-.89-.22-1.17-.61-.59-.81-.78-1.84-1.64-2.64A8.84,8.84,0,0,0,86.59,189.07ZM66.27,177.31a1,1,0,0,0,.68-.46,11.19,11.19,0,0,1,2.8-2c.24-.08.51-.12.61.13s-.26.29-.38.44a13.35,13.35,0,0,1-3,2.4,3.91,3.91,0,0,1-1.49.66C65.65,177.93,65.46,177.32,66.27,177.31Zm-6.19,9.12a15.41,15.41,0,0,0,1.32-3.2A2.2,2.2,0,0,1,63,181.65c1.26-.21,2-1.17,2.92-1.77,1.36-.84,2.41-2.13,3.89-2.82a2,2,0,0,0,.75-.82,3.61,3.61,0,0,1,5-1c1.55.89,3.17,1.65,4.67,2.63a1.76,1.76,0,0,0,1,.14,2.36,2.36,0,0,1,1.47.4c.64.48,1.43.42,2.12.69a8.19,8.19,0,0,0,0,3.12,16,16,0,0,1,.09,4,1.43,1.43,0,0,1-1,1.36,9.76,9.76,0,0,1-3.1.9c-1.4.11-2.81.19-4.21.35-1,.12-2,.3-3,.52a15.05,15.05,0,0,1-5.31.2c-.89-.13-1.75.37-2.64,0a9.29,9.29,0,0,0-4.15-.61c-.21,0-.59-.1-.63-.22-.47-1.73-.76.1-1.34,0A3.48,3.48,0,0,1,60.08,186.43Zm20.77,8.72a11.07,11.07,0,0,1-3.63.45c-.58.23-1.33-.32-2.06.05-.27.13-.45-.06-.56-.28a2.37,2.37,0,0,1-.18-.53c-.67-2.08-.65-2,1.5-2.47a17.7,17.7,0,0,0,3.26-.69c.4-.16.9-.25,1.13.58a14,14,0,0,0,1,2.13C81.62,195,81.47,194.93,80.85,195.15ZM70.7,195A8.68,8.68,0,0,1,69,195a37.27,37.27,0,0,0-5.28-.24c-.23-.62.13-1.11.21-1.71,2,.57,4,.19,6.06.26.75,0,1,.21,1.13,1C71.19,194.73,71.16,195,70.7,195ZM56,192.82a15.32,15.32,0,0,0,1-1.21,5.44,5.44,0,0,0,4.14.77c.21.49-.22.7-.31,1-.27,1-.38,1-1.45.64a1.69,1.69,0,0,0-.8-.11,7.87,7.87,0,0,1-2.32-.31C55.66,193.54,55.56,193.2,56,192.82Zm-.81-3.23c-.9.73-1.79,1.48-2.69,2.23a.42.42,0,0,1-.52,0c-.79-.49-1.57-1-2.32-1.54-.2-.15-.25-.49-.4-.81,2-1,3.43-2.52,5.4-3.36.42,1,.3,2,.66,3A.42.42,0,0,1,55.18,189.59Zm0-10.5c-.21.43.31.89-.12,1.19-.26.19-1-.15-1.57-.75C54.12,179.19,54.72,179.43,55.21,179.09Zm-4.49,1.55a6.38,6.38,0,0,0,4,.72c.45,1.95-.57,2.51-2,2.95A27.74,27.74,0,0,0,49,186a4.42,4.42,0,0,1,.2-1.25A37.9,37.9,0,0,0,50.72,180.64Zm25.36,55c-.3,1.21-.48,2.58-1.55,3.53-.68.61-1.26.55-1.49-.34a9.83,9.83,0,0,1-.31-2.23c0-2.21-.16-4.42-.3-6.63a11.72,11.72,0,0,1,.07-2.77h0v-.28c-.06-.48-.39-1-.06-1.44a.41.41,0,0,0,0-.24,5.14,5.14,0,0,1-.21-2.46c0-.38.25-.53.59-.67.84-.37,1.66-.8,2.49-1.2.19-.28.34-.61.73-.72a1.54,1.54,0,0,1,.11,1c.55.7.32,1.51.31,2.28s.26,1.54-.31,2.23c-.1.12,0,.42.08.64.2-.08.41,0,.41.19C76.6,229.58,76.82,232.66,76.08,235.63Zm26.44-52.17c0,.78-.16,1.54-.11,2.33a8.14,8.14,0,0,1-.2,2.29c-.56,2.31-.49,4.72-.94,7-.18,1-.87,1.8-.53,2.84a.18.18,0,0,1,0,.13c-1.26,1.13-1.74,2.92-3.25,3.84A4.56,4.56,0,0,0,96,203.38c-.57,1-1.86.71-2.31,1.67a.3.3,0,0,1-.25.1c-1.51-.18-2.74.72-4.11,1a13.08,13.08,0,0,1-3.52.69,1.84,1.84,0,0,0-1.19.28,3.19,3.19,0,0,1-1.83.48,55,55,0,0,1-6,.28,1.32,1.32,0,0,0-.28,0c-.94.14-1.67.89-2.86.38-.83-.35-2,.33-3,.41a25.56,25.56,0,0,1-5.39.14,1.22,1.22,0,0,0-1,.06,1.63,1.63,0,0,1-1.74,0,1.58,1.58,0,0,0-1.7,0c-.24.16-.56.25-.46-.28,0-.06-.1-.21-.12-.2-1.64.51-2.89-.77-4.39-.94-2-.22-4-.58-6-.79-.39,0-.71,0-1-.35a2.76,2.76,0,0,0-1.23-.62c-.51-.21-1-.26-1.44-.79-.12-.17-.87.35-1.09-.39,0-.1-.42-.13-.65-.15A8.44,8.44,0,0,1,40.6,203c-.28-.18-.23-.49-.41-.71A10.59,10.59,0,0,1,38,195.46c0-2.44,0-4.88,0-7.31,0-.69-.31-1.27-.35-1.94,0-1.06-.28-2.12-.43-3.2.47-.43,1.06-.07,1.6-.17a12.15,12.15,0,0,0,3.62-.89,10.24,10.24,0,0,1,4.87-1c.56,0,1.11-.31,1.71,0a1.84,1.84,0,0,1-.54,1.06,13.31,13.31,0,0,0-2.56,7.77,2.53,2.53,0,0,0,.53,2,.91.91,0,0,1,.2.64,5.19,5.19,0,0,0,4.46,5.17,17.65,17.65,0,0,1,4.49,1.08,16,16,0,0,0,5.29,1.13,43.81,43.81,0,0,0,6.49.52,11.79,11.79,0,0,1,2.61.26,30.8,30.8,0,0,0,5.67.34,27.65,27.65,0,0,0,6.3-.44c1.69-.42,3.42-.62,5.11-1a9.92,9.92,0,0,0,4.56-2.23,10.53,10.53,0,0,0,3.23-4.75,23.57,23.57,0,0,0,.64-7.27,3.44,3.44,0,0,0-.53-1.88,2.4,2.4,0,0,1-.37-1.06A2.59,2.59,0,0,0,93,180.05a29.66,29.66,0,0,1,8.15-.66c1,0,1.08.12,1.28,1.12A12.15,12.15,0,0,1,102.52,183.46Zm9,19.84c.55.44.57.91.1,1.34a25.67,25.67,0,0,0-3.12,3.55,4.41,4.41,0,0,0-1,1.63.76.76,0,0,0,.78-.38,15.15,15.15,0,0,1,1.81-2.19,6.7,6.7,0,0,0,1.42-1.91c.62.33.42.84.44,1.2.1,2.52.17,5,.42,7.56a39.54,39.54,0,0,0,.39,4.44,19.74,19.74,0,0,1-.06,2.86c.12,2.69.3,5.39.36,8.08.06,3.48,0,7,0,10.43a12.35,12.35,0,0,1-.79,3,1.28,1.28,0,0,1-1.28-1,20.35,20.35,0,0,1-1.34-4c-.58-3.74-1.27-7.47-1.86-11.21-.34-2.14-.49-4.32-.87-6.45s-.56-4.31-1-6.43a37,37,0,0,1-.89-5.53,1.23,1.23,0,0,1,.25-1,54.81,54.81,0,0,1,6.24-6.13c.53,1.4-.52,2-1.25,2.68-.46.42-.88.77-.9,1.42C110.49,205,111,204.1,111.55,203.3Zm0-3.16a6.51,6.51,0,0,1-1.69,1.45,31.71,31.71,0,0,1-4.79,4.69,1.27,1.27,0,0,1,.3-1.56c.54-.47.54-1.62,1.73-1.35.25,0,.65-.48,1-.77a4.68,4.68,0,0,1,1.47-1c.33-.82,1.17-1.2,1.66-1.87a.26.26,0,0,1,.37-.06A.31.31,0,0,1,111.51,200.14Zm0-.94a2.79,2.79,0,0,0-2.34,1c-.45.42-.8.93-1.24,1.35-.27.26-.46.82-1,.36-.17-.14-.39.14-.53.35-.58.91-1.5,1.53-2.17,2.38a5.17,5.17,0,0,1,1.55-2.48,6.22,6.22,0,0,0,1.76-2c.13-.32.44-.33.68-.46,1-.55,1.56-1.57,2.58-2.06.34-.16.11-.6.44-.9C111.67,197.54,111.37,198.35,111.56,199.2Zm-.08-3.64a4.63,4.63,0,0,1-2,2.23c-.87.55-1.43,1.48-2.41,1.9A10,10,0,0,1,111.48,195.56Z"/><path class="cls-1" d="M1.42,53.29A21.58,21.58,0,0,0,4.34,59a53.71,53.71,0,0,0,4.09,5,14.85,14.85,0,0,0,4.64,3.45c1.21.6,2.57,1.11,3.37,2.35a2.17,2.17,0,0,0,2,1.23A2,2,0,0,0,18,72.45a8.16,8.16,0,0,1-.36,4.32c-.77,1.59-.83,3.38-1.77,4.91a21.44,21.44,0,0,0-1,2.33,15,15,0,0,0-1.39,4,28.72,28.72,0,0,1-.75,3.55,33,33,0,0,0-1.31,8.15,34.79,34.79,0,0,1-.1,4,6.19,6.19,0,0,0,.06,2.06c.32,1.39.5,2.81.9,4.16s0,2.82,1,4c-.18,1.73.72,3.14,1.35,4.63a20.75,20.75,0,0,0,3.17,5c.38.48,1.28.72,1,1.64,0,0,.14.17.19.16.78-.19.87,1,1.62.84A5.7,5.7,0,0,0,25,127.93c.13,0,.3,0,.37.12.39.42.71.34,1.07,0s.1-.7-.19-.93a5.74,5.74,0,0,1-.89-1.09c-1.43-1.77-2.24-3.92-3.7-5.67A4.4,4.4,0,0,1,20.46,118c0-.21-.08-.52-.33-.58-.65-.14-.61-.64-.63-1.11s-.26-.82-.3-1.16c-.1-.84-1-1.35-.85-2.18.23-1.36-.85-2.49-.57-3.84-.65-.85-.21-2-.73-2.87.34-2.17-.42-4.33-.09-6.51.15-1,.09-2.11.22-3.17.26-2,.82-3.84,1.21-5.77a3.19,3.19,0,0,1,.28-.63A43.33,43.33,0,0,0,21,84.82c.25-.91.36-1.84.65-2.76.82-2.6,2-5.15,1.66-8a15.37,15.37,0,0,0-.44-3.71,2.2,2.2,0,0,1,0-1.22A11.92,11.92,0,0,0,23,64.4,13.76,13.76,0,0,1,22.43,60c.15-1.74-.67-3.3-.72-5a7.09,7.09,0,0,0-1.1-3c-1-1.79-1.7-3.76-3.49-5.13-1.24-.94-2.29-2.17-3.74-2.8-.85-.37-1.41-1.16-2.32-1.38a12.69,12.69,0,0,1-5.24-3.21c-.85-.74-1.91-1.5-2-2.92,2.84-.15,5.36.81,7.89,1.69a13.42,13.42,0,0,0,2,.67,8.56,8.56,0,0,1,3.21,1.66c1.24.81,2.32,1.9,3.59,2.67,3.63,2.21,6.07,5.5,8.34,8.94.36.54,1,1.07,1.05,1.59.19,1.19.85,2.19,1,3.37.42,2.87,1.59,5.54,2.3,8.33,0,.09,0,.2.05.28.09.28.39.42.53.23.44-.59.63-.15.89.14a4.08,4.08,0,0,0,4.76,1.06c1.39-.49,2.86-.74,4.22-1.35,1.65-.74,3.42-.62,5.16-.74a6.11,6.11,0,0,1,2.89.39,8.61,8.61,0,0,1,3,1.47,2.78,2.78,0,0,0,1.29.54,14.13,14.13,0,0,0,3.95.06,1.28,1.28,0,0,1,1,.3,2.42,2.42,0,0,0,3.41.12,1.58,1.58,0,0,1,1.93-.27,13.12,13.12,0,0,0,3.43.83c.6.1,1.21.15,1.82.28a9.44,9.44,0,0,0,5.93-.39,47.91,47.91,0,0,1,9.06-3.3c2-.43,4-1.35,6.18-1.06.93.12,1.83.29,2.74.45A36.83,36.83,0,0,1,102,66.16c1.36.51,1.38.44,1.52,1.82,0,.36-.07.73.22,1.08a1.6,1.6,0,0,0,2.42-.34,7.94,7.94,0,0,0,1.22-2.52c.39-1.83,1-3.6,1.55-5.38.49-1.62.77-3.28,1.24-4.89a17.51,17.51,0,0,1,2.73-5,47.19,47.19,0,0,1,3.64-4.46,31.92,31.92,0,0,1,4.33-3.33,23.52,23.52,0,0,1,7.87-4.46,47.24,47.24,0,0,1,7.38-1.79c.27,0,.57-.15.79.22a7.31,7.31,0,0,1-2,2.55,12.11,12.11,0,0,1-3.73,2.81,26,26,0,0,0-6,3.4,12.69,12.69,0,0,0-3.89,4.21,26.85,26.85,0,0,0-2,4.58c-.2.67-.07,1.51-.38,1.93-.77,1.06-.47,2.2-.6,3.29a28,28,0,0,1-.71,5.09,5.7,5.7,0,0,0-.09,3c.19.86.92,1.77,0,2.67-.16.15-.1.45,0,.67a.53.53,0,0,1,.06.6,8.37,8.37,0,0,0-.32,4.85,31.37,31.37,0,0,0,1.67,5.44,4.26,4.26,0,0,1,.41,1.62,3.79,3.79,0,0,0,.35,1.61c.49,1.17,1,2.35,1.53,3.5a17.6,17.6,0,0,1,1.3,3.23,19.25,19.25,0,0,1,.61,3.77c.07,1.21.7,2.34.42,3.58-.09.4-.26.77.14,1.14a.64.64,0,0,1,0,.8,3.93,3.93,0,0,0-.3,1.65,23.62,23.62,0,0,1-.13,3.19c-.5,1.83-.14,3.85-1.21,5.54a.76.76,0,0,0-.07.55c.18.66-.2,1.17-.34,1.75-.21.88-1,1.6-.8,2.58a.56.56,0,0,1-.11.4c-1.2,1.3-1.67,3-2.76,4.44-1.43,1.85-2.28,4.13-4,5.79-.29.28-.12.46.1.69.39.42.74.27,1.11,0,0,0,.07-.07.12-.08a12.16,12.16,0,0,0,2.85-.63,7.35,7.35,0,0,0,2.3-1.64,29.75,29.75,0,0,0,3-3.38,31.53,31.53,0,0,0,2.65-4.59,23.57,23.57,0,0,0,1.45-5c.33-1.22.5-2.5.71-3.76.12-.71.48-1.32.54-2.08.11-1.72.06-3.42.05-5.13a31,31,0,0,0-.68-7.8c-.55-2.16-1.13-4.31-1.53-6.52-.55-3.05-2.3-5.68-3.2-8.65a22.4,22.4,0,0,1-1.11-5.85c0-.89,0-2.13.8-2.58a16.46,16.46,0,0,1,2.71-1.7,14.57,14.57,0,0,0,4.67-2.9,27,27,0,0,0,3.71-3.93,26.6,26.6,0,0,0,4.68-7.67c1-2.89,1.89-5.77,1.71-8.84a44.93,44.93,0,0,0-.41-5.78c-.15-.79-.49-1.73.21-2.56.23-.28.09-.76,0-1.1a11.3,11.3,0,0,1-.54-2.49c-.06-.48-.15-1-.83-.91-.48-.89-1.49.13-2-.56-2.19.31-4.46-.21-6.59.79a27.71,27.71,0,0,1-4,1.19c-1.07.33-2,1.16-3,1.24-1.62.14-2.39,1.48-3.66,2.09s-2.28,1.84-3.6,2.55a13.3,13.3,0,0,0-1.57,1.36c-.4.31-.72.77-1.15,1.13a13.47,13.47,0,0,0-2.8,3,22.45,22.45,0,0,0-2,3.09c-.22.54-.94,1-1.15,1.64s-.94,1-.81,1.91c0,.35-.86,1-.58,1.45.6.83-.87.87-.41,1.5a16.41,16.41,0,0,0-.74,4.38,5.64,5.64,0,0,1-1,3.24c-7.56-3.48-15-3.2-22.57,0A10,10,0,0,1,81,58.8a17.57,17.57,0,0,0,3.59.52,2.15,2.15,0,0,0,1.53-.6,11.54,11.54,0,0,0,2.21-2.65c1.23-2.25,2.25-4.59,3.34-6.9a37.8,37.8,0,0,0,1.82-3.93c.18-.54.41-.78,1.14-.54a14.59,14.59,0,0,0,6.24.29,7,7,0,0,0,4-1.75,12.46,12.46,0,0,0,3.46-5.94c.79-2.8,1.62-5.59,2.61-8.33a16.94,16.94,0,0,0,1-3.95c.08-.79.33-1.1,1-1.22a13.27,13.27,0,0,0,3.8-1.35,6.52,6.52,0,0,0,3.62-5.21,78.51,78.51,0,0,0,.22-9.33A35.71,35.71,0,0,0,120.35,2,2.66,2.66,0,0,0,117.14.1a27.65,27.65,0,0,0-3.85,2A36.14,36.14,0,0,1,109,4.36a5.14,5.14,0,0,0-2.44,2.29.75.75,0,0,0,.09.92c.64.43.45,1.06.55,1.63a50.81,50.81,0,0,1,.3,8.72,5.15,5.15,0,0,1-.15,2.45,1.26,1.26,0,0,0-1.38.1.47.47,0,0,1-.39.06c-.89-.78-2-.45-3-.51-1.41-.09-2.71-.71-4.16-.59a2.09,2.09,0,0,0-2.09,2.2c.06.56.13,1.1.14,1.66a58.28,58.28,0,0,1-1,9.6c-.19,1.23-.21,1.24-1.38,1.09-2-.26-3.9-1.2-6-1.2-.08,0-.17-.09-.23-.16-.52-.69-1.37-.73-2.09-1a2.14,2.14,0,0,0-2.43.51,4.66,4.66,0,0,0-1.29,2.73c-.19.93-.38,1.87-.51,2.82a15.13,15.13,0,0,1-1.77,5c-.24.47-.2,1.11-.72,1.44-.11-.09-.24-.14-.24-.2-.05-1.92-.36-3.81-.6-5.71-.29-2.31-.38-4.67-.63-7a5.92,5.92,0,0,0-.3-2.09c-.84-1.68-1.1-3.55-1.78-5.29a5.8,5.8,0,0,0-2.83-3.18,3.73,3.73,0,0,0-4.32.66,5.63,5.63,0,0,0-.78,1.14,6.16,6.16,0,0,0-1,2.87c0,.84-.65,1.56-.24,2.38-.73.46.08,1.13-.24,1.68a5.14,5.14,0,0,0-.45,2.43A38.57,38.57,0,0,1,65.32,37,25.65,25.65,0,0,1,65,40.37a26.4,26.4,0,0,0-.48,3.69c-.18,1.09-.69,2.2-.34,3.36a.44.44,0,0,1-.05.38c-1,.76-.22,2.09-1,2.91.7,1-.89,1.72-.29,2.7-.88,1.21-.2,2.76-.86,4,.18,2.08-.68,4-.66,6.11,0,.71-.77.76-1.16,1.12s-.67-.13-.93-.36a11.13,11.13,0,0,0-4.49-2.39c-2.46-.64-4.93-1.35-7.59-.93a36.23,36.23,0,0,0-8,1.87,2.63,2.63,0,0,1-2.28-.17c-.8-.38-.79-.94-.81-1.61,0-.28-.11-.55-.13-.83-.11-1.7-.72-3.31-.75-5,0-.94-.79-1.78-.66-2.81-.89-1-.93-2.44-1.81-3.49-.39-.48-1-.85-1.18-1.55a9.32,9.32,0,0,0-2.53-3.6c-.79-.79-1.29-1.94-2.5-2.28-.2-.85-1-1.08-1.54-1.62a14.9,14.9,0,0,0-1.62-1.05L21.06,37c-.69-.56-1.78-.54-2.21-1.52a.55.55,0,0,0-.35-.23,16.58,16.58,0,0,1-3-1.28c-1.61-.69-3.41-.88-5-1.74-.6.32-.94-.45-1.48-.35-.8.15-1.56-.27-2.36-.2a6.59,6.59,0,0,1-2.26,0c-.75-.21-1.47.55-2.16-.07C1.84,32,1,31.8.85,32.38a14.53,14.53,0,0,0-.64,4.19c0,.38.27.76.23,1.21C.28,40,.1,42.3,0,44.56a20.38,20.38,0,0,0,0,2.59A28.84,28.84,0,0,0,1.42,53.29ZM137.13,41.75c0-.06.16-.06.35-.12-.24,2.44.07,4.91-.75,7.23a27.08,27.08,0,0,1-1.88,5,12.25,12.25,0,0,1-3.31,4.21,1.23,1.23,0,0,0-.22.35,13.3,13.3,0,0,1-3.16,3.45c-.5.4-1,.79-1.49,1.23a8.23,8.23,0,0,1-2.38,1.21,12.83,12.83,0,0,1,.35-3.7,39.8,39.8,0,0,1,.72-4.59,14.06,14.06,0,0,1,2.23-5.36,12.93,12.93,0,0,1,3.54-3.15A16.47,16.47,0,0,0,137.13,41.75ZM109.78,8.93c-.14-.59.06-.91.67-1.18,1.62-.69,3.19-1.5,4.78-2.26.17-.08.32-.19.49-.28.35-.19.57-.79,1-.54s.36.86.33,1.26c-.18,3.1.11,6.18,0,9.27,0,.7-.12,1.4-.18,2.1a2.86,2.86,0,0,1-2.06,2.43c-1.29.49-2.65.81-4,1.19-.57.16-.7.12-1.71-.27.78-2.65.61-5.39.73-8.11A13.24,13.24,0,0,0,109.78,8.93ZM95.61,40.48c.53-.92,1.06-1.85,1.66-2.72.72-1.06.77-1.6,0-2.63a.54.54,0,0,1,0-.63,39,39,0,0,0,2.12-9.68c.09-1.26.19-1.25,1.44-.88a17.66,17.66,0,0,0,5.07.61c.33,0,.67,0,1,0,.57-.05.74.2.7.75a8.63,8.63,0,0,1-.77,3.15c-.61,1.22-.76,2.54-1.24,3.78-.87,2.26-1.11,4.74-2.44,6.86a4.24,4.24,0,0,1-3.58,2c-.33,0-.66,0-1.24,0a11.69,11.69,0,0,0-2.22.09C95.47,41.18,95.36,40.92,95.61,40.48Zm-15.5,7.88a7.85,7.85,0,0,0,1.16-3.18c.17-.94,1-1.64,1.48-2.53A21.35,21.35,0,0,0,85,36.46c.13-.81.16-.77.93-.48a15.28,15.28,0,0,0,2.67.82c1.28.22,2.54.56,3.81.83.59.13.73.49.33.88-1.13,1.11-1.46,2.63-2,4-.36.83-.72,1.69-1.13,2.51-.76,1.55-1.47,3.12-2.19,4.68-.44.95-1,1.89-1.36,2.88S85,54.25,84.57,55.19a1.14,1.14,0,0,1-1.24.61,3.18,3.18,0,0,1-3.26-3.13c0-.4.12-.86-.36-1.11a.52.52,0,0,0-.13-.06C80.57,50.6,79.42,49.37,80.11,48.36ZM67.42,51a35.59,35.59,0,0,0,1-5.7c.28-2.08.66-4.15.79-6.25.06-1,.17-2,.16-3,0-2.73.36-5.44.47-8.16a8.26,8.26,0,0,1,1-3.89,1.54,1.54,0,0,1,1,1.31c.53,2.3,1.23,4.57,1.67,6.89a15.77,15.77,0,0,1,.36,2.83c0,2.21.35,4.39.52,6.58,0,.62.72,1.09.31,1.79s-.11,1.3-.09,1.91c.05,1.39.35,2.78.46,4.18s.31,2.63.54,3.94a1.89,1.89,0,0,1-.83,2,5.41,5.41,0,0,1-4.21,1.07,7,7,0,0,1-3.21-.89.86.86,0,0,1-.5-.89A16,16,0,0,1,67.42,51Zm-1.1,6.65c3.26,2.52,6.44,2.46,9.78.47a15,15,0,0,0,.61,3.16,4.89,4.89,0,0,0,.34.9,1.94,1.94,0,0,1-1.71,3.08c-1.55.08-3.12,0-4.68.06-.52,0-1,0-1.56,0a2.33,2.33,0,0,1-2.23-.94c-.18-.3-.48-.26-.73-.37a.61.61,0,0,1-.38-.68C65.93,61.51,66.11,59.73,66.32,57.66ZM4.4,42.83A17,17,0,0,0,9.46,47.2,12.38,12.38,0,0,1,15,54.82a55.51,55.51,0,0,1,1,7.1c.07.61.54,1.25,0,1.95a8.09,8.09,0,0,1-3.36-2,26.65,26.65,0,0,1-2.31-2.19c-2.18-2.8-4.63-5.35-5.79-8.92A36.29,36.29,0,0,1,3,41.05,6.39,6.39,0,0,1,4.4,42.83Z"/><path class="cls-1" d="M24.92,128.42a1.54,1.54,0,0,0-1.82,1.15,2.59,2.59,0,0,0,.42,2.38,7.71,7.71,0,0,0,1.74,1.68,1.45,1.45,0,0,0,1.87-.48,1.57,1.57,0,0,0,.25-1.72A5.74,5.74,0,0,0,24.92,128.42Z"/><path class="cls-1" d="M114.61,132.14a2.25,2.25,0,0,0,.15-1.59c-1-1.18-2.56-.56-3.36.1a.55.55,0,0,0-.15.63,1.86,1.86,0,0,0,1.27,1.53A1.74,1.74,0,0,0,114.61,132.14Z"/><path class="cls-1" d="M60.58,82.92c-1.28-.62-2-2-3.44-2.44-1.17-.33-2-1.21-3.18-1.63a23.19,23.19,0,0,0-3.79-1c-.56-.11-.66-.74-1.28-.68-2.51.24-5.12-.65-7.54.68a.85.85,0,0,1-.39.12A12.9,12.9,0,0,0,38.2,79c-.66.22-1,1-1.73,1-1.44,0-2.42,1-3.68,1.39-.74.22-1,1.38-2,1.12-.05,0-.21.19-.24.31-.16.61-.69.81-1.13,1.14-1.22.95-2.71,1.63-3.28,3.24a.54.54,0,0,1-.4.36,1.84,1.84,0,0,0-1.23,1.27c-.5,1.36-1.48,2.46-1.83,3.93a8.86,8.86,0,0,1-.79,2.46c-.85,1.42-.71,3-.79,4.45a17.33,17.33,0,0,0,1.86,7.78c.64,1.14,2.08,1.34,2.8,2.39,0,.06.17,0,.26.07,1.49.4,3,.67,4.27-.49a.77.77,0,0,1,.37-.21c1.31-.06,2.21-1,3.17-1.65a59.61,59.61,0,0,1,7.31-4.62c2.25-1.16,4.54-.61,6.81-.26,1,.16,1.65,1.13,2.33,1.9,1.86,2.12,3.52,4.43,6,5.89a5.8,5.8,0,0,0,3.1,1,8,8,0,0,0,2-.55,6.76,6.76,0,0,0,4.7-6.62c-.1-2.64.1-5.25.2-8.53a12.32,12.32,0,0,0-1.67-7.52,29.39,29.39,0,0,0-3-3.93C61.21,83.82,61.13,83.2,60.58,82.92ZM31.4,101.22c.14.9,0,1.24-.9,1.65-.62.29-1.06.81-1.63,1.14-.89.51-1.24.37-1.39-.64-.13-.83-.5-1.58-.59-2.45A11.06,11.06,0,0,1,28,95.63a23.83,23.83,0,0,1,1.93-4,10.38,10.38,0,0,1,1.63-1.52,48.49,48.49,0,0,0-.36,6.75A29,29,0,0,0,31.4,101.22Zm7.56-11c-.08,2.2-.13,4.4-.11,6.61,0,1.28,0,1.27-1.31,1.61a2.44,2.44,0,0,0-1.42.84,1.23,1.23,0,0,1-.76.59c-.41.07-.82.08-.79-.48.08-1.37-.5-2.65-.51-4,0-1.87-.08-3.75-.18-5.62,0-.61-.32-1.41,0-1.79a5.79,5.79,0,0,1,2-1.55c1.15-.5,2.28-1.08,3.53-1.68C39.49,86.74,39,88.48,39,90.26Zm8.64-3.44c-.44,3.13.19,6.32.1,9.51,0,1.07-.05,1.18-1.09,1.09a13.63,13.63,0,0,0-3.32-.17c-.59.09-1.07-.55-1.09-1.19-.13-3.38-.28-6.76-.42-10.14,0-.19-.05-.38-.05-.56,0-1.82.29-2.35,2.09-2.68A10,10,0,0,1,47,82.19c.58.07.76.32.78.91C47.79,84.33,47.43,85.53,47.6,86.82Zm8,14a21.88,21.88,0,0,0-.05,2.46c-1.4-1.71-2.59-3.47-4.53-4.47-.38-.2-.21-.58-.21-.88,0-2.74-.24-5.46-.48-8.18-.2-2.3-.19-4.62-.44-7,1.87.23,3.21,1.28,4.77,1.73a1.46,1.46,0,0,1,1,1.82,50.45,50.45,0,0,0,0,10.71A19.8,19.8,0,0,1,55.63,100.8Zm6.85-.32a3.14,3.14,0,0,0,.47,1.31,3.89,3.89,0,0,1-1.32,5,4,4,0,0,1-2.06.75c-.78,0-1.17-.47-1.63-.87-.3-.26,0-.54.17-.7a2.43,2.43,0,0,0,.78-2.18c0-3.07-.17-6.13-.44-9.18-.09-1.07-.44-2.11-.5-3.19-.09-1.3-.21-2.6-.31-4,.62,0,.93.17,1.09.55.34.79,1.08,1.26,1.53,1.92A8,8,0,0,1,62,94.51,39.72,39.72,0,0,0,62.48,100.48Z"/><path class="cls-1" d="M109.7,113.19a4.55,4.55,0,0,0,4.41,0,4.66,4.66,0,0,0,1.82-2.91,30.41,30.41,0,0,0,1.17-9.05V99.79A24.65,24.65,0,0,0,115.55,91a5.48,5.48,0,0,0-1.67-2.38,7.68,7.68,0,0,1-1.72-1.79,9.9,9.9,0,0,0-2.51-2.29c-.85-.7-1.79-1.34-2.67-2-.29-.23-.46-.63-.85-.72-1.36-.32-2.43-1.45-3.92-1.37-.56-.62-1.22,0-1.87-.15a8.33,8.33,0,0,0-4.43-.06,14.68,14.68,0,0,0-6.57,3.08c-1.89,1.71-4,3.14-5.26,5.5a21.23,21.23,0,0,1-1.79,2.65c-1,1.3-2.29,2.38-2.5,4.13a.86.86,0,0,1-.22.36,16.75,16.75,0,0,0-3.23,7.89,7.89,7.89,0,0,0,1.06,6A5.57,5.57,0,0,0,82,111.88a13.89,13.89,0,0,0,6.89-3.23A76.56,76.56,0,0,0,97,100.93a1.9,1.9,0,0,1,2.85-.09c.5.68,1.07,1.31,1.54,2,.88,1.24,1.75,2.47,2.72,3.64a10.32,10.32,0,0,1,.93,1.2C106.25,109.77,107.5,111.86,109.7,113.19Zm2.47-19.69a24.75,24.75,0,0,1,1.1,6.9c-.08,3.28-.07,6.57-1.1,9.83a3.68,3.68,0,0,1-2.36-3.54,54.12,54.12,0,0,0-.09-6.74c0-1.82-.24-3.64-.28-5.46s-.43-3.36-.5-5.18A6.64,6.64,0,0,1,112.17,93.5Zm-26.3,11.92A22.67,22.67,0,0,1,82,107.2c-.37.16-.76-.11-1-.59a6.41,6.41,0,0,1-.54-2.62,43.12,43.12,0,0,1,1.12-6.37,1,1,0,0,1,.27-.49c.84-.75,1.42-1.72,2.2-2.53.19-.2.75-.54.76-.43.09.56.88.43.87,1.21,0,2.38.22,4.77.36,7.15a3.17,3.17,0,0,0,.27,1.23C86.75,104.68,86.66,104.88,85.87,105.42ZM92,99.58a1.35,1.35,0,0,1-.72,1.34,16,16,0,0,0-2.33,2.14c-.08-1.32-.11-2.34-.22-3.35-.28-2.52-.61-5-.88-7.55a2.62,2.62,0,0,1,.72-2.58,11,11,0,0,1,2.19-1.9c.48-.23.49-1.06,1.28-1,0,1.82,0,3.6,0,5.38C92,94.57,92.11,97.08,92,99.58Zm8.34-14.74c-.33,2-.32,4.12-.49,6.18-.14,1.76-.25,3.52-.37,5.3a10.72,10.72,0,0,0-2.33,0,2.53,2.53,0,0,0-.56.06c-1.22.43-1.16.43-1.29-.86q-.47-4.6-1-9.18c-.17-1.39-.17-1.25,1.11-1.74s2.88-.24,4.29-.5C100.25,84,100.4,84.33,100.32,84.84Zm6.87,3.4c-.25,2.61-.22,5.23-.47,7.84-.18,1.86-.23,3.75-.37,5.62a5.87,5.87,0,0,1-.08.62c-.77-.21-.7-.87-1-1.23a11.75,11.75,0,0,0-1-1.31c-1.49-1.22-1.52-2.87-1.58-4.55-.09-2.73-.21-5.45-.33-8.18a13.87,13.87,0,0,1-.28-2.23c.06-.6.41-.61.77-.41,1.38.74,2.5,1.89,3.92,2.58A1.2,1.2,0,0,1,107.19,88.24Z"/><path class="cls-1" d="M33.92,127.86c.16.73.77,1.2.89,1.87a11.63,11.63,0,0,0,2,3.94,4.41,4.41,0,0,0,1.88,1.59,11.7,11.7,0,0,0,2.13.49,10.14,10.14,0,0,0,7-.57,6,6,0,0,0,3.42-4.1c.66-2.12,1-4.33,1.5-6.5a2.8,2.8,0,0,0,0-.71,22.23,22.23,0,0,0-1.06-7.63c-.27-.75-.6-1.26-1.46-1.24a3.12,3.12,0,0,0-1.21,2.6,10.52,10.52,0,0,1-.93,3,2.31,2.31,0,0,1-1.26,1.1,20.42,20.42,0,0,1-2.76,1.06,2.31,2.31,0,0,1-2.52-.3.29.29,0,0,0-.13,0c-3.06-.86-4-3.3-4.43-6-.1-.6-.17-1.11-.82-1.34a1.67,1.67,0,0,0-1.39,1.42,22.93,22.93,0,0,1-1,4c-.27.76.05,1.47,0,2.21A18.27,18.27,0,0,0,33.92,127.86Z"/><path class="cls-1" d="M88.17,118.44a46.58,46.58,0,0,1-.53,6,4,4,0,0,0,.1,2,4.59,4.59,0,0,1,.26,1.23,9.27,9.27,0,0,0,1.46,4.65,7.49,7.49,0,0,0,5.4,3.79,6.21,6.21,0,0,0,4.12-.54,9.91,9.91,0,0,0,5.14-5.17,25.23,25.23,0,0,0,.89-4c.68-3,0-5.91-.18-8.85a1.56,1.56,0,0,0-1.25-1.35.92.92,0,0,0-1.11.81c-.15.74-.28,1.48-.46,2.21a12.21,12.21,0,0,1-1.57,3.3,2.91,2.91,0,0,1-2.2,1.09,13.22,13.22,0,0,1-4.6-.38A1.88,1.88,0,0,1,92.33,122c-.44-1.32-1.68-2.35-1.42-3.9-.55-.58-.26-1.72-1.3-2C88.28,116.39,88.28,117.45,88.17,118.44Z"/><path class="cls-1" d="M62.19,149.79c1.08,1.25,2.37,2.41,2.72,4.15a2,2,0,0,0,.57.92c.46.51.77.4,1.13-.07a2.6,2.6,0,0,0,.25-2.7,30.58,30.58,0,0,0-1.94-4.26c-1.19-2-3-3.09-4.71-4.35-.46-.34-1-.19-1.43-.49a9.86,9.86,0,0,0-5.17-1.7,6.62,6.62,0,0,1-1.4-.17,18.61,18.61,0,0,0-4.34-.34c-1.61,0-3.34-.1-4.65,1.22a3.48,3.48,0,0,0-2.31,1.54A23.45,23.45,0,0,0,36.7,150a12.74,12.74,0,0,0-.51,7c.39,2.55,3.4,6.24,7.24,5.19l.23-.11a17.64,17.64,0,0,0-2.38-4.8,2,2,0,0,1-.44-1.17c0-1.74,0-3.45,1.12-4.94a27.31,27.31,0,0,1,2.76-3.65,4.39,4.39,0,0,1,2.84-1.4c1.62,0,3.24-.05,4.86-.06a19.61,19.61,0,0,1,5.33.93A9,9,0,0,1,62.19,149.79Z"/><path class="cls-1" d="M79.64,148.12c1.54-1,3.31-1.23,5-1.74,1.5-.46,3.11-.53,4.64-.84a10,10,0,0,1,5.5.26c1.79.62,2.37,2,2.75,3.56a7.31,7.31,0,0,1-.81,5.25c-1.31,2.35-2.49,4.85-4.6,6.67a1,1,0,0,0-.43,1,16.46,16.46,0,0,0,4.17-1.37A6.17,6.17,0,0,0,98,159.55a20.53,20.53,0,0,0,2.84-4.51,10.87,10.87,0,0,0-.5-10.31c-.21-.35-.24-.81-.69-1a34.36,34.36,0,0,0-4.45-2.25,12.76,12.76,0,0,0-2.71-.44,19.2,19.2,0,0,0-3.48.07c-.68,0-1.4.33-2.14.37s-1.17.92-2,.42c-2.11,1-4.56,1.22-6.5,2.84-1,.84-2.17,1.54-3.13,2.5a14.68,14.68,0,0,0-4,6.25,3.78,3.78,0,0,0,.52,2.81c.22.44.72.42,1.15.31s.29-.47.28-.8a3.44,3.44,0,0,1,.54-2.14A19.77,19.77,0,0,1,79.64,148.12Z"/><path class="cls-1" d="M88.71,170.24a3.18,3.18,0,0,1,.43.06c2.2.76,4.49.49,6.42.57h2.75a10.86,10.86,0,0,0,3-.21,27.4,27.4,0,0,0,5.75-2.95,25.56,25.56,0,0,0,2.88-2.53,16.5,16.5,0,0,0,5.12-6.49,13.93,13.93,0,0,0,1-4.08,31.62,31.62,0,0,0-.3-6c-.1-1-.93-1.51-1.14-2.41-.1-.42-.92-.33-1.39-.57-.65-.34-1.19,0-1.65.42a1.2,1.2,0,0,0-.38,1.51,6.19,6.19,0,0,1,.51,3,12.67,12.67,0,0,0-.28,2,8.33,8.33,0,0,1-.85,3.8c-.53,1.17-1.1,2.44-2.48,3-.94,1.6-2.76,2.23-4,3.53a8.44,8.44,0,0,1-.92.87,30.48,30.48,0,0,1-7.29,3.69,13.39,13.39,0,0,1-2.24.84,19.85,19.85,0,0,1-4.78.53c-.41,0-.77,0-.81.55A.71.71,0,0,0,88.71,170.24Z"/><path class="cls-1" d="M24.55,162.16a32.13,32.13,0,0,0,2.58,3.58,22.54,22.54,0,0,0,4.56,4,6.18,6.18,0,0,0,2.19,1.15,11.17,11.17,0,0,0,7-.37,3.34,3.34,0,0,1,.82-.18c.89-.11,1.77-.24,2.65-.39a2.33,2.33,0,0,0,2-1.24,3.38,3.38,0,0,0-3.46-2.05,8.45,8.45,0,0,1-3.6-.59,3.34,3.34,0,0,0-1.65-.2,5.57,5.57,0,0,1-3.55-.92,11.57,11.57,0,0,1-3-2.37A20.75,20.75,0,0,0,29,160.19a6.64,6.64,0,0,1-2-5.18,6.33,6.33,0,0,1,.54-2.56,50.54,50.54,0,0,1,2.61-5.76c.29-.5.71-.89,1-1.38a.75.75,0,0,0-.11-1c-.32-.29-.56-.1-.86.12a10.12,10.12,0,0,0-2.61,2.73,53.3,53.3,0,0,0-2.9,4.57c-.61,1.17-1.49,2.3-1.38,3.77a6.06,6.06,0,0,1-.11,1.27A8,8,0,0,0,24.55,162.16Z"/><path class="cls-1" d="M69.55,144.37A3.38,3.38,0,0,0,71.87,143a9.53,9.53,0,0,1,6.64-4,3.19,3.19,0,0,0,2.42-1.35,1.44,1.44,0,0,0,0-1.91,3.57,3.57,0,0,0-2.54-1.14,8.11,8.11,0,0,0-3.31.87c-1.56,1-3.47,1.51-4.59,3.16-.13.19-.38.12-.48.23-.28.29-.36.5-.81,0a12.05,12.05,0,0,0-3.51-2.19,21.57,21.57,0,0,0-4.51-1.59,5.5,5.5,0,0,0-4.12.35c-.6.34-.85,1.28-.36,1.45s.71.61,1.23.64c2.42.12,4.4,1.43,6.48,2.45a5.27,5.27,0,0,1,2.11,1.8,7.68,7.68,0,0,0,.77,1.12A4,4,0,0,0,69.55,144.37Z"/><path class="cls-1" d="M57.47,154.58c-.47-1.65-4.17-3.25-5.94-3a5.77,5.77,0,0,0-4.61,5.81,2,2,0,0,0,.37,1,4.58,4.58,0,0,0,3,1.86c1.5.42,3.07.23,4.58.52,1.18.23,2.35.46,3.53.61a1.52,1.52,0,0,0,1.71-2.22,2.87,2.87,0,0,0-.34-.62A13.32,13.32,0,0,1,57.47,154.58Z"/><path class="cls-1" d="M80.36,160.43a2,2,0,0,0,2.21-.5c.24-.22.41-.49.8-.49,2.59,0,5-.86,7.44-1.49,2.85-.73,3.77-3.13,2.47-5.4-.91-1.58-2.62-2-4-2.25a6.5,6.5,0,0,0-4,1.16c-2.82,2.14-4.28,5.08-5.26,8.35C79.91,160.21,80.1,160.32,80.36,160.43Z"/><path class="cls-1" d="M82.76,77.13a2,2,0,0,0-2.16,0,15.94,15.94,0,0,0-3.2,3.05l-3,3.86c-.39-.19-.42-.51-.6-.71-.55-.66-.57-1.56-1.16-2.23s-1.28-1.76-1.94-2.64c-1.12-1.51-2.45-2.65-4.48-2.61-.17,0-.33-.16-.51,0a5.16,5.16,0,0,0-1.43,2.45c-.15.64.51,1.16.83,1.72.23.39.74.38,1,.72s.47.17.67.44a25.54,25.54,0,0,1,3.43,5.72,3.39,3.39,0,0,0,2.86,1.91A1.25,1.25,0,0,0,74.51,88a30.35,30.35,0,0,1,2-3.88c1.66-2.22,3.24-4.52,5.89-5.72a1.62,1.62,0,0,0,.43-.36C83.17,77.69,83.24,77.41,82.76,77.13Z"/><path class="cls-1" d="M60.31,125.53a1.82,1.82,0,0,0-.34,2c.39.8,1.08.53,1.72.37a.58.58,0,0,1,.14,0c1.57.06,3.18-.12,4.47,1.19.36.36.64,1,1.3,1a8.12,8.12,0,0,1,2.47.6c.44.17.79.06.89-.37a2.6,2.6,0,0,1,.65-1.07,1,1,0,0,0,.2-.93,4.93,4.93,0,0,0-1.9-3c-.9-.68-2-.59-3-1a16.8,16.8,0,0,0-2.48-.52A5.12,5.12,0,0,0,60.31,125.53Z"/><path class="cls-1" d="M74.58,132a2.49,2.49,0,0,0,1.89-1.27A6.25,6.25,0,0,1,81,127.11a1.59,1.59,0,0,0,1.33-1.59c-.14-.31,0-.89-.47-1-1.29-.31-2.57-.7-3.9-.05-.8.39-1.52.88-2.29,1.27a5.49,5.49,0,0,0-2.81,3.93C72.57,130.86,73.54,132.15,74.58,132Z"/><path class="cls-1" d="M67.16,120.14a2.19,2.19,0,0,0,1.2,1.13c.5.18,1,.69,1.55.5a2.24,2.24,0,0,0,1.2-2c.08-2.43-2.61-4.73-5.6-4.68,0,0-.23,0-.42,0a1.8,1.8,0,0,0-1.72,1.41c-.12.59.18,1,1.27,1.41A4.39,4.39,0,0,1,67.16,120.14Z"/><path class="cls-1" d="M75.71,120.16a4,4,0,0,0,.53-.46c.84-1.26,1.71-2.43,3.46-2.49.55,0,.63-.63.71-1.09s-.35-.66-.74-.84A6,6,0,0,0,78,115a5.73,5.73,0,0,0-4.91,3.42,2,2,0,0,0,.78,2.19A1.6,1.6,0,0,0,75.71,120.16Z"/><path class="cls-1" d="M61.82,186.89c-.2.3-.39.55-.71,1C61.8,187.67,62,187.42,61.82,186.89Z"/><path class="cls-1" d="M109.44,205.28h0l0,0Z"/><path class="cls-1" d="M109.26,205.49a1.64,1.64,0,0,0-.27.46C109.08,205.8,109.16,205.64,109.26,205.49Z"/><path class="cls-1" d="M109.41,205.29a1.49,1.49,0,0,0-.15.2,1.07,1.07,0,0,1,.18-.19v0Z"/><path class="cls-1" d="M109,206a1.64,1.64,0,0,1,.27-.46,1.49,1.49,0,0,1,.15-.2c-.87,0-.68.84-1.17,1.38,1.07-.14,1.31-.63,1.2-1.37a1.07,1.07,0,0,0-.18.19C109.16,205.64,109.08,205.8,109,206Z"/><path class="cls-1" d="M107.89,207.12c0,.09-.09.19-.07.25a.27.27,0,0,0,.23.09c.13,0,.16-.1.07-.19A1.3,1.3,0,0,0,107.89,207.12Z"/><path class="cls-1" d="M73.92,223.38a6.54,6.54,0,0,1,1.19-1.16A1.64,1.64,0,0,0,73.92,223.38Z"/><path class="cls-1" d="M73.92,223.38a1.5,1.5,0,0,0,0,.37,8.1,8.1,0,0,0,1.73-1.68l-.49.15A6.54,6.54,0,0,0,73.92,223.38Z"/><path class="cls-1" d="M73.92,223.38a1.64,1.64,0,0,1,1.19-1.16l.34-.29c-.36-.27-.69-.21-1,.21s-.69.77-1,1.16c-.15.17-.41.36-.16.59s.31,0,.48-.08c0,0,0,0,0-.06S73.84,223.5,73.92,223.38Z"/><path class="cls-1" d="M75.11,222.22l.49-.15-.15-.14Z"/><path class="cls-1" d="M73.69,223.75s0,0,0,.06a.49.49,0,0,1,.17-.06,1.5,1.5,0,0,1,0-.37C73.84,223.5,73.76,223.62,73.69,223.75Z"/><path class="cls-1" d="M76.19,226.38v0h0Z"/><path class="cls-1" d="M75,226.82c.29-.44.65-.38,1-.42A.89.89,0,0,0,75,226.82Z"/><path class="cls-1" d="M76.16,226.36l-.17,0h.15l0,0Z"/><path class="cls-1" d="M75,226.82a.89.89,0,0,1,1-.42l.17,0c-.26-.16-.52-.51-.8-.21s-.75.56-.85,1a.33.33,0,0,0,.12.22c.11.09.28.16.32,0,.15-.64.84-.62,1.19-1H76C75.68,226.44,75.32,226.38,75,226.82Z"/></svg>