<svg id="圖層_3" data-name="圖層 3" xmlns="http://www.w3.org/2000/svg" viewBox="0 0 64.97 82.84"><defs><style>.cls-1{fill:#fff;}</style></defs><path class="cls-1" d="M64.87,24.35a6.66,6.66,0,0,0-.36-1.19,10.27,10.27,0,0,1-.62-1.61c-.19-.61-.4-1.27-.53-1.82a10.12,10.12,0,0,0-.77-1.94,23.34,23.34,0,0,0-1.65-2.61,2.69,2.69,0,0,1-.61-1.2A2.45,2.45,0,0,0,60,13.1a6.5,6.5,0,0,0-1-1.23c-.18-.22-1.07-1.26-.85-1.36a3.35,3.35,0,0,0-.44-.63c-.5-.49-1-1-1.43-1.49l-.7-.74c-.23-.24-.47-.47-.71-.7a5.67,5.67,0,0,0-.87-.67,31.89,31.89,0,0,0-5.92-3,37.22,37.22,0,0,0-9.43-2c-.14,0-.31-.05-.47-.07,0,0,0-.1,0-.11.81-.12,1.46-.3,2.12-.43-.5-.08-1-.14-1.5-.2L38.38.35l-.09,0c-.39.14-.52.4-1.11.43-.77.07-1,.29-1.77.37-.14,0-.14.09-.25.13a1.34,1.34,0,0,1-.35,0c-.71-.12-.17-.21-.09-.3s0-.17.15-.22c.65-.23,1.29-.44,1.94-.64L35.05,0a11.22,11.22,0,0,1-1.61.58c0,.26-.43.15-.78.08L30.78.31c-.29-.06-.46-.15-.72-.22a3.08,3.08,0,0,0-.47,0,.59.59,0,0,0-.12.17c0,.08,0,.16,0,.24a.75.75,0,0,1-.29.09,1.67,1.67,0,0,1-.51,0c-.09-.06,0-.16-.08-.22a1.94,1.94,0,0,0-.5-.18l-.71.23A4.28,4.28,0,0,0,27,.56c-.27.13-.37.14-.48,0A2.57,2.57,0,0,0,26,.39h-.15c-.09,0-.23.09-.23.11s.09.23.07.35c-.05.27-.71.53-1.62.68-.61.1-1.22.21-1.77.28L21.08,2c-.88.44-1.89.94-3,1.47h.13a4.71,4.71,0,0,0,1.39-.29,5.42,5.42,0,0,0,.93-.47,1.79,1.79,0,0,1,1.2-.38,1.06,1.06,0,0,0,.31,0c.85-.37,1.21-.15,1.93-.31.43-.1.45,0,.18.18l-1.27.67c-.84.44-1.87.67-2.76,1.08-.56.26-.74.24-.93.17a2,2,0,0,0-.48.19,13.75,13.75,0,0,1-1.76,1c-.61.31-1.09.63-1.58.88a7.3,7.3,0,0,1-1.14.55c-.18.07-.18-.09-.28-.14s-.48-.2-.71-.32-.12-.14-.15-.22c-.42.23-.84.47-1.24.72s-.82.49-1.22.75c.31.13.38.45.64.63.07.05.09.13.15.19s.11,0,.13-.06A1.16,1.16,0,0,0,11.73,8c-.14-.24-.32-.46-.47-.7,0,0,0-.16.05-.24s.25,0,.31,0c.31.15.58.32.89.47s-.12.36-.59.73a8.11,8.11,0,0,1-1.46,1c-.47.22-.53.18-.24-.3.44-.71.3-.7-.63-.19a5.72,5.72,0,0,0-1.45.84,1.77,1.77,0,0,0-.54.71c-.29.65-.72,1.48-1.08,2.29a2.41,2.41,0,0,1-.29.4,2.37,2.37,0,0,0-.69,1,2.73,2.73,0,0,1-.37.52c-.09.09-.16,0-.16,0s.16-.44.13-.41c-.24.16.38-.89-.09-.33A7,7,0,0,0,4.38,15a2.61,2.61,0,0,0-.12.37,8.14,8.14,0,0,1-.42,1.23A8.61,8.61,0,0,1,3,17.9a6.1,6.1,0,0,0-.54,1.16,15.93,15.93,0,0,0-.58,1.55A43.49,43.49,0,0,0,.57,26c-.08.45-.14.93-.21,1.39,0,.23-.08.49-.09.68l-.06.61c-.08.8-.15,1.61-.21,2.42C0,52.42,26.71,80.46,27.05,80.85c2.3,2.67,7.83,2.85,10.18-.68.28-.41,23.94-38.62,24.23-39.22a11,11,0,0,0,.72-2.12,27.45,27.45,0,0,0,.87-7.6c0-.32,0-.79,0-1.18a15.18,15.18,0,0,0-.14-2.23c0-.19-.06-.37-.08-.55l-.08-.43c-.06-.28-.13-.57-.2-.86-.15-.67-.2-1-.05-1s.37-.12.66.77c.16.49.4.7.35-.44-.05-.89.2-.7.38-.22.58,1.62.72.2,1.06.17A4.18,4.18,0,0,0,64.87,24.35ZM44.33,30a3.33,3.33,0,0,1-.23.74,2.37,2.37,0,0,0-.09.34,3.63,3.63,0,0,1-.22.56,4.2,4.2,0,0,0-.26.52l0,0c0-.25-.33.25-.42.2s-.09,0-.15.2a.79.79,0,0,1-.2.42c-.06.06-.08,0-.12,0s0,0,0-.09a.81.81,0,0,0-.12.22s0,.15-.14.27-.11,0-.14.07-.13.2-.21.31a.38.38,0,0,1-.13.08s-.05-.06-.09-.07-.08,0-.13,0a.28.28,0,0,1,0,.09s0,.06,0,.1l-.16.11-.15.05a.72.72,0,0,0-.37.31c0,.05-.23.18-.26.23a1,1,0,0,1-.51.36,1.06,1.06,0,0,0-.32.16v0a.41.41,0,0,0,.15.61s0,.08,0,.13a.35.35,0,0,0,0,.39s0,0,.06,0c.25-.07.5,0,.74-.11a3.55,3.55,0,0,1,.64-.17s.06.08.11.12a.57.57,0,0,0,.16,0c.11,0,.25,0,.25.09a.45.45,0,0,1,0,.18.54.54,0,0,1-.38.21l-.88.19-.33.09a3,3,0,0,1-.39,0,3.71,3.71,0,0,0-.74.07,1,1,0,0,0-.61.23c-.06.1-.21.17-.31.25s-.26.19-.2.26.36.06.61.05a2.36,2.36,0,0,0,.45,0,1.27,1.27,0,0,1,.59,0A1.71,1.71,0,0,0,40,38c.29,0,.63-.1.9-.08a1,1,0,0,0,.45,0,1.4,1.4,0,0,1,.69,0c.15,0,.2.06.08.14s-.19.14-.12.19-.06.14-.16.21-.22,0-.35.06a6.14,6.14,0,0,1-1.41.19,2.27,2.27,0,0,0-1.35.42,5.15,5.15,0,0,1-.75.59c-.09.05-.17.15-.11.17s.07.11-.05.13-.2.11-.35.15-.35.06-.26.15l-.08,0a1.47,1.47,0,0,0-.55.11c-.11,0-.38,0-.39.05s-.36.1-.56.14-.4,0-.3.1-.11,0-.16,0a3.4,3.4,0,0,1-.79,0h-.58c-.19,0-.37,0-.56,0s-.44,0-.64,0a2.54,2.54,0,0,1-.61,0,1.73,1.73,0,0,1-.66-.1,1.76,1.76,0,0,0-.33,0c-.13-.11-.28-.07-.42-.11s-.4-.1-.6-.17l-.53-.16c-.24-.08-.5-.22-.71-.29s-.44-.21-.63-.25c-.16-.19-.39-.2-.59-.31-.35-.17-.63-.41-1-.63a4,4,0,0,1-.5-.47c-.14-.13-.31-.29-.48-.42a1.12,1.12,0,0,0-.22-.1c-.29-.16-.6-.31-.88-.47a3.58,3.58,0,0,0-.72-.35,1.49,1.49,0,0,1-.5-.39c-.17-.2-.34-.36-.5-.54a4.93,4.93,0,0,1-.49-.7,3.87,3.87,0,0,0-.35-.5,4.12,4.12,0,0,1-.46-.69c-.15-.27-.29-.56-.43-.8a5,5,0,0,1-.4-1.24c-.06-.31-.1-.61-.15-.92l0-.23a2.06,2.06,0,0,1,0-.26c0-.18,0-.36-.05-.54a15,15,0,0,1,0-2.12c0-.21,0-.42.07-.63a2.29,2.29,0,0,1,.09-.48,2.63,2.63,0,0,0,.18-.57,2.77,2.77,0,0,0,0-.49.44.44,0,0,1,0-.15,2.69,2.69,0,0,1,.13-.51c.13-.24,0,.2.06.12s0,.13,0,.17,0,0,.06,0a1,1,0,0,0,.09-.22.91.91,0,0,1,.16-.45.67.67,0,0,0,.07-.18c.06-.33.15-.68.19-.95a.61.61,0,0,1,.14-.31,2.11,2.11,0,0,1,.46-.45c.3-.27.35-.29.25,0s0,.22.12.09a3.33,3.33,0,0,0,.45-.51c.14-.18.23-.3.15-.32l-.37-.1-.12,0s0,.08,0,.1l.24.21a.45.45,0,0,1,0,.1l-.05,0s0,0-.07-.06-.17-.15-.3-.17a4.78,4.78,0,0,1,.39-.39c.12-.14.26-.26.39-.39a.14.14,0,0,0,.08.07l.29.05s.06.07.12,0a2.43,2.43,0,0,0,.37-.31c.16-.14.31-.3.51-.47a5.52,5.52,0,0,0,.56-.53.74.74,0,0,1,.16-.12c.08,0,.15,0,.33-.15s.66-.41.93-.65l.41-.37c.09-.08.06-.13-.08-.05s-.41.08-.69.29a.25.25,0,0,1-.11,0,.77.77,0,0,0-.42.26,1.74,1.74,0,0,1-.3.26,1.78,1.78,0,0,1-.49.23h-.05l1-.82.44-.17.63-.26c.32-.14.55-.31.54-.41s-.05-.08-.06-.12l.07-.06s0,0,.06,0a1.18,1.18,0,0,1,.21,0s.08,0,.17-.06l.14-.11.24-.15a.59.59,0,0,1,.2,0s0,.06.05.08l.2-.05.1-.06s0-.06,0-.09,0,0,0-.08l.17,0,.29,0,.73,0c.14,0,.32,0,.29-.11a3.15,3.15,0,0,0,.54-.36l.67-.1-.66.42c-.05,0,0,.06,0,.09s-.22.13.06.11a.42.42,0,0,0,.12,0s0-.06.08-.08c.28-.1.35-.2.63-.29s.24-.18.37-.27l0,0,.2,0,.58-.06c-.24.11-.46.23-.75.35,0,0,0,0,0,.05l.18,0a14.12,14.12,0,0,1,3.69-.12,12.2,12.2,0,0,1,2.48.59,1.39,1.39,0,0,1,.38.17l.34.19.33.21.66.43a.73.73,0,0,1,.22.19c-.07.05.36.36.45.42a2.81,2.81,0,0,1,.46.38.84.84,0,0,1,.2.29,1.12,1.12,0,0,0,.34.4,9.07,9.07,0,0,1,.85.81,3.6,3.6,0,0,1,.46.65c.11.2.24.42.37.63a3.15,3.15,0,0,0,.38.54,3.2,3.2,0,0,1,.24.41,1.74,1.74,0,0,1,.12.33c-.13,0,0,.58-.42,0-.11-.16-.21-.2-.11.12s0,.36-.09.2-.25-.25-.32-.23,0,.14.11.37.11.21.15.31l.07.15a1.54,1.54,0,0,1,.08.19,6,6,0,0,1,.26.82c0,.14.07.32.11.44a10.86,10.86,0,0,1,.37,2.91A4.57,4.57,0,0,1,44.33,30Z"/></svg>