<svg id="圖層_3" data-name="圖層 3" xmlns="http://www.w3.org/2000/svg" viewBox="0 0 457.13 283.83"><defs><style>.cls-1{fill:#d20b1d;}.cls-2{fill:#231815;}.cls-3{fill:#727171;}.cls-4{fill:#e41019;}.cls-10,.cls-11,.cls-12,.cls-13,.cls-4,.cls-5,.cls-6,.cls-7,.cls-8,.cls-9{fill-rule:evenodd;}.cls-5{fill:#281e1b;}.cls-6{fill:#261d1a;}.cls-7{fill:#271d1a;}.cls-8{fill:#251b18;}.cls-9{fill:#e4121a;}.cls-10{fill:#291f1c;}.cls-11{fill:#2a211e;}.cls-12{fill:#2c2320;}.cls-13{fill:#2f2623;}</style></defs><path class="cls-1" d="M83.5,41.75A41.75,41.75,0,1,1,41.75,0,41.75,41.75,0,0,1,83.5,41.75Z"/><path class="cls-2" d="M23,89.33v66.32h1.44V123.19h1.44v32.46h1.44V89.33Zm2.88,32.46H24.45V90.72h1.44Z"/><polygon class="cls-2" points="28.77 89.33 28.77 155.65 30.21 155.65 30.21 90.72 31.66 90.72 31.66 155.65 33.1 155.65 33.1 89.33 28.77 89.33"/><path class="cls-2" d="M41.75,89.33v66.32h4.33v-31.3H44.63v29.91H43.19V123.19h2.89V89.33Zm2.88,32.46H43.19V90.72h1.44Z"/><polygon class="cls-2" points="47.52 89.33 47.52 155.65 48.96 155.65 48.96 90.72 50.4 90.72 50.4 144.12 51.84 144.12 51.84 89.33 47.52 89.33"/><path class="cls-2" d="M59.05,89.33v66.32h1.44V123.19h1.44v32.46h1.45V89.33Zm2.88,32.46H60.49V90.72h1.44Z"/><polygon class="cls-2" points="64.82 89.33 64.82 155.65 69.14 155.65 69.14 121.79 69.14 121.79 66.98 121.79 66.98 123.19 67.7 123.19 67.7 154.26 66.26 154.26 66.26 90.72 67.7 90.72 67.7 120.64 69.14 120.64 69.14 89.33 64.82 89.33"/><path class="cls-2" d="M11.47,89.33v66.32h1.44V123.19h1.44v32.46H15.8V89.33H11.47Zm1.44,32.46V90.72h1.44v31.07Z"/><path class="cls-2" d="M17.24,89.33v66.32h1.44V144.1h2.88V89.33H17.24Zm1.44,53.37v-52h1.44v52Z"/><polygon class="cls-2" points="38.87 121.79 37.42 121.79 37.42 89.33 35.98 89.33 35.98 155.65 37.42 155.65 37.42 123.19 38.87 123.19 38.87 155.65 40.31 155.65 40.31 89.33 38.87 89.33 38.87 121.79"/><path class="cls-2" d="M70.59,89.33v66.32h4.32v-31.3H73.47v29.91H72V123.19h2.88V89.33Zm2.88,32.46H72V90.72h1.44Z"/><rect class="cls-2" x="53.28" y="89.33" width="1.44" height="66.32"/><polygon class="cls-2" points="10.03 89.33 8.59 89.33 8.59 155.2 4.98 158.81 5.93 159.75 10.03 155.65 10.03 89.33"/><polygon class="cls-2" points="55.45 89.33 55.45 90.72 56.17 90.72 56.17 155.65 57.61 155.65 57.61 90.72 58.33 90.72 58.33 89.33 55.45 89.33"/><path class="cls-2" d="M134.19,87.92V83.27h34v7.85h.63c6.56,0,9.53-2.71,9.53-3.54V27.21a5.82,5.82,0,0,0,3.19-1.9l.38-.53-10.31-8-3.91,5.33H134.34l-10.07-4.39V92.29h.63C133.64,92.29,134.19,88,134.19,87.92Zm0-62.76h34V50.65h-34Zm0,28.52h34V80.26h-34Z"/><path class="cls-2" d="M274,67.45a67.25,67.25,0,0,1-32.3-30.62h26.88c2.53,0,3.71-.46,4.51-1.8l.29-.49-10.51-8.29-5.44,7.63H239.71V18.17c2.14-.33,3.4-1,3.63-2.87l.07-.68-13.87-1.27V33.88H196.25l.87,2.95h26.11c-4.3,12.28-15.87,30.91-27.08,39.51l-.52.4.79,1,.47-.23c14.3-7.14,25.35-16.59,32.65-28.4V70.71H213.19l1,2.94h15.37V92.23h.63c7.92,0,9.54-2.67,9.54-3.37V73.65H251c2,0,3.53-.31,4.41-1.8l.3-.49-9.46-7.8-4.8,7.15h-1.73V39.93c5.45,17,14,29.52,25.61,37.32l.7.48.26-.81c1.33-4.25,3.67-7.51,7.59-8.31l.35-.07.35-.84Z"/><path class="cls-2" d="M297.08,32.28l.16.16a5.86,5.86,0,0,0,4.16,1.88,5.74,5.74,0,0,0,5.48-6c0-2-1.2-8.72-16.67-11.89l-.48-.1-.42.42.36.33c3.71,3.41,6.75,10.05,7.38,15Z"/><path class="cls-2" d="M356.66,79.82a5.79,5.79,0,0,0,2.23-1.39A3.77,3.77,0,0,0,360,75.71c-.1-2.67-2.84-4.46-8.56-5.89,2.54-.73,4.63-2.2,4.76-3V47.63A5,5,0,0,0,359,46l.37-.53-9.07-6.4h10c2.12,0,3.59-.29,4.35-1.71l.27-.48L357,31.06v-6.2a5.44,5.44,0,0,0,2.87-1.65l.38-.53L350.6,16l-3.34,4.19h-7.38V17.54c1.81-.38,2.88-.95,3-2.41l.05-.62-12.73-1.17v6.84h-7.64l-9.17-3.62V34.37H314c5.35,0,7.82-1.63,8.41-3h7.76V36.2H307.38l.72,2.89h41l-3,3.9H323.69l-9.5-3.86V70.22h.63c4.93,0,7.24-1.3,8.23-2.4a44.55,44.55,0,0,1-10.7,9.62,16.65,16.65,0,0,1-5.38-4V53.63a6.61,6.61,0,0,0,4-1.82l.44-.49-10.25-8.27L296.72,49h-9.26l.56,3h9.6V75.89c-3.18,1.48-7,3.26-9.63,4.26l-.66.25,5.44,10.53.54-.22a2.31,2.31,0,0,0,1.54-2.28,151.35,151.35,0,0,0,10.34-12.07C311.05,87.2,318.21,89,332.62,89H358.7l.06-.56c.41-3.82,2.88-7,5.84-7.6l.51-.11V79.61h-.65C362,79.7,359.36,79.76,356.66,79.82ZM330.19,28.5h-7.62V23.07h7.62Zm9.69-5.43h7.86V28.5h-7.86Zm0,13.13V31.38h7.86V34h.64a15.74,15.74,0,0,0,5-.6l-2.12,2.83Zm-16.17,9.68h22.82v4.06H323.71Zm0,7h22.82v4.22H323.71Zm0,7.11h22.82v4.3H323.71Zm8.82,20c-7,0-11.85-.17-15.65-1a46.08,46.08,0,0,0,13.87-6.84,10,10,0,0,0,1.09.06c1.69,0,2.82-.5,3.33-1.47l.32-.59-6.4-2.95h17.44v1.69a52.78,52.78,0,0,0-9.65-.48l-.26.55.58.22c7.85,2.89,11.48,7.23,13.09,9.33a6.43,6.43,0,0,0,2.36,1.4C345.6,80,338.38,80,332.53,80Z"/><path class="cls-2" d="M440.59,84.24h-12.7V73.4h15.23c2.2,0,3.65-.28,4.56-1.71l.35-.55-9.68-6.48-4.72,5.83h-5.74V60.3H445c2.23,0,3.68-.3,4.57-1.81l.33-.54-10-6.63-5,6h-7V50.66c1.64-.29,3.07-.86,3.19-2.49l.05-.67-13.48-1.18v11h-8.22c.66-1.4,1.1-2.63,1.68-4.07,2-.09,3-.75,3.3-2.14l.15-.67L402,47.5l-.08.77c-1.12,9-2.64,16.66-5.48,22.49l-.32.56.75.44.39-.3A47.22,47.22,0,0,0,407.89,60.3h9.76V70.49h-16l.8,2.91h15.2V84.24H390.54l.94,3H451.6c2.18,0,3.81-.3,4.65-1.81l.32-.54-10.66-7.11Z"/><path class="cls-2" d="M441.18,42H428.76A89.21,89.21,0,0,0,438,32.25c1.5,0,3.13-.34,3.53-1.9l.18-.67-9-2h15.64c2.38,0,3.85-.27,4.66-1.74l.3-.53-10.48-7-5.32,6.31H422.36v-7c1.88-.39,2.94-.94,3.18-2.41l.11-.72L412,13.35v11.3H382.48l.94,3h16.13l-.39.3.34.55c2.14,3.29,2,7.75,1.77,11l0,.25.14.21A5.92,5.92,0,0,0,404.07,42h-7.48l-11.08-3.95v14c0,12-.5,26.24-7.73,37.22l-.3.47.67.53.49-.34c14.94-10.37,17.1-26.4,17.1-37.88V45h56.45c2.12,0,3.82-.14,4.66-1.76l.28-.53-10.63-7.1Zm-16.73,0H407.58a5.4,5.4,0,0,0,3.68-5c0-2.17-1.37-6.24-10.45-9.4H427.5A130.37,130.37,0,0,1,424.45,42Z"/><path class="cls-3" d="M130.83,136.62c0,2.27-1,3.41-3.18,3.41-3,0-3.13-2.74-3.22-3.94H120a8.58,8.58,0,0,0,2.22,6.29,7.17,7.17,0,0,0,5.39,2.07c4.74,0,7.68-2.93,7.68-8.34V118.52h-4.5Z"/><polygon class="cls-3" points="236.45 135.78 225.69 118.52 220.64 118.52 220.64 143.95 225.14 143.95 225.14 126.19 236.27 143.95 240.95 143.95 240.95 118.52 236.45 118.52 236.45 135.78"/><polygon class="cls-3" points="277.95 128.37 267.29 128.37 267.29 118.52 262.79 118.52 262.79 143.95 267.29 143.95 267.29 132.87 277.95 132.87 277.95 143.95 282.45 143.95 282.45 118.52 277.95 118.52 277.95 128.37"/><polygon class="cls-3" points="292.2 143.95 310.28 143.95 310.28 139.45 296.71 139.45 296.71 132.96 308.65 132.96 308.65 128.46 296.71 128.46 296.71 123.02 310.28 123.02 310.28 118.52 292.2 118.52 292.2 143.95"/><polygon class="cls-3" points="454.68 123.02 454.68 118.52 436.61 118.52 436.61 143.95 454.68 143.95 454.68 139.45 441.11 139.45 441.11 132.96 453.05 132.96 453.05 128.46 441.11 128.46 441.11 123.02 454.68 123.02"/><rect class="cls-3" x="346.89" y="118.52" width="4.58" height="25.43"/><polygon class="cls-3" points="358.87 123.02 365.93 123.02 365.93 143.95 370.43 143.95 370.43 123.02 377.49 123.02 377.49 118.52 358.87 118.52 358.87 123.02"/><path class="cls-3" d="M150,118.52,141.13,144h4.72l1.63-4.68h10.2l1.63,4.68H164l-8.88-25.43Zm-1,16.3,3.54-10.14,3.54,10.14Z"/><path class="cls-3" d="M199.93,118.52,191,144h4.72l1.64-4.68h10.19l1.63,4.68H214l-8.89-25.43Zm-1,16.3,3.55-10.14L206,134.82Z"/><path class="cls-3" d="M388.6,118.52,379.71,144h4.72l1.64-4.68h10.19l1.63,4.68h4.72l-8.88-25.43Zm-1,16.3,3.54-10.14,3.55,10.14Z"/><path class="cls-3" d="M180,118.52h-9.6V144h4.46v-9.17H180c5.84,0,9.3-3.11,9.3-8.15S186,118.52,180,118.52Zm-.18,11.76h-5V123h5c3.38,0,5,1.15,5,3.64S183.23,130.28,179.85,130.28Z"/><path class="cls-3" d="M337.91,126.63c0-5-3.56-8.11-9.29-8.11H318.41V144h4.46v-9.17h6L333,144h4.94l-4.52-10.08.07,0A7.46,7.46,0,0,0,337.91,126.63Zm-9.47,3.65h-5.57V123h5.57c3.39,0,5,1.15,5,3.64S331.83,130.28,328.44,130.28Z"/><path class="cls-3" d="M417.12,130.1v3.72h6.36c-.51,3.17-2.07,6.12-5.79,6.12a6.05,6.05,0,0,1-4.25-1.6c-2-2.08-2.1-4.1-2.1-7.11s.1-5,2.1-7.11a6.05,6.05,0,0,1,4.25-1.6c3.51,0,5.09,2.07,5.36,3.46h4.49c0-2.11-2.49-7.94-9.85-7.94a10.88,10.88,0,0,0-7.56,3c-2.73,2.73-3.29,6.06-3.29,10.21s.56,7.48,3.29,10.22a10.88,10.88,0,0,0,7.56,3,7.62,7.62,0,0,0,6.49-3.22l.54,2.75h2.84V130.1Z"/><path class="cls-4" d="M21.59,191.57H37.66c2.4,0,2.44,0,2,2.43q-3.15,19-6.33,38c-.75,4.48-1.56,9-2.24,13.45-.18,1.19-.7,1.53-1.81,1.53-5.13,0-10.26-.06-15.38,0-1.29,0-1.7-.56-1.89-1.69Q7.77,219.4,3.42,193.54c-.27-1.56.21-2,1.75-2C10.64,191.62,16.12,191.57,21.59,191.57Z"/><path class="cls-4" d="M67.67,191.57c5.47,0,11,0,16.42,0,1.55,0,2,.39,1.7,2-2.31,13.55-4.54,27.12-6.8,40.68-.62,3.74-1.3,7.48-1.86,11.23-.16,1.1-.62,1.48-1.68,1.47-5.18,0-10.37,0-15.55,0-1.19,0-1.64-.51-1.81-1.58q-4-24.17-8-48.32c-.2-1.19-.39-2.39-.64-3.56-.31-1.41.11-2,1.64-1.94C56.61,191.61,62.14,191.57,67.67,191.57Z"/><path class="cls-5" d="M249.16,224.25c-.06-.34-.11-.67-.2-1.13a5.48,5.48,0,0,0-1.28,2.81c-1.54,5.57-3.48,10.95-7.17,15.52-1,1.22-1.91,2.8-3.3,3.17s-2.56-1.24-4.39-1.36a24.52,24.52,0,0,0,8.41-9.13c.53-.95.65-1.48-.52-1.91-.39-.15-1.48-.12-.94-.95s.68-2.57,2.25-2c1.27.45,1.5-.1,1.73-1a4.44,4.44,0,0,0,.37-1.32c-.08-.78,1.32-1.79-.06-2.29-1.89-.69-2.64-.24-3.34,1.39a57.32,57.32,0,0,1-2.78,5.54c-.63,1.11-1.23,1.72-2.51.86a8.51,8.51,0,0,0-1.8-.68c.75-1.4,2.23-2.33,2.59-4l0,0c2.34-3.46,3.41-7.39,4.37-11.57-3.09,1.49-3.09,1.49-5.38.15,0,.54,0,1,0,1.53.07,2.28-.46,2.72-2.76,2.22-.21,0-.6-.15-.6-.22.07-2-1.45-1.17-2.3-1.19-3.34-.09-6.69,0-10-.07-1.45-.05-1.82.45-1.9,1.81a58.64,58.64,0,0,1-4.17,19.29c-.08.21-.18.42-.27.63C212,243,212,243,209.39,242.17c-.71-.22-1.43-.4-2.23-.62,4.35-5.59,5.7-12.14,6.58-18.83a113.36,113.36,0,0,0,.27-21.56c-.08-1.32,0-1.82,1.56-1.58,1.93.31,3.9.26,5.85.42,1,.08,1.38-.22,1.28-1.23-.19-1.83-.25-3.68-.51-5.5-.14-.93,0-1.12.92-.94,1.18.25,2.37.43,3.57.6s1.28.77.63,1.7c-.89,1.29-.87,2.83-1.05,4.31-.11.86.28,1.11,1.09,1.05,2.53-.19,5.06-.29,7.58-.55,1-.1,1.41.08,1.27,1.12a4,4,0,0,0,0,1c.22,1.46-.29,2-1.8,1.67-1.06-.2-2.19,0-3.28-.13-1.58-.17-2.21.61-2.32,2.05-.22,2.66-.21,2.67,2.43,2.52a10.92,10.92,0,0,0,2.07-.12c1.9-.52,2,.47,1.86,1.95a23.66,23.66,0,0,0-.18,5.17,32.62,32.62,0,0,0,11.91-8.22c-3,.14-5.63.14-8.22.43-2,.23-1.58-1-1.71-2.12-.15-1.34.35-1.73,1.67-1.48a30.31,30.31,0,0,0,3.49.21,23,23,0,0,0-2.69-4.61c-.27-.4-1.33-.91-.23-1.42.89-.41,1.56-2.15,2.86-.8,1,1.07,1.87,2.33,2.85,3.46.67.8.61,1.36-.3,1.91a13.46,13.46,0,0,0-1.46,1.18c.1.12.17.27.24.27,4.43.3,4.42.3,4.31-4.1a31.71,31.71,0,0,0-.36-5.68c-.16-.78.1-1.08.9-.9.56.12,1.13.2,1.7.29,2.45.39,2.37.37,1.74,2.73a28.66,28.66,0,0,0-.61,7c0,.35,0,.71.48.77s.8-.28,1.07-.7a30.77,30.77,0,0,0,3.51-6.51c.34-1,.69-.89,1.42-.45,3.23,1.92,3.23,1.89.78,4.66-.74.84-1.44,1.72-2.21,2.64,2.09,0,4,.09,5.83,0,1-.07,1.33,0,1.36,1.09.07,2.61.12,2.54-2.53,2.46s-5.47,0-8.38,0a35.07,35.07,0,0,0,14,6.81c-1.14,1.05-2.27,2-3.28,3-.66.71-1.17.21-1.68,0a33.8,33.8,0,0,1-8.87-6.2c-.43-.42-.85-.86-1.55-1.57.13,2.8.19,5.19.39,7.58.08,1.05-.14,1.38-1.26,1.37-3,0-2.94,0-2.71-3,.11-1.5.15-3,.21-4.49a4,4,0,0,0-.12-.71,46,46,0,0,1-6.19,5.94c.1.21.13.35.2.38a7.84,7.84,0,0,1,2.31,1.1c.91.92-.81,1.14-.78,2a9.47,9.47,0,0,1-.71,2.52c2.68-.09,5.45-.82,7.35,1.7C249.29,223.41,249.48,224,249.16,224.25ZM221,213.43c0-2.45,0-2.45-.49-2.61a1.76,1.76,0,0,0-2.47,1.83c0,.4-.06.8-.08,1.2-.1,1.94.32,2.34,2.21,2C221.83,215.48,220.55,214.08,221,213.43Zm7.93-.27V215c0,.43.05.74.59.86,1.46.33,2.26-.16,2.38-1.65.05-.67-.1-1.37,0-2.05.08-1-.34-1.15-1.27-1.27C228.27,210.57,229,212.16,228.91,213.16ZM221,205.35c-.69-.45,1.07-2.11-1-2.27-1.4-.11-2.22.15-1.92,1.8a5.17,5.17,0,0,1,0,1.71c-.19,1.3.46,1.45,1.57,1.46s1.56-.32,1.39-1.44A10.36,10.36,0,0,1,221,205.35Zm5.23,8a7.07,7.07,0,0,1,0-1c.21-1.24-.33-1.54-1.51-1.5-1,0-1.33.32-1.25,1.29a12.82,12.82,0,0,1,0,2.4c-.1,1.06.17,1.51,1.37,1.51s1.53-.39,1.38-1.47A9.59,9.59,0,0,1,226.21,213.3Zm0-7.78a2.41,2.41,0,0,0,0-.85c-.2-.53.59-1.46-.66-1.57a1.63,1.63,0,0,0-1.91,1.32,19.59,19.59,0,0,0-.14,2c-.15,1.12.13,1.59,1.42,1.6s1.42-.52,1.31-1.51C226.18,206.21,226.21,205.86,226.21,205.52Z"/><path class="cls-6" d="M374.71,205a115.69,115.69,0,0,0,11.53-3.19c1.09-.37,1.59-.41,1.63,1,.11,3.39.19,3.42-3.18,4.15-2.91.64-5.84,1.23-8.77,1.8-1.1.21-1.79.53-1.71,1.92.13,2.52,0,5.05,0,7.64a25.69,25.69,0,0,0,6.1-2.27,2.59,2.59,0,0,0,.85-.83c.43-.55.37-1.62,1.3-1.63a31.25,31.25,0,0,1,3.6.32c.09,0,.18.11.24.2.76,1-.1,4.21-1.3,4.74A60.37,60.37,0,0,1,375.4,222c-.9.24-1.2.59-1.12,1.5.25,3,.49,6,.63,8.95.06,1.08.87.94,1.44,1.08a76.79,76.79,0,0,1,15.6,5.86c1.86,1,1.85,1,.62,2.71-2.58,3.59-2.57,3.58-6.16,1.24A51.57,51.57,0,0,0,376,238.07c-.61-.23-1.15-.59-1.34.51-.93,5.36-6.4,8.55-12.56,7a12.61,12.61,0,0,1-5.49-2.77c-3.3-3-2.79-7,1.2-9a18.8,18.8,0,0,1,10.46-1.44c1.68.17,2.39.07,2.37-1.93s-.14-4.25-.08-6.38c0-1.24-.77-.89-1.37-.82a29.53,29.53,0,0,1-7.74.32,7.15,7.15,0,0,1-5.5-3.43c-.51-.84-.51-1.36.57-1.83,3.53-1.53,6.19-4.37,9.39-6.41.32-.2.56-.48.44-.84-.2-.55-.67-.27-1-.2-3.32.67-6.62,1.51-10.06,1.33s-3.77-.49-4.42-3.75c-.17-.84-.26-1.7-.41-2.73a56,56,0,0,0,5.86,2c3.64.71,7.09-.32,10.57-1.05,1.09-.23,2.73,0,3.11-1a7.32,7.32,0,0,0,0-4.25,4.56,4.56,0,0,0-1.23-2.44c-1.15-1-.59-1.72.28-2.46.66-.55,1.3-1.14,2-1.68,1.6-1.29,2.05-1.2,3.24.52a6.08,6.08,0,0,1,1,4.75A17.6,17.6,0,0,0,374.71,205Zm-4.27,5.21c-3.15,2.23-5.89,4.1-8,6.71-1.21,1.51-.64,2.69,1.33,2.9a27.78,27.78,0,0,0,5.83-.42c.77-.08.84-.58.84-1.22C370.42,215.63,370.44,213.12,370.44,210.17ZM365.21,236a10,10,0,0,0-4.69.69c-1.5.69-1.93,1.93-1,3a6.81,6.81,0,0,0,6.25,2.11c2.15-.29,3.31-1.81,4-3.79.44-1.22.24-1.73-1.16-1.81C367.57,236.17,366.49,236,365.21,236Z"/><path class="cls-7" d="M307.26,237c2.4.65,4.64,1.43,7,.9,8.82-2,13.44-10.36,10.3-19-5-13.79-22-14.44-30.23-6.43-2.8,2.71-3.37,6-2.39,9.7a57.44,57.44,0,0,1,1.86,7.69c.19,1.54,1.13,1.72,2.44.55a104.49,104.49,0,0,0,12.56-13.78c1.83-2.34,3.53-4.79,5.34-7.26a21.37,21.37,0,0,1,3,5.3,1.12,1.12,0,0,1-.21,1.4c-5.13,5.29-10.17,10.67-15.33,15.93-2.7,2.75-5.61,5.29-8.4,8a1.76,1.76,0,0,1-2.61.18c-.94-.78-2.42-1.68-1.78-3,1.73-3.52.59-6.87-.15-10.27-.47-2.13-1-4.25-1.32-6.42a12.6,12.6,0,0,1,5.27-13c9.95-7.4,26.92-6.83,34.82,5.44,6.51,10.09,3.25,22.93-7.07,27.87a16.61,16.61,0,0,1-9.24,1.48,2.45,2.45,0,0,1-2.41-1.82A31.26,31.26,0,0,0,307.26,237Z"/><path class="cls-7" d="M427.88,210.44c-3.61,1-7,2.14-10.66,1.49-2.87-.52-3.92-1.67-4.24-4.59-.1-1-.16-2-.24-3.13a5.12,5.12,0,0,1,2.2,1.14A11,11,0,0,0,424,206.8a10.87,10.87,0,0,0,2.16-.56c1.06-.51,2.73,0,3.15-1.56.54-2,.76-4.14-.78-5.73-1.25-1.3-.74-2,.28-2.88.26-.23.5-.47.76-.71,2.47-2.28,2.72-2.2,4.4.78,1.1,1.93.82,3.88.41,5.86a4.14,4.14,0,0,0-.21,1.84c1.51-.42,3.21-.44,3.47-2.56a.88.88,0,0,1,.27-.62c1.39-.75,2.58.47,3.92.41.55,0,.79.26.9.81a3.44,3.44,0,0,1-2.19,4.29c-2.38,1-4.8,1.89-7.22,2.79a1.84,1.84,0,0,0-1.34,1.17c-1.2,3.47-2.48,6.92-3.71,10.38a7.65,7.65,0,0,0-.37,1.5c-.06.45-.16,1,.28,1.28s.87-.06,1.2-.34a20.66,20.66,0,0,1,10.1-4.11,15,15,0,0,1,7.83.71c5.93,2.22,8.11,8,5.09,13.63a19.2,19.2,0,0,1-7.4,7.32c-6.79,4-14.23,5.38-22,5.15-1.76-.06-3.23-.55-4-2.34a13.91,13.91,0,0,0-1.55-2.18,50.88,50.88,0,0,0,9.22.09c6.23-.65,12.07-2.33,17-6.42a12.54,12.54,0,0,0,3.19-3.83c2-3.78.17-7.59-4.07-8-6-.64-11,1.63-14.9,6.26-1.14,1.36-4.61,2.46-6.18,1.75-.85-.38-.31-1-.18-1.46,1.3-4.53,2.95-8.93,4.54-13.36A35.21,35.21,0,0,0,427.88,210.44Z"/><path class="cls-6" d="M146.73,220.42c1.46.27,2.7.52,3.94.72s1.72.58.9,1.76a3.31,3.31,0,0,0-.41.94c-.77,2.74-.52,3.09,2.23,2.81.83-.09,1,.16,1,.86a8.42,8.42,0,0,0,0,.87c.16,1.45.06,2.51-1.92,1.81-1.43-.51-2,.19-1.7,1.63s-.56,3,.36,3.8,2.17-.82,3.41-.92c.17,3.25.15,3.2-2.72,4.55-2.28,1.07-4.76,1.68-6.86,3.13-.59.41-.71-.2-.87-.45-.65-1-1.23-2.07-1.91-3.25-.56,1.09-1.11,2.12-1.63,3.18-.32.65-.71.78-1.35.39a10.86,10.86,0,0,0-4-1.12c6.27-8.7,6.91-18.74,7.25-28.83a90.07,90.07,0,0,0-.3-11.73c-.12-1.3.16-1.71,1.53-1.52,2,.28,4.13.3,6.19.49,1.14.11,1.52-.31,1.46-1.44a25.66,25.66,0,0,0-.44-4.63c-.2-.82-.08-1.22.87-1.06,1.41.23,2.83.47,4.26.63,1.08.12,1.13.59.55,1.32a7,7,0,0,0-1.3,4c-.08.92.23,1.22,1.15,1.15,2.58-.2,5.17-.26,7.75-.52,1.22-.12,1.66.26,1.54,1.44a6.37,6.37,0,0,0,0,1.38c.08.79-.13,1.14-1,1-1.37-.14-2.76-.13-4.14-.22-1.93-.14-2.5.36-2.56,2.29-.07,2.45-.07,2.45,2.36,2.34a4.67,4.67,0,0,1,.52,0c1.24,0,2.88-.89,3.58,0s.19,2.43.1,3.68a59.91,59.91,0,0,0,.16,7.58c.05,1.1-.35,1.42-1.22,1.21s-2.46.92-2.54-1.19c0-.39-.71-.23-1.08-.25-4.25-.25-8.51-.2-12.77-.11-1.23,0-1,.93-1.06,1.58a71.58,71.58,0,0,1-1.86,12.44c-.52,2.1-1.23,4.16-1.87,6.3a13.4,13.4,0,0,0,4.19-.89c.77-.2.7-.85.7-1.39C147.22,231,147.67,225.8,146.73,220.42Zm2.89-8c-.31-.57.54-1.6-.53-2-1.58-.55-2.5.12-2.63,1.79-.06.74,0,1.49,0,2.23,0,.31-.15.63.33.83a1.92,1.92,0,0,0,2.81-1.57C149.6,213.34,149.6,212.94,149.62,212.44Zm0-6.7c0-.49,0-.83,0-1.17-.1-1.12,0-2.18-1.83-2s-1,1.29-1.13,2.06c-.08.44.05.92,0,1.36-.27,1.47.36,1.75,1.75,1.76C150.3,207.73,149.35,206.38,149.59,205.74Zm5.65-.6a4,4,0,0,0,0-.85c-.14-.61.5-1.57-.79-1.7a1.75,1.75,0,0,0-2.06,1.55c-.13.66,0,1.37-.09,2.05-.17,1.2.3,1.52,1.49,1.53s1.65-.37,1.47-1.55A5.89,5.89,0,0,1,155.24,205.14Zm0,8c0-.71,0-1.28,0-1.86,0-.41,0-.72-.57-.85-1.76-.4-2.37,0-2.37,1.83a9.07,9.07,0,0,1,0,1.38c-.24,1.48.42,1.8,1.81,1.76C156.21,215.29,154.77,213.72,155.24,213.11ZM158,213c.3.66-.58,1.81.48,2.29,1.66.74,2.69-.06,2.69-1.88,0-.63,0-1.25,0-1.88s-.23-1-1-1.06C158,210.28,158,210.24,158,213Z"/><path class="cls-8" d="M185.2,217.3c0,3.06,0,6.11,0,9.17,0,1.35.19,2,1.81,1.7,1.45-.29,3-.18,4.47-.34.58-.06.89,0,.9.64,0,1,0,2.08,0,3.11s-.78.61-1.27.59q-5.17-.21-10.34-.48a78.9,78.9,0,0,0-12.58.49c-1.59.17-2.43-.11-2.11-1.91a8.91,8.91,0,0,0,0-1.55c0-.78.35-1,1.08-.9l.17,0c3.89.3,3.9.3,3.89-3.53,0-5.48-.06-10.95,0-16.43,0-1-.16-1.39-1.3-1.33-3.16.16-3.12.11-3-3.15,0-1.07.39-1.36,1.44-1.23,2.78.35,2.81.31,2.73-2.52-.06-1.78-.18-3.56-.36-5.33-.09-.78,0-1.1.85-.92s1.59.25,2.37.44c2.6.61,2.59.62,1.72,3A14.78,14.78,0,0,0,175,202c0,.64.3.77.85.75.75,0,1.5,0,2.25,0,3.22,0,3.24,0,3.12-3.31-.06-1.72-.19-3.44-.34-5.16-.05-.72,0-1,.92-.91a20.62,20.62,0,0,1,4.17,1c.72.27.84.6.42,1.25-1.16,1.79-1,3.85-1.19,5.84-.09.89.31,1.08,1.1,1,1-.11,2.08,0,3.09-.24s1.33,0,1.46,1c.4,3.18.12,3.53-3,3.33-2.6-.16-2.6-.16-2.6,2.4Zm-7.15,11.12c3.1,0,3.1,0,3.23-2.31.2-3.53.2-3.53-3.31-3.53-3,0-3,0-3,2.94S175,228.42,178.05,228.42Zm.23-14.15a15,15,0,0,1-1.9,0c-1.16-.15-1.42.32-1.42,1.43,0,3.94,0,3.94,3.92,3.94h.34c2.21,0,2.21,0,2.21-2.21C181.43,214.27,181.43,214.27,178.28,214.27Zm-.09-8c-.74,0-1.49,0-2.23,0s-1,.19-1,1c-.23,4.12.08,4.45,4.22,4.18a1.32,1.32,0,0,1,.34,0c1.83.3,2-.71,1.9-2.2C181.16,206.22,181.2,206.21,178.19,206.27Z"/><path class="cls-9" d="M37,268.39c-.34,6.62-3.37,11.47-9.52,14.18A15.4,15.4,0,0,1,7.23,262.83c.72-1.87,1.08-1.94,2.32-.44,6.57,8,17.64,7.93,24.21-.12,1.1-1.35,1.46-1.3,2.14.38A15.36,15.36,0,0,1,37,268.39Z"/><path class="cls-9" d="M83,267.49c0,7.07-3.62,12.66-9.34,15C67.61,285,62,284,57.18,279.58s-6.07-10.24-4-16.59c.21-.63.34-1.48,1.12-1.62s1,.7,1.34,1.16a15.27,15.27,0,0,0,24-.11c1.26-1.59,1.53-1.54,2.29.39A14,14,0,0,1,83,267.49Z"/><path class="cls-6" d="M249.16,224.25c.32-.28.13-.84.59-1,1.6.1,3.22.15,4.81.32.95.1,1.08-.32,1-1.08-.13-1.32-.2-2.64-.35-4-.09-.76.07-1.1.9-.88.44.11.91.11,1.36.21,2.52.57,2.49.57,1.75,3a22.36,22.36,0,0,0-.45,2.56c1.52.31,2.93-.17,4.35-.25.86-.05,1.29.07,1.18,1a4.22,4.22,0,0,0,0,.87c.21,1.62-.2,2.15-2,1.78-3.48-.72-3.51-.57-3.51,3,0,3.06,0,3.06,3.05,2.79a11.76,11.76,0,0,0,2.24-.16c1.74-.54,2.13.1,2,1.77-.15,2.16,0,2.17-2.22,1.89-5-.62-5-.62-4.84,4.32a30.8,30.8,0,0,0,.15,4c.19,1.22-.32,1.4-1.3,1.3a6.36,6.36,0,0,0-1.38,0c-1,.12-1.31-.25-1.24-1.25.16-2.47.19-4.94.36-7.41.07-1-.25-1.32-1.23-1.23-2.06.18-4.14.24-6.19.47-1,.12-1.57,0-1.41-1.19a4.46,4.46,0,0,0,0-1.21c-.16-1.32.18-1.94,1.67-1.46s2.18-.16,2-1.78a11.8,11.8,0,0,1,0-2.59c.09-.85-.35-1.09-1.05-1.18,0-.62-.07-1.24-.1-1.86A.72.72,0,0,1,249.16,224.25Zm6.46,5.41c0-.68,0-1.37,0-2,0-.37.2-.9-.28-1.05a1.31,1.31,0,0,0-1.43.26,2.11,2.11,0,0,0-.77,1.64,25.68,25.68,0,0,1,0,2.91c-.06,1,.1,1.43,1.26,1.44s1.34-.48,1.25-1.43A16.43,16.43,0,0,1,255.62,229.66Z"/><path class="cls-7" d="M159.89,227.05a20.36,20.36,0,0,0,3.42-2.66c.25-.24.51-.87.92-.38a9.87,9.87,0,0,1,1.76,3.13c.11.34-.12.49-.47.54-1.92.31-3.34,1.72-5.1,2.37a.91.91,0,0,0-.65,1c0,.52,0,1,0,1.55,0,2.86.15,3.12,1.92,3.21,2.52.13,3.15-.46,3.38-3.32,1,.53,1.9,1,2.83,1.52.51.27.52.71.43,1.18a4,4,0,0,1-2.86,3.54A13,13,0,0,1,159,239c-2.16-.45-2.89-1.7-2.84-4.26.11-4.55.45-9.09-.12-13.63-.09-.66.12-.83.74-.69s1.47.26,2.2.42c2.27.52,2.22.51,1.3,2.5A7,7,0,0,0,159.89,227.05Z"/><path class="cls-10" d="M236.22,227.76c-.73-.43-1.3,0-1.87.38a5.35,5.35,0,0,1-1,.72c-2.74,1.1-3.17,3.26-2.89,5.87.12,1.11.15,2.09,1.63,2.09,1.32,0,2.25-.42,2.4-1.88a4.87,4.87,0,0,1,.3-1.32c.68,1,2.56.63,2.52,2.42a3.68,3.68,0,0,1-3,3.91,9.53,9.53,0,0,1-4.28.14c-1.86-.33-2.86-1.81-2.86-4.15,0-3.17.14-6.33.16-9.5q0-2.41-.21-4.83c-.07-.79.21-.9.85-.78s1,.21,1.51.34c2.32.58,2.31.58,1.38,2.76a7.09,7.09,0,0,0-.22,3.21c1.48-.72,2.13-2.12,3.26-3.27.94,1.23,2,2.31,2.2,3.93Z"/><path class="cls-6" d="M222.75,236.67l3-1.32c.43,2.93.34,3.09-2.21,4.3-2.07,1-4.14,1.95-6.19,3-.47.24-.72.22-.94-.24,0,0-.08-.09-.11-.14-.49-1-1.49-2-1.33-2.89s1.75-.64,2.7-.89c1.25-.34,1.87-.76,1.86-2.29,0-4.65.39-9.31-.24-14-.14-1,.19-1.35,1.18-1.1.38.1.8.09,1.19.17,2.36.49,2.35.49,1.57,2.7a8.68,8.68,0,0,0-.34,1.51c-.29,1.87-.23,2,1.66,1.59,1-.21,1.23.15,1.15,1a6.37,6.37,0,0,0,0,1.38c.13,1.15-.21,1.63-1.42,1.16s-1.65-.12-1.55,1.22S222.75,234.88,222.75,236.67Z"/><path class="cls-10" d="M218.83,273.68c.83-1,1.67-1.9,2.47-2.88.45-.54,1.65-.88.37-1.93-.46-.36-.24-1.34.84-1.32,1.27,0,2.54,0,3.81,0a.75.75,0,0,1,.87.81c0,.48,0,.82-.64,1-2.3.65-3.36,2.87-5.12,4.21-.45.34-.28.69,0,1,1.47,1.77,2.92,3.56,4.43,5.3a2.67,2.67,0,0,0,1.68.8c.58.08.74.5.69,1s-.43.74-1,.74h-4.49c-.35,0-.72,0-.82-.43s-.22-1.06.28-1.21c1.25-.38.45-.88.14-1.32-.75-1.09-1.53-2.16-2.33-3.21-.22-.3-.37-.85-.87-.65s-.95.53-.82,1c.4,1.41-1.26,3.42,1.24,4.25.33.11.24.73.17,1.13s-.41.47-.78.46c-1.26,0-2.53,0-3.8,0-.45,0-.83-.05-.78-.61s-.25-1.07.48-1.06c1.25,0,1.2-.88,1.21-1.66,0-2.76,0-5.53,0-8.29,0-.76-.06-1.44-1-1.43s-.69-.57-.7-1.07c0-.67.46-.68,1-.68,1.21,0,2.42,0,3.63,0,.38,0,.7.06.78.48s.17,1-.18,1.11c-2.49.85-.66,2.84-1.48,4.11Z"/><path class="cls-11" d="M321.81,282.35a7.21,7.21,0,0,1-1,0c-.45-.06-1.11.34-1.27-.45-.12-.61-.07-1.14.76-1.24.62-.08.57-.64.57-1.1,0-1,.05-2.07,0-3.11,0-.66-.05-1.46-.92-1.66a2.09,2.09,0,0,0-2.25.94c-.82,1.16-.41,4,.69,5a1.26,1.26,0,0,1,.26,1.28c-.07.49-.5.36-.82.36-1,0-2,0-2.93,0-.34,0-.72.11-.86-.35s-.2-1,.14-1.12c1.89-.7,1.13-2.29,1.1-3.48,0-.95.55-2.53-1.3-2.67-1.29-.09-2.2.93-2.14,2.73,0,1.2-.67,2.83,1.21,3.49.15,0,.19.63.16,1s-.4.47-.78.46c-1,0-2.07-.05-3.11,0-.45,0-.82,0-.86-.55s-.12-1,.52-1.1c.94-.12.91-.83.81-1.41-.25-1.54.91-3.45-1.16-4.58-.17-.09-.43-1.35.46-1.27s1.92-1.06,2.88,0c.09.1.62-.12.92-.26a2.47,2.47,0,0,1,2.48-.14c1.24.94,2.17.56,3.42,0,2.09-.88,4,.44,4.14,2.71.08,1,0,2,0,2.93,0,.81-.28,1.77,1,2,.41.09.4.66.35,1.05s-.47.56-.91.54-1,0-1.55,0Z"/><path class="cls-10" d="M177.49,237.87c-1.76.24-2.78,1.38-3.94,2.29a32.37,32.37,0,0,1-8.75,4.73,1.74,1.74,0,0,1-2.36-.63,20.88,20.88,0,0,0-2.75-2.56,30.6,30.6,0,0,0,8.76-3.15,15.55,15.55,0,0,0,4.31-3.4c.67-.81,1.14-.72,1.79-.13A15.61,15.61,0,0,1,177.49,237.87Z"/><path class="cls-11" d="M357.55,273.43c.57-.16,1.11-.36,1.66-.46,2.49-.45,4,.8,4.06,3.33,0,1,0,2.07,0,3.11,0,.53-.19,1.15.7,1.3.59.1.46.72.41,1.16s-.48.54-.9.53c-.81,0-1.62,0-2.42,0-.35,0-.89.2-.94-.42a1.21,1.21,0,0,1,.34-1.24c.87-.72,1-4.67.24-5.51a1.75,1.75,0,0,0-1.91-.39,1.62,1.62,0,0,0-1.32,1.63c.15,1.49-.93,3.2.81,4.49.36.27.6,1.51-.76,1.45-.86,0-1.73,0-2.59,0-.43,0-.83,0-.87-.56,0-.39-.1-1,.3-1.06,1.33-.17.9-1.17.91-1.84.06-3.05,0-6.1,0-9.15,0-.63.09-1.26-.76-1.5-.53-.15-.3-.68-.32-1,0-.55.44-.59.83-.68,2.4-.57,2.76-.24,2.57,2.23-.11,1.37-.16,2.75-.22,4.12A1.9,1.9,0,0,0,357.55,273.43Z"/><path class="cls-10" d="M194.53,240.38c-1.5,1.23-2.81,2.24-4.06,3.32-.58.51-1,.26-1.55,0a30.27,30.27,0,0,1-8.2-6.47c-.58-.63-.59-1,.19-1.4,1.49-.85,2.67-1.37,4.36.07A24.7,24.7,0,0,0,194.53,240.38Z"/><path class="cls-11" d="M288.28,277.9c.28,1-.58,2.31,1,3.09.48.23.47,1.34-.63,1.39-.92.05-1.84,0-2.76,0-.37,0-.71-.05-.79-.49a1.16,1.16,0,0,1,.32-1.1c.86-.85,1.15-4.54.45-5.5a1.56,1.56,0,0,0-1.71-.51c-.9.16-1.6.78-1.5,1.62.18,1.54-1.08,3.36.89,4.63a.82.82,0,0,1-.75,1.36c-.86,0-1.73,0-2.59,0-.41,0-.86.07-.86-.53,0-.43-.2-1.07.42-1.15.91-.14.78-.79.69-1.29-.29-1.55.87-3.39-1-4.68-.36-.25-.38-1.36.8-1.35a18.74,18.74,0,0,0,4.33-.41c2.11-.49,3.52.79,3.71,3C288.33,276.59,288.28,277.23,288.28,277.9Z"/><path class="cls-11" d="M267.45,278.56c.13.57-.62,1.76.86,2.39a.84.84,0,0,1-.72,1.45c-.86,0-1.72,0-2.58,0-.34,0-.74.06-.77-.43s-.17-.89.26-1.27c1.18-1.05,1.27-4.53.07-5.54-.47-.39-.35-.8-.34-1.21,0-.75.61-.51,1-.54a23.94,23.94,0,0,0,4.19-.39c2.21-.54,3.64.79,3.77,3.08.05,1,0,2.07,0,3.1,0,.63-.28,1.37.78,1.6.47.11.32.8.25,1.24s-.52.36-.83.37c-.81,0-1.61,0-2.42,0-.37,0-.86.16-1-.42a1.09,1.09,0,0,1,.35-1.22c.95-.78,1.08-4.77.23-5.61a1.71,1.71,0,0,0-1.79-.31,1.9,1.9,0,0,0-1.36,1.63A20.11,20.11,0,0,0,267.45,278.56Z"/><path class="cls-11" d="M303.53,277.91a4.6,4.6,0,0,1-4.88,4.83,4.64,4.64,0,0,1-4.79-4.93,4.79,4.79,0,0,1,5-4.93C301.75,272.93,303.56,274.89,303.53,277.91Zm-2.29.06c0-1.94-1.08-3.33-2.54-3.34a2.72,2.72,0,0,0-2.55,2.92c0,1.93,1.16,3.42,2.69,3.4S301.25,279.79,301.24,278Z"/><path class="cls-12" d="M336.23,277.64c.14,1-.56,2.39.86,3.29.3.19.23.77,0,1.13a.89.89,0,0,1-1.23.29c-.94-.51-1.7-.13-2.57.17a3.6,3.6,0,0,1-3.87-.7,2.54,2.54,0,0,1-.56-2.87c.57-1.53,1.78-2,3.24-2.11.67-.06,1.47.19,1.92-.47a1.1,1.1,0,0,0-.13-1.29,1.29,1.29,0,0,0-1.53-.48,2.39,2.39,0,0,0-1,.69,1.25,1.25,0,0,1-1.5.53c-.59-.21-.24-.8-.35-1.21-.19-.72.21-1,.81-1.27C334.08,271.7,336.31,273.27,336.23,277.64ZM333,281c.51-.08,1.2-.45,1.18-1.67,0-.81-.34-1-1.05-.89-1,.19-2.29,0-2.29,1.48C330.84,280.78,331.64,281.06,333,281Z"/><path class="cls-13" d="M349.24,280c.41,1.62-.25,2.26-1.62,2.58-2.41.55-4.73-.18-5.78-2a5.08,5.08,0,0,1,.67-6.07,5.89,5.89,0,0,1,6.25-1.1c.72.34.6.88.58,1.44s.16,1-.42,1.2a.89.89,0,0,1-1.21-.3A1.84,1.84,0,0,0,345,275a2.82,2.82,0,0,0-1.64,3.11,2.62,2.62,0,0,0,2,2.54C346.75,281.08,348,280.54,349.24,280Z"/><path class="cls-12" d="M244.43,282.38h-1.21c-.45,0-1,.11-1-.57-.05-.46-.07-1,.51-1.11.88-.1.86-.75.77-1.26-.27-1.54.93-3.39-1-4.64a.82.82,0,0,1,.68-1.41,11.17,11.17,0,0,0,4.33-.45c.49-.21,1.3-.23,1.57.3a2,2,0,0,1-.18,1.95c-.42.54-1,.12-1.56-.08-1.16-.43-1.73.4-1.66,1.27.14,1.56-.94,3.32.82,4.7.47.37.3,1.36-.81,1.32-.4,0-.8,0-1.2,0Z"/><path class="cls-12" d="M371.5,282.39c-.57,0-1.15,0-1.72,0s-.77-.2-.73-.71-.12-1,.42-1c1.33,0,1.06-1,1.15-1.67a14.8,14.8,0,0,0,0-2.58c0-.6.07-1.32-.9-1.35a.62.62,0,0,1-.59-.86c.48-1.77,2-.57,3-1,.79-.38.7.48.69.95,0,1.38-.17,2.75-.15,4.12,0,1-.39,2.23,1.2,2.57.42.09.34.68.25,1.07s-.44.47-.8.47h-1.9Z"/><path class="cls-12" d="M257.65,276.75c0,.86,0,1.72,0,2.58,0,.62-.1,1.3.85,1.38.65.06.58.59.57,1.05,0,.7-.52.63-1,.63h-3.44c-.47,0-.79-.16-.77-.68s-.11-1,.41-1c1.39,0,1.13-1.05,1.21-1.83a21.32,21.32,0,0,0,0-2.4c0-.65,0-1.3-.92-1.37-.69-.06-.56-.61-.55-1,0-.62.41-.66.92-.72,2.76-.29,2.76-.31,2.67,2.52,0,.29,0,.58,0,.86Z"/><path class="cls-11" d="M234.73,282.38c-.51,0-1,0-1.54,0s-.84,0-.9-.53-.16-1.11.43-1.14c1.28-.06,1.08-.91,1.09-1.7s.06-1.6,0-2.4.14-1.44-.93-1.5c-.71,0-.45-.67-.48-1.07-.05-.55.33-.59.77-.66,2.87-.43,2.85-.45,2.75,2.51,0,1.14,0,2.29,0,3.44,0,.56-.08,1.24.72,1.33s.79.53.75,1.09c-.05.78-.65.64-1.15.64h-1.55Z"/><path class="cls-13" d="M256.34,270.92c-.84-.18-1.49-.59-1.46-1.57a1.41,1.41,0,0,1,1.62-1.54,1.37,1.37,0,0,1,1.42,1.58A1.57,1.57,0,0,1,256.34,270.92Z"/><path class="cls-12" d="M371.42,267.8a1.41,1.41,0,0,1,1.61,1.45,1.51,1.51,0,1,1-3,.09A1.41,1.41,0,0,1,371.42,267.8Z"/><path class="cls-13" d="M236.26,269.3c0,1-.59,1.6-1.48,1.59a1.5,1.5,0,0,1-1.58-1.66,1.53,1.53,0,0,1,3.06.07Z"/><path class="cls-5" d="M249.29,225c0,.62.07,1.24.1,1.86A3.11,3.11,0,0,1,249.29,225Z"/></svg>