<svg id="圖層_3" data-name="圖層 3" xmlns="http://www.w3.org/2000/svg" viewBox="0 0 471.16 463.07"><defs><style>.cls-1{fill:#d20b1d;}.cls-2{fill:#231815;}.cls-3{fill:#727171;}.cls-4{fill:#e41019;}.cls-10,.cls-11,.cls-12,.cls-13,.cls-4,.cls-5,.cls-6,.cls-7,.cls-8,.cls-9{fill-rule:evenodd;}.cls-5{fill:#281e1b;}.cls-6{fill:#261d1a;}.cls-7{fill:#271d1a;}.cls-8{fill:#251b18;}.cls-9{fill:#e4121a;}.cls-10{fill:#291f1c;}.cls-11{fill:#2a211e;}.cls-12{fill:#2c2320;}.cls-13{fill:#2f2623;}</style></defs><path class="cls-1" d="M90.51,41.75A41.75,41.75,0,1,1,48.76,0,41.75,41.75,0,0,1,90.51,41.75Z"/><path class="cls-2" d="M30,89.33v66.32h1.44V123.19H32.9v32.46h1.45V89.33Zm2.88,32.46H31.46V90.72H32.9Z"/><polygon class="cls-2" points="35.79 89.33 35.79 155.65 37.23 155.65 37.23 90.72 38.67 90.72 38.67 155.65 40.11 155.65 40.11 89.33 35.79 89.33"/><path class="cls-2" d="M48.76,89.33v66.32h4.33v-31.3H51.65v29.91H50.2V123.19h2.89V89.33Zm2.89,32.46H50.2V90.72h1.45Z"/><polygon class="cls-2" points="54.53 89.33 54.53 155.65 55.97 155.65 55.97 90.72 57.41 90.72 57.41 144.12 58.86 144.12 58.86 89.33 54.53 89.33"/><path class="cls-2" d="M66.07,89.33v66.32h1.44V123.19H69v32.46h1.44V89.33ZM69,121.79H67.51V90.72H69Z"/><polygon class="cls-2" points="71.83 89.33 71.83 155.65 76.16 155.65 76.16 121.79 76.16 121.79 74 121.79 74 123.19 74.72 123.19 74.72 154.26 73.27 154.26 73.27 90.72 74.72 90.72 74.72 120.64 76.16 120.64 76.16 89.33 71.83 89.33"/><path class="cls-2" d="M18.48,89.33v66.32h1.45V123.19h1.44v32.46h1.44V89.33H18.48Zm1.45,32.46V90.72h1.44v31.07Z"/><path class="cls-2" d="M24.25,89.33v66.32h1.44V144.1h2.89V89.33H24.25Zm1.44,53.37v-52h1.45v52Z"/><polygon class="cls-2" points="45.88 121.79 44.44 121.79 44.44 89.33 43 89.33 43 155.65 44.44 155.65 44.44 123.19 45.88 123.19 45.88 155.65 47.32 155.65 47.32 89.33 45.88 89.33 45.88 121.79"/><path class="cls-2" d="M77.6,89.33v66.32h4.32v-31.3H80.48v29.91H79V123.19h2.88V89.33Zm2.88,32.46H79V90.72h1.44Z"/><rect class="cls-2" x="60.3" y="89.33" width="1.44" height="66.32"/><polygon class="cls-2" points="17.04 89.33 15.6 89.33 15.6 155.2 12 158.81 12.94 159.75 17.04 155.65 17.04 89.33"/><polygon class="cls-2" points="62.46 89.33 62.46 90.72 63.18 90.72 63.18 155.65 64.62 155.65 64.62 90.72 65.34 90.72 65.34 89.33 62.46 89.33"/><path class="cls-2" d="M141.2,87.92V83.27h34v7.85h.63c6.56,0,9.54-2.71,9.54-3.54V27.21a5.83,5.83,0,0,0,3.18-1.9l.39-.53-10.32-8-3.9,5.33H141.35l-10.06-4.39V92.29h.63C140.66,92.29,141.2,88,141.2,87.92Zm0-62.76h34V50.65h-34Zm0,28.52h34V80.26h-34Z"/><path class="cls-2" d="M281,67.45a67.2,67.2,0,0,1-32.3-30.62H275.6c2.53,0,3.7-.46,4.51-1.8l.29-.49-10.51-8.29-5.45,7.63H246.72V18.17c2.14-.33,3.41-1,3.64-2.87l.07-.68-13.87-1.27V33.88H203.27l.87,2.95h26.1c-4.3,12.28-15.86,30.91-27.08,39.51l-.51.4.78,1,.48-.23C218.2,70.4,229.25,61,236.56,49.14V70.71H220.21l1,2.94h15.37V92.23h.63c7.92,0,9.53-2.67,9.53-3.37V73.65H258c2,0,3.53-.31,4.42-1.8l.29-.49-9.45-7.8-4.81,7.15h-1.73V39.93c5.45,17,14.06,29.52,25.61,37.32l.7.48.27-.81c1.33-4.25,3.66-7.51,7.58-8.31l.35-.07.36-.84Z"/><path class="cls-2" d="M304.09,32.28l.16.16a5.88,5.88,0,0,0,4.17,1.88,5.75,5.75,0,0,0,5.48-6c0-2-1.2-8.72-16.67-11.89l-.49-.1-.41.42.35.33c3.72,3.41,6.75,10.05,7.39,15Z"/><path class="cls-2" d="M363.67,79.82a5.83,5.83,0,0,0,2.24-1.39A3.8,3.8,0,0,0,367,75.71c-.09-2.67-2.83-4.46-8.56-5.89,2.55-.73,4.63-2.2,4.76-3V47.63A5,5,0,0,0,366,46l.37-.53-9.08-6.4h10c2.12,0,3.58-.29,4.34-1.71l.28-.48L364,31.06v-6.2a5.43,5.43,0,0,0,2.88-1.65l.38-.53L357.61,16l-3.33,4.19h-7.39V17.54c1.82-.38,2.88-.95,3-2.41l.05-.62-12.72-1.17v6.84h-7.65l-9.17-3.62V34.37H321c5.36,0,7.82-1.63,8.42-3h7.76V36.2H314.39l.73,2.89h41l-3,3.9H330.7l-9.49-3.86V70.22h.62c4.94,0,7.24-1.3,8.23-2.4a44.55,44.55,0,0,1-10.7,9.62,16.72,16.72,0,0,1-5.37-4V53.63a6.64,6.64,0,0,0,4-1.82l.44-.49-10.25-8.27L303.73,49h-9.26l.56,3h9.6V75.89c-3.17,1.48-7,3.26-9.62,4.26l-.66.25,5.43,10.53.55-.22a2.34,2.34,0,0,0,1.54-2.28A149.34,149.34,0,0,0,312.2,76.36C318.07,87.2,325.22,89,339.63,89h26.09l0-.56c.41-3.82,2.88-7,5.85-7.6l.5-.11V79.61h-.65C369,79.7,366.37,79.76,363.67,79.82ZM337.21,28.5h-7.62V23.07h7.62Zm9.68-5.43h7.87V28.5h-7.87Zm0,13.13V31.38h7.87V34h.63a15.83,15.83,0,0,0,5-.6l-2.13,2.83Zm-16.17,9.68h22.82v4.06H330.72Zm0,7h22.82v4.22H330.72Zm0,7.11h22.82v4.3H330.72Zm8.82,20c-7,0-11.85-.17-15.64-1a46,46,0,0,0,13.86-6.84,10,10,0,0,0,1.09.06c1.69,0,2.82-.5,3.34-1.47l.31-.59-6.4-2.95h17.44v1.69a52.78,52.78,0,0,0-9.65-.48l-.26.55.58.22c7.86,2.89,11.49,7.23,13.09,9.33a6.39,6.39,0,0,0,2.37,1.4C352.61,80,345.4,80,339.54,80Z"/><path class="cls-2" d="M447.61,84.24h-12.7V73.4h15.22c2.2,0,3.65-.28,4.56-1.71l.35-.55-9.67-6.48-4.73,5.83h-5.73V60.3H452c2.22,0,3.67-.3,4.56-1.81l.34-.54-10-6.63-5,6h-7V50.66c1.64-.29,3.06-.86,3.19-2.49l0-.67-13.49-1.18v11h-8.22c.66-1.4,1.11-2.63,1.68-4.07,2-.09,3-.75,3.3-2.14l.16-.67L409,47.5l-.08.77c-1.13,9-2.64,16.66-5.49,22.49l-.31.56.74.44.4-.3A47.38,47.38,0,0,0,414.9,60.3h9.76V70.49h-16l.8,2.91h15.2V84.24H397.55l.94,3h60.12c2.18,0,3.82-.3,4.66-1.81l.31-.54-10.65-7.11Z"/><path class="cls-2" d="M448.2,42H435.78A89.08,89.08,0,0,0,445,32.25c1.5,0,3.13-.34,3.54-1.9l.17-.67-9-2h15.64c2.39,0,3.85-.27,4.66-1.74l.31-.53-10.48-7-5.32,6.31H429.37v-7c1.88-.39,2.95-.94,3.18-2.41l.12-.72L419,13.35v11.3H389.5l.94,3h16.13l-.4.3.35.55c2.13,3.29,2,7.75,1.76,11l0,.25.14.21A5.92,5.92,0,0,0,411.08,42h-7.47l-11.09-3.95v14c0,12-.5,26.24-7.73,37.22l-.3.47.67.53.5-.34c14.93-10.37,17.1-26.4,17.1-37.88V45H459.2c2.13,0,3.82-.14,4.67-1.76l.27-.53-10.62-7.1Zm-16.74,0H414.59a5.41,5.41,0,0,0,3.69-5c0-2.17-1.37-6.24-10.46-9.4h26.69A128.11,128.11,0,0,1,431.46,42Z"/><path class="cls-3" d="M137.85,136.62c0,2.27-1,3.41-3.18,3.41-3,0-3.14-2.74-3.23-3.94h-4.38a8.58,8.58,0,0,0,2.21,6.29,7.18,7.18,0,0,0,5.4,2.07c4.74,0,7.68-2.93,7.68-8.34V118.52h-4.5Z"/><polygon class="cls-3" points="243.46 135.78 232.71 118.52 227.65 118.52 227.65 143.95 232.16 143.95 232.16 126.19 243.28 143.95 247.96 143.95 247.96 118.52 243.46 118.52 243.46 135.78"/><polygon class="cls-3" points="284.96 128.37 274.3 128.37 274.3 118.52 269.8 118.52 269.8 143.95 274.3 143.95 274.3 132.87 284.96 132.87 284.96 143.95 289.46 143.95 289.46 118.52 284.96 118.52 284.96 128.37"/><polygon class="cls-3" points="299.22 143.95 317.29 143.95 317.29 139.45 303.72 139.45 303.72 132.96 315.67 132.96 315.67 128.46 303.72 128.46 303.72 123.02 317.29 123.02 317.29 118.52 299.22 118.52 299.22 143.95"/><polygon class="cls-3" points="461.69 123.02 461.69 118.52 443.62 118.52 443.62 143.95 461.69 143.95 461.69 139.45 448.12 139.45 448.12 132.96 460.07 132.96 460.07 128.46 448.12 128.46 448.12 123.02 461.69 123.02"/><rect class="cls-3" x="353.9" y="118.52" width="4.58" height="25.43"/><polygon class="cls-3" points="365.88 123.02 372.94 123.02 372.94 143.95 377.45 143.95 377.45 123.02 384.51 123.02 384.51 118.52 365.88 118.52 365.88 123.02"/><path class="cls-3" d="M157,118.52,148.14,144h4.72l1.64-4.68h10.19l1.64,4.68H171l-8.88-25.43Zm-1,16.3,3.54-10.14,3.54,10.14Z"/><path class="cls-3" d="M206.94,118.52,198.06,144h4.72l1.63-4.68h10.2l1.63,4.68H221l-8.89-25.43Zm-1,16.3,3.54-10.14,3.54,10.14Z"/><path class="cls-3" d="M395.61,118.52,386.73,144h4.71l1.64-4.68h10.2l1.63,4.68h4.72l-8.89-25.43Zm-1,16.3,3.54-10.14,3.54,10.14Z"/><path class="cls-3" d="M187,118.52h-9.59V144h4.45v-9.17H187c5.85,0,9.3-3.11,9.3-8.15S193,118.52,187,118.52Zm-.18,11.76h-5V123h5c3.39,0,5,1.15,5,3.64S190.25,130.28,186.86,130.28Z"/><path class="cls-3" d="M344.93,126.63c0-5-3.57-8.11-9.3-8.11h-10.2V144h4.45v-9.17h6L340,144h4.93l-4.52-10.08.07,0A7.45,7.45,0,0,0,344.93,126.63Zm-9.48,3.65h-5.57V123h5.57c3.39,0,5,1.15,5,3.64S338.84,130.28,335.45,130.28Z"/><path class="cls-3" d="M424.14,130.1v3.72h6.35c-.5,3.17-2.07,6.12-5.78,6.12a6.06,6.06,0,0,1-4.26-1.6c-2-2.08-2.09-4.1-2.09-7.11s.09-5,2.09-7.11a6.06,6.06,0,0,1,4.26-1.6c3.51,0,5.09,2.07,5.36,3.46h4.48c0-2.11-2.49-7.94-9.84-7.94a10.87,10.87,0,0,0-7.56,3c-2.74,2.73-3.3,6.06-3.3,10.21s.56,7.48,3.3,10.22a10.86,10.86,0,0,0,7.56,3,7.65,7.65,0,0,0,6.49-3.22l.54,2.75h2.83V130.1Z"/><path class="cls-2" d="M30.51,370.82q-.15,0-.15.18v6.9c0,.1.07.16.19.18a34.27,34.27,0,0,0,6.72.59c.46,0,1.25,0,2.36,0h1.93l3.3,0a.78.78,0,0,1,.66.36.82.82,0,0,1,.14.44.84.84,0,0,1-.07.32,2.52,2.52,0,0,0-.14.33,2,2,0,0,1-.62.89,1.59,1.59,0,0,1-1,.34H37.16a29.64,29.64,0,0,1-10.79-1.67,13.61,13.61,0,0,1-6.76-6.1s0,0-.06,0a.12.12,0,0,0-.09,0A19.94,19.94,0,0,1,14.92,381a1.29,1.29,0,0,1-.87.36H14a1.51,1.51,0,0,1-1-.4.23.23,0,0,1-.11-.11,1,1,0,0,1-.4-.83,1,1,0,0,1,.37-.8q4.5-4.26,5.66-13.3a1.28,1.28,0,0,1,.5-.84,1.14,1.14,0,0,1,.92-.25h.29a1.22,1.22,0,0,1,.84.51,1.2,1.2,0,0,1,.25.94c-.19,1.16-.43,2.39-.72,3.67a.37.37,0,0,0,0,.29,12.5,12.5,0,0,0,6.76,6.91c.1,0,.15,0,.15-.08V362.64a.16.16,0,0,0-.18-.18H14.23a1.3,1.3,0,0,1-.93-.38,1.27,1.27,0,0,1-.38-.91,1.25,1.25,0,0,1,.38-.91,1.3,1.3,0,0,1,.93-.38H27.39q.18,0,.18-.15v-4.79a.16.16,0,0,0-.18-.18h-10a1.32,1.32,0,0,1-1.27-1.28,1.3,1.3,0,0,1,1.27-1.27h10a.16.16,0,0,0,.18-.18v-2.84a1.22,1.22,0,0,1,.38-.92,1.19,1.19,0,0,1,.89-.38h.22a1.3,1.3,0,0,1,1.3,1.3V352q0,.18.15.18H41.16a1.3,1.3,0,0,1,1.27,1.27,1.32,1.32,0,0,1-1.27,1.28H30.51q-.15,0-.15.18v4.79a.13.13,0,0,0,.15.15H43.88a1.29,1.29,0,0,1,0,2.58H30.51q-.15,0-.15.18v5.45q0,.18.15.18H41.45a1.24,1.24,0,0,1,.89.38,1.26,1.26,0,0,1,.38.89,1.32,1.32,0,0,1-1.27,1.28Z"/><path class="cls-2" d="M59.27,363.22a1.3,1.3,0,0,1,1.31,1.31V375a.59.59,0,0,0,.07.29q2.55,3.78,9.3,4c1.38,0,3.1.07,5.16.07h2.4q4.72,0,8.29-.22a.65.65,0,0,1,.65.33.71.71,0,0,1,.18.47.62.62,0,0,1-.07.29c0,.1,0,.19-.07.29a1.93,1.93,0,0,1-.62.91,1.67,1.67,0,0,1-1,.4c-3,.1-5.87.15-8.43.15q-3.52,0-6.47-.15a17.83,17.83,0,0,1-6.18-1.14,10.75,10.75,0,0,1-4.25-3.11.14.14,0,0,0-.22,0q-1.85,1.78-4.1,3.78a1,1,0,0,1-.86.23.94.94,0,0,1-.71-.52l-.22-.37a1.46,1.46,0,0,1-.14-1,1.51,1.51,0,0,1,.54-.91,48.54,48.54,0,0,0,4-3.38.38.38,0,0,0,.11-.26V366a.13.13,0,0,0-.14-.14H54.54a1.31,1.31,0,0,1,0-2.62Zm1.67-8.61a1.12,1.12,0,0,1,.24.94,1.33,1.33,0,0,1-.53.88l-.18.14a1.08,1.08,0,0,1-.91.24,1.32,1.32,0,0,1-.84-.53A26.62,26.62,0,0,0,54.58,352a1.06,1.06,0,0,1-.36-.82.9.9,0,0,1,.4-.78h0a1.68,1.68,0,0,1,1-.37h0a1.82,1.82,0,0,1,1,.4A28.85,28.85,0,0,1,60.94,354.61Zm5.92,21.08a1.29,1.29,0,0,1-.92-.37,1.17,1.17,0,0,1-.38-.91V359.59s0,0,0-.06a.06.06,0,0,0-.07,0,26.71,26.71,0,0,1-2.22,2.36,1.09,1.09,0,0,1-.89.33,1.51,1.51,0,0,1-.93-.4l-.29-.29a1.1,1.1,0,0,1-.34-.87,1.14,1.14,0,0,1,.38-.84A28,28,0,0,0,68.32,350a1.44,1.44,0,0,1,1.38-.91,1.47,1.47,0,0,1,.36,0l.26.07a1.15,1.15,0,0,1,.7.6,1,1,0,0,1,0,.92,39.82,39.82,0,0,1-1.89,3.64c-.07.1-.05.14.08.14h5.59a.22.22,0,0,0,.22-.14,37,37,0,0,0,1.64-4.07,1.46,1.46,0,0,1,.65-.8,1.22,1.22,0,0,1,1-.15l.44.08a1,1,0,0,1,.69.54,1.11,1.11,0,0,1,0,.91c-.68,1.48-1.23,2.64-1.67,3.49,0,.1,0,.14.07.14h6.55a1.17,1.17,0,0,1,.85.35,1.2,1.2,0,0,1,0,1.67,1.17,1.17,0,0,1-.85.35H77.51c-.1,0-.14.06-.14.18v3.52c0,.12,0,.18.14.18h6a1.09,1.09,0,0,1,.83.35,1.14,1.14,0,0,1,.33.82,1.12,1.12,0,0,1-.33.81,1.06,1.06,0,0,1-.83.35h-6c-.1,0-.14.06-.14.18v3.56c0,.12,0,.18.14.18h6a1.08,1.08,0,0,1,.8.33,1.14,1.14,0,0,1-.8,2h-6c-.1,0-.14.06-.14.19v3.67c0,.12,0,.18.14.18H85a1.16,1.16,0,0,1,1.2,1.2,1.15,1.15,0,0,1-.34.85,1.18,1.18,0,0,1-.86.35Zm7.71-15c.09,0,.14-.06.14-.18V357c0-.12,0-.18-.14-.18H68.39q-.15,0-.15.18v3.52q0,.18.15.18Zm0,6.25c.09,0,.14-.06.14-.18v-3.56c0-.12,0-.18-.14-.18H68.39q-.15,0-.15.18v3.56q0,.18.15.18Zm0,6.33c.09,0,.14-.06.14-.18v-3.67c0-.13,0-.19-.14-.19H68.39c-.1,0-.15.06-.15.19v3.67q0,.18.15.18Z"/><path class="cls-2" d="M97.15,380.63a1.4,1.4,0,0,1-.93.51,1.6,1.6,0,0,1-1-.22l-.08,0a1,1,0,0,1-.47-.87.94.94,0,0,1,.29-.69A14.78,14.78,0,0,0,97.69,374a1.14,1.14,0,0,1,.58-.69,1,1,0,0,1,.88,0,1.19,1.19,0,0,1,.72.65,1.31,1.31,0,0,1,.08.95A18.81,18.81,0,0,1,97.15,380.63Zm30.09-15.52a1,1,0,0,1,.29.73,1,1,0,0,1-1,1h-24.6c-.1,0-.15,0-.15.14v2.33c0,.09,0,.14.15.14h23.26a1.2,1.2,0,0,1,.9.38,1.09,1.09,0,0,1,.33.89,67.43,67.43,0,0,1-.8,7.09,6.25,6.25,0,0,1-1.12,3,3.53,3.53,0,0,1-2.29.94,15.85,15.85,0,0,1-1.6.07c-.54,0-1.11,0-1.71-.07a1.34,1.34,0,0,1-.87-.38,1.76,1.76,0,0,1-.51-.86.83.83,0,0,1,.11-.72.61.61,0,0,1,.62-.29c.84,0,1.78,0,2.79,0a1.89,1.89,0,0,0,1.24-.29c.6-.7,1.09-3.22,1.45-7.56a.13.13,0,0,0-.14-.14H100.31a1.23,1.23,0,0,1-.89-.38,1.28,1.28,0,0,1-.38-.93V352.1a1.26,1.26,0,0,1,.38-.92,1.2,1.2,0,0,1,.89-.39h7.56a.25.25,0,0,0,.25-.14c.32-.68.57-1.27.77-1.78a1.53,1.53,0,0,1,.65-.84,1.47,1.47,0,0,1,.8-.25l.22,0,.62.08a.92.92,0,0,1,.69,1.34c-.25.44-.53.91-.84,1.42,0,.1,0,.14.11.14H121a1.2,1.2,0,0,1,.89.39,1.22,1.22,0,0,1,.38.92V361a1.3,1.3,0,0,1-1.27,1.27H101.91c-.1,0-.15.06-.15.19v2.18c0,.09,0,.14.15.14h24.6A1,1,0,0,1,127.24,365.11ZM119.61,353c0-.09-.06-.14-.19-.14H101.91c-.1,0-.15.05-.15.14v2.4q0,.18.15.18h17.51c.13,0,.19-.06.19-.18Zm-17.85,7.13q0,.18.15.18h17.51c.13,0,.19-.06.19-.18v-2.47a.17.17,0,0,0-.19-.19H101.91c-.1,0-.15.06-.15.19Zm1.57,15a1,1,0,0,1,.14-.86,1,1,0,0,1,.69-.45,1.57,1.57,0,0,1,.93.22,1.25,1.25,0,0,1,.56.76,20.72,20.72,0,0,1,.66,4.22,1.27,1.27,0,0,1-.31.92,1.35,1.35,0,0,1-.89.49,1,1,0,0,1-.84-.25,1.19,1.19,0,0,1-.4-.8A19.87,19.87,0,0,0,103.33,375.07Zm6.17-.26a1.06,1.06,0,0,1,0-.8.77.77,0,0,1,.58-.47,1.3,1.3,0,0,1,.93.07,1.27,1.27,0,0,1,.63.66,21.18,21.18,0,0,1,1.24,3.67,1.19,1.19,0,0,1-.16.91,1.17,1.17,0,0,1-.75.54,1.07,1.07,0,0,1-.87-.14,1,1,0,0,1-.47-.73A18.29,18.29,0,0,0,109.5,374.81Zm9.71,1.38a1.06,1.06,0,0,1,.11.44.93.93,0,0,1-.11.4,1,1,0,0,1-.59.58,1,1,0,0,1-.43.11,1,1,0,0,1-.44-.11,1.14,1.14,0,0,1-.58-.62,19.46,19.46,0,0,0-1.63-2.87.8.8,0,0,1-.15-.47.81.81,0,0,1,0-.25.66.66,0,0,1,.47-.51,1.17,1.17,0,0,1,.51-.11l.36,0a1.35,1.35,0,0,1,.73.51A23.68,23.68,0,0,1,119.21,376.19Z"/><path class="cls-2" d="M152.82,351.36a1.27,1.27,0,0,1,0,1.81,1.21,1.21,0,0,1-.89.39h-1.17a.16.16,0,0,0-.18.18v27.51a1.26,1.26,0,0,1-.38.92,1.19,1.19,0,0,1-.89.38h-.11a1.3,1.3,0,0,1-1.31-1.3V376c0-.12,0-.17-.14-.15q-2.3.41-6.27,1l-5.29.83a1.27,1.27,0,0,1-.94-.23,1.32,1.32,0,0,1-.55-.82l0-.25a.6.6,0,0,1,0-.22,1.15,1.15,0,0,1,.25-.73,1.32,1.32,0,0,1,.84-.47l2.18-.29c.1,0,.14-.06.14-.18V353.74c0-.12,0-.18-.14-.18h-1.45a1.24,1.24,0,0,1-.93-.39,1.27,1.27,0,0,1,0-1.81,1.23,1.23,0,0,1,.93-.38h15.48A1.2,1.2,0,0,1,152.82,351.36Zm-5.07,7.14c.09,0,.14-.05.14-.15v-4.61c0-.12,0-.18-.14-.18h-6.94q-.15,0-.15.18v4.61a.13.13,0,0,0,.15.15Zm0,7.63c.09,0,.14-.05.14-.15v-4.87a.13.13,0,0,0-.14-.14h-6.94c-.1,0-.15,0-.15.14V366a.13.13,0,0,0,.15.15Zm-6.94,2.54a.13.13,0,0,0-.15.15v5.3a.13.13,0,0,0,.15.15c1.47-.19,3.79-.53,6.94-1,.09,0,.14-.06.14-.18v-4.25c0-.1,0-.15-.14-.15Zm24.78-14.93a2,2,0,0,1,.4,0,1.9,1.9,0,0,1,.54.07l.44.11a1.17,1.17,0,0,1,.6.46.94.94,0,0,1,.16.74q-1.46,10.8-5.81,17.81a.17.17,0,0,0,0,.25,21.27,21.27,0,0,0,6.43,6.18.94.94,0,0,1,.47.87,1,1,0,0,1-.25.66,3.09,3.09,0,0,0-.29.32,1.52,1.52,0,0,1-.87.55l-.29,0a1.22,1.22,0,0,1-.69-.21,23.15,23.15,0,0,1-6.22-5.93c-.07-.09-.14-.09-.22,0a26.16,26.16,0,0,1-6.36,5.82,1.22,1.22,0,0,1-1,.16,1.59,1.59,0,0,1-.87-.56,1.74,1.74,0,0,1-.18-.22,1,1,0,0,1-.26-.69.94.94,0,0,1,.48-.87,22.94,22.94,0,0,0,6.61-6.14.24.24,0,0,0,0-.26,49.93,49.93,0,0,1-5.2-14.5,1.17,1.17,0,0,1,.19-.94,1.24,1.24,0,0,1,.83-.55l.11,0a1.33,1.33,0,0,1,.95.21,1.27,1.27,0,0,1,.54.84,46.32,46.32,0,0,0,4.25,12.35.12.12,0,0,0,.09,0,.1.1,0,0,0,.09,0,41.44,41.44,0,0,0,4.51-13.62c0-.1,0-.15-.14-.15H153.56a1.3,1.3,0,0,1-1.31-1.31v-.1a1.3,1.3,0,0,1,1.31-1.31h12Z"/><path class="cls-2" d="M208.08,370.09a1.27,1.27,0,0,1,.93.38,1.2,1.2,0,0,1,.38.89v.07a1.17,1.17,0,0,1-.38.91,1.26,1.26,0,0,1-.93.37H177.56a1.29,1.29,0,0,1-.93-.37,1.21,1.21,0,0,1-.38-.91v-.07a1.24,1.24,0,0,1,.38-.89,1.3,1.3,0,0,1,.93-.38h4.65q.15,0,.15-.18V352.47a1,1,0,0,1,.4-.79,1,1,0,0,1,.87-.2l.87.26a.91.91,0,0,0,.33,0,134.17,134.17,0,0,0,16.5-2.65A2.82,2.82,0,0,1,202,349a2.18,2.18,0,0,1,1.53.62l.5.44a.71.71,0,0,1,.2.71.64.64,0,0,1-.49.52,128.55,128.55,0,0,1-18.38,2.84c-.13,0-.19.06-.19.18v4.07c0,.1.06.14.19.14h21.11a1.27,1.27,0,0,1,.93.39,1.27,1.27,0,0,1,0,1.81,1.26,1.26,0,0,1-.93.38h-4.72a.13.13,0,0,0-.15.15v8.65q0,.18.15.18Zm-21.87,4.54a1.59,1.59,0,0,1,1-.43h.14a1.64,1.64,0,0,1,.91.25l.48.33a.92.92,0,0,1,.43.74.82.82,0,0,1-.33.78,56.41,56.41,0,0,1-9.26,5.82,1.64,1.64,0,0,1-.73.18,1.47,1.47,0,0,1-.36,0,1.7,1.7,0,0,1-.95-.54l-.25-.26a.83.83,0,0,1-.26-.61.79.79,0,0,1,.51-.8A45.7,45.7,0,0,0,186.21,374.63Zm-.87-13.52c-.13,0-.19.05-.19.15v8.65c0,.12.06.18.19.18H198.6a.16.16,0,0,0,.18-.18v-8.65q0-.15-.18-.15ZM197,376.3a.85.85,0,0,1-.47-.8.81.81,0,0,1,.29-.65l.18-.15a1.85,1.85,0,0,1,1-.47h.25a2,2,0,0,1,.84.18,99.51,99.51,0,0,1,9.3,5.38,1.07,1.07,0,0,1,.11,1.64l-.4.36a1.45,1.45,0,0,1-.94.44h-.11a1.38,1.38,0,0,1-.91-.33A83.51,83.51,0,0,0,197,376.3Z"/><path class="cls-2" d="M249.93,352.28a1.22,1.22,0,0,1,.36.88,1.19,1.19,0,0,1-.36.87,1.22,1.22,0,0,1-.88.36H222.38a.13.13,0,0,0-.15.15v8.94q0,12-3,18.09a.91.91,0,0,1-.71.51,1.14,1.14,0,0,1-.89-.22.35.35,0,0,0-.11-.07,1.39,1.39,0,0,1-.58-.8,1.94,1.94,0,0,1,0-.4A1.84,1.84,0,0,1,217,380a23.5,23.5,0,0,0,2.11-7.46,74.59,74.59,0,0,0,.51-9V353.23a1.3,1.3,0,0,1,.38-.93,1.23,1.23,0,0,1,.89-.38h12.32q.18,0,.18-.15V350a1.23,1.23,0,0,1,.38-.89,1.2,1.2,0,0,1,.89-.38h.26a1.22,1.22,0,0,1,.92.38,1.2,1.2,0,0,1,.39.89v1.81c0,.1,0,.15.14.15h12.68A1.22,1.22,0,0,1,249.93,352.28Zm-.55,23.59a1.13,1.13,0,0,1,.82.34,1.14,1.14,0,0,1,.34.84,1.12,1.12,0,0,1-.34.83,1.14,1.14,0,0,1-.82.35H237.82c-.09,0-.14,0-.14.15v3a1.3,1.3,0,0,1-1.31,1.31h-.07a1.19,1.19,0,0,1-.89-.38,1.23,1.23,0,0,1-.38-.93v-3c0-.1-.06-.15-.19-.15h-11a1.18,1.18,0,0,1-1.16-1.18,1.14,1.14,0,0,1,.34-.84,1.11,1.11,0,0,1,.82-.34h11c.13,0,.19-.05.19-.15V373.4c0-.1-.06-.15-.19-.15H227a1.3,1.3,0,0,1-1.27-1.31v-8.57a1.17,1.17,0,0,1,.38-.91,1.25,1.25,0,0,1,.89-.36h7.88a.17.17,0,0,0,.19-.19v-2.18c0-.09-.06-.14-.19-.14H225.4a1.06,1.06,0,0,1-.77-.33,1.1,1.1,0,0,1-.32-.78,1,1,0,0,1,.32-.76,1.08,1.08,0,0,1,.77-.31h9.44c.13,0,.19-.06.19-.18V356a1.19,1.19,0,0,1,.38-.89,1.23,1.23,0,0,1,.89-.38h.07a1.3,1.3,0,0,1,.93.38,1.23,1.23,0,0,1,.38.89v1.24c0,.12,0,.18.14.18h10.43a1.08,1.08,0,0,1,.77.31,1,1,0,0,1,.32.76,1.1,1.1,0,0,1-.32.78,1.06,1.06,0,0,1-.77.33H237.82a.13.13,0,0,0-.14.14v2.18c0,.13,0,.19.14.19h8.29a1.32,1.32,0,0,1,.93.36,1.21,1.21,0,0,1,.38.91v8.57a1.27,1.27,0,0,1-.38.93,1.3,1.3,0,0,1-.93.38h-8.29c-.09,0-.14.05-.14.15v2.32c0,.1,0,.15.14.15ZM228.3,364c-.12,0-.18.05-.18.14v2.47c0,.13.06.19.18.19h6.54a.17.17,0,0,0,.19-.19v-2.47c0-.09-.06-.14-.19-.14Zm-.18,7.27a.16.16,0,0,0,.18.18h6.54c.13,0,.19-.06.19-.18v-2.51c0-.1-.06-.15-.19-.15H228.3q-.18,0-.18.15Zm16.75-7.13a.12.12,0,0,0-.14-.14h-6.91a.13.13,0,0,0-.14.14v2.47c0,.13,0,.19.14.19h6.91c.1,0,.14-.06.14-.19Zm-.14,7.31c.1,0,.14-.06.14-.18v-2.51c0-.1,0-.15-.14-.15h-6.91c-.09,0-.14.05-.14.15v2.51c0,.12,0,.18.14.18Z"/><path class="cls-2" d="M262.88,383.39a1.32,1.32,0,0,1-.42.07,1,1,0,0,1-.38-.07,1,1,0,0,1-.58-.62.69.69,0,0,1-.11-.4,1.05,1.05,0,0,1,.07-.4,1.34,1.34,0,0,1,.58-.62,6.13,6.13,0,0,0,3.71-4.86.26.26,0,0,0,0-.1.13.13,0,0,0-.11-.05,2.84,2.84,0,0,1-.47,0,3,3,0,0,1-2-.69,2.81,2.81,0,0,1,0-3.95,3,3,0,0,1,2-.71,2.69,2.69,0,0,1,2.34,1.17,5.34,5.34,0,0,1,.82,3.12,8.25,8.25,0,0,1-1.46,4.82A9.68,9.68,0,0,1,262.88,383.39Z"/><path class="cls-2" d="M29.78,419.2c-.07-.05-.07-.09,0-.11v0H21.13a1.28,1.28,0,0,1-.92-.36,1.19,1.19,0,0,1-.38-.91v-5.2a1.31,1.31,0,0,1,1.3-1.31h7.53A1.33,1.33,0,0,1,30,412.58v6.22c0,.09,0,.12.1.07a22.88,22.88,0,0,0,4.55-4.07.25.25,0,0,0,0-.29,36.81,36.81,0,0,1-3.27-10,.17.17,0,0,0-.18-.15H18a.13.13,0,0,0-.15.15v3.12q0,8.55-3.3,13.49a.9.9,0,0,1-.77.41,1.24,1.24,0,0,1-.9-.31s0,0,0,0a1.42,1.42,0,0,1-.51-.84v-.25a1.2,1.2,0,0,1,.22-.69q2.76-4.22,2.76-11.81v-4.25a1.27,1.27,0,0,1,.38-.93,1.3,1.3,0,0,1,.93-.38H30.87a.13.13,0,0,0,.15-.15c-.1-.75-.18-1.52-.26-2.32a1.14,1.14,0,0,1,.33-.89,1.2,1.2,0,0,1,.91-.39h0a1.35,1.35,0,0,1,1.34,1.28c0,.72.12,1.5.22,2.32a.17.17,0,0,0,.18.15h6.47s0,0,0-.08a18.75,18.75,0,0,0-3.6-1.88.74.74,0,0,1-.46-.53.71.71,0,0,1,.17-.67,1.41,1.41,0,0,1,1.78-.44,20.79,20.79,0,0,1,3.16,1.49,1.07,1.07,0,0,1,.53.82,1.21,1.21,0,0,1-.28.92l-.21.26c-.08.07-.07.11,0,.11h2.8a1.16,1.16,0,0,1,1.16,1.16A1.11,1.11,0,0,1,45,404a1.13,1.13,0,0,1-.82.34h-10c-.12,0-.17.05-.14.15a36.27,36.27,0,0,0,2.32,7.74l.07,0s0,0,.08,0a25.45,25.45,0,0,0,2.5-4.91,1.34,1.34,0,0,1,.68-.76,1.46,1.46,0,0,1,1-.15h.07a1.15,1.15,0,0,1,.74.6,1.09,1.09,0,0,1,.06.93,29.07,29.07,0,0,1-3.71,6.83.24.24,0,0,0,0,.26c1.62,2.57,3.2,3.85,4.72,3.85.39,0,.7-.27.91-.8a9.66,9.66,0,0,0,.48-2.65.65.65,0,0,1,.4-.55.69.69,0,0,1,.72,0,1.7,1.7,0,0,1,1,1.49.62.62,0,0,1,0,.25,7.81,7.81,0,0,1-1.18,3.71,2.94,2.94,0,0,1-2.45,1q-3.32,0-6.25-4.22-.07-.15-.18,0a26.8,26.8,0,0,1-3.27,3.12,1.44,1.44,0,0,1-1,.29,1.41,1.41,0,0,1-.95-.44Q30.22,419.56,29.78,419.2ZM15.32,430.68a1.51,1.51,0,0,1-1,.42,1.71,1.71,0,0,1-1.05-.31l-.15-.11a.88.88,0,0,1-.38-.73,1,1,0,0,1,.35-.8,13.49,13.49,0,0,0,3.52-5.27,1.26,1.26,0,0,1,.66-.7,1.11,1.11,0,0,1,.94-.06,1.3,1.3,0,0,1,.75.65,1.17,1.17,0,0,1,0,1A14.81,14.81,0,0,1,15.32,430.68ZM29.57,406.8a1,1,0,0,1,1,1,1,1,0,0,1-1,1H20.15a.9.9,0,0,1-.67-.29,1,1,0,0,1-.27-.69,1,1,0,0,1,.27-.69.87.87,0,0,1,.67-.3Zm-2.88,22.5h6.8a1.77,1.77,0,0,0,1.45-.47,4.55,4.55,0,0,0,.51-2.15.7.7,0,0,1,.38-.65.88.88,0,0,1,.82,0,.28.28,0,0,0,.15,0,1.93,1.93,0,0,1,.83.67,1.27,1.27,0,0,1,.26,1,5.77,5.77,0,0,1-1.2,3.29,4.19,4.19,0,0,1-3,.86H26.48a7.08,7.08,0,0,1-3.86-.73,3.42,3.42,0,0,1-1-2.87v-4.47a1.22,1.22,0,0,1,.38-.91,1.32,1.32,0,0,1,.93-.36h.15a1.28,1.28,0,0,1,.92.36,1.2,1.2,0,0,1,.39.91v4.43c0,.49.13.8.41.93A5.48,5.48,0,0,0,26.69,429.3Zm.77-12.21c.09,0,.14,0,.14-.15v-3.56a.13.13,0,0,0-.14-.14H22.3c-.1,0-.15.05-.15.14v3.56a.13.13,0,0,0,.15.15Zm-1.93,4.69a.86.86,0,0,1-.42-.64.69.69,0,0,1,.28-.67,1.66,1.66,0,0,1,1.12-.47,2.06,2.06,0,0,1,.88.21,27.43,27.43,0,0,1,4.32,2.87,1.16,1.16,0,0,1,.4.89,1.1,1.1,0,0,1-.4.88,1.39,1.39,0,0,1-.93.34,1.32,1.32,0,0,1-.92-.36A27.44,27.44,0,0,0,25.53,421.78Zm12.68,2.58a.9.9,0,0,1,.19-1.46,1.87,1.87,0,0,1,.9-.22h.19a2,2,0,0,1,1,.44,27.21,27.21,0,0,1,5,5.49,1.33,1.33,0,0,1,.18.65,2.11,2.11,0,0,1,0,.33,1.21,1.21,0,0,1-.62.76l-.18.11a1.25,1.25,0,0,1-.58.15,2.35,2.35,0,0,1-.4,0,1.39,1.39,0,0,1-.76-.62A25.48,25.48,0,0,0,38.21,424.36Z"/><path class="cls-2" d="M79,415.6a1,1,0,0,1,.3,0,1.36,1.36,0,0,1,.65.18l.47.33a1.21,1.21,0,0,1,.53.69,1.12,1.12,0,0,1-.09.84,23.25,23.25,0,0,1-7.89,8.28c-.05,0-.06.06-.05.09a.19.19,0,0,0,.05.09,46,46,0,0,0,12.36,3.35.67.67,0,0,1,.54.47.63.63,0,0,1,.08.29.78.78,0,0,1-.15.44l-.29.43a2.27,2.27,0,0,1-.8.77,1.94,1.94,0,0,1-.8.18h-.25a43.4,43.4,0,0,1-13.45-4.36.3.3,0,0,0-.29,0A49,49,0,0,1,56.29,432a2.2,2.2,0,0,1-.36,0A1.8,1.8,0,0,1,54.4,431a3,3,0,0,0-.22-.32.76.76,0,0,1-.14-.44.62.62,0,0,1,.07-.29.67.67,0,0,1,.54-.47,50,50,0,0,0,12.58-3.46.09.09,0,0,0,.07-.09.12.12,0,0,0,0-.09,26.28,26.28,0,0,1-7.19-7.27c-.15-.19-.1-.33.14-.43h-.29a1.24,1.24,0,0,1-.91-.38,1.29,1.29,0,0,1-.36-.91A1.28,1.28,0,0,1,59,416a1.24,1.24,0,0,1,.91-.38H79Zm-22-4.22a.16.16,0,0,0-.18.18v3.64a1.32,1.32,0,0,1-.36.93,1.22,1.22,0,0,1-.91.38h0a1.24,1.24,0,0,1-.89-.38,1.3,1.3,0,0,1-.38-.93v-5a1.23,1.23,0,0,1,.38-.89,1.24,1.24,0,0,1,.89-.38h4.47c.12,0,.16-.05.11-.15a21.85,21.85,0,0,0-1.74-3.7.87.87,0,0,1-.08-.84,1,1,0,0,1,.62-.58,1.64,1.64,0,0,1,1.86.73A22.65,22.65,0,0,1,62.18,407a1.14,1.14,0,0,1,0,1,1.18,1.18,0,0,1-.75.63l-.8.26V409H76.49a.31.31,0,0,0,.26-.15,47.15,47.15,0,0,0,2.83-5,1.37,1.37,0,0,1,.73-.73,1.44,1.44,0,0,1,.62-.14,1.25,1.25,0,0,1,.4.07l.32.11a1,1,0,0,1,.62,1.49c-.75,1.28-1.65,2.69-2.69,4.21-.07.1,0,.15.08.15h4.9a1.23,1.23,0,0,1,.89.38,1.19,1.19,0,0,1,.38.89v5a1.26,1.26,0,0,1-.38.93,1.23,1.23,0,0,1-.89.38h-.14a1.3,1.3,0,0,1-1.31-1.31v-3.64q0-.18-.15-.18Zm23.62-13a4.23,4.23,0,0,1,.48,0,2.07,2.07,0,0,1,1.63.77l.26.25a.8.8,0,0,1,.12.75.65.65,0,0,1-.56.49,186.08,186.08,0,0,1-26.09,2.58,1.4,1.4,0,0,1-.91-.33,1.65,1.65,0,0,1-.55-.84,1,1,0,0,1,.13-.8.87.87,0,0,1,.71-.39A192.6,192.6,0,0,0,80.56,398.41Zm-3.48,19.91c.07-.09,0-.14-.08-.14H63c-.13,0-.15,0-.08.11A21.94,21.94,0,0,0,70,424.5a.3.3,0,0,0,.29,0A20.26,20.26,0,0,0,77.08,418.32Zm-5.46-11.48a1.13,1.13,0,0,1-.14,1,1.33,1.33,0,0,1-.8.6h-.11a1.08,1.08,0,0,1-.94-.14,1.4,1.4,0,0,1-.59-.8,22.55,22.55,0,0,0-1.05-3,1,1,0,0,1,0-.89,1,1,0,0,1,.69-.57l.36,0a1.42,1.42,0,0,1,.69.18,1.33,1.33,0,0,1,.73.76A21.25,21.25,0,0,1,71.62,406.84Z"/><path class="cls-2" d="M97.8,416.65q-.18,0-.18.15v.14q0,4.11-.36,7.74A25.25,25.25,0,0,1,95.88,431a.74.74,0,0,1-.55.49,1,1,0,0,1-.76-.13,1.37,1.37,0,0,1-.51-.69,1.35,1.35,0,0,1-.07-.44,1.05,1.05,0,0,1,.07-.4,22.09,22.09,0,0,0,1.22-5.74c.18-2.11.27-4.49.27-7.16V403.46a1.3,1.3,0,0,1,.38-.93,1.28,1.28,0,0,1,.93-.38h4.87a.13.13,0,0,0,.14-.14v-2.66a1.17,1.17,0,0,1,.35-.85,1.15,1.15,0,0,1,.85-.34,1.16,1.16,0,0,1,1.2,1.19V402c0,.09,0,.14.15.14h5.16a1.17,1.17,0,0,1,0,2.33H97.8c-.12,0-.18,0-.18.14v3.17c0,.09.06.14.18.14h1.82c.12,0,.18-.05.18-.14v-2a.89.89,0,0,1,.27-.64.89.89,0,0,1,1.28,0,.89.89,0,0,1,.27.64v2a.13.13,0,0,0,.14.14H104c.12,0,.18-.05.18-.14v-2a.92.92,0,0,1,.26-.64.8.8,0,0,1,.61-.27.87.87,0,0,1,.64.27.89.89,0,0,1,.27.64v2c0,.09,0,.14.15.14H109a1.3,1.3,0,0,1,1.31,1.31v6.1a1.3,1.3,0,0,1-1.31,1.31Zm3.2,11.23c0,.1,0,.13.15.11l1.59-.4a1,1,0,0,1,.75.16.82.82,0,0,1,.38.64,1.12,1.12,0,0,1-.16.8,1.28,1.28,0,0,1-.67.51l-3.86,1.05a1.34,1.34,0,0,1-.92-.11,1.18,1.18,0,0,1-.64-.69,2.2,2.2,0,0,1,0-.36,1,1,0,0,1,.11-.47,1,1,0,0,1,.69-.51,2.81,2.81,0,0,0,.51-.11.18.18,0,0,0,.15-.18V418.14a1,1,0,0,1,1.67-.69,1,1,0,0,1,.29.69v2.66q0,.18.15.18h1.45a1.06,1.06,0,0,1,1.05,1,1,1,0,0,1-1.05,1.05h-1.45a.13.13,0,0,0-.15.15Zm-1.2-17.7a.16.16,0,0,0-.18-.18H97.8a.16.16,0,0,0-.18.18v4.18q0,.15.18.15h1.82q.18,0,.18-.15Zm4.36,0A.16.16,0,0,0,104,410h-2.22c-.09,0-.14.06-.14.18v4.18c0,.1,0,.15.14.15H104q.18,0,.18-.15Zm2.91,18.68h1.34a.42.42,0,0,0,.42-.31,4.84,4.84,0,0,0,.2-1.29.54.54,0,0,1,.29-.49.65.65,0,0,1,.62,0,1.58,1.58,0,0,1,.65.52,1.09,1.09,0,0,1,.22.78,4.4,4.4,0,0,1-.69,2.11,1.71,1.71,0,0,1-1.42.58h-1.92a2.31,2.31,0,0,1-1.82-.53,3.55,3.55,0,0,1-.43-2.12v-10a1,1,0,0,1,1-1,1,1,0,0,1,1,1v3.16q0,.07,0,.09s0,0,.08,0c.58-.51,1.12-1,1.63-1.53a1,1,0,0,1,.71-.29,1,1,0,0,1,.71.29,1.06,1.06,0,0,1,.27.76.88.88,0,0,1-.34.69c-.92.8-1.91,1.58-3,2.33a.26.26,0,0,0-.14.25v4.18a1.21,1.21,0,0,0,.11.66A.6.6,0,0,0,107.07,428.86Zm1.23-18.68c0-.12,0-.18-.14-.18h-2.07q-.15,0-.15.18v4.18a.13.13,0,0,0,.15.15h2.07c.1,0,.14-.05.14-.15Zm6.29,15a1.37,1.37,0,0,1,.8-.62,1.68,1.68,0,0,1,.44-.07,1.75,1.75,0,0,1,.58.11,1.12,1.12,0,0,1,.62.71,1.1,1.1,0,0,1-.15.93,26.88,26.88,0,0,1-4.51,5.26,1.43,1.43,0,0,1-1,.37,1.73,1.73,0,0,1-1-.33.91.91,0,0,1-.4-.76,1,1,0,0,1,.33-.73A21.09,21.09,0,0,0,114.59,425.19Zm12.1-4.18a1.14,1.14,0,0,1,.82.33,1.08,1.08,0,0,1,.34.82,1.13,1.13,0,0,1-.34.83,1.12,1.12,0,0,1-.82.35H112a1.18,1.18,0,0,1-1.16-1.18,1.08,1.08,0,0,1,.34-.82A1.16,1.16,0,0,1,112,421h1.45c.13,0,.19-.06.19-.18V405.46c0-.12-.06-.18-.19-.18h-.87a1.18,1.18,0,0,1-.85-.33,1.09,1.09,0,0,1-.35-.82,1.14,1.14,0,0,1,.35-.83,1.15,1.15,0,0,1,.85-.35h.87c.13,0,.19-.06.19-.18v-3.31a1.2,1.2,0,0,1,.36-.87,1.23,1.23,0,0,1,1.74,0,1.17,1.17,0,0,1,.37.87v3.31a.16.16,0,0,0,.18.18h6q.15,0,.15-.18v-3.31a1.2,1.2,0,0,1,.36-.87,1.23,1.23,0,0,1,1.74,0,1.17,1.17,0,0,1,.37.87v3.31a.16.16,0,0,0,.18.18h1.27a1.19,1.19,0,0,1,.86.35,1.13,1.13,0,0,1,.34.83,1.08,1.08,0,0,1-.34.82,1.22,1.22,0,0,1-.86.33h-1.27a.16.16,0,0,0-.18.18v15.37a.16.16,0,0,0,.18.18Zm-4.21-15.55q0-.18-.15-.18h-6a.16.16,0,0,0-.18.18v3.34c0,.13.06.18.18.18h6c.1,0,.15-.05.15-.18Zm-6.18,5.71a.16.16,0,0,0-.18.18v3.45a.16.16,0,0,0,.18.18h6q.15,0,.15-.18v-3.45q0-.18-.15-.18Zm0,6a.16.16,0,0,0-.18.18v3.45a.16.16,0,0,0,.18.18h6q.15,0,.15-.18v-3.45q0-.18-.15-.18Zm5.34,8.94a1.07,1.07,0,0,1-.22-.62v-.18a1.06,1.06,0,0,1,.51-.66,1.42,1.42,0,0,1,.69-.18.92.92,0,0,1,.26,0,1.26,1.26,0,0,1,.83.47,42,42,0,0,1,3.75,4.8,1.19,1.19,0,0,1,.21.65,1.43,1.43,0,0,1,0,.29,1.13,1.13,0,0,1-.58.8,1.37,1.37,0,0,1-.66.18l-.33,0a1.12,1.12,0,0,1-.76-.58A51.81,51.81,0,0,0,121.64,426.14Z"/><path class="cls-2" d="M138.74,416.65c-.13,0-.19.05-.19.15v.14q0,4.11-.36,7.74a24.82,24.82,0,0,1-1.38,6.33.74.74,0,0,1-.55.49,1,1,0,0,1-.76-.13,1.37,1.37,0,0,1-.51-.69,1.35,1.35,0,0,1-.07-.44,1.05,1.05,0,0,1,.07-.4,22.09,22.09,0,0,0,1.22-5.74c.18-2.11.27-4.49.27-7.16V403.46a1.3,1.3,0,0,1,1.31-1.31h4.87c.1,0,.15,0,.15-.14v-2.66a1.2,1.2,0,1,1,2.39,0V402c0,.09.05.14.15.14h5.05a1.14,1.14,0,0,1,.82.35,1.15,1.15,0,0,1,0,1.63,1.14,1.14,0,0,1-.82.35H138.74c-.13,0-.19,0-.19.14v3.17c0,.09.06.14.19.14h1.7c.12,0,.18-.05.18-.14v-2a.92.92,0,0,1,.26-.64.88.88,0,0,1,1.27,0,.92.92,0,0,1,.26.64v2a.12.12,0,0,0,.14.14h2.11a.13.13,0,0,0,.14-.14v-2a.94.94,0,0,1,.91-.91.92.92,0,0,1,.91.91v2c0,.09,0,.14.15.14h2.79a1.21,1.21,0,0,1,.91.38,1.33,1.33,0,0,1,.37.93v2.51c0,.12,0,.15.14.11a16.48,16.48,0,0,0,3.09-2.11,17.83,17.83,0,0,0,2.65-2.8c.05-.1,0-.15-.07-.15h-3.92a1.06,1.06,0,0,1-.8-.32,1.07,1.07,0,0,1-.33-.78,1,1,0,0,1,.33-.78,1.06,1.06,0,0,1,.8-.33h6a.16.16,0,0,0,.18-.18V399.5a1.18,1.18,0,0,1,1.18-1.2,1.13,1.13,0,0,1,.83.35,1.15,1.15,0,0,1,.35.85v4.91a.16.16,0,0,0,.18.18h6.14a1.08,1.08,0,0,1,.8.33,1,1,0,0,1,.33.78,1.11,1.11,0,0,1-1.13,1.1h-4.32a.08.08,0,0,0-.09.06.06.06,0,0,0,0,.09,21.45,21.45,0,0,0,4.9,4.22,1,1,0,0,1,.46.72,1.13,1.13,0,0,1-.24.84,1.66,1.66,0,0,1-.93.47,1.28,1.28,0,0,1-1-.25,25.29,25.29,0,0,1-5-5.35l-.07,0s0,0,0,0v5.56a1.2,1.2,0,0,1-1.18,1.17,1.15,1.15,0,0,1-.84-.35,1.11,1.11,0,0,1-.34-.82V407.5a0,0,0,0,0,0,0,.09.09,0,0,0-.07,0,21.05,21.05,0,0,1-5.42,5.7,1.33,1.33,0,0,1-1,.2,1.5,1.5,0,0,1-.91-.53l-.47-.54s0,0-.09,0,0,0,0,.05v3a1.3,1.3,0,0,1-.37.93,1.17,1.17,0,0,1-.91.38ZM141.93,428c0,.1,0,.13.15.11l1.63-.4a1,1,0,0,1,.75.16.82.82,0,0,1,.38.64,1,1,0,0,1-.18.8,1.16,1.16,0,0,1-.69.47l-4,1.09a1.25,1.25,0,0,1-.89-.11,1.06,1.06,0,0,1-.56-.69,1.11,1.11,0,0,1,0-.33,1,1,0,0,1,.15-.5,1.1,1.1,0,0,1,.69-.51,3.24,3.24,0,0,0,.51-.11.18.18,0,0,0,.14-.18V418.14a1,1,0,0,1,1-1,1,1,0,0,1,1,1v2.66q0,.18.15.18h1.45a1.06,1.06,0,0,1,1.06,1,1,1,0,0,1-1.06,1.05h-1.45a.13.13,0,0,0-.15.15Zm-1.31-17.81a.16.16,0,0,0-.18-.18h-1.7c-.13,0-.19.06-.19.18v4.18c0,.1.06.15.19.15h1.7q.18,0,.18-.15Zm4.18,0c0-.12-.05-.18-.14-.18h-2.11c-.1,0-.14.06-.14.18v4.18c0,.1,0,.15.14.15h2.11c.09,0,.14-.05.14-.15ZM147.67,429h1.39a.42.42,0,0,0,.4-.31,5.44,5.44,0,0,0,.14-1.29.61.61,0,0,1,.31-.49.61.61,0,0,1,.6,0,1.29,1.29,0,0,1,.64.51,1.17,1.17,0,0,1,.19.76,4.49,4.49,0,0,1-.63,2.11,1.7,1.7,0,0,1-1.44.58h-1.85a2.21,2.21,0,0,1-1.74-.53,3.56,3.56,0,0,1-.44-2.12V418.14a1,1,0,0,1,.29-.69,1,1,0,0,1,1.38,0,1,1,0,0,1,.29.69v3.2c0,.05,0,.08,0,.09a.05.05,0,0,0,.07,0c.56-.48,1.1-1,1.64-1.56a1,1,0,0,1,1.41,0,1,1,0,0,1,.28.76.89.89,0,0,1-.35.69c-.92.8-1.9,1.58-2.94,2.33a.26.26,0,0,0-.15.25v4.33a1.46,1.46,0,0,0,.09.67C147.35,429,147.48,429,147.67,429Zm1.24-18.83q0-.18-.15-.18h-2q-.15,0-.15.18v4.18a.13.13,0,0,0,.15.15h2a.13.13,0,0,0,.15-.15Zm8.76,6.33a2.49,2.49,0,0,1,.72,0l.26.08a.76.76,0,0,1,.45.31.6.6,0,0,1,.09.52q-1.38,9.93-6.39,14.14a1,1,0,0,1-.78.18,1.19,1.19,0,0,1-.71-.4,1.09,1.09,0,0,1-.2-.8,1,1,0,0,1,.38-.69,14.23,14.23,0,0,0,3.42-4.58.21.21,0,0,0,0-.25,17,17,0,0,0-2.33-2.26c-.09-.07-.17-.07-.21,0a9.71,9.71,0,0,1-.69,1.06.84.84,0,0,1-.68.4.89.89,0,0,1-.74-.26,1.12,1.12,0,0,1-.4-.87,1,1,0,0,1,.22-.65,23.62,23.62,0,0,0,3.45-8.14,1.16,1.16,0,0,1,.47-.69,1,1,0,0,1,.58-.19.78.78,0,0,1,.22,0,.92.92,0,0,1,.67.44.9.9,0,0,1,.13.76c-.17.58-.34,1.14-.51,1.67q0,.18.15.18h2.36A.18.18,0,0,0,157.67,416.51Zm-1.09-14a1.11,1.11,0,0,1,0,.89,1.16,1.16,0,0,1-.6.67,1,1,0,0,1-.87,0,1.14,1.14,0,0,1-.62-.58,21.43,21.43,0,0,0-1.45-2.58,1,1,0,0,1-.11-.77.86.86,0,0,1,.51-.58,1.19,1.19,0,0,1,.87-.09,1.2,1.2,0,0,1,.73.53A27,27,0,0,1,156.58,402.48Zm.4,16.21a.13.13,0,0,0-.15-.15h-2.32a.23.23,0,0,0-.22.15,19.89,19.89,0,0,1-.87,2,.18.18,0,0,0,.07.25,20.32,20.32,0,0,1,2.25,1.93c.1.07.16.06.18,0A27.16,27.16,0,0,0,157,418.69Zm9.59.72q-.18,0-.18.15v4.76a.16.16,0,0,0,.18.18H168a1.08,1.08,0,0,1,.8.33,1.09,1.09,0,0,1,0,1.56,1.08,1.08,0,0,1-.8.33h-1.38a.16.16,0,0,0-.18.18v4.25a1.08,1.08,0,0,1-.31.77,1.07,1.07,0,0,1-1.53,0,1.11,1.11,0,0,1-.3-.77V426.9a.17.17,0,0,0-.19-.18h-4.79a1.08,1.08,0,0,1-.8-.33,1.09,1.09,0,0,1,0-1.56,1.08,1.08,0,0,1,.8-.33h.8c.09,0,.14-.06.14-.18v-4.83c0-.05,0-.08-.07-.08a.73.73,0,0,1-.56-.23.78.78,0,0,1-.24-.57v-.29a1,1,0,0,1,.31-.74,1,1,0,0,1,.74-.31h3.67c.12,0,.19,0,.19-.14v-2.4a1.06,1.06,0,0,1,.3-.78,1.08,1.08,0,0,1,1.84.78v2.4c0,.09.06.14.18.14h1.05a1.06,1.06,0,0,1,1.06,1.05,1.08,1.08,0,0,1-.31.77,1,1,0,0,1-.75.32Zm-4.51,4.91q0,.18.15.18h1.85a.17.17,0,0,0,.19-.18v-4.76c0-.1-.07-.15-.19-.15h-1.85a.13.13,0,0,0-.15.15ZM165,400a1.31,1.31,0,0,1,.71-.6,1.07,1.07,0,0,1,.89.06,1,1,0,0,1,.43,1.49q-1,1.59-1.92,2.76a1.14,1.14,0,0,1-.67.42,1.19,1.19,0,0,1-.79-.09.81.81,0,0,1-.45-.57.86.86,0,0,1,.13-.71A32.12,32.12,0,0,0,165,400Z"/><path class="cls-2" d="M183.37,399.43a1.12,1.12,0,0,1,.71-.58,1,1,0,0,1,.89.11,1.32,1.32,0,0,1,.62.78,1.21,1.21,0,0,1-.11,1,28.24,28.24,0,0,1-2.83,4.25.23.23,0,0,0,0,.29,23.53,23.53,0,0,1,1.53,5.82,55.07,55.07,0,0,1,.4,6.94q0,10.32-1.64,12.61A2.66,2.66,0,0,1,181,431.7a12.12,12.12,0,0,1-2,.22,1.29,1.29,0,0,1-.94-.39,1.93,1.93,0,0,1-.55-.92v-.08a.85.85,0,0,1,.11-.8.8.8,0,0,1,.69-.36h.44c.5,0,.92,0,1.23,0a1.3,1.3,0,0,0,1-.48Q182,427.35,182,418v-1s0,0,0,0,0,0,0,0a31.92,31.92,0,0,1-3.78,5.38,1,1,0,0,1-.82.27,1.07,1.07,0,0,1-.78-.46l-.07-.11a1.35,1.35,0,0,1-.29-1,1.49,1.49,0,0,1,.39-.93,21.62,21.62,0,0,0,2.84-3.56,25.53,25.53,0,0,0,2.25-4.18.49.49,0,0,0,0-.32,29.3,29.3,0,0,0-1-4.65c0-.1-.1-.11-.18,0a30.39,30.39,0,0,1-2.36,2.33,1.17,1.17,0,0,1-.87.29,1.43,1.43,0,0,1-.87-.37,1,1,0,0,1-.37-.8,1,1,0,0,1,.37-.8,30.63,30.63,0,0,0,3.12-3.12.26.26,0,0,0,0-.29,20.74,20.74,0,0,0-2.55-3.89,1.06,1.06,0,0,1-.23-.82,1,1,0,0,1,.42-.74,1.37,1.37,0,0,1,.89-.22,1.11,1.11,0,0,1,.81.43,20.09,20.09,0,0,1,2.22,3.17.15.15,0,0,0,.18,0A21.05,21.05,0,0,0,183.37,399.43Zm5.13,14.1c-.12,0-.18.05-.18.14V417c0,.09.06.14.18.14h5.16a1.24,1.24,0,0,1,.91.38,1.32,1.32,0,0,1,.36.93v8.87a1.25,1.25,0,0,1-1.27,1.27H188.5a.16.16,0,0,0-.18.18v1.53a1.09,1.09,0,0,1-.33.8,1.13,1.13,0,0,1-.8.32,1.11,1.11,0,0,1-.8-.32,1.09,1.09,0,0,1-.33-.8V404.55a1.25,1.25,0,0,1,.37-.92,1.17,1.17,0,0,1,.9-.39h.44c.12,0,.19,0,.22-.14a34.57,34.57,0,0,0,1.09-3.45,1.39,1.39,0,0,1,.58-.8,1.26,1.26,0,0,1,1-.15h0a1,1,0,0,1,.74.56,1.17,1.17,0,0,1,.09.93c-.38,1-.77,2-1.16,2.91,0,.1,0,.14.11.14h2.8a1.21,1.21,0,0,1,.89.39,1.26,1.26,0,0,1,.38.92v7.67a1.3,1.3,0,0,1-.38.93,1.24,1.24,0,0,1-.89.38Zm3.6-2.4q.18,0,.18-.15v-5.19q0-.15-.18-.15h-3.6q-.18,0-.18.15V411q0,.15.18.15Zm.54,8.61c0-.1-.06-.14-.18-.14h-4c-.12,0-.18,0-.18.14v6.32c0,.13.06.19.18.19h4c.12,0,.18-.06.18-.19Zm16.68-19.19a1.2,1.2,0,0,1,.36.86,1.16,1.16,0,0,1-.36.85,1.12,1.12,0,0,1-.84.37H204c-.12,0-.18,0-.18.14V407a.16.16,0,0,0,.18.18h3.67a1.2,1.2,0,0,1,.91.37,1.23,1.23,0,0,1,.37.9v15.67a2.27,2.27,0,0,1-.84,2.1,3.39,3.39,0,0,1-1.78.48,1.4,1.4,0,0,1-.87-.31,1.74,1.74,0,0,1-.58-.82.73.73,0,0,1,.09-.73.72.72,0,0,1,.63-.32,6.9,6.9,0,0,0,.8,0,.36.36,0,0,0,.29-.09.48.48,0,0,0,.08-.31V409.71q0-.18-.15-.18H204a.16.16,0,0,0-.18.18V431a1.17,1.17,0,0,1-.32.82,1.14,1.14,0,0,1-1.64,0,1.14,1.14,0,0,1-.33-.82V409.71a.16.16,0,0,0-.18-.18h-2.51c-.09,0-.14.06-.14.18v16a1,1,0,0,1-.31.74,1,1,0,0,1-.74.31,1.06,1.06,0,0,1-.77-.31,1,1,0,0,1-.33-.74V408.4a1.17,1.17,0,0,1,.39-.9,1.25,1.25,0,0,1,.92-.37h3.49a.16.16,0,0,0,.18-.18v-4.18c0-.1-.06-.14-.18-.14h-4.18a1.27,1.27,0,0,1-1.2-1.22,1.17,1.17,0,0,1,.37-.86,1.15,1.15,0,0,1,.83-.36h11.3A1.15,1.15,0,0,1,209.32,400.55Z"/><path class="cls-2" d="M249.27,414a1.32,1.32,0,0,1,1.27,1.28v.14a1.26,1.26,0,0,1-.38.93,1.23,1.23,0,0,1-.89.38H235.39c-.12,0-.18.05-.18.14v11a4.24,4.24,0,0,1-.42,2.12,2.48,2.48,0,0,1-1.44,1,24.74,24.74,0,0,1-6.06.47,1.6,1.6,0,0,1-1-.35,2,2,0,0,1-.68-.89l-.21-.43a.84.84,0,0,1,.07-.77.68.68,0,0,1,.62-.36l2.79.07h1.17c.68,0,1.1,0,1.27,0a1.75,1.75,0,0,0,.84-.2.84.84,0,0,0,.21-.67v-11c0-.09-.06-.14-.18-.14H218.31a1.3,1.3,0,0,1-1.31-1.31v-.14a1.23,1.23,0,0,1,.38-.89,1.27,1.27,0,0,1,.93-.39h13.88a.16.16,0,0,0,.18-.18v-4.5a1.32,1.32,0,0,1,1.28-1.28h.29a.66.66,0,0,0,.32-.07,43.61,43.61,0,0,0,7.42-5.12v-.08s0,0,0,0H222.16a1.26,1.26,0,0,1-.92-.38,1.21,1.21,0,0,1-.39-.89v-.08a1.31,1.31,0,0,1,1.31-1.3h22.46a.42.42,0,0,0,.15,0,2.2,2.2,0,0,1,.36,0,1.23,1.23,0,0,1,.76.29l.47.37a1,1,0,0,1,.44.8,1,1,0,0,1-.33.83,44.64,44.64,0,0,1-4.76,3.89,54.6,54.6,0,0,1-6.36,4.07.24.24,0,0,0-.14.22v3.34a.16.16,0,0,0,.18.18Z"/><path class="cls-2" d="M263.46,402.59c-.1,0-.15.05-.15.14V411q0,13.09-3,20a1.14,1.14,0,0,1-.69.58l-.33,0a1.15,1.15,0,0,1-.62-.18.11.11,0,0,0-.07,0,1.58,1.58,0,0,1-.66-.77,2.06,2.06,0,0,1-.07-.47,1.34,1.34,0,0,1,.11-.51q2.76-6.32,2.76-18.68v-9.63a1.3,1.3,0,0,1,1.31-1.3H289.8a1.25,1.25,0,0,1,.89.36,1.17,1.17,0,0,1,.39.89,1.24,1.24,0,0,1-.39.91,1.23,1.23,0,0,1-.89.38Zm15.26,21.73a.13.13,0,0,0-.15.15v4.21q0,.18.15.18H290a1.18,1.18,0,0,1,.84.35,1.15,1.15,0,0,1,0,1.67,1.17,1.17,0,0,1-.84.34h-25.9a1.17,1.17,0,0,1-.84-.34,1.15,1.15,0,0,1,0-1.67,1.18,1.18,0,0,1,.84-.35h3.41q.15,0,.15-.18v-6.39a1.17,1.17,0,0,1,.38-.91,1.29,1.29,0,0,1,.92-.37h0a1.26,1.26,0,0,1,.89.37,1.17,1.17,0,0,1,.38.91v6.39a.16.16,0,0,0,.18.18h5.27a.17.17,0,0,0,.19-.18v-9.05a1.2,1.2,0,0,1,.38-.89,1.23,1.23,0,0,1,.89-.38h.11a1.26,1.26,0,0,1,.92.38,1.2,1.2,0,0,1,.38.89v2.29a.13.13,0,0,0,.15.15h7.78a1.07,1.07,0,0,1,.76.32,1.09,1.09,0,0,1,.33.8,1.08,1.08,0,0,1-.33.8,1,1,0,0,1-.76.33Zm-7.12-7.05a1.12,1.12,0,0,1-.35.82,1.13,1.13,0,0,1-.83.34,1.08,1.08,0,0,1-.82-.34,1.14,1.14,0,0,1-.33-.82V413.2a.05.05,0,0,0,0-.05s-.05,0-.08,0a19.87,19.87,0,0,1-3.49,4.36,1,1,0,0,1-.81.24,1.17,1.17,0,0,1-.78-.42.83.83,0,0,1-.3-.72,1.08,1.08,0,0,1,.37-.73,16.94,16.94,0,0,0,4-4.54c.05-.1,0-.15-.11-.15h-2.54a1,1,0,0,1-.75-.31,1,1,0,0,1-.3-.72,1,1,0,0,1,1-1h3.56a.16.16,0,0,0,.18-.18v-2.33c0-.12-.06-.17-.18-.14q-1.35.21-2.94.36H266a1.09,1.09,0,0,1-1.05-.76.73.73,0,0,1,0-.58.56.56,0,0,1,.48-.33,40.13,40.13,0,0,0,6.94-1.27,2.44,2.44,0,0,1,.8-.15,2.08,2.08,0,0,1,1.27.44.63.63,0,0,1,.27.63.56.56,0,0,1-.42.49,19,19,0,0,1-2.58.7.17.17,0,0,0-.14.18V409a.16.16,0,0,0,.18.18h3.09a1.06,1.06,0,0,1,1.05,1,1,1,0,0,1-.31.72,1,1,0,0,1-.74.31h-3.16c-.08,0-.11,0-.11.09a.23.23,0,0,0,.07.17c1,.63,2,1.38,3.2,2.25a1.14,1.14,0,0,1,.18,1.6.87.87,0,0,1-.71.38,1.1,1.1,0,0,1-.78-.27c-.46-.44-1.08-1-1.85-1.67a.07.07,0,0,0-.08,0,.05.05,0,0,0,0,0Zm12.86,0a1.17,1.17,0,0,1-.34.86,1.21,1.21,0,0,1-1.68,0,1.17,1.17,0,0,1-.34-.86V412.4c-.05,0-.07,0-.07,0a20,20,0,0,1-4.36,5.16,1,1,0,0,1-.86.26,1.52,1.52,0,0,1-.85-.44,1,1,0,0,1-.24-.78,1,1,0,0,1,.42-.71,16.6,16.6,0,0,0,4.36-4.54c.07-.1.05-.15-.07-.15H278.1a.92.92,0,0,1-.72-.31,1,1,0,0,1-.3-.72,1,1,0,0,1,.3-.73.92.92,0,0,1,.72-.31h3.82a.16.16,0,0,0,.18-.18v-2.4q0-.18-.18-.15c-1,.15-2,.27-3.2.37a1.16,1.16,0,0,1-.73-.18,1.33,1.33,0,0,1-.47-.58.74.74,0,0,1,.06-.62.62.62,0,0,1,.52-.33,40.58,40.58,0,0,0,7.63-1.31,3,3,0,0,1,.77-.11,2.1,2.1,0,0,1,1.3.44.64.64,0,0,1-.18,1.13,29.17,29.17,0,0,1-3,.72q-.18,0-.18.18V409a.16.16,0,0,0,.18.18h4.87a1,1,0,0,1,.71.31,1,1,0,0,1,.31.73,1,1,0,0,1-.31.72,1,1,0,0,1-.71.31H286.1c-.12,0-.15.05-.08.15a13.87,13.87,0,0,0,4.51,4.36.9.9,0,0,1,.44.65.93.93,0,0,1-.22.77,1.61,1.61,0,0,1-.86.5,1.1,1.1,0,0,1-.92-.18,15.63,15.63,0,0,1-4.4-5s-.06,0-.11,0Z"/><path class="cls-2" d="M329.75,415.09a1.26,1.26,0,0,1-.38.93,1.23,1.23,0,0,1-.89.38H317.11c-.1,0-.15.05-.15.14a14.82,14.82,0,0,1-3.38,9c-.07.09-.06.16,0,.21a25.08,25.08,0,0,0,7.32,2.42,84.64,84.64,0,0,0,10.49,1.11.76.76,0,0,1,.61.4,1.23,1.23,0,0,1,.08.4.94.94,0,0,1-.08.36c-.07.17-.14.33-.21.47a2,2,0,0,1-.69.88,1.5,1.5,0,0,1-.88.29.18.18,0,0,1-.11,0,75.58,75.58,0,0,1-10.86-1.42,26.49,26.49,0,0,1-7.85-2.94.19.19,0,0,0-.25,0,28.67,28.67,0,0,1-9.6,4.18,1.64,1.64,0,0,1-1.07-.08,1.8,1.8,0,0,1-.85-.72,1.66,1.66,0,0,0-.19-.3.71.71,0,0,1-.18-.47.67.67,0,0,1,.08-.29.76.76,0,0,1,.58-.54,27.93,27.93,0,0,0,8.86-3.46q.15-.06,0-.18a20.75,20.75,0,0,1-4.87-6.17,1.06,1.06,0,0,1-.05-.95,1.33,1.33,0,0,1,.67-.69h.07a1.49,1.49,0,0,1,1,0,1.34,1.34,0,0,1,.77.69A17.86,17.86,0,0,0,311,424.1c.08.08.15.06.22,0a11.94,11.94,0,0,0,2.95-7.53c0-.09-.05-.14-.15-.14H302.94A1.27,1.27,0,0,1,302,416a1.3,1.3,0,0,1-.38-.93v-9.67a1.24,1.24,0,0,1,.38-.91,1.29,1.29,0,0,1,.93-.36h11.15q.15,0,.15-.18v-4.25a1.28,1.28,0,0,1,.38-.93,1.27,1.27,0,0,1,.93-.38h.18a1.31,1.31,0,0,1,1.31,1.31V404c0,.12,0,.18.14.18h11.3a1.25,1.25,0,0,1,.89.36,1.2,1.2,0,0,1,.38.91Zm-25.25-8.32q-.15,0-.15.18v6.58q0,.18.15.18h9.59q.15,0,.15-.18V407q0-.18-.15-.18ZM327,407q0-.18-.15-.18h-9.63c-.1,0-.14.06-.14.18v6.58c0,.12,0,.18.14.18h9.63q.15,0,.15-.18Z"/><path class="cls-2" d="M371.74,402a1.09,1.09,0,0,1,0,1.56,1,1,0,0,1-.76.33H348.27a.33.33,0,0,0-.26.11,35.07,35.07,0,0,1-5,6.36,1.36,1.36,0,0,1-1,.41,1.63,1.63,0,0,1-1-.31l-.43-.32a.84.84,0,0,1-.44-.76.87.87,0,0,1,.37-.73,26.38,26.38,0,0,0,6.72-9.23,1.48,1.48,0,0,1,.73-.77,1.14,1.14,0,0,1,.61-.18,1.23,1.23,0,0,1,.4.08l.37.07a1.12,1.12,0,0,1,.72.6,1,1,0,0,1,0,.92c-.22.49-.45,1-.69,1.39-.05.09,0,.14.11.14H371A1,1,0,0,1,371.74,402ZM352.3,413.78a1.23,1.23,0,0,1,.89.38,1.24,1.24,0,0,1,.38.89v5.09q0,.15.18.15h8.43a1.09,1.09,0,0,1,.77.32,1.13,1.13,0,0,1,.32.8,1.11,1.11,0,0,1-.32.8,1.06,1.06,0,0,1-.77.33h-8.43c-.12,0-.18,0-.18.14v.26a.13.13,0,0,1,.15,0,66,66,0,0,1,8.17,5.2,1,1,0,0,1,.42.8,1.13,1.13,0,0,1-.34.87,1.26,1.26,0,0,1-.91.36,1.44,1.44,0,0,1-.95-.32,54.85,54.85,0,0,0-6.39-4.36c-.1-.08-.15-.05-.15.07v5.38a1.26,1.26,0,0,1-.38.92,1.2,1.2,0,0,1-.89.39h-.07a1.24,1.24,0,0,1-.93-.39,1.26,1.26,0,0,1-.38-.92v-7a.05.05,0,0,0,0-.05s0,0,0,0a31.14,31.14,0,0,1-3.71,3.86,29.16,29.16,0,0,1-4.25,3.12,1.27,1.27,0,0,1-1,.16,1.6,1.6,0,0,1-.89-.56.09.09,0,0,1-.07,0,1,1,0,0,1-.26-.66.45.45,0,0,1,0-.18.89.89,0,0,1,.47-.66,28.29,28.29,0,0,0,4.2-2.79,24.78,24.78,0,0,0,3.58-3.49c.07-.07.06-.11,0-.11h-6.8a1.06,1.06,0,0,1-.79-.33,1.08,1.08,0,0,1-.33-.8,1.11,1.11,0,0,1,1.12-1.12h8.65a.13.13,0,0,0,.15-.15v-5.09a1.24,1.24,0,0,1,.38-.89,1.27,1.27,0,0,1,.93-.38Zm-8.59-1.11a1,1,0,0,1-.31-.76,1.09,1.09,0,0,1,.31-.78,1,1,0,0,1,.78-.33h21.36a1.27,1.27,0,0,1,.93.38,1.43,1.43,0,0,1,.42.89q.36,17.44,3.56,17.45c.53,0,.86-1.36,1-4.07a.47.47,0,0,1,.33-.49.49.49,0,0,1,.58.12,2.38,2.38,0,0,1,.91,1.78,8.83,8.83,0,0,1-.84,4.18,2.26,2.26,0,0,1-2.14,1.17,3.53,3.53,0,0,1-2.07-.64,5,5,0,0,1-1.55-1.93,17.16,17.16,0,0,1-1.09-2.87,25,25,0,0,1-.72-3.87c-.19-1.52-.33-3-.42-4.54s-.18-3.23-.26-5.2c0-.12-.05-.18-.14-.18H344.49A1,1,0,0,1,343.71,412.67Zm.52,3.58a1,1,0,0,1,.33-1.38,1.45,1.45,0,0,1,1-.09,1.55,1.55,0,0,1,.82.53,16.16,16.16,0,0,1,1.74,2.72,1,1,0,0,1,0,.89,1.24,1.24,0,0,1-.65.68,1.12,1.12,0,0,1-.88,0,1.31,1.31,0,0,1-.65-.62A16.51,16.51,0,0,0,344.23,416.25ZM369,406.57a1,1,0,0,1,.31.74,1,1,0,0,1-.31.73,1,1,0,0,1-.71.29h-20a1.08,1.08,0,0,1-.75-.29,1,1,0,0,1-.3-.73,1,1,0,0,1,1.05-1.05h20A1,1,0,0,1,369,406.57Zm-10.63,8.77a1.55,1.55,0,0,1,.8-.65,1.6,1.6,0,0,1,1.06,0,.92.92,0,0,1,.59.65.89.89,0,0,1-.16.84c-1,1.28-1.83,2.35-2.58,3.2a1.28,1.28,0,0,1-.94.47,1.63,1.63,0,0,1-.62-.14.86.86,0,0,1-.42-.55.72.72,0,0,1,.13-.65C357,417.46,357.68,416.41,358.33,415.34Z"/><path class="cls-2" d="M383.53,430.13a1.31,1.31,0,0,1-.95.44,1.63,1.63,0,0,1-1.05-.29l-.11-.11a.92.92,0,0,1-.4-.8,1.09,1.09,0,0,1,.33-.8,15.34,15.34,0,0,0,3.27-5.38,1.23,1.23,0,0,1,1.6-.72,1.19,1.19,0,0,1,.72.65,1.38,1.38,0,0,1,.08,1A17,17,0,0,1,383.53,430.13Zm24.27-28.81a1.3,1.3,0,0,1,1.31,1.27v15.23a1.2,1.2,0,0,1-.38.9,1.26,1.26,0,0,1-.93.37H387.64a1.22,1.22,0,0,1-.89-.37,1.17,1.17,0,0,1-.39-.9V402.59a1.32,1.32,0,0,1,1.28-1.27h7.19a.23.23,0,0,0,.22-.15c.26-.68.52-1.35.76-2a1.36,1.36,0,0,1,.62-.84,1.52,1.52,0,0,1,.76-.22,1,1,0,0,1,.26,0l.65.11a.87.87,0,0,1,.69.51.9.9,0,0,1,0,.87q-.51.94-.87,1.56c-.05.1,0,.15.11.15Zm-1.67,5.19c.12,0,.18,0,.18-.14v-2.69a.16.16,0,0,0-.18-.18H389.2q-.15,0-.15.18v2.69c0,.1.05.14.15.14Zm0,5.24c.12,0,.18-.06.18-.19V408.8c0-.09-.06-.14-.18-.14H389.2c-.1,0-.15,0-.15.14v2.76c0,.13.05.19.15.19Zm0,5.16c.12,0,.18-.06.18-.19V414c0-.09-.06-.14-.18-.14H389.2c-.1,0-.15.05-.15.14v2.76c0,.13.05.19.15.19Zm-11.08,12.64h6.87a1.83,1.83,0,0,0,1.38-.41,3.61,3.61,0,0,0,.47-1.88.82.82,0,0,1,.42-.67.85.85,0,0,1,.82,0l.14,0a1.56,1.56,0,0,1,.85.66,1.41,1.41,0,0,1,.24,1,5,5,0,0,1-1.2,3,4.39,4.39,0,0,1-2.94.78h-7.23c-1.92,0-3.2-.24-3.86-.74a3.48,3.48,0,0,1-1-2.89v-4.8a1.31,1.31,0,0,1,1.31-1.3h.11a1.3,1.3,0,0,1,1.31,1.3v4.8c0,.51.13.83.4,1A5.18,5.18,0,0,0,395.05,429.55Zm-.22-7.85a.84.84,0,0,1-.34-.74.74.74,0,0,1,.38-.67,1.68,1.68,0,0,1,1-.37,1.71,1.71,0,0,1,1,.37,22.53,22.53,0,0,1,3.89,3.48,1.07,1.07,0,0,1,.27.93,1.32,1.32,0,0,1-.52.86l0,.07a1.41,1.41,0,0,1-1,.22,1.31,1.31,0,0,1-.86-.48A24.83,24.83,0,0,0,394.83,421.7Zm11.88,2.18a1.07,1.07,0,0,1-.29-.72,1,1,0,0,1,.44-.84,1.63,1.63,0,0,1,.91-.29.25.25,0,0,1,.14,0,1.47,1.47,0,0,1,1,.4,29.56,29.56,0,0,1,5.2,5.88,1.2,1.2,0,0,1,.22.69,1.28,1.28,0,0,1-.66,1.13l-.18.15a1.15,1.15,0,0,1-.62.18,1,1,0,0,1-.29,0,1.42,1.42,0,0,1-.8-.58A31,31,0,0,0,406.71,423.88Z"/><path class="cls-2" d="M440.5,428.79a3,3,0,0,1-2.12.8,3,3,0,0,1-2.13-.8,2.79,2.79,0,0,1-.85-2.14,2.75,2.75,0,0,1,.85-2.09,2.94,2.94,0,0,1,2.13-.82,2.9,2.9,0,0,1,2.12.82,2.76,2.76,0,0,1,.86,2.09A2.79,2.79,0,0,1,440.5,428.79Zm-1.23-8.74a1.31,1.31,0,0,1-1.78,0,1.24,1.24,0,0,1-.42-.89l-.8-13.19-.11-3.09a1.29,1.29,0,0,1,.37-.93,1.2,1.2,0,0,1,.9-.38h1.89a1.21,1.21,0,0,1,.91.38,1.33,1.33,0,0,1,.37.93l-.08,3.09-.83,13.19A1.32,1.32,0,0,1,439.27,420.05Z"/><path class="cls-4" d="M28.6,191.57H44.68c2.4,0,2.43,0,2,2.43q-3.15,19-6.33,38c-.75,4.48-1.56,9-2.24,13.45-.18,1.19-.7,1.53-1.81,1.53-5.12,0-10.25-.06-15.38,0-1.28,0-1.69-.56-1.88-1.69q-4.29-25.86-8.64-51.72c-.26-1.56.21-2,1.75-2C17.66,191.62,23.13,191.57,28.6,191.57Z"/><path class="cls-4" d="M74.68,191.57c5.48,0,10.95,0,16.42,0,1.56,0,2,.39,1.71,2-2.32,13.55-4.55,27.12-6.81,40.68-.62,3.74-1.29,7.48-1.85,11.23-.17,1.1-.63,1.48-1.68,1.47-5.19,0-10.37,0-15.56,0-1.18,0-1.63-.51-1.81-1.58q-4-24.17-8-48.32c-.19-1.19-.38-2.39-.64-3.56-.31-1.41.12-2,1.64-1.94C63.62,191.61,69.15,191.57,74.68,191.57Z"/><path class="cls-5" d="M256.17,224.25c-.05-.34-.11-.67-.19-1.13a5.58,5.58,0,0,0-1.29,2.81c-1.54,5.57-3.47,10.95-7.16,15.52-1,1.22-1.92,2.8-3.31,3.17s-2.56-1.24-4.38-1.36a24.57,24.57,0,0,0,8.4-9.13c.54-.95.65-1.48-.51-1.91-.4-.15-1.49-.12-.94-.95s.68-2.57,2.25-2c1.27.45,1.5-.1,1.72-1a4.44,4.44,0,0,0,.37-1.32c-.08-.78,1.32-1.79,0-2.29-1.9-.69-2.65-.24-3.35,1.39a53.08,53.08,0,0,1-2.78,5.54c-.62,1.11-1.23,1.72-2.51.86a8.31,8.31,0,0,0-1.8-.68c.75-1.4,2.23-2.33,2.6-4l0,0c2.34-3.46,3.4-7.39,4.36-11.57-3.08,1.49-3.08,1.49-5.38.15,0,.54,0,1,0,1.53.08,2.28-.45,2.72-2.75,2.22-.22,0-.61-.15-.6-.22.06-2-1.46-1.17-2.31-1.19-3.34-.09-6.69,0-10-.07-1.44-.05-1.82.45-1.89,1.81a59.15,59.15,0,0,1-4.17,19.29c-.09.21-.18.42-.28.63C219,243,219,243,216.4,242.17c-.7-.22-1.42-.4-2.22-.62,4.35-5.59,5.69-12.14,6.57-18.83a112.54,112.54,0,0,0,.27-21.56c-.08-1.32,0-1.82,1.57-1.58,1.92.31,3.9.26,5.85.42,1,.08,1.38-.22,1.27-1.23-.19-1.83-.24-3.68-.51-5.5-.14-.93,0-1.12.92-.94,1.18.25,2.38.43,3.57.6s1.29.77.64,1.7c-.9,1.29-.87,2.83-1.06,4.31-.1.86.28,1.11,1.1,1.05,2.52-.19,5-.29,7.57-.55,1-.1,1.41.08,1.28,1.12a3.56,3.56,0,0,0,0,1c.21,1.46-.3,2-1.81,1.67-1.06-.2-2.19,0-3.27-.13-1.58-.17-2.21.61-2.33,2.05-.22,2.66-.21,2.67,2.43,2.52a10.87,10.87,0,0,0,2.07-.12c1.91-.52,2.06.47,1.87,1.95a24.28,24.28,0,0,0-.19,5.17,32.65,32.65,0,0,0,11.92-8.22c-3,.14-5.63.14-8.22.43-2,.23-1.59-1-1.71-2.12-.15-1.34.35-1.73,1.67-1.48a30,30,0,0,0,3.48.21,22.58,22.58,0,0,0-2.69-4.61c-.26-.4-1.33-.91-.23-1.42.89-.41,1.56-2.15,2.86-.8,1,1.07,1.88,2.33,2.85,3.46.67.8.61,1.36-.3,1.91a12.46,12.46,0,0,0-1.45,1.18c.1.12.16.27.23.27,4.43.3,4.43.3,4.32-4.1a33.67,33.67,0,0,0-.36-5.68c-.16-.78.1-1.08.89-.9.56.12,1.14.2,1.7.29,2.45.39,2.37.37,1.74,2.73a28.17,28.17,0,0,0-.6,7c0,.35,0,.71.47.77s.8-.28,1.07-.7a29.9,29.9,0,0,0,3.51-6.51c.35-1,.7-.89,1.43-.45,3.22,1.92,3.23,1.89.78,4.66-.75.84-1.44,1.72-2.21,2.64,2.08,0,4,.09,5.82,0,1-.07,1.33,0,1.36,1.09.07,2.61.12,2.54-2.52,2.46s-5.48,0-8.39,0a35.07,35.07,0,0,0,14,6.81c-1.14,1.05-2.27,2-3.27,3-.67.71-1.17.21-1.68,0a33.85,33.85,0,0,1-8.88-6.2c-.43-.42-.84-.86-1.54-1.57.13,2.8.19,5.19.38,7.58.09,1.05-.14,1.38-1.25,1.37-3,0-2.95,0-2.72-3,.12-1.5.15-3,.21-4.49a4,4,0,0,0-.12-.71,45.38,45.38,0,0,1-6.19,5.94c.11.21.13.35.2.38a7.84,7.84,0,0,1,2.31,1.1c.92.92-.81,1.14-.78,2a9,9,0,0,1-.7,2.52c2.68-.09,5.44-.82,7.34,1.7C256.31,223.41,256.5,224,256.17,224.25ZM228,213.43c0-2.45,0-2.45-.5-2.61-1.42-.44-2.4.29-2.46,1.83,0,.4-.07.8-.09,1.2-.09,1.94.33,2.34,2.21,2C228.84,215.48,227.57,214.08,228,213.43Zm7.93-.27V215c0,.43,0,.74.59.86,1.45.33,2.26-.16,2.37-1.65.05-.67-.09-1.37,0-2.05.07-1-.35-1.15-1.28-1.27C235.29,210.57,236,212.16,235.93,213.16ZM228,205.35c-.69-.45,1.08-2.11-1-2.27-1.4-.11-2.21.15-1.91,1.8a5.45,5.45,0,0,1,0,1.71c-.2,1.3.45,1.45,1.56,1.46s1.57-.32,1.4-1.44A10,10,0,0,1,228,205.35Zm5.24,8a5.9,5.9,0,0,1,0-1c.2-1.24-.34-1.54-1.51-1.5-1,0-1.34.32-1.25,1.29a13.74,13.74,0,0,1,0,2.4c-.09,1.06.17,1.51,1.38,1.51s1.52-.39,1.38-1.47A8,8,0,0,1,233.23,213.3Zm0-7.78a2.41,2.41,0,0,0,0-.85c-.19-.53.6-1.46-.66-1.57a1.62,1.62,0,0,0-1.9,1.32,19.58,19.58,0,0,0-.15,2c-.14,1.12.13,1.59,1.43,1.6s1.41-.52,1.31-1.51A8.85,8.85,0,0,1,233.22,205.52Z"/><path class="cls-6" d="M381.73,205a115.5,115.5,0,0,0,11.52-3.19c1.09-.37,1.59-.41,1.64,1,.1,3.39.18,3.42-3.18,4.15-2.92.64-5.85,1.23-8.78,1.8-1.1.21-1.78.53-1.71,1.92.14,2.52,0,5.05,0,7.64a25.85,25.85,0,0,0,6.1-2.27,2.47,2.47,0,0,0,.84-.83c.44-.55.38-1.62,1.3-1.63a31.25,31.25,0,0,1,3.6.32.43.43,0,0,1,.25.2c.75,1-.11,4.21-1.31,4.74a60.59,60.59,0,0,1-9.62,3.19c-.91.24-1.2.59-1.13,1.5.26,3,.49,6,.64,8.95.05,1.08.86.94,1.44,1.08A76.7,76.7,0,0,1,399,239.41c1.87,1,1.85,1,.62,2.71-2.57,3.59-2.56,3.58-6.16,1.24A51.49,51.49,0,0,0,383,238.07c-.62-.23-1.15-.59-1.34.51-.93,5.36-6.41,8.55-12.56,7a12.5,12.5,0,0,1-5.49-2.77c-3.3-3-2.79-7,1.2-9a18.78,18.78,0,0,1,10.46-1.44c1.67.17,2.38.07,2.36-1.93s-.14-4.25-.08-6.38c0-1.24-.76-.89-1.37-.82a29.52,29.52,0,0,1-7.74.32,7.19,7.19,0,0,1-5.5-3.43c-.5-.84-.5-1.36.58-1.83,3.52-1.53,6.18-4.37,9.38-6.41.32-.2.57-.48.44-.84-.19-.55-.67-.27-1-.2-3.32.67-6.62,1.51-10.05,1.33s-3.78-.49-4.43-3.75c-.17-.84-.26-1.7-.41-2.73a55.35,55.35,0,0,0,5.87,2c3.64.71,7.08-.32,10.56-1.05,1.1-.23,2.73,0,3.12-1a7.4,7.4,0,0,0,0-4.25,4.7,4.7,0,0,0-1.23-2.44c-1.16-1-.59-1.72.28-2.46.65-.55,1.29-1.14,2-1.68,1.6-1.29,2.06-1.2,3.24.52a6,6,0,0,1,1,4.75A17.6,17.6,0,0,0,381.73,205Zm-4.28,5.21c-3.15,2.23-5.88,4.1-8,6.71-1.22,1.51-.64,2.69,1.33,2.9a27.73,27.73,0,0,0,5.82-.42c.77-.08.85-.58.84-1.22C377.44,215.63,377.45,213.12,377.45,210.17ZM372.22,236a10,10,0,0,0-4.69.69c-1.5.69-1.93,1.93-1,3a6.81,6.81,0,0,0,6.25,2.11c2.14-.29,3.31-1.81,4-3.79.43-1.22.24-1.73-1.17-1.81C374.58,236.17,373.5,236,372.22,236Z"/><path class="cls-7" d="M314.28,237c2.4.65,4.63,1.43,7,.9,8.82-2,13.43-10.36,10.3-19-5-13.79-22-14.44-30.23-6.43-2.81,2.71-3.38,6-2.4,9.7a57.47,57.47,0,0,1,1.87,7.69c.19,1.54,1.13,1.72,2.43.55a104.49,104.49,0,0,0,12.56-13.78c1.83-2.34,3.53-4.79,5.34-7.26a21.41,21.41,0,0,1,3,5.3,1.13,1.13,0,0,1-.22,1.4c-5.12,5.29-10.16,10.67-15.33,15.93-2.7,2.75-5.61,5.29-8.4,8a1.76,1.76,0,0,1-2.61.18c-.93-.78-2.42-1.68-1.77-3,1.72-3.52.58-6.87-.16-10.27-.46-2.13-1-4.25-1.32-6.42a12.63,12.63,0,0,1,5.27-13c9.95-7.4,26.92-6.83,34.83,5.44,6.5,10.09,3.25,22.93-7.08,27.87a16.61,16.61,0,0,1-9.24,1.48,2.43,2.43,0,0,1-2.4-1.82A31.26,31.26,0,0,0,314.28,237Z"/><path class="cls-7" d="M434.89,210.44c-3.6,1-7,2.14-10.66,1.49-2.87-.52-3.92-1.67-4.23-4.59-.11-1-.16-2-.25-3.13a5.21,5.21,0,0,1,2.21,1.14,14.13,14.13,0,0,0,11.25.89c1.06-.51,2.72,0,3.14-1.56.55-2,.77-4.14-.77-5.73-1.26-1.3-.75-2,.27-2.88.26-.23.51-.47.76-.71,2.48-2.28,2.72-2.2,4.41.78,1.09,1.93.82,3.88.4,5.86a4.29,4.29,0,0,0-.21,1.84c1.52-.42,3.21-.44,3.47-2.56,0-.22.11-.53.27-.62,1.39-.75,2.59.47,3.92.41.55,0,.8.26.9.81a3.43,3.43,0,0,1-2.19,4.29c-2.38,1-4.8,1.89-7.22,2.79a1.83,1.83,0,0,0-1.33,1.17c-1.21,3.47-2.48,6.92-3.71,10.38a7.67,7.67,0,0,0-.38,1.5c-.06.45-.16,1,.28,1.28s.87-.06,1.21-.34a20.58,20.58,0,0,1,10.09-4.11,15,15,0,0,1,7.83.71c5.93,2.22,8.11,8,5.1,13.63A19.23,19.23,0,0,1,452,240.5c-6.79,4-14.23,5.38-22,5.15-1.76-.06-3.22-.55-4-2.34a14,14,0,0,0-1.56-2.18,51,51,0,0,0,9.23.09c6.23-.65,12.07-2.33,17-6.42a12.37,12.37,0,0,0,3.18-3.83c2-3.78.18-7.59-4.06-8-6-.64-11,1.63-14.91,6.26-1.13,1.36-4.61,2.46-6.18,1.75-.84-.38-.31-1-.18-1.46,1.3-4.53,3-8.93,4.54-13.36A34.25,34.25,0,0,0,434.89,210.44Z"/><path class="cls-6" d="M153.75,220.42c1.45.27,2.69.52,3.94.72s1.71.58.9,1.76a3.05,3.05,0,0,0-.41.94c-.78,2.74-.53,3.09,2.23,2.81.82-.09,1,.16,1,.86a6.31,6.31,0,0,0,0,.87c.16,1.45.06,2.51-1.91,1.81-1.44-.51-2,.19-1.71,1.63s-.55,3,.37,3.8,2.16-.82,3.41-.92c.17,3.25.14,3.2-2.73,4.55-2.27,1.07-4.76,1.68-6.85,3.13-.6.41-.72-.2-.88-.45-.64-1-1.22-2.07-1.9-3.25-.56,1.09-1.11,2.12-1.63,3.18-.32.65-.72.78-1.35.39a10.92,10.92,0,0,0-4-1.12c6.26-8.7,6.9-18.74,7.25-28.83a91.87,91.87,0,0,0-.31-11.73c-.12-1.3.16-1.71,1.54-1.52,2,.28,4.12.3,6.18.49,1.14.11,1.52-.31,1.46-1.44a25.66,25.66,0,0,0-.44-4.63c-.19-.82-.07-1.22.87-1.06,1.42.23,2.84.47,4.26.63,1.08.12,1.14.59.55,1.32a7,7,0,0,0-1.3,4c-.08.92.24,1.22,1.16,1.15,2.58-.2,5.17-.26,7.74-.52,1.22-.12,1.66.26,1.54,1.44a7.08,7.08,0,0,0,0,1.38c.09.79-.12,1.14-1,1-1.37-.14-2.76-.13-4.13-.22-1.94-.14-2.51.36-2.57,2.29-.07,2.45-.07,2.45,2.37,2.34a4.41,4.41,0,0,1,.52,0c1.23,0,2.88-.89,3.57,0s.19,2.43.1,3.68a59.91,59.91,0,0,0,.16,7.58c.06,1.1-.34,1.42-1.22,1.21s-2.46.92-2.54-1.19c0-.39-.71-.23-1.08-.25-4.25-.25-8.51-.2-12.77-.11-1.22,0-1,.93-1.06,1.58a71.56,71.56,0,0,1-1.85,12.44c-.52,2.1-1.23,4.16-1.87,6.3a13.39,13.39,0,0,0,4.18-.89c.77-.2.71-.85.71-1.39C154.24,231,154.68,225.8,153.75,220.42Zm2.89-8c-.32-.57.54-1.6-.54-2-1.57-.55-2.49.12-2.62,1.79-.06.74,0,1.49,0,2.23,0,.31-.15.63.33.83a1.93,1.93,0,0,0,2.82-1.57C156.61,213.34,156.62,212.94,156.64,212.44Zm0-6.7c0-.49,0-.83,0-1.17-.09-1.12,0-2.18-1.83-2s-1,1.29-1.12,2.06c-.09.44,0,.92,0,1.36-.26,1.47.37,1.75,1.75,1.76C157.31,207.73,156.36,206.38,156.61,205.74Zm5.64-.6a3.45,3.45,0,0,0,0-.85c-.14-.61.51-1.57-.78-1.7a1.74,1.74,0,0,0-2.06,1.55c-.14.66,0,1.37-.1,2.05-.17,1.2.3,1.52,1.5,1.53s1.65-.37,1.46-1.55A7.05,7.05,0,0,1,162.25,205.14Zm0,8v-1.86c0-.41,0-.72-.57-.85-1.76-.4-2.37,0-2.37,1.83a9.07,9.07,0,0,1,0,1.38c-.24,1.48.43,1.8,1.81,1.76C163.23,215.29,161.78,213.72,162.25,213.11ZM165,213c.29.66-.59,1.81.47,2.29,1.66.74,2.7-.06,2.69-1.88,0-.63,0-1.25,0-1.88s-.22-1-1-1.06C165,210.28,165,210.24,165,213Z"/><path class="cls-8" d="M192.21,217.3c0,3.06,0,6.11,0,9.17,0,1.35.18,2,1.8,1.7,1.46-.29,3-.18,4.47-.34.59-.06.9,0,.9.64,0,1,0,2.08,0,3.11s-.79.61-1.28.59c-3.45-.14-6.89-.3-10.34-.48a78.73,78.73,0,0,0-12.57.49c-1.6.17-2.44-.11-2.12-1.91a7.3,7.3,0,0,0,0-1.55c0-.78.35-1,1.08-.9l.17,0c3.89.3,3.9.3,3.89-3.53,0-5.48-.06-10.95,0-16.43,0-1-.15-1.39-1.3-1.33-3.16.16-3.12.11-3-3.15,0-1.07.38-1.36,1.43-1.23,2.78.35,2.82.31,2.73-2.52-.05-1.78-.17-3.56-.36-5.33-.08-.78,0-1.1.86-.92s1.59.25,2.37.44c2.6.61,2.58.62,1.71,3A15,15,0,0,0,182,202c0,.64.31.77.86.75.75,0,1.5,0,2.25,0,3.21,0,3.24,0,3.12-3.31-.06-1.72-.2-3.44-.34-5.16-.06-.72.05-1,.91-.91a20.46,20.46,0,0,1,4.17,1c.72.27.84.6.42,1.25-1.16,1.79-1,3.85-1.19,5.84-.08.89.31,1.08,1.1,1,1-.11,2.09,0,3.1-.24s1.32,0,1.45,1c.41,3.18.12,3.53-3,3.33-2.61-.16-2.61-.16-2.61,2.4Zm-7.14,11.12c3.09,0,3.09,0,3.23-2.31.2-3.53.2-3.53-3.31-3.53-3,0-3,0-3,2.94S182,228.42,185.07,228.42Zm.22-14.15a14.89,14.89,0,0,1-1.89,0c-1.16-.15-1.43.32-1.42,1.43,0,3.94,0,3.94,3.91,3.94h.35c2.21,0,2.21,0,2.21-2.21C188.45,214.27,188.45,214.27,185.29,214.27Zm-.09-8c-.74,0-1.49,0-2.23,0s-.94.19-1,1c-.23,4.12.08,4.45,4.22,4.18a1.37,1.37,0,0,1,.34,0c1.84.3,2.05-.71,1.91-2.2C188.17,206.22,188.21,206.21,185.2,206.27Z"/><path class="cls-9" d="M44,268.39c-.34,6.62-3.37,11.47-9.51,14.18a15.4,15.4,0,0,1-20.27-19.74c.71-1.87,1.08-1.94,2.31-.44,6.58,8,17.64,7.93,24.21-.12,1.11-1.35,1.47-1.3,2.14.38A15.36,15.36,0,0,1,44,268.39Z"/><path class="cls-9" d="M90,267.49c0,7.07-3.61,12.66-9.34,15C74.63,285,69,284,64.19,279.58s-6.07-10.24-4-16.59c.21-.63.33-1.48,1.11-1.62s1,.7,1.35,1.16a15.26,15.26,0,0,0,24-.11c1.26-1.59,1.53-1.54,2.29.39A14,14,0,0,1,90,267.49Z"/><path class="cls-6" d="M256.17,224.25c.33-.28.14-.84.59-1,1.61.1,3.22.15,4.82.32.94.1,1.07-.32,1-1.08-.14-1.32-.2-2.64-.36-4-.09-.76.07-1.1.9-.88.45.11.92.11,1.36.21,2.53.57,2.5.57,1.75,3a22.36,22.36,0,0,0-.45,2.56c1.53.31,2.93-.17,4.36-.25.85-.05,1.29.07,1.18,1a3.17,3.17,0,0,0,0,.87c.21,1.62-.21,2.15-2,1.78-3.47-.72-3.5-.57-3.5,3,0,3.06,0,3.06,3.05,2.79a11.66,11.66,0,0,0,2.23-.16c1.75-.54,2.14.1,2,1.77-.15,2.16,0,2.17-2.22,1.89-4.95-.62-4.95-.62-4.83,4.32a30.8,30.8,0,0,0,.14,4c.19,1.22-.31,1.4-1.3,1.3a6.37,6.37,0,0,0-1.38,0c-1,.12-1.31-.25-1.24-1.25.16-2.47.19-4.94.36-7.41.07-1-.25-1.32-1.23-1.23-2.06.18-4.13.24-6.19.47-1,.12-1.56,0-1.4-1.19a4.9,4.9,0,0,0,0-1.21c-.16-1.32.17-1.94,1.66-1.46s2.19-.16,2-1.78a11.8,11.8,0,0,1,0-2.59c.09-.85-.35-1.09-1.05-1.18,0-.62-.06-1.24-.1-1.86A.76.76,0,0,1,256.17,224.25Zm6.46,5.41c0-.68,0-1.37,0-2,0-.37.21-.9-.28-1.05a1.31,1.31,0,0,0-1.43.26,2.1,2.1,0,0,0-.76,1.64c0,1,.05,1.94,0,2.91s.09,1.43,1.26,1.44,1.34-.48,1.24-1.43C262.59,230.81,262.63,230.24,262.63,229.66Z"/><path class="cls-7" d="M166.91,227.05a19.87,19.87,0,0,0,3.41-2.66c.26-.24.51-.87.92-.38a9.87,9.87,0,0,1,1.76,3.13c.11.34-.12.49-.46.54-1.93.31-3.34,1.72-5.1,2.37a.9.9,0,0,0-.65,1c0,.52,0,1,0,1.55,0,2.86.15,3.12,1.92,3.21,2.53.13,3.16-.46,3.39-3.32,1,.53,1.89,1,2.82,1.52.52.27.52.71.44,1.18a4.06,4.06,0,0,1-2.87,3.54A13,13,0,0,1,166,239c-2.16-.45-2.89-1.7-2.83-4.26.1-4.55.44-9.09-.13-13.63-.08-.66.12-.83.74-.69s1.47.26,2.2.42c2.27.52,2.23.51,1.3,2.5A7,7,0,0,0,166.91,227.05Z"/><path class="cls-10" d="M243.24,227.76c-.74-.43-1.31,0-1.87.38a5.41,5.41,0,0,1-1,.72c-2.73,1.1-3.17,3.26-2.88,5.87.12,1.11.14,2.09,1.63,2.09,1.32,0,2.25-.42,2.4-1.88a4.46,4.46,0,0,1,.29-1.32c.69,1,2.57.63,2.53,2.42a3.69,3.69,0,0,1-3,3.91,9.54,9.54,0,0,1-4.28.14c-1.87-.33-2.87-1.81-2.86-4.15,0-3.17.14-6.33.15-9.5,0-1.61,0-3.22-.2-4.83-.08-.79.21-.9.84-.78s1,.21,1.51.34c2.32.58,2.31.58,1.39,2.76a7,7,0,0,0-.22,3.21c1.48-.72,2.13-2.12,3.25-3.27.94,1.23,2,2.31,2.21,3.93Z"/><path class="cls-6" d="M229.76,236.67l3-1.32c.42,2.93.34,3.09-2.22,4.3-2.06,1-4.14,1.95-6.18,3-.48.24-.73.22-1-.24,0,0-.08-.09-.11-.14-.48-1-1.48-2-1.33-2.89s1.75-.64,2.7-.89c1.26-.34,1.88-.76,1.86-2.29,0-4.65.39-9.31-.24-14-.14-1,.19-1.35,1.18-1.1.39.1.8.09,1.19.17,2.37.49,2.35.49,1.58,2.7a8.68,8.68,0,0,0-.34,1.51c-.3,1.87-.24,2,1.65,1.59,1-.21,1.23.15,1.15,1a7.07,7.07,0,0,0,0,1.38c.13,1.15-.21,1.63-1.42,1.16s-1.65-.12-1.54,1.22S229.76,234.88,229.76,236.67Z"/><path class="cls-10" d="M225.84,273.68c.83-1,1.68-1.9,2.48-2.88.44-.54,1.65-.88.36-1.93-.45-.36-.23-1.34.85-1.32,1.27,0,2.53,0,3.8,0a.76.76,0,0,1,.88.81c0,.48,0,.82-.64,1-2.3.65-3.36,2.87-5.13,4.21-.45.34-.28.69,0,1,1.46,1.77,2.92,3.56,4.42,5.3a2.69,2.69,0,0,0,1.69.8c.58.08.74.5.68,1s-.43.74-1,.74h-4.49c-.35,0-.72,0-.81-.43s-.22-1.06.28-1.21c1.24-.38.44-.88.14-1.32-.76-1.09-1.54-2.16-2.33-3.21-.22-.3-.37-.85-.87-.65s-1,.53-.83,1c.4,1.41-1.26,3.42,1.24,4.25.33.11.24.73.18,1.13s-.41.47-.78.46c-1.27,0-2.54,0-3.8,0-.46,0-.84-.05-.79-.61s-.24-1.07.48-1.06c1.25,0,1.21-.88,1.22-1.66,0-2.76,0-5.53,0-8.29,0-.76-.07-1.44-1-1.43s-.68-.57-.69-1.07c0-.67.45-.68.94-.68,1.21,0,2.42,0,3.63,0,.38,0,.71.06.79.48s.17,1-.19,1.11c-2.49.85-.66,2.84-1.47,4.11Z"/><path class="cls-11" d="M328.82,282.35a7.08,7.08,0,0,1-1,0c-.45-.06-1.12.34-1.27-.45-.12-.61-.07-1.14.76-1.24.61-.08.56-.64.57-1.1,0-1,0-2.07,0-3.11,0-.66,0-1.46-.92-1.66a2.07,2.07,0,0,0-2.24.94c-.82,1.16-.42,4,.68,5a1.29,1.29,0,0,1,.27,1.28c-.08.49-.51.36-.82.36-1,0-2,0-2.94,0-.33,0-.71.11-.85-.35s-.21-1,.13-1.12c1.89-.7,1.14-2.29,1.11-3.48,0-.95.54-2.53-1.3-2.67-1.3-.09-2.21.93-2.14,2.73,0,1.2-.68,2.83,1.21,3.49.15,0,.18.63.15,1s-.4.47-.77.46c-1,0-2.08-.05-3.11,0-.46,0-.82,0-.87-.55s-.11-1,.52-1.1c.95-.12.91-.83.82-1.41-.26-1.54.9-3.45-1.17-4.58-.17-.09-.43-1.35.46-1.27s1.93-1.06,2.88,0c.09.1.63-.12.92-.26a2.49,2.49,0,0,1,2.49-.14c1.23.94,2.16.56,3.41,0,2.09-.88,4,.44,4.15,2.71.08,1,0,2,0,2.93,0,.81-.27,1.77,1,2,.41.09.4.66.35,1.05s-.46.56-.9.54-1,0-1.56,0Z"/><path class="cls-10" d="M184.5,237.87c-1.76.24-2.77,1.38-3.93,2.29a32.43,32.43,0,0,1-8.76,4.73,1.73,1.73,0,0,1-2.35-.63,21,21,0,0,0-2.76-2.56,30.49,30.49,0,0,0,8.76-3.15,15.6,15.6,0,0,0,4.32-3.4c.66-.81,1.14-.72,1.79-.13A15.89,15.89,0,0,1,184.5,237.87Z"/><path class="cls-11" d="M364.57,273.43c.57-.16,1.1-.36,1.65-.46,2.5-.45,4,.8,4.07,3.33,0,1,0,2.07,0,3.11,0,.53-.2,1.15.7,1.3.59.1.45.72.41,1.16s-.48.54-.91.53c-.81,0-1.61,0-2.42,0-.35,0-.88.2-.94-.42a1.21,1.21,0,0,1,.34-1.24c.87-.72,1-4.67.25-5.51a1.77,1.77,0,0,0-1.92-.39,1.62,1.62,0,0,0-1.32,1.63c.16,1.49-.92,3.2.81,4.49.36.27.6,1.51-.76,1.45-.86,0-1.72,0-2.58,0-.44,0-.83,0-.87-.56,0-.39-.11-1,.3-1.06,1.32-.17.89-1.17.9-1.84.06-3.05,0-6.1,0-9.15,0-.63.1-1.26-.75-1.5-.53-.15-.31-.68-.32-1,0-.55.44-.59.82-.68,2.4-.57,2.76-.24,2.57,2.23-.1,1.37-.16,2.75-.22,4.12A2,2,0,0,0,364.57,273.43Z"/><path class="cls-10" d="M201.55,240.38c-1.51,1.23-2.82,2.24-4.07,3.32-.58.51-1,.26-1.55,0a30.58,30.58,0,0,1-8.2-6.47c-.57-.63-.58-1,.19-1.4,1.49-.85,2.67-1.37,4.37.07A24.63,24.63,0,0,0,201.55,240.38Z"/><path class="cls-11" d="M295.29,277.9c.29,1-.58,2.31,1,3.09.48.23.47,1.34-.63,1.39-.92.05-1.84,0-2.76,0-.36,0-.71-.05-.78-.49a1.13,1.13,0,0,1,.31-1.1c.86-.85,1.15-4.54.46-5.5a1.58,1.58,0,0,0-1.72-.51c-.9.16-1.6.78-1.5,1.62.19,1.54-1.08,3.36.89,4.63a.81.81,0,0,1-.75,1.36c-.86,0-1.72,0-2.59,0-.4,0-.86.07-.86-.53,0-.43-.19-1.07.42-1.15.92-.14.78-.79.69-1.29-.28-1.55.88-3.39-1-4.68-.36-.25-.39-1.36.79-1.35a18.83,18.83,0,0,0,4.34-.41c2.11-.49,3.51.79,3.71,3C295.34,276.59,295.29,277.23,295.29,277.9Z"/><path class="cls-11" d="M274.47,278.56c.12.57-.63,1.76.86,2.39a.84.84,0,0,1-.72,1.45c-.86,0-1.72,0-2.59,0-.33,0-.74.06-.77-.43s-.17-.89.26-1.27c1.18-1.05,1.27-4.53.08-5.54-.47-.39-.35-.8-.35-1.21,0-.75.62-.51,1-.54a24,24,0,0,0,4.19-.39c2.2-.54,3.63.79,3.76,3.08.06,1,0,2.07,0,3.1,0,.63-.28,1.37.78,1.6.48.11.33.8.26,1.24s-.52.36-.84.37c-.8,0-1.61,0-2.41,0-.38,0-.87.16-1-.42a1.1,1.1,0,0,1,.34-1.22c.95-.78,1.09-4.77.23-5.61a1.69,1.69,0,0,0-1.78-.31,1.88,1.88,0,0,0-1.36,1.63A20.11,20.11,0,0,0,274.47,278.56Z"/><path class="cls-11" d="M310.55,277.91a4.84,4.84,0,1,1-9.68-.1,4.8,4.8,0,0,1,5-4.93C308.77,272.93,310.58,274.89,310.55,277.91Zm-2.3.06c0-1.94-1.07-3.33-2.54-3.34a2.72,2.72,0,0,0-2.55,2.92c0,1.93,1.16,3.42,2.7,3.4S308.26,279.79,308.25,278Z"/><path class="cls-12" d="M343.25,277.64c.14,1-.57,2.39.85,3.29.3.19.23.77,0,1.13a.88.88,0,0,1-1.22.29c-.94-.51-1.71-.13-2.58.17a3.58,3.58,0,0,1-3.86-.7,2.54,2.54,0,0,1-.57-2.87c.57-1.53,1.79-2,3.25-2.11.66-.06,1.47.19,1.91-.47a1.1,1.1,0,0,0-.13-1.29,1.28,1.28,0,0,0-1.53-.48,2.46,2.46,0,0,0-1,.69,1.25,1.25,0,0,1-1.5.53c-.58-.21-.24-.8-.35-1.21-.19-.72.21-1,.81-1.27C341.09,271.7,343.32,273.27,343.25,277.64ZM340,281c.5-.08,1.2-.45,1.18-1.67,0-.81-.35-1-1.05-.89-1,.19-2.3,0-2.3,1.48C337.85,280.78,338.66,281.06,340,281Z"/><path class="cls-13" d="M356.25,280c.41,1.62-.25,2.26-1.62,2.58-2.41.55-4.73-.18-5.78-2a5.08,5.08,0,0,1,.67-6.07,5.9,5.9,0,0,1,6.25-1.1c.73.34.6.88.58,1.44s.16,1-.41,1.2a.9.9,0,0,1-1.22-.3,1.83,1.83,0,0,0-2.66-.71,2.83,2.83,0,0,0-1.65,3.11,2.63,2.63,0,0,0,2,2.54C353.76,281.08,355,280.54,356.25,280Z"/><path class="cls-12" d="M251.44,282.38h-1.2c-.46,0-1,.11-1.05-.57,0-.46-.07-1,.51-1.11.89-.1.87-.75.78-1.26-.28-1.54.93-3.39-1-4.64a.82.82,0,0,1,.69-1.41,11.12,11.12,0,0,0,4.32-.45c.49-.21,1.31-.23,1.57.3a2,2,0,0,1-.18,1.95c-.41.54-1,.12-1.56-.08a1.14,1.14,0,0,0-1.65,1.27c.14,1.56-.94,3.32.81,4.7.47.37.3,1.36-.8,1.32-.4,0-.81,0-1.21,0Z"/><path class="cls-12" d="M378.51,282.39c-.57,0-1.15,0-1.72,0s-.76-.2-.73-.71-.11-1,.42-1c1.34,0,1.07-1,1.16-1.67a15.86,15.86,0,0,0,0-2.58c0-.6.07-1.32-.89-1.35a.63.63,0,0,1-.6-.86c.48-1.77,2.05-.57,3.05-1,.79-.38.7.48.69.95,0,1.38-.16,2.75-.14,4.12,0,1-.4,2.23,1.2,2.57.41.09.33.68.25,1.07s-.45.47-.81.47h-1.9Z"/><path class="cls-12" d="M264.66,276.75c0,.86,0,1.72,0,2.58,0,.62-.1,1.3.85,1.38.64.06.58.59.57,1.05,0,.7-.53.63-1,.63h-3.44c-.46,0-.78-.16-.77-.68s-.11-1,.42-1c1.38,0,1.12-1.05,1.2-1.83a19.19,19.19,0,0,0,0-2.4c0-.65,0-1.3-.91-1.37-.69-.06-.56-.61-.56-1,0-.62.41-.66.92-.72,2.76-.29,2.76-.31,2.67,2.52,0,.29,0,.58,0,.86Z"/><path class="cls-11" d="M241.75,282.38c-.52,0-1,0-1.55,0s-.84,0-.89-.53-.16-1.11.42-1.14c1.28-.06,1.08-.91,1.1-1.7s0-1.6,0-2.4.15-1.44-.92-1.5c-.72,0-.45-.67-.49-1.07,0-.55.33-.59.78-.66,2.86-.43,2.85-.45,2.74,2.51,0,1.14,0,2.29,0,3.44,0,.56-.07,1.24.72,1.33s.79.53.75,1.09c-.05.78-.64.64-1.14.64h-1.55Z"/><path class="cls-13" d="M263.36,270.92c-.85-.18-1.49-.59-1.47-1.57a1.41,1.41,0,0,1,1.63-1.54,1.37,1.37,0,0,1,1.41,1.58A1.56,1.56,0,0,1,263.36,270.92Z"/><path class="cls-12" d="M378.43,267.8a1.42,1.42,0,0,1,1.62,1.45,1.51,1.51,0,1,1-3,.09A1.4,1.4,0,0,1,378.43,267.8Z"/><path class="cls-13" d="M243.27,269.3c0,1-.58,1.6-1.48,1.59a1.49,1.49,0,0,1-1.57-1.66,1.53,1.53,0,0,1,3.05.07Z"/><path class="cls-5" d="M256.3,225c0,.62.07,1.24.1,1.86A3.11,3.11,0,0,1,256.3,225Z"/><rect class="cls-2" y="324.07" width="471.16" height="1"/><rect class="cls-2" y="462.07" width="471.16" height="1"/></svg>