<svg id="圖層_3" data-name="圖層 3" xmlns="http://www.w3.org/2000/svg" viewBox="0 0 95.6 15.11"><defs><style>.cls-1{fill:#060203;}</style></defs><path class="cls-1" d="M5.51,2.08S6.42,2.82,7,3.35c0,.17-.21.25-.43.25H.13L0,3.14H4.69ZM4.15,5.19l.78-1s.88.7,1.41,1.21c0,.18-.21.26-.43.26H.8L.67,5.19Zm.78,1.08S5.81,7,6.34,7.46c0,.18-.21.26-.43.26H.8L.67,7.25H4.15Zm1.6,3.48a1.11,1.11,0,0,1-.59.3v3.72a2.4,2.4,0,0,1-1.38.48H4.27v-.87H2.51v1c0,.16-.7.53-1.39.53H.88V8.66l1.7.69H4.13l.77-.82ZM1.73.26c4.21.2,2.7,3.41,1,2.28A4.63,4.63,0,0,0,1.62.35ZM4.27,12.93V9.8H2.51v3.13Zm9.21-4s1.07.86,1.69,1.46c0,.17-.22.25-.44.25H11.27v4c0,.11-.55.48-1.46.48h-.3v-4.5h-3l-.13-.45H9.51V7.35H7.14L7,6.9h2.5V4.08H6.71l-.13-.46H10.9c.35-1.08.75-2.55,1-3.59l2.41.85c-.08.19-.27.3-.62.26a32.14,32.14,0,0,1-2.35,2.48h.86l.91-1.17s1,.8,1.64,1.38c-.05.17-.21.25-.44.25h-3V6.9h.78l.88-1.2s1,.81,1.6,1.39c0,.18-.22.26-.43.26H11.27v2.81h1.31ZM7.38.13c4.14,1.28,2.5,4.27,1,3A7.52,7.52,0,0,0,7.22.22Z"/><path class="cls-1" d="M19.18,10.5c.63,1.68.52,2.95.05,3.57A.94.94,0,0,1,17.74,14a1,1,0,0,1,.44-1.28,3.13,3.13,0,0,0,.76-2.18Zm3.36-9.36c-.06.14-.25.25-.55.22a17.61,17.61,0,0,1-3.09,3.3c.64,0,1.44,0,2.27,0A10,10,0,0,0,22,3L24,4.35a.57.57,0,0,1-.62.16,22.65,22.65,0,0,1-4.24,3.93l3.06-.2a8.66,8.66,0,0,0-.5-1.49l.19-.08c3.22,1.64,1.67,4,.48,2.85a3.39,3.39,0,0,0-.06-.83c-.9.39-2.13.88-3.52,1.38a1,1,0,0,1-.42.32l-.67-2a1.66,1.66,0,0,0,.54-.2,11.9,11.9,0,0,0,2.43-2.75c-.49.21-1.08.43-1.71.66a1,1,0,0,1-.38.35l-.8-1.91a2.21,2.21,0,0,0,.48-.19A12.5,12.5,0,0,0,20.4.06ZM20.3,10.28c2.73,2.05.93,4.4-.14,3a8.39,8.39,0,0,0-.06-3ZM21.84,10c3.19,1.51,1.59,4,.4,2.76a5.08,5.08,0,0,0-.57-2.66ZM32.66,2.16a1.12,1.12,0,0,1-.72.34V14.05a1.67,1.67,0,0,1-1.39.52h-.29V13.49H25.59v.8c0,.13-.5.48-1.33.48H24V1.15l1.82.71h4.37l.87-1Zm-7.07.16V7.17h1.52V2.32Zm0,10.71h1.52V7.64H25.59Zm3.1-10.71V7.17h1.57V2.32ZM30.26,13V7.64H28.69V13Z"/><path class="cls-1" d="M35.17,8.08l-.1-.19C38,6.1,40.87,2.58,41.51,0l2.88.7c0,.23-.27.32-.77.37C45,3.38,47.86,4.63,50.47,5.39l0,.24a2.34,2.34,0,0,0-1.55,1.8,10.23,10.23,0,0,1-5.55-6.15A16,16,0,0,1,35.17,8.08ZM41.88,6c0,.21-.15.38-.53.43V7.94c-.05,2.62-.79,5.73-5.8,7.12l-.11-.17c3.6-1.8,4-4.55,4-7V5.79Zm4.6,0c0,.22-.14.38-.59.45v8.1c0,.16-.83.53-1.57.53H44V5.75Z"/><path class="cls-1" d="M54.38,10.52c.63,1.66.52,2.93,0,3.55A.94.94,0,0,1,52.94,14a1,1,0,0,1,.44-1.28,3.12,3.12,0,0,0,.76-2.16ZM67.8,1.65a1,1,0,0,1-.64.27C67,5.17,66.74,6.63,66,7.2a2.81,2.81,0,0,1-1.85.53,1.68,1.68,0,0,0-.27-1.14A2.55,2.55,0,0,0,62.61,6l0-.21c.54.05,1.41.1,1.71.1a.6.6,0,0,0,.48-.15c.34-.29.53-1.63.64-4.1H63.35a7,7,0,0,1-4.28,6c.79,1.23-.27,2.34-1.16,1.49a7.76,7.76,0,0,0-.1-.79c-.86.36-2.11.87-3.51,1.35a1.11,1.11,0,0,1-.46.53l-.94-2a2.44,2.44,0,0,0,.59-.19A12.79,12.79,0,0,0,56,5.43c-.54.22-1.17.48-1.82.72a1,1,0,0,1-.4.35l-.8-1.92a2,2,0,0,0,.48-.18A12.25,12.25,0,0,0,55.55.06L57.7,1.15a.51.51,0,0,1-.55.23,17.17,17.17,0,0,1-3,3.28c.67,0,1.52,0,2.39,0a14.38,14.38,0,0,0,1.18-2.1l2,1.35A.57.57,0,0,1,59,4a23.56,23.56,0,0,1-4.58,4.18c.91-.05,2.08-.11,3.28-.21a10.92,10.92,0,0,0-.6-1.58l.17-.08a4.13,4.13,0,0,1,1.63,1.14,7.36,7.36,0,0,0,2.5-5.82H59.15L59,1.2h6.31l.89-.86ZM55.7,10.28c2.75,2,1,4.4-.1,3a8.08,8.08,0,0,0-.11-3Zm1.76-.53c3.23,1.55,1.61,4,.45,2.81a5.71,5.71,0,0,0-.63-2.72Zm8.37-2.19,1.65,1.26a.88.88,0,0,1-.61.3v5.35a2.2,2.2,0,0,1-1.52.42H65V13.75H61.59v.86c0,.13-.55.44-1.44.44h-.32V7.8l1.93.73H65ZM65,13.29V9H61.59v4.29Z"/><path class="cls-1" d="M76.26,8.56h4.43V9.65H76.26Z"/><path class="cls-1" d="M83.71,8.56h4.44V9.65H83.71Z"/><path class="cls-1" d="M95.6,8.63v1l-4.11,3.28-.32-.35L94,9.11,91.17,5.7l.32-.35Z"/></svg>