<svg id="圖層_3" data-name="圖層 3" xmlns="http://www.w3.org/2000/svg" viewBox="0 0 41.23 41.23"><defs><style>.cls-1{fill:#fff;opacity:0.8;}.cls-2{fill:#b81c22;}</style></defs><path class="cls-1" d="M35.19,6A20.61,20.61,0,0,0,6,6,20.61,20.61,0,0,0,6,35.19a20.61,20.61,0,0,0,29.15,0A20.61,20.61,0,0,0,35.19,6ZM24.14,5a.82.82,0,0,1-.81.68h-.14a14.78,14.78,0,0,0-2.57-.22.82.82,0,1,1,0-1.64A16.84,16.84,0,0,1,23.46,4,.83.83,0,0,1,24.14,5ZM35.81,15.46a.85.85,0,0,1-.31.06.82.82,0,0,1-.76-.51A15.2,15.2,0,0,0,26,6.4a.82.82,0,1,1,.58-1.54,16.9,16.9,0,0,1,9.7,9.54A.82.82,0,0,1,35.81,15.46Z"/><path class="cls-2" d="M27.79,19.47l-9.34-6.31a2.11,2.11,0,0,0-3.29,1.75V27.54a2.11,2.11,0,0,0,1.12,1.86,2.05,2.05,0,0,0,1,.25,2.12,2.12,0,0,0,1.18-.36L27.79,23a2.11,2.11,0,0,0,0-3.5Z"/></svg>