<svg id="圖層_3" data-name="圖層 3" xmlns="http://www.w3.org/2000/svg" viewBox="0 0 123.83 12.37"><defs><style>.cls-1{fill:#9e1f24;}</style></defs><path class="cls-1" d="M3.47,7.36c0,1.28,0,2.6,0,4l1.71.18v.57H0v-.57l1.58-.18c0-1.55,0-3.13,0-4.74V5.78c0-1.57,0-3.17,0-4.74L0,.86V.29H4.72C7.84.29,9.3,1.65,9.3,3.78c0,2-1.38,3.58-5,3.58Zm0-6.42c0,1.59,0,3.19,0,4.84v.91h1c2.15,0,3-1.18,3-2.91S6.51.94,4.51.94Z"/><path class="cls-1" d="M21,8.72l-.08,3.36H12.1v-.57l1.57-.18c0-1.57,0-3.12,0-4.58v-1c0-1.59,0-3.17,0-4.74L12.1.86V.29h5.13V.86L15.58,1c0,1.57,0,3.14,0,4.67V6.85c0,1.38,0,3,0,4.53h3.89l.63-2.66Z"/><path class="cls-1" d="M34.88,11.51v.57H30v-.57l1.65-.19-1-3.11h-4l-1,3.09,1.67.21v.57H23.46v-.57l1.4-.21L28.54.22h1.19l3.78,11.13ZM30.39,7.56,28.58,2.08,26.83,7.56Z"/><path class="cls-1" d="M43.19,7.25c0,1.75,0,2.88,0,4.08l1.76.18v.57H39.54v-.57l1.77-.18c0-1.13,0-2.24,0-3.85L38.14,1,36.93.86V.29h5V.86l-1.68.2,2.57,5.52,2.56-5.49L43.76.86V.29H47.7V.86l-1.49.23Z"/><path class="cls-1" d="M74.29,1c-.05,1.57-.05,3.15-.05,4.74v.81c0,1.59,0,3.17.05,4.74l1.59.18v.57h-5v-.57l1.51-.18c0-1.55,0-3.13,0-4.59l0-4.88L68.51,12.08h-.75L63.66,1.87c0,1.57.1,3.73.1,4v5.37l1.58.23v.57h-4v-.57L63,11.28,63,1.07,61.36.86V.29h3.49l3.81,9.44L72.31.29h3.57V.86Z"/><path class="cls-1" d="M89.88,6.19c0,3.91-2.58,6.18-5.42,6.18S79,10.2,79,6.19,81.65,0,84.46,0,89.88,2.18,89.88,6.19Zm-5.42,5.46c2.33,0,3.38-2.56,3.38-5.46S86.79.7,84.46.7s-3.37,2.58-3.37,5.49S82.14,11.65,84.46,11.65Z"/><path class="cls-1" d="M103.92.83l-1.45.23L98.74,12.18h-.92L93.74,1,92.46.86V.29h5V.91l-1.72.16,3.05,8.84,2.8-8.81L99.92.91V.29h4Z"/><path class="cls-1" d="M109.92,1c0,1.55,0,3.12,0,4.74v.81c0,1.57,0,3.17,0,4.74l1.6.18v.57h-5.09v-.57l1.58-.18c0-1.55,0-3.13,0-4.74V5.78c0-1.57,0-3.17,0-4.74L106.43.86V.29h5.09V.86Z"/><path class="cls-1" d="M123.83,8.92l0,3.16h-9.14v-.57l1.58-.18c0-1.55,0-3.13,0-4.74V5.78c0-1.57,0-3.17,0-4.74L114.64.86V.29h8.8l0,3.09h-.85L122.11,1h-4c0,1.54,0,3.11,0,4.76h2.55L120.9,4h.73V8.08h-.73l-.23-1.68h-2.56c0,1.78,0,3.4,0,5h4.32L123,8.92Z"/></svg>