<svg id="圖層_3" data-name="圖層 3" xmlns="http://www.w3.org/2000/svg" viewBox="0 0 21.38 47.16"><defs><style>.cls-1{fill:#9e1f24;}</style></defs><path class="cls-1" d="M9.17,10.09c-.88.5-1.93,1.08-3.17,1.75v8.23c0,.23-.74.65-1.37.65H4.29V12.79L2.05,13.91a.88.88,0,0,1-.5.59L.38,12.36c.81-.18,2.2-.58,3.91-1.1V6.32H2.43A18.11,18.11,0,0,1,.61,11l-.36-.18a40.73,40.73,0,0,0,1.21-8.5l2.43.38a.78.78,0,0,1-.81.54c-.14.84-.29,1.67-.5,2.45H4.29V.09L6.83.38C6.77.7,6.59.92,6,1V5.66h.47l1-1.48A25.72,25.72,0,0,1,9.37,6c0,.24-.27.36-.58.36H6v4.45l3.08-1Zm10.27.2s1.19,1,1.94,1.69c-.05.25-.27.36-.59.36H17.24v6.18c0,1.33-.34,2.09-2.83,2.29a1.49,1.49,0,0,0-.56-1.12,5.77,5.77,0,0,0-2.3-.63v-.31s2.81.17,3.37.17.57-.13.57-.47V12.34H7.64l-.18-.67h8V9.21L18,9.48c-.05.32-.27.5-.79.59v1.6h1.12ZM7.93,3.84h5.13V0l2.47.22c0,.3-.22.5-.74.59v3h3l1.1-1.39s1.26,1,2,1.69a.55.55,0,0,1-.59.36H14.79V8H17.4l1.05-1.37s1.24,1,2,1.66c0,.25-.27.36-.58.36H9L8.79,8h4.27V4.5h-5ZM9.49,13c5.23,1.78,3.88,5.24,2.18,4a11.52,11.52,0,0,0-2.41-3.89Z"/><path class="cls-1" d="M19.78,45c.88.25,1.14.34,1.14.75,0,.87-.92,1.41-4.92,1.41H7.3c-2.78,0-4.18-.61-4.18-2.79V34.44A17,17,0,0,1,.27,36.6L0,36.33a24.43,24.43,0,0,0,6.41-9.46l2.74.69c-.09.25-.29.36-.88.32a16.61,16.61,0,0,1-1,1.68H12l1.1-1.08L15,30.19c-.15.18-.42.23-.89.25a22.65,22.65,0,0,1-3.42,3.12h5.42l.94-1.05,2.07,1.55a1.73,1.73,0,0,1-1,.49v6.09a2.48,2.48,0,0,1-1.55.54h-.27V39.7H4.92v4.72c0,.88.77,1.06,2.25,1.06h8.68c1.48,0,2.11-.09,2.49-.66a16.71,16.71,0,0,0,1.12-3.21h.3ZM6.83,30.21a30.2,30.2,0,0,1-2.47,3l.83.33h5A21.57,21.57,0,0,0,12,30.21ZM4.92,39.05H9.67V34.19H4.92Zm6.5-4.86v4.86h4.92V34.19Z"/></svg>