<svg id="圖層_3" data-name="圖層 3" xmlns="http://www.w3.org/2000/svg" viewBox="0 0 20.84 47.5"><defs><style>.cls-1{fill:#9e1f24;}</style></defs><path class="cls-1" d="M18.59,0S20,1,20.84,1.8a.59.59,0,0,1-.63.36H3.69V7.08c0,4-.16,9.55-3.35,13.42L0,20.3c1.84-4,2-8.9,2-13.2V.7l2,.81H17.35Zm-.11,17.64s1.37,1,2.22,1.8c0,.25-.29.36-.61.36H2.83l-.18-.65H6.38V13.6l2.45.22c0,.32-.22.5-.74.59v4.74h3.13v-7l2.47.25c0,.29-.2.5-.74.59v2h2.78l1.13-1.34s1.21.94,2,1.66a.54.54,0,0,1-.59.36H13v3.55h4.31Zm-14.88-6a12.07,12.07,0,0,0,2.69-4.5H4l-.18-.65h3V4.61c-.81.13-1.64.22-2.41.29l-.13-.38a27.61,27.61,0,0,0,5-1.91l1.57,1.44c-.2.18-.56.15-1,0-.41.12-.9.23-1.44.34V6.47h.56L9.8,5.39s1,.77,1.57,1.38c0,.24-.27.35-.56.35H8.36v.5c3.91.81,2.7,3.28,1.39,2.38A5.61,5.61,0,0,0,8.36,8v4c0,.13-.54.49-1.3.49H6.79V9.26A12.25,12.25,0,0,1,3.87,12Zm7.05-.11a11.39,11.39,0,0,0,3.26-4.39H11.73l-.18-.65h3V4.58c-.83.12-1.73.21-2.52.25l-.11-.38a32.29,32.29,0,0,0,5.44-1.87L18.9,4.05c-.2.18-.58.15-1.08,0a16.82,16.82,0,0,1-1.7.32V6.47h1.16l.95-1.23A21.09,21.09,0,0,1,20,6.77a.51.51,0,0,1-.56.35H16.12v.57c4.63,1.19,3.66,4,2.2,3.1a9.74,9.74,0,0,0-2.2-2.56v3.61c0,.14-.54.5-1.31.5h-.27V8.9a12.41,12.41,0,0,1-3.64,3Z"/><path class="cls-1" d="M11.4,37.38a9.53,9.53,0,0,1-1.85,5.53c2.95,1.62,6.86,2.34,11.29,2.59l0,.25a2.09,2.09,0,0,0-1.53,1.7c-4.4-.53-8-1.55-10.58-3.57C7,45.52,4.29,46.74.27,47.5l-.11-.38c3.66-1,6-2.36,7.48-4.16a11.94,11.94,0,0,1-2.7-4l.34-.25a9.77,9.77,0,0,0,3,3.42,10.35,10.35,0,0,0,1.32-4.73H4.32v1.26c0,.18-.79.59-1.53.59H2.52V30l1.95.85H9.6v-4l2.63.3c-.07.29-.25.51-.79.6v3.1h5.13l.94-1.05,2,1.55a1.71,1.71,0,0,1-1,.47v6.65a2.32,2.32,0,0,1-1.51.57h-.29V37.38Zm-1.8-.67V31.47H4.32v5.24Zm1.84-5.24v5.24h5.35V31.47Z"/></svg>