<svg id="圖層_3" data-name="圖層 3" xmlns="http://www.w3.org/2000/svg" viewBox="0 0 136.8 27.82"><defs><style>.cls-1{fill:#9e1f24;}</style></defs><path class="cls-1" d="M10.12,12c5.32,2.16,7.3,4.39,7.3,8.17,0,4.65-3.78,7.63-9.61,7.63A15.45,15.45,0,0,1,0,25.7L.22,20h2l1.22,5.25a8.15,8.15,0,0,0,4.07.9c3.74,0,6.15-1.72,6.15-4.86,0-2.52-1.33-3.81-4.75-5.14l-1.55-.69C3.06,13.64.43,11.34.43,7.34.43,2.66,4.28,0,9.47,0a10.89,10.89,0,0,1,6.62,2.09l-.22,5.33h-2l-1.23-5a6,6,0,0,0-3-.69c-3.2,0-5.43,1.55-5.43,4.54,0,2.52,1.54,4,4.32,5.07Z"/><path class="cls-1" d="M36.9,2.23c-.07,3.53-.07,7.09-.07,10.76v1.84c0,3.53,0,7.09.07,10.65l4,.4v1.3H28.58v-1.3l4-.4c.11-3.49.11-7,.11-10.65V13c0-3.56,0-7.16-.11-10.76h-5.9L25.31,7.85H23.36l.29-7.2H45.79l.29,7.2H44.13L42.8,2.23Z"/><path class="cls-1" d="M76.68,13.93c0,8.78-5.8,13.89-12.17,13.89s-12.2-4.89-12.2-13.89C52.31,5.11,58.17,0,64.51,0S76.68,4.9,76.68,13.93ZM64.51,26.21c5.22,0,7.59-5.76,7.59-12.28S69.73,1.58,64.51,1.58s-7.59,5.8-7.59,12.35S59.29,26.21,64.51,26.21Z"/><path class="cls-1" d="M107.85,25.88v1.3a10.71,10.71,0,0,1-3.27.43c-2.7,0-3.93-.76-4.36-2.81l-1.51-6c-.72-3.1-1.87-4-5.08-4h-2c0,3.71,0,7.23,0,10.72l3.64.4v1.3H83.84v-1.3l3.57-.4c.07-3.49.07-7,.07-10.65V13c0-3.52,0-7.12-.07-10.65l-3.57-.4V.65H95.36c6,0,9.5,2.55,9.5,6.87,0,3.06-2.15,5.83-7,6.66,3.09.54,4.39,2.09,5.18,5.26l1.69,6.15ZM94.61,13.32c4.13,0,6.12-2.49,6.12-5.8s-1.88-5.4-5.94-5.4H91.65c0,3.53,0,7.06,0,11.2Z"/><path class="cls-1" d="M126.65,16.31c0,3.92,0,6.48.07,9.17l4,.4v1.3H118.44v-1.3l4-.4c.08-2.55.08-5,.08-8.67l-7.2-14.58-2.74-.29V.65h11.27V1.94l-3.78.44,5.79,12.41,5.76-12.34-3.67-.51V.65h8.86V1.94l-3.35.51Z"/></svg>