<svg id="圖層_3" data-name="圖層 3" xmlns="http://www.w3.org/2000/svg" viewBox="0 0 146.48 33.73"><defs><style>.cls-1{fill:#9e1f24;}</style></defs><path class="cls-1" d="M24,5a2.93,2.93,0,0,1-1.48.75V32.11a4.94,4.94,0,0,1-3.09,1.15h-.58V30.13H3.53v2.05c0,.47-1.37,1.33-2.92,1.33H0V2.45L3.82,4H18.5l1.84-2ZM3.53,5.08V16.34H18.86V5.08Zm15.33,24V17.39H3.53V29.08Z"/><path class="cls-1" d="M53.06,9.47A31.88,31.88,0,0,0,67.5,24.08l-.08.4a4.23,4.23,0,0,0-3.24,3c-5.32-3.71-9.43-9.93-11.84-18v15h2l2-2.77s2.27,1.9,3.6,3.23c-.11.4-.47.58-1,.58H52.34v7.06c0,.39-1.4,1.08-2.81,1.08h-.68V25.52H41.79l-.28-1h7.34V14.07A35.46,35.46,0,0,1,34.16,28.54l-.39-.39A40.29,40.29,0,0,0,46.58,9.47H35.46l-.32-1.05H48.85V.25l5,.51c-.07.54-.4.93-1.48,1.11V8.42h7.88l2.27-2.95s2.52,2,4,3.42c-.11.4-.47.58-1,.58Z"/><path class="cls-1" d="M95.22,26.2c-.25.36-.87.51-1.8.29a23.63,23.63,0,0,1-7.24,2.67,55.7,55.7,0,0,0,8.82.5c4.29,0,7.85,0,12.21-.25v.47a3.13,3.13,0,0,0-2.49,2.8H93.89c-7.81,0-11.09-1.18-14.19-5-.5-.58-.9-.51-1.18.07-.58,1.08-1.59,3-2.34,4.61a.61.61,0,0,1-.22.75l-2.52-3.31c1.58-1,4-3.17,5-3.64a26,26,0,0,0,2.16-7.77h-2.2l-1.18,1.08-2.74-2.05a7,7,0,0,1,1.37-.69,64.38,64.38,0,0,0,3.31-6H74.27L74,9.68H79.2l1.48-1.55,2.95,2.67L83.41,10h10V7.74h-4v.61c0,.29-1.44.94-2.7.94h-.43V1.66l3.34,1.4h3.75V.14l4.32.4c-.07.47-.33.79-1.15.94V3.06h3.24l1.54-1.66,3.31,2.52a2.14,2.14,0,0,1-1.33.65V7.81c.51.4,2.2,1.66,3.28,2.63a.87.87,0,0,1-.94.57h-22l0-.07a3,3,0,0,1-1.54.47c-.87,1.62-2.27,4.14-3.35,6h1.58l1.8-1.77,3.1,2.56c-.22.32-.58.43-1.33.47a17.46,17.46,0,0,1-4.29,7.59,2.62,2.62,0,0,1,.47.32,11.2,11.2,0,0,0,5,2.42l-.07-.15a19.5,19.5,0,0,0,6.3-4.89ZM75.6.79c8.5,1.73,5.76,8,2.66,5.76a11.48,11.48,0,0,0-3-5.51Zm29,13.1a2.48,2.48,0,0,1-1.33.69V24a5,5,0,0,1-2.73.87H100V23.58H89.75v.79c0,.32-1.44,1.08-2.77,1.08h-.51V11.63l3.46,1.44h9.72l1.62-1.73ZM93.42,6.7V4.1h-4V6.7Zm-3.67,7.41V16.2H100V14.11Zm0,3.13v2.13H100V17.24ZM100,22.53V20.41H89.75v2.12Zm-4,2.2c13.13.57,7.74,6.41,5.14,3.92a12.41,12.41,0,0,0-5.32-3.38ZM96.59,4.1V6.7h3.56V4.1Zm0,5.87h4.78l1.37-1.66a6.21,6.21,0,0,1-2,.47h-.58v-1H96.59Z"/><path class="cls-1" d="M142.48,10.94s2.42,1.73,3.86,3c-.11.39-.47.57-1,.57H120v2.95c0,4.5-.5,11.63-6.51,16.24l-.4-.36c3.28-4.93,3.6-10.94,3.6-15.88V12l3.89,1.48h19.83ZM114.62,4.61h15.09l-.11-.07A8.41,8.41,0,0,0,126.72.25L127,0c6.08.07,6.37,3.53,4.86,4.61h8.78l2-2.52s2.37,1.73,3.81,3c-.11.39-.47.57-1,.57h-8.14L140,7.31c-.25.36-.61.46-1.4.21a22.19,22.19,0,0,1-3.42,1.73c4.75,2.2,3.6,4.72,1.51,4.14a31.2,31.2,0,0,0-5.11-2.81A62.89,62.89,0,0,1,120,13.14l-.25-.54a55.05,55.05,0,0,0,9.17-3.17,67.62,67.62,0,0,0-7.12-2.34l.14-.57a53,53,0,0,1,10,1.58A34.17,34.17,0,0,0,136,5.65H114.91ZM142.45,28.8s2.41,1.76,3.85,3c-.11.4-.47.58-1,.58H119.16l-.29-1h11.92v-5h-7l-.28-1h7.27V21.06h-5.51a16,16,0,0,1-4.14,4.32l-.5-.33a28.1,28.1,0,0,0,3.6-9.5l4.31,1.3a1.22,1.22,0,0,1-1.33.72A26.86,26.86,0,0,1,125.93,20h4.86V15.19l4.57.43c-.07.51-.36.83-1.19.94V20h3.74l2-2.44s2.13,1.62,3.57,2.91c-.11.4-.47.58-1,.58h-8.31v4.28h3.2l1.91-2.3s2.13,1.58,3.42,2.77c-.11.39-.43.57-.94.57h-7.59v5h6.26Z"/></svg>