<svg id="圖層_3" data-name="圖層 3" xmlns="http://www.w3.org/2000/svg" viewBox="0 0 269.99 79.02"><defs><style>.cls-1{fill:#080707;}.cls-2{fill:#070606;}.cls-3{fill:#9d1f24;}</style></defs><path class="cls-1" d="M28,75.56a1.83,1.83,0,0,1-1.92,1.92,1.71,1.71,0,0,1-1.83-1.82H3.79a1.89,1.89,0,0,1-2,2A1.74,1.74,0,0,1,0,75.8V40.62A1.92,1.92,0,0,1,1.92,38.7a1.75,1.75,0,0,1,1.39.67H24.72a1.71,1.71,0,0,1,1.39-.67A1.89,1.89,0,0,1,28,40.62ZM3.79,41.82V55.74H24.24V41.82Zm0,16.41V73.07H24.24V58.23Z"/><path class="cls-1" d="M54.64,45.51V38.07a1.81,1.81,0,0,1,1.88-1.87,1.84,1.84,0,0,1,2,1.92v7.39H72.12A1.22,1.22,0,0,0,73,45a1.4,1.4,0,0,1,1.15-.67,1.31,1.31,0,0,1,1.25,1.3,2.66,2.66,0,0,1-2.88,2.4H59.69A49.47,49.47,0,0,0,78.31,69.27a1.21,1.21,0,0,1-.62,2.26c-.82,0-1.44.29-2.07.29a1.72,1.72,0,0,1-1-.34c-7-4.56-12.43-12.19-16.22-19.78V66.25h4.46c1,0,1-1.15,2.16-1.15a1.22,1.22,0,0,1,1.2,1.25,2.65,2.65,0,0,1-2.83,2.4H58.44V77.1a1.87,1.87,0,0,1-2,1.92,1.73,1.73,0,0,1-1.83-1.78V68.75H48c-1.63,0-1.73-2.5-.1-2.5h6.77V52.33a61.81,61.81,0,0,1-9.79,13.3c-1,1-6.63,6.33-8.06,6.33a1.26,1.26,0,0,1-.77-2.3,53.36,53.36,0,0,0,16.56-21.6H39.48c-1.68,0-1.78-2.55-.1-2.55Z"/><path class="cls-1" d="M93.55,72a18.54,18.54,0,0,1,3.55.48,1.13,1.13,0,0,1,.82-1.2,36.11,36.11,0,0,0,6.33-3A1.66,1.66,0,0,1,106,71.1a22.8,22.8,0,0,1-5.81,2.16,56.51,56.51,0,0,0,13.87,2.11,57.6,57.6,0,0,0,11-1.25,1.06,1.06,0,0,1,.14,2.11c-.67.1-.38,1.64-1.92,1.88a42.73,42.73,0,0,1-7.2.62,46.87,46.87,0,0,1-5.62-.34c-6.28-.72-10.41-2.68-14.69-3.55A15.8,15.8,0,0,0,93,74.55c-4.13,0-5.85,2.21-7.2,3.32a1.73,1.73,0,0,1-1,.38,1.64,1.64,0,0,1-1.1-2.78A13,13,0,0,1,90,72.25V56.65H84.91c-1.63,0-1.73-2.5-.1-2.5h5.57a1.84,1.84,0,0,1,1.39-.67,1.74,1.74,0,0,1,1.78,1.63ZM90,47.29c-2.79-4.23-3.7-5.28-4.8-6.72a1.27,1.27,0,0,1,1-2.07c1.35,0,4.23,3.32,5,4.37,1.59,2,3,4.27,1.3,5.33C91.44,48.92,90.57,48.15,90,47.29Zm21-.91V48.3h10.42a1.09,1.09,0,0,0,.86-.48,1.11,1.11,0,0,1,1-.53,1.19,1.19,0,0,1,1.25,1.2A2.51,2.51,0,0,1,122,50.65H96.86c-1.54,0-1.73-2.35-.19-2.35H108V46.38h-6.24a1.55,1.55,0,0,1-1.63,1.29,1.42,1.42,0,0,1-1.54-1.49v-5.8a1.59,1.59,0,0,1,1.63-1.64,1.48,1.48,0,0,1,1.25.63H108V37.78a1.36,1.36,0,0,1,1.44-1.44A1.55,1.55,0,0,1,111,37.93v1.44h6.87a1.77,1.77,0,0,1,1.34-.63,1.58,1.58,0,0,1,1.58,1.64v5.56a1.63,1.63,0,0,1-1.68,1.68,1.43,1.43,0,0,1-1.48-1.24Zm9.12,20.49a1.6,1.6,0,0,1-1.68,1.68A1.45,1.45,0,0,1,117,67.26H102.09a1.56,1.56,0,0,1-1.63,1.63,1.44,1.44,0,0,1-1.54-1.54V53.48a1.53,1.53,0,0,1,1.59-1.58,1.75,1.75,0,0,1,1.2.52h15.65a1.62,1.62,0,0,1,1.15-.52,1.55,1.55,0,0,1,1.63,1.58ZM101.76,41.24v3.17H108V41.24Zm.33,13.35v2.25h14.84V54.59Zm0,4.12V61h14.84V58.71Zm0,4.13v2.31h14.84V62.84ZM111,41.24v3.17h6.63V41.24Zm3,26.83a20.36,20.36,0,0,1,7.63,2.64,1.69,1.69,0,0,1-.77,3.12,1.83,1.83,0,0,1-.86-.24,64.2,64.2,0,0,0-6.68-3.07C112,70,112.75,67.88,114.05,68.07Z"/><path class="cls-1" d="M169.38,49.64a1,1,0,0,0,.92-.53,1.27,1.27,0,0,1,1.1-.62,1.24,1.24,0,0,1,1.25,1.25,2.61,2.61,0,0,1-2.79,2.4H141v5.08c0,7.06-1.24,11.33-3.64,15.75-.48.91-2.69,4.9-4.08,4.9a1.19,1.19,0,0,1-1-1.92c4-5.57,5.23-12,5.23-18.73,0-5.85.05-5.56.05-6.38a1.71,1.71,0,0,1,1.73-1.68,1.66,1.66,0,0,1,1.2.48H148c-.14-.24-1-2-1.15-2.4a19.11,19.11,0,0,0-1.2-2.16,1.26,1.26,0,0,1,0-1.3h-6.24c-1.53,0-1.68-2.35-.09-2.35h13.53V38.17a1.66,1.66,0,0,1,1.73-1.73,1.81,1.81,0,0,1,1.87,1.87v3.12h12.15a1,1,0,0,0,.86-.53,1.2,1.2,0,0,1,1.06-.57,1.11,1.11,0,0,1,1.15,1.15,2.45,2.45,0,0,1-2.64,2.3h-5a1.91,1.91,0,0,1,.19,2,9.26,9.26,0,0,1-1.2,1.63,30.37,30.37,0,0,1-2.21,2.21Zm-10.94,19v6.53h11.81a1.09,1.09,0,0,0,.91-.48,1.09,1.09,0,0,1,1-.58,1.19,1.19,0,0,1,1.2,1.2,2.47,2.47,0,0,1-2.59,2.26h-28.9c-1.58,0-1.68-2.4-.14-2.4h13.2V68.65h-7.35a1.15,1.15,0,1,1-.09-2.3h7.44V60.87h-6.82c-.72,1.3-4.27,7-5.9,7a1.18,1.18,0,0,1-1-1.92,32.84,32.84,0,0,0,5.61-10.85,1.7,1.7,0,0,1,1.59-1.2,1.81,1.81,0,0,1,1.77,2.31,16,16,0,0,1-.91,2.4h5.62V54.92a1.57,1.57,0,0,1,1.73-1.58,1.73,1.73,0,0,1,1.82,1.72v3.51h8.5a1,1,0,0,0,.91-.53,1.14,1.14,0,0,1,1-.53,1.16,1.16,0,0,1,1.1,1.16,2.37,2.37,0,0,1-2.54,2.2h-9v5.48h6.86a1.06,1.06,0,0,0,.92-.53,1.1,1.1,0,0,1,1-.63,1.18,1.18,0,0,1,1.16,1.2,2.46,2.46,0,0,1-2.64,2.26ZM147.78,43.78a16.92,16.92,0,0,1,3.27,4.13,1.84,1.84,0,0,1-.05,1.73h7a1.22,1.22,0,0,1,.14-.82c.15-.19,1.54-2.3,1.59-2.44a27.18,27.18,0,0,1,1.48-2.5c0-.05,0-.05.05-.1Z"/><path class="cls-1" d="M191.94,45.18a1.08,1.08,0,0,0,.82-.48,1.3,1.3,0,0,1,1.1-.68,1.26,1.26,0,0,1,1.2,1.25,2.61,2.61,0,0,1-2.73,2.35H180.47c-1.58,0-1.82-2.44-.14-2.44Zm1.59,31.49a1.68,1.68,0,0,1-1.78,1.63,1.47,1.47,0,0,1-1.58-1.54h-6a1.72,1.72,0,0,1-1.68,1.78,1.61,1.61,0,0,1-1.68-1.68V65.34a1.66,1.66,0,0,1,1.68-1.63,1.69,1.69,0,0,1,1.2.52h7a1.86,1.86,0,0,1,1.25-.52,1.69,1.69,0,0,1,1.68,1.63Zm-3.36-37.83a1,1,0,0,0,.86-.43,1.28,1.28,0,0,1,1.06-.63,1.26,1.26,0,0,1,1.2,1.2,2.49,2.49,0,0,1-2.64,2.31h-8.11c-1.64,0-1.88-2.45-.2-2.45Zm0,12.62A1.16,1.16,0,0,0,191,51a1.33,1.33,0,0,1,1.06-.57,1.22,1.22,0,0,1,1.2,1.2,2.48,2.48,0,0,1-2.64,2.25h-8.11c-1.64,0-1.88-2.45-.2-2.45Zm-.1,6.44a1,1,0,0,0,.91-.44,1.21,1.21,0,0,1,2.31.49,2.65,2.65,0,0,1-2.83,2.39h-7.92c-1.64,0-1.88-2.44-.2-2.44Zm-5.95,8.59v8.06h6V66.49Zm13.59,8.06a1.78,1.78,0,0,1-1.64,1.11,1.76,1.76,0,0,1-1.63-2.5,23.65,23.65,0,0,0,1.73-4.32,26.4,26.4,0,0,0,1-4.51,1.26,1.26,0,0,1,1.25-1.06,1.38,1.38,0,0,1,1.39,1.44A29.16,29.16,0,0,1,197.71,74.55Zm17.8-35.85a1.71,1.71,0,0,1,1.3-.58,1.79,1.79,0,0,1,1.83,1.78c0,6.57,0,13.34-4.66,18.52a1.66,1.66,0,0,1-1.25.63,2,2,0,0,1-1.82-1.2c-.48-1.1-1.92-1.59-3.75-1.59a1.06,1.06,0,1,1,0-2.11,8.49,8.49,0,0,1,4.42,1.06.32.32,0,0,0,.48-.1c2.59-3.89,3-8.73,3-14h-6.52a24,24,0,0,1-1.44,6.68,20,20,0,0,1,3.21,2,1.73,1.73,0,0,1-1,3.08,1.31,1.31,0,0,1-1-.39,29.93,29.93,0,0,0-2.49-1.73,20.11,20.11,0,0,1-4,5.38c-1,1-4.36,3.79-5.85,3.79a1.18,1.18,0,0,1-.63-2.2,20.5,20.5,0,0,0,7.49-8.65c-1.2-.62-2.83-1.39-4-1.87a1.21,1.21,0,0,1,.72-2.3,29.94,29.94,0,0,1,4.32,1.44,20.53,20.53,0,0,0,1-5.19H198a1.22,1.22,0,0,1-.1-2.44ZM215.56,72a3.83,3.83,0,0,0,1,2.64,1.64,1.64,0,0,1-1.1,2.64,40,40,0,0,1-6.43.43c-4.71,0-7.59-1.29-7.59-6.76V64.19a1.8,1.8,0,1,1,3.6,0v6.72c0,3.16,1.2,3.64,4,3.64a34.16,34.16,0,0,0,4-.19.27.27,0,0,0,.24-.29V69.51a1.15,1.15,0,0,1,2.3,0Zm-4.8-6.29a1.64,1.64,0,0,1-1.29-.67,25.09,25.09,0,0,0-4.28-4.51c-1.1-.91.1-2.4,1.2-2a14.39,14.39,0,0,1,5.76,4.32A1.77,1.77,0,0,1,210.76,65.67Zm9.51,8.12a1.73,1.73,0,0,1-1.68-1.2,26.4,26.4,0,0,0-1.49-3.94c-.43-1.1-1.92-3.79-1.92-3.84a1.27,1.27,0,0,1,1.1-1.92c1.83,0,5.28,6.86,5.76,8.45A1.9,1.9,0,0,1,220.27,73.79Z"/><path class="cls-1" d="M239.8,45.18a1.08,1.08,0,0,0,.86-.48,1.3,1.3,0,0,1,1.11-.68,1.23,1.23,0,0,1,1.15,1.25,2.53,2.53,0,0,1-2.69,2.35H228c-1.58,0-1.78-2.44-.19-2.44Z"/><path class="cls-1" d="M238.21,38.84a1,1,0,0,0,.82-.43,1.27,1.27,0,0,1,1-.63,1.23,1.23,0,0,1,1.25,1.2,2.52,2.52,0,0,1-2.64,2.31h-8.6c-1.63,0-1.87-2.45-.19-2.45Z"/><path class="cls-1" d="M238.21,51.46A1.15,1.15,0,0,0,239,51a1.32,1.32,0,0,1,1-.57,1.2,1.2,0,0,1,1.25,1.2,2.51,2.51,0,0,1-2.64,2.25h-8.6c-1.63,0-1.87-2.45-.19-2.45Z"/><path class="cls-1" d="M238.12,57.9a1,1,0,0,0,.86-.44,1.2,1.2,0,0,1,1.06-.71,1.23,1.23,0,0,1,1.25,1.2,2.63,2.63,0,0,1-2.79,2.39h-8.45c-1.63,0-1.87-2.44-.19-2.44Z"/><path class="cls-1" d="M239.7,63.75a1.67,1.67,0,0,0-1.15.48H231.3a1.81,1.81,0,0,0-3,1.11V76.86A1.61,1.61,0,0,0,230,78.54a1.72,1.72,0,0,0,1.77-1.73h6.34a1.52,1.52,0,0,0,1.59,1.49,1.69,1.69,0,0,0,1.82-1.63V65.34A1.71,1.71,0,0,0,239.7,63.75Zm-1.63,10.8h-6.34V66.49h6.34Z"/><path class="cls-2" d="M253.89,38a1.23,1.23,0,0,1,1.08-.75c.76,0,1.51.84,1.35,2.08a33.6,33.6,0,0,0,2.19,3.25,18.84,18.84,0,0,0,3-3.73,1.06,1.06,0,0,1,.82-.58c.85,0,1.57,1.47.85,2.67a13,13,0,0,1-3.5,3.37,26.45,26.45,0,0,0,2.49,3,26,26,0,0,0,3.46-3.9c1-1.42,2.65.62,1.58,2.26a11.72,11.72,0,0,1-3.54,3.15,23.85,23.85,0,0,0,5.66,3.91c.95.44.75,2.3-.26,2.3-.39,0-.88.58-1.34.58a1.12,1.12,0,0,1-.59-.18c-4.45-2.44-9-7.49-11.85-13.57-3.07,6.44-8.11,11.75-13.48,14.28a1,1,0,0,1-.32.09c-.89,0-1.31-1.68-.36-2.31,4.74-3.1,8.67-6.44,11.84-13.67h-6.38c-1,0-1.11-2.22-.06-2.22Zm-6.47,9.15a1.16,1.16,0,0,1-.85-.45s-1-1.5-1.51-2c-.23-.26-1.31-1.55-1.64-1.9-.68-.76-.19-2.14.59-2.14s3.67,2.85,4.22,3.69C249.08,45.53,248.33,47.13,247.42,47.13Z"/><path class="cls-2" d="M260.39,50.13a1,1,0,0,0,.81-.45,1.06,1.06,0,0,1,1-.61,1.13,1.13,0,0,1,1.15,1.15,2.45,2.45,0,0,1-2.61,2.31H248.52c-1.49,0-1.58-2.4-.08-2.4Zm4.13,16a1.22,1.22,0,0,1-1.29,1.26,1.2,1.2,0,0,1-1.2-1.23H247.9a1.27,1.27,0,0,1-1.29,1.3,1.13,1.13,0,0,1-1.23-1.17V56.58a1.25,1.25,0,0,1,1.26-1.23,1.11,1.11,0,0,1,.94.44h14.74a1.14,1.14,0,0,1,.94-.44,1.22,1.22,0,0,1,1.26,1.23Zm-16.25-8v5.43h13.07V58.1Zm3,16.07a1.31,1.31,0,0,1-1.24-.87c-.55-1.29-.73-1.82-1.21-2.77a17.47,17.47,0,0,0-1-1.67,1,1,0,0,1,.84-1.7c1.35,0,3.65,3.75,4.06,4.89A1.56,1.56,0,0,1,251.29,74.17Zm7.61.39a1.18,1.18,0,0,1-.6.37,1,1,0,0,1-1.06-1.37,39.56,39.56,0,0,0,1.93-5.65,1.38,1.38,0,0,1,1.09-1.1A1.54,1.54,0,0,1,262,68.69,16.78,16.78,0,0,1,258.9,74.56Z"/><path class="cls-1" d="M265.57,74.74a1.07,1.07,0,0,0,.82-.48,1.27,1.27,0,0,1,1.1-.67,1.25,1.25,0,0,1,1.2,1.24A2.62,2.62,0,0,1,266,77.19H243.57c-1.58,0-1.82-2.45-.14-2.45Z"/><path class="cls-3" d="M140.87,5a1.5,1.5,0,0,1-.48-.56,1.31,1.31,0,0,0-.28-.42,3.56,3.56,0,0,0-.65-.53c-.13-.09-.73-.52-.63-.6a2,2,0,0,0-.32-.28c-.32-.19-.63-.41-.95-.6l-.46-.3-.47-.27a2.79,2.79,0,0,0-.55-.24,17.23,17.23,0,0,0-3.52-.83,20.69,20.69,0,0,0-5.24.16,2.06,2.06,0,0,1-.26,0s0,0,0-.06c.41-.17.73-.35,1.06-.51l-.82.09-.28,0,0,0c-.19.13-.22.28-.53.37s-.5.29-.89.43c-.07,0-.06.07-.11.1a.55.55,0,0,1-.18.06c-.39,0-.12-.09-.09-.15s0-.08,0-.13l.94-.59-1,.13a5.54,5.54,0,0,1-.78.52c.06.13-.2.13-.4.14l-1,.06c-.17,0-.27,0-.42,0l-.25,0s0,.08,0,.11,0,.08,0,.12-.09.07-.14.09a1.32,1.32,0,0,1-.27.07c-.06,0,0-.09-.08-.11a1.84,1.84,0,0,0-.28,0c-.12.07-.24.14-.35.22a1.56,1.56,0,0,0-.2.16c-.12.1-.17.11-.24.08a1.16,1.16,0,0,0-.29-.05h-.08a.65.65,0,0,0-.11.09c0,.07.08.11.09.18s-.31.37-.77.57l-.9.38-.63.24c-.4.35-.87.74-1.39,1.16h.07a2.51,2.51,0,0,0,.7-.33,2.79,2.79,0,0,0,.42-.37,1.08,1.08,0,0,1,.59-.36l.16-.06c.4-.31.62-.24,1-.42.21-.11.24,0,.11.07l-.58.53c-.38.33-.9.59-1.31.92s-.37.23-.47.21a1.13,1.13,0,0,0-.23.17,8.06,8.06,0,0,1-.8.76c-.28.24-.5.47-.72.67a4,4,0,0,1-.53.44c-.09.06-.11,0-.16,0l-.42-.07a.22.22,0,0,1-.11-.1q-.29.25-.57.54l-.54.56c.18,0,.26.18.42.25s.07,0,.1.07.06,0,.07-.05.08-.13.07-.14l-.34-.3s0-.09,0-.13.13-.06.17,0l.53.13c.12,0,0,.21-.22.46a4.74,4.74,0,0,1-.63.73c-.22.18-.27.17-.17-.12s.06-.42-.36,0a3.1,3.1,0,0,0-.66.63.94.94,0,0,0-.19.44c-.07.39-.19.88-.27,1.35a2,2,0,0,1-.1.26,1.28,1.28,0,0,0-.23.63,1.33,1.33,0,0,1-.13.33c0,.06-.07,0-.09,0s0-.26,0-.24.08-.51-.09-.16a3.33,3.33,0,0,0-.2.72.82.82,0,0,0,0,.21,3.43,3.43,0,0,1-.06.7,4.77,4.77,0,0,1-.25.8,4.12,4.12,0,0,0-.13.68,6.88,6.88,0,0,0-.1.9,21.61,21.61,0,0,0,0,3c0,.25,0,.51.06.77s0,.26,0,.37l0,.32c.07.44.13.87.21,1.31a7.27,7.27,0,0,0,.58,1.76c.19.35.39.76.6,1.14a5.93,5.93,0,0,0,.66,1,4.76,4.76,0,0,1,.49.71,7,7,0,0,0,.7,1c.22.27.47.49.71.77a2,2,0,0,0,.71.56,5,5,0,0,1,1,.5c.38.22.83.45,1.24.67a3.09,3.09,0,0,1,.32.14c.23.19.48.41.68.6a5.67,5.67,0,0,0,.7.66c.53.32.93.65,1.42.9.28.15.61.17.85.44.26,0,.58.27.88.36s.68.29,1,.4l.75.23c.28.09.57.15.85.24s.41,0,.59.16a3.55,3.55,0,0,1,.47,0,2.56,2.56,0,0,0,1,.14,3.57,3.57,0,0,0,.86,0l.9,0c.27,0,.53,0,.8,0h.83a4.14,4.14,0,0,0,1.12,0c.07,0,.24,0,.23-.06s.23-.11.42-.14.74,0,.8-.19.39,0,.56-.08a1.8,1.8,0,0,1,.76-.16s.13,0,.12,0,.17-.16.38-.21.16-.17.49-.21c.17,0,.28-.1.08-.18s0-.17.15-.25c.46-.26,9.85-2.3,10-2.45s.33-.22.22-.31,0-.16.17-.27.1-.18-.11-.19-.33-1.59-.24-1.73a.56.56,0,0,0,.07-.26c0-.11-.19-.11-.35-.13a.68.68,0,0,1-.23,0c-.08,0-.13-.18-.15-.17-.31.08-6.78,1.64-4.59-.31,3.18-2.84,3.32-5.23,3.44-5.47a4.44,4.44,0,0,0,.31-.8,3.51,3.51,0,0,1,.15-.49,5.2,5.2,0,0,0,.31-1,6.56,6.56,0,0,0,.11-1.21,15.17,15.17,0,0,0-.54-4.13c-.05-.17-.09-.42-.14-.63a9.76,9.76,0,0,0-.37-1.16l-.12-.27-.09-.22-.22-.43c-.17-.33-.23-.5-.16-.53s.18-.11.45.32c.15.24.3.32.13-.28s0-.39.17-.16c.52.78.4,0,.58,0a2.52,2.52,0,0,0-.16-.46,3.62,3.62,0,0,0-.35-.58,6.76,6.76,0,0,1-.54-.77c-.18-.3-.37-.62-.52-.89a4.84,4.84,0,0,0-.66-.93A11.85,11.85,0,0,0,140.87,5ZM129.72,24.79a1.27,1.27,0,0,1-.15-.21.85.85,0,0,0-.1-.14,1.16,1.16,0,0,1-.13-.2c-.05-.08-.09-.16-.13-.24a1.53,1.53,0,0,1-.11-.36c0-.08,0-.17,0-.26v-.14a1,1,0,0,1,0-.16c0-.2,0-.41,0-.62s0-.12,0-.18,0-.11,0-.14a.71.71,0,0,0,.05-.16c0-.06,0-.1,0-.15v0a.54.54,0,0,1,0-.15c0-.07,0,.06,0,0s0,0,0,0,0,0,0,0a.17.17,0,0,0,0-.06.21.21,0,0,1,0-.13.14.14,0,0,1,0-.06c0-.09,0-.19.05-.27a.36.36,0,0,1,0-.09.54.54,0,0,1,.14-.13c.08-.08.1-.09.07,0s0,.06,0,0a.64.64,0,0,0,.13-.15c0-.05.07-.09,0-.1l-.11,0h0s0,0,0,0l.07.07,0,0h0s0,0,0,0,0-.05-.09-.05l.11-.12.12-.11a0,0,0,0,0,0,0l.09,0s0,0,0,0l.11-.09.14-.14c.05,0,.13-.09.17-.16l0,0s0,0,.09,0,.19-.12.27-.19l.12-.11s0,0,0,0a.56.56,0,0,0-.2.08h0a.28.28,0,0,0-.12.08l-.08.07-.15.07h0a2.32,2.32,0,0,0,.28-.24l.13-.05.19-.07c.09,0,.16-.09.15-.12s0,0,0,0a0,0,0,0,1,0,0h.07s0,0,.05,0a.08.08,0,0,0,0,0l.08,0h.05s0,0,0,0h.05l0,0v0s0,0,0,0h.35s.1,0,.08,0l.16-.11.2,0-.19.12s0,0,0,0-.07,0,0,0h0l0,0c.08,0,.1-.06.18-.09s.07-.05.11-.08h.07l.17,0-.22.11s0,0,0,0h0a4.29,4.29,0,0,1,1.08,0,4.14,4.14,0,0,1,.72.17l.11.05.09.06.1.06.19.12.07.06s.1.1.13.12l.13.11a.24.24,0,0,1,.06.09s0,.06.1.11a1.81,1.81,0,0,1,.24.24.66.66,0,0,1,.14.19l.1.18.11.16.08.11,0,.1s0,.17-.12,0-.06-.06,0,0,0,.11,0,.06-.07-.07-.09-.06,0,0,0,.1l0,.09,0,0,0,.05a2.17,2.17,0,0,1,.07.24l0,.13a2.74,2.74,0,0,1,.11.84,1,1,0,0,1,0,.25.83.83,0,0,1-.06.21.38.38,0,0,0,0,.1.87.87,0,0,1-.07.17c0,.05-.05.09-.07.15h0c0-.08-.1.07-.13.06s0,0,0,.06a.22.22,0,0,1-.06.12s0,0,0,0,0,0,0,0a.28.28,0,0,0,0,.06s0,.05,0,.08,0,0,0,0l-.06.09,0,0s0,0,0,0h0v0l-.05,0h0a.22.22,0,0,0-.11.09.5.5,0,0,0-.08.07.26.26,0,0,1-.14.1.24.24,0,0,0-.1.05h0c0,.07,0,.13.05.18s0,0,0,0a.12.12,0,0,0,0,.11l0,0c.07,0,.15,0,.22,0a.61.61,0,0,1,.18-.05s0,0,0,0,0,0,0,0,.08,0,.07,0a.11.11,0,0,1,0,0s-.05,0-.11.06l-.26.05-.09,0h-.11l-.22,0a.28.28,0,0,0-.18.07s-.06.05-.09.07-.07.06-.06.08a.32.32,0,0,0,.18,0h.13a.24.24,0,0,1,.17,0h.1c.08,0,.18,0,.26,0a.32.32,0,0,0,.13,0,.72.72,0,0,1,.2,0s.06,0,0,0,0,0,0,.06,0,0,0,.06-.06,0-.1,0a2.87,2.87,0,0,1-.41.05.64.64,0,0,0-.39.12,2.13,2.13,0,0,1-.22.18s-.05,0,0,.05,0,0,0,0-.06,0-.1.05-.1,0-.07,0h0a.35.35,0,0,0-.16,0s-.11,0-.11,0-.1,0-.16,0-.12,0-.09,0h0a1.76,1.76,0,0,1-.23,0h-.51a.54.54,0,0,1-.18,0,.47.47,0,0,1-.19,0h-.1s-.08,0-.12,0l-.17-.05-.16,0-.21-.08a1.34,1.34,0,0,0-.18-.07c-.05-.06-.11-.06-.17-.09s-.18-.12-.29-.19a1.35,1.35,0,0,1-.15-.13l-.13-.12s0,0-.07,0l-.25-.14a.77.77,0,0,0-.21-.1.58.58,0,0,1-.15-.12Zm4-5.46,0,0h.08l.05,0Zm-13.39,0,.18-.07c.09,0,.16-.09.16-.12a.05.05,0,0,1,0,0h.1s0,0,0,0l0,0,.07,0H121s0,0,0,0l.06,0h0s0,0,0,0a0,0,0,0,1,0,0h.34s.1,0,.09,0l.15-.11.2,0-.19.12s0,0,0,0-.07,0,0,0h0l0,0c.08,0,.1-.06.19-.09s.07-.05.1-.08h.07l.17,0-.22.11s0,0,0,0h0a4.3,4.3,0,0,1,1.08,0,4.14,4.14,0,0,1,.72.17l.11,0,.09.06.1.06.19.12.07.06s.1.1.13.12a.81.81,0,0,1,.13.11.33.33,0,0,1,.06.08s0,.07.1.12a1.81,1.81,0,0,1,.24.24.66.66,0,0,1,.14.19l.11.18a.64.64,0,0,0,.11.16l.07.11,0,.1s0,.17-.12,0-.06-.06,0,0,0,.11,0,.06-.07-.07-.09-.07,0,0,0,.11l0,.09,0,0,0,.06a2.17,2.17,0,0,1,.07.24.61.61,0,0,1,0,.13,2.74,2.74,0,0,1,.11.84,1,1,0,0,1,0,.25.83.83,0,0,1-.06.21l0,.1a.59.59,0,0,1-.07.16c0,.05,0,.1-.07.16h0c0-.08-.1.07-.13.06s0,0,0,.06a.28.28,0,0,1,0,.12h0s0,0,0,0l0,.06s0,.05,0,.08,0,0,0,0l-.06.09,0,0,0,0,0,0v.05l0,0h0a.18.18,0,0,0-.11.09.5.5,0,0,0-.08.07.26.26,0,0,1-.14.1.24.24,0,0,0-.1.05h0a.13.13,0,0,0,.05.18s0,0,0,0a.09.09,0,0,0,0,.11s0,0,0,0a1.46,1.46,0,0,0,.22,0,.59.59,0,0,1,.19-.05l0,0h0s.08,0,.08,0,0,0,0,.06-.05,0-.11.06l-.25.05-.1,0h-.11a.78.78,0,0,0-.22,0c-.09,0-.16,0-.17.07a.36.36,0,0,1-.1.07s-.07.06,0,.08.1,0,.17,0a.57.57,0,0,0,.13,0,.28.28,0,0,1,.18,0s.06,0,.09,0,.18,0,.26,0a.3.3,0,0,0,.13,0,.72.72,0,0,1,.2,0s.06,0,0,0,0,0,0,.06,0,0,0,.06-.06,0-.1,0a2.7,2.7,0,0,1-.41,0,.67.67,0,0,0-.39.12,2.13,2.13,0,0,1-.22.18s0,0,0,.05,0,0,0,0,0,0-.1.05-.1,0-.07,0h0c-.08,0-.1,0-.15,0l-.12,0s-.1,0-.16,0-.12,0-.09,0,0,0,0,0a.79.79,0,0,1-.22,0h-.52a1.07,1.07,0,0,1-.18,0,.47.47,0,0,1-.19,0h-.1s-.08,0-.12,0l-.17-.05-.16-.05-.2-.08c-.07,0-.13-.06-.19-.07s-.11-.06-.17-.09-.18-.12-.29-.19a.79.79,0,0,1-.14-.13l-.14-.12s0,0-.07,0l-.25-.14a.65.65,0,0,0-.21-.1.58.58,0,0,1-.15-.12l-.14-.15a1.27,1.27,0,0,1-.14-.21l-.11-.14a1.16,1.16,0,0,1-.13-.2l-.12-.24a1.17,1.17,0,0,1-.12-.36c0-.09,0-.17,0-.26v-.07a.19.19,0,0,1,0-.08s0-.1,0-.15c0-.21,0-.41,0-.62l0-.18a.46.46,0,0,1,0-.14.64.64,0,0,0,0-.17.68.68,0,0,0,0-.14v0a.54.54,0,0,1,0-.15c0-.07,0,.06,0,0s0,0,0,.05h0a.17.17,0,0,0,0-.06.21.21,0,0,1,0-.13l0-.06c0-.09,0-.19,0-.27a.25.25,0,0,1,0-.09.54.54,0,0,1,.14-.13c.08-.08.1-.09.07,0s0,.06,0,0a1,1,0,0,0,.12-.15c0-.05.07-.09,0-.1l-.11,0h0s0,0,0,0l.07.06,0,0h0s0-.05-.09-.05l.11-.12.12-.11s0,0,0,0l.09,0s0,0,0,0l.11-.09.15-.14c0-.05.12-.09.16-.16l0,0s0,0,.09,0,.19-.12.27-.19l.12-.11s0,0,0,0a.88.88,0,0,0-.2.09h0a.26.26,0,0,0-.11.08l-.09.07-.14.07h0c.11-.08.2-.17.29-.24Zm3-.55,0,0h.08l0,0Zm-2.18-9.14h-.08l0,0h.07ZM123,11l.11.18.11.16a.42.42,0,0,1,.07.12s0,.09,0,.09,0,.17-.11,0-.07-.06,0,0,0,.1,0,.05-.08-.07-.1-.06,0,0,0,.11l0,.08,0,.05,0,.05a1.13,1.13,0,0,1,.08.24l0,.13a3.08,3.08,0,0,1,.11.84,1.81,1.81,0,0,1,0,.25,1.42,1.42,0,0,1-.07.22.94.94,0,0,0,0,.09.67.67,0,0,1-.06.17l-.08.15h0c0-.07-.09.07-.12.06s0,0,0,.06a.33.33,0,0,1-.06.12s0,0,0,0,0,0,0,0,0,.06,0,.07,0,0,0,.08,0,0,0,0,0,.06-.07.09,0,0,0,0l0,0h0v.06l0,0h0a.2.2,0,0,0-.1.09.5.5,0,0,1-.08.07.29.29,0,0,1-.15.1l-.09,0h0c0,.06,0,.13,0,.17s0,0,0,0a.11.11,0,0,0,0,.12h0c.07,0,.14,0,.21,0a.67.67,0,0,1,.19,0s0,0,0,0h0s.07,0,.07,0a.11.11,0,0,1,0,0,.15.15,0,0,1-.12.06l-.25.06-.1,0a.21.21,0,0,1-.11,0l-.21,0a.35.35,0,0,0-.18.07.31.31,0,0,1-.09.07s-.08.06-.06.08a.31.31,0,0,0,.18,0h.39c.09,0,.19,0,.26,0a.3.3,0,0,0,.13,0,.79.79,0,0,1,.21,0s0,0,0,0-.06,0,0,.06,0,0,0,.06-.07,0-.1,0a1.48,1.48,0,0,1-.41.05.79.79,0,0,0-.4.12,2,2,0,0,1-.21.18s-.05,0,0,.05,0,0,0,0-.06,0-.1.05-.1,0-.08,0h0a.57.57,0,0,0-.16,0s-.11,0-.11,0-.11,0-.17,0-.11,0-.08,0h0a.59.59,0,0,1-.23,0h-.52a.32.32,0,0,1-.17,0,.54.54,0,0,1-.2,0h-.09s-.08,0-.13,0l-.17-.05-.15,0-.21-.08-.18-.07c0-.06-.12-.06-.17-.09s-.19-.12-.29-.18l-.15-.14-.14-.12s0,0-.06,0l-.26-.14a1,1,0,0,0-.21-.1.38.38,0,0,1-.14-.11l-.15-.16-.14-.2a1,1,0,0,0-.1-.15l-.14-.2-.12-.23a1.27,1.27,0,0,1-.12-.36c0-.09,0-.18,0-.27v-.07s0-.05,0-.07,0-.11,0-.16a4.28,4.28,0,0,1,0-.62,1.1,1.1,0,0,1,0-.18c0-.05,0-.11,0-.14a1.42,1.42,0,0,0,0-.16.76.76,0,0,0,0-.15.08.08,0,0,1,0,0,.66.66,0,0,1,0-.15c0-.07,0,.06,0,0s0,0,0,.05h0a.49.49,0,0,1,0-.07.22.22,0,0,1,0-.13.11.11,0,0,0,0-.05c0-.1,0-.2.06-.28s0-.05,0-.09.09-.09.13-.13.1-.08.07,0,0,.07,0,0a1,1,0,0,0,.13-.15c0-.05.07-.09,0-.09l-.1,0h0v0l.07.06v0h0l0,0-.08-.05.11-.11.11-.11,0,0h.08s0,0,0,0l.1-.09.15-.14c0-.05.12-.09.16-.15l0,0s0,0,.1,0,.19-.12.27-.19l.12-.11s0,0,0,0-.12,0-.2.08l0,0a.19.19,0,0,0-.12.07l-.09.08s-.12.07-.14.06h0l.28-.24.13-.05.18-.08c.1,0,.16-.09.16-.12s0,0,0,0l0,0h.08a.06.06,0,0,0,0,0l0,0,.07,0h.06s0,0,0,0h.05l0,0s0,0,0,0v0h.35s.09,0,.08,0l.16-.11.19,0-.19.13v0s-.06,0,0,0h0l0,0c.08,0,.1-.06.18-.09s.07-.05.11-.07h.06l.17,0-.21.1s0,0,0,0h0a4.21,4.21,0,0,1,1.07,0,3.76,3.76,0,0,1,.72.17l.11.05.1.06.1.06.19.12.06.06s.11.11.13.12l.14.11a.14.14,0,0,1,.05.09.47.47,0,0,0,.1.11,1.88,1.88,0,0,1,.25.24A1.46,1.46,0,0,1,123,11Zm5.31,3.89-.1,0h0a2,2,0,0,1,.49,0,1.05,1.05,0,0,1,.34.08l.05,0,0,0,0,0,.09.06s0,0,0,0l.06.05.06,0,0,0,0,.06a.6.6,0,0,1,.12.11.45.45,0,0,1,.06.09.56.56,0,0,1,.05.08l0,.07,0,.06v0s0,.08-.05,0,0,0,0,0,0,.05,0,0,0,0,0,0a.1.1,0,0,0,0,.05s0,0,0,0V16a.2.2,0,0,1,0,.11s0,0,0,.06a1.31,1.31,0,0,1,.05.39.37.37,0,0,1,0,.11l0,.1s0,0,0,.05l0,.08a.16.16,0,0,0,0,.07h0s-.05,0-.06,0l0,0a.09.09,0,0,1,0,.06s0,0,0,0h0v0l0,0h0l0,.05h0v0h-.05l0,0,0,0a.12.12,0,0,1-.07.05l0,0h0a0,0,0,0,0,0,.08,0,0,0,0,1,0,0,0,0,0,0,0,0,.05h0s.07,0,.11,0l.08,0h.07v0a.06.06,0,0,1-.06,0l-.11,0h-.1a.34.34,0,0,0-.1,0s-.08,0-.08,0l-.05,0s0,0,0,0h.14a.11.11,0,0,1,.08,0h.23a.27.27,0,0,1,.09,0s0,0,0,0,0,0,0,0,0,0,0,0,0,0-.05,0a1.08,1.08,0,0,1-.19,0,.3.3,0,0,0-.18.05.39.39,0,0,1-.1.08s0,0,0,0,0,0,0,0l0,0s-.05,0,0,0h0s0,0-.08,0h-.05s0,0-.08,0-.05,0,0,0h-.37a.21.21,0,0,1-.08,0,.15.15,0,0,1-.09,0h0s0,0-.06,0l-.08,0-.07,0-.1,0-.08,0s0,0-.08,0l-.14-.09-.06-.06-.07-.06h0l-.12-.07-.09,0-.07-.06a.46.46,0,0,1-.07-.07l-.06-.09,0-.07-.06-.09-.06-.11a.67.67,0,0,1-.06-.17.5.5,0,0,0,0-.12v-.07a.17.17,0,0,1,0-.07,1.41,1.41,0,0,1,0-.29s0-.06,0-.08a.56.56,0,0,1,0-.07l0-.07v-.09a.25.25,0,0,0,0-.07s0,0,0,0v0h0a.1.1,0,0,1,0,0,.14.14,0,0,1,0-.06v0s0-.09,0-.12a.06.06,0,0,1,0,0,.34.34,0,0,1,.06-.06s0,0,0,0,0,0,0,0l.06-.07s0,0,0-.05h-.07v0l0,0h0l0,0,.06,0s0,0,0-.05h.06l.06,0,.06-.07a.5.5,0,0,0,.08-.07h0l0,0,.12-.09.06-.05s0,0,0,0-.06,0-.1,0h0a.09.09,0,0,0-.06,0l0,0-.07,0h0l.13-.11.06,0a.19.19,0,0,0,.08,0c.05,0,.08,0,.08-.05v0h0s0,0,0,0h0l0,0h.24s0,0,0,0l.08-.05.09,0L128,15h0s0,0,0,0h0l.08,0,.05,0h.11Zm.51,0h0ZM128.3,4.05h-.08l0,0,.07,0Zm1.82,1.39a1.62,1.62,0,0,0,.1.18,1.42,1.42,0,0,0,.11.16.63.63,0,0,1,.07.12.49.49,0,0,1,0,.1s0,.17-.12,0-.07,0,0,0,0,.11,0,.06-.08-.08-.1-.07,0,0,0,.11l0,.09,0,0a.14.14,0,0,1,0,.06,1,1,0,0,1,.08.24l0,.12a3.15,3.15,0,0,1,.11.85,2,2,0,0,1,0,.25,1.72,1.72,0,0,1-.07.21s0,.07,0,.1a.76.76,0,0,1-.06.16l-.08.15v0c0-.08-.09.07-.12.05s0,0,0,.06a.23.23,0,0,1-.06.12s0,0,0,0a0,0,0,0,1,0,0s0,.06,0,.06,0,.05,0,.08l0,0-.07.09,0,0,0,0,0,0V9l0,0h-.05a.24.24,0,0,0-.1.1l-.08.06a.26.26,0,0,1-.15.11l-.09,0h0c0,.07,0,.13,0,.18s0,0,0,0a.1.1,0,0,0,0,.12h0c.07,0,.15,0,.21,0a1.33,1.33,0,0,1,.19-.05s0,0,0,0h0s.07,0,.07,0a.09.09,0,0,1,0,0,.15.15,0,0,1-.11.06l-.26.06-.1,0-.11,0a.75.75,0,0,0-.21,0,.28.28,0,0,0-.18.07l-.09.07s-.07.05-.06.07a.42.42,0,0,0,.18,0h.39c.09,0,.19,0,.27,0a.3.3,0,0,0,.13,0,.35.35,0,0,1,.2,0s.05,0,0,0-.05,0,0,.05,0,0,0,.07-.06,0-.1,0a1.93,1.93,0,0,1-.41.06.7.7,0,0,0-.4.12,1.2,1.2,0,0,1-.21.17s0,0,0,.05,0,0,0,0-.06,0-.1,0-.1,0-.08,0h0a.34.34,0,0,0-.16,0h-.11s-.11,0-.17,0-.11,0-.08,0h0a.85.85,0,0,1-.23,0h-.69a.88.88,0,0,1-.2,0h-.09s-.08,0-.12,0l-.18,0-.15,0c-.07,0-.15-.07-.21-.08s-.13-.07-.18-.08a.7.7,0,0,0-.17-.09,2.29,2.29,0,0,1-.29-.18.62.62,0,0,1-.15-.14L125,10,125,10l-.26-.13a1.08,1.08,0,0,0-.21-.11.38.38,0,0,1-.14-.11l-.15-.16a1.33,1.33,0,0,1-.14-.2,1,1,0,0,0-.1-.15,1.89,1.89,0,0,1-.14-.19c0-.08-.08-.17-.12-.24a1.52,1.52,0,0,1-.12-.36c0-.09,0-.18,0-.27V8s0,0,0-.08,0-.1,0-.16a4.14,4.14,0,0,1,0-.61,1.1,1.1,0,0,1,0-.18,1.06,1.06,0,0,1,0-.14c0-.07,0-.12,0-.17a.71.71,0,0,0,0-.14.11.11,0,0,1,0,0,.47.47,0,0,1,0-.14c0-.07,0,.06,0,0s0,0,0,.05h0a.49.49,0,0,0,0-.07.24.24,0,0,1,0-.13.11.11,0,0,0,0,0c0-.1,0-.2.06-.28a.23.23,0,0,1,0-.09c.05-.07.09-.08.13-.13s.1-.08.08,0,0,.06,0,0a.64.64,0,0,0,.13-.15c0-.05.07-.08,0-.09l-.1,0h0v0l.07.06v0h0s0,0-.08-.06l.11-.11.11-.11,0,0,.08,0h0l.11-.09.14-.13c.05,0,.12-.1.17-.16l0,0a.13.13,0,0,0,.1,0c.08-.07.19-.12.27-.19l.12-.1s0,0,0,0-.11,0-.2.09h0a.19.19,0,0,0-.12.07l-.09.08-.14.07h0l.28-.24.13-.05.18-.08c.1,0,.16-.08.16-.11a.05.05,0,0,0,0,0l0,0h.07s0,0,0,0l0,0,.07,0h.06s0,0,0,0h0l0,0v0h.35s.09,0,.08,0l.16-.1.19,0-.19.12s0,0,0,0-.06,0,0,0h0l0,0a1.42,1.42,0,0,0,.18-.08c.06,0,.07,0,.11-.08H127l.16,0-.21.1s0,0,0,0h0a4.22,4.22,0,0,1,1.07,0,3.13,3.13,0,0,1,.72.17l.11,0,.1,0,.1.06.19.13.06,0s.11.11.13.13l.14.1a.21.21,0,0,1,0,.09.48.48,0,0,0,.1.12,1.79,1.79,0,0,1,.25.23ZM135.91,9h-.08l0,0h.07Zm1.82,1.39a.81.81,0,0,0,.1.18l.11.16a.42.42,0,0,1,.07.12.49.49,0,0,1,0,.09s0,.17-.12,0-.07-.06,0,0,0,.1,0,.05-.08-.07-.1-.06,0,0,0,.11a.59.59,0,0,0,0,.08l0,.05,0,.05a1.13,1.13,0,0,1,.08.24,1.3,1.3,0,0,0,0,.13,3.08,3.08,0,0,1,.11.84,1.81,1.81,0,0,1,0,.25A1.42,1.42,0,0,1,138,13s0,.07,0,.1a.76.76,0,0,1-.06.16l-.08.15h0c0-.07-.09.07-.12.06s0,0,0,.06a.33.33,0,0,1-.06.12s0,0,0,0,0,0,0,0,0,.06,0,.07,0,0,0,.08l0,0s0,.06-.07.09,0,0,0,0,0,0,0,0h0s0,0,0,0v0l0,0h0a.27.27,0,0,0-.1.09.5.5,0,0,1-.08.07.24.24,0,0,1-.15.1l-.09,0h0c0,.06,0,.13,0,.17s0,0,0,0a.11.11,0,0,0,0,.12h0c.07,0,.15,0,.21,0a1.33,1.33,0,0,1,.19,0s0,0,0,0h.05s.07,0,.07,0a.09.09,0,0,1,0,0,.15.15,0,0,1-.11.06l-.26.06-.1,0-.11,0a.75.75,0,0,0-.21,0,.36.36,0,0,0-.18.06.73.73,0,0,1-.09.08s-.07.05-.06.07a.39.39,0,0,0,.18,0h.39c.09,0,.19,0,.27,0h.12a.38.38,0,0,1,.21,0s.05,0,0,0-.05,0,0,.05,0,0,0,.06-.06,0-.1,0a1.44,1.44,0,0,1-.41,0,.7.7,0,0,0-.4.13,1.2,1.2,0,0,1-.21.17s-.05,0,0,0,0,0,0,0-.06,0-.1,0-.1,0-.08,0h0a.57.57,0,0,0-.16,0l-.11,0s-.11,0-.17,0-.11,0-.08,0h-.05a.85.85,0,0,1-.23,0h-.52a.52.52,0,0,1-.17,0,.39.39,0,0,1-.2,0h-.09s-.08,0-.12,0l-.18-.05-.15,0-.21-.09c-.06,0-.13-.06-.18-.07a.7.7,0,0,0-.17-.09c-.1-.05-.19-.12-.29-.18l-.15-.14-.14-.12-.06,0-.26-.14-.21-.1a.38.38,0,0,1-.14-.11l-.15-.16-.14-.2a1,1,0,0,0-.1-.15l-.14-.2-.12-.23a1.69,1.69,0,0,1-.12-.36c0-.09,0-.18,0-.27V13s0-.05,0-.07,0-.11,0-.16a4.14,4.14,0,0,1,0-.61,1.11,1.11,0,0,1,0-.19c0-.05,0-.11,0-.14a1.42,1.42,0,0,0,.05-.16.71.71,0,0,0,0-.14.09.09,0,0,1,0,0,.47.47,0,0,1,0-.14c0-.08,0,.05,0,0s0,0,0,.05h0s0-.06,0-.07a.22.22,0,0,1,0-.13.11.11,0,0,0,0-.05c0-.1.05-.2.06-.28a.18.18,0,0,1,0-.09c0-.08.09-.08.13-.13s.1-.08.08,0,0,.06,0,0a1,1,0,0,0,.13-.15c0-.05.07-.09,0-.09l-.1,0h0v0l.07.06v0h0l0,0s0,0-.08-.05a.57.57,0,0,1,.11-.11l.11-.11,0,0H132s0,0,0,0l.1-.09.15-.14c0-.05.12-.09.17-.15l0,0s0,0,.1,0,.19-.12.27-.19l.12-.11s0,0,0,0-.12,0-.2.08l0,0a.19.19,0,0,0-.12.07l-.09.08c-.05,0-.12.07-.14.06h0l.29-.24.13-.05L133,9.5c.1,0,.16-.08.16-.12s0,0,0,0l0,0h.07a.06.06,0,0,0,.05,0l0,0,.07,0h.06s0,0,0,0h.05l0,0V9.19h.35s.09,0,.08,0a.74.74,0,0,0,.16-.11l.19,0-.19.12s0,0,0,0-.06,0,0,0l0,0,0,0,.18-.09c.06,0,.07-.05.11-.07h.07l.16,0-.21.1s0,0,0,0h0a4.21,4.21,0,0,1,1.07,0,3.76,3.76,0,0,1,.72.17l.11,0,.1.06.1.06.19.12s.07.06.06.06.11.11.13.12l.14.11s.05.06.05.09a.47.47,0,0,0,.1.11,2.83,2.83,0,0,1,.25.24Z"/><path class="cls-3" d="M138.28,27.89s4.68-1.08,7.57-.4,1.88,3,1.88,3S145.07,28.8,140,31Z"/></svg>