<svg xmlns="http://www.w3.org/2000/svg" xmlns:xlink="http://www.w3.org/1999/xlink" viewBox="0 0 254.23 85.54"><defs><style>.cls-1{isolation:isolate;}.cls-2{fill:#070607;}.cls-3{fill:#080707;}.cls-4{fill:#9e1f24;}.cls-4,.cls-5,.cls-6,.cls-7{fill-rule:evenodd;}.cls-6,.cls-7{mix-blend-mode:multiply;opacity:0.3;}.cls-6{fill:url(#linear-gradient);}.cls-7{fill:url(#linear-gradient-2);}</style><linearGradient id="linear-gradient" x1="116.85" y1="19.73" x2="156.03" y2="19.73" gradientUnits="userSpaceOnUse"><stop offset="0"/><stop offset="0.18" stop-color="#242424"/><stop offset="0.59" stop-color="#818181"/><stop offset="1" stop-color="#e4e4e4"/></linearGradient><linearGradient id="linear-gradient-2" x1="95.48" y1="20.58" x2="115.38" y2="20.58" xlink:href="#linear-gradient"/></defs><g class="cls-1"><g id="圖層_3" data-name="圖層 3"><path class="cls-2" d="M9.12,53.09h1.54a1,1,0,0,0,.86-.53A1.28,1.28,0,0,1,12.58,52a1.22,1.22,0,0,1,1.2,1.24A2.65,2.65,0,0,1,11,55.54H9.12V64a23.47,23.47,0,0,0,2.74-1.44,1.12,1.12,0,0,1,.62-.2,1.26,1.26,0,0,1,.67,2.26,29.94,29.94,0,0,1-4,2.45V83.72a1.7,1.7,0,0,1-1.77,1.77,1.69,1.69,0,0,1-1.54-.86C5,83,3.55,82.85,1.92,82.85a1,1,0,1,1,0-2,9.79,9.79,0,0,1,3.17.38c.19,0,.48.1.48-.34v-12a24.79,24.79,0,0,1-3.5,1.3,1.6,1.6,0,0,1-.48.05,1.52,1.52,0,0,1-.48-3C1.59,67,3,66.72,5.57,65.67V55.54H1.44c-1.58,0-1.72-2.45-.09-2.45H5.57V44.74A1.63,1.63,0,0,1,7.3,43a1.8,1.8,0,0,1,1.82,1.87Zm20,15.12c4.32,6.1,9.94,10,13.83,11.43a1.2,1.2,0,0,1-.39,2.3c-1,0-1.44.53-2.16.53a2.24,2.24,0,0,1-.86-.19c-3.46-1.54-7.59-5.19-11.14-10.52V83.67a1.8,1.8,0,0,1-1.87,1.82,1.71,1.71,0,0,1-1.82-1.73V72a32.94,32.94,0,0,1-7.92,8.11c-.68.48-3.7,2.54-4.52,2.54a1.24,1.24,0,0,1-.72-2.3A33.24,33.24,0,0,0,23,68.21H15a1.23,1.23,0,0,1,0-2.45h9.7V61a1.72,1.72,0,0,1,1.82-1.78,1.85,1.85,0,0,1,1.87,1.88v4.65h9.46a1.09,1.09,0,0,0,.91-.48,1.09,1.09,0,0,1,1-.62,1.25,1.25,0,0,1,1.3,1.25c0,1.24-1.4,2.3-2.88,2.3ZM39.8,51.5A1.79,1.79,0,0,1,38,53.33a1.61,1.61,0,0,1-1.68-1.68v-4h-18v4a1.74,1.74,0,0,1-1.82,1.77,1.6,1.6,0,0,1-1.68-1.67V46.51a1.74,1.74,0,0,1,1.78-1.77,1.72,1.72,0,0,1,1.29.57H36.68A1.89,1.89,0,0,1,38,44.74a1.77,1.77,0,0,1,1.78,1.77Zm-18.68,8c-.86.77-3.4,2.69-4.56,2.69A1.22,1.22,0,0,1,15.84,60c4.18-2.69,5.91-5.42,6.24-10.22a1.57,1.57,0,0,1,1.64-1.54A1.69,1.69,0,0,1,25.49,50C25.49,51.79,25.4,55.63,21.12,59.52Zm19.45-3.84a3.33,3.33,0,0,0,.76,2.11,1.65,1.65,0,0,1-1,2.55,28.89,28.89,0,0,1-5.18.33c-4.08,0-6.72-1.63-6.72-5.47V49.87a1.58,1.58,0,0,1,1.68-1.58,1.64,1.64,0,0,1,1.73,1.63v5.19c0,1.48.52,2.64,3.31,2.64.86,0,1.87,0,2.93-.15a.32.32,0,0,0,.33-.33v-2.5a1,1,0,0,1,1.06-1.06,1,1,0,0,1,1.06,1Z"/><path class="cls-2" d="M107.29,60.48a3.8,3.8,0,1,1-3.79,3.79A3.77,3.77,0,0,1,107.29,60.48Z"/><path class="cls-2" d="M138,51.6V45.22a1.7,1.7,0,0,1,1.73-1.78,1.89,1.89,0,0,1,2,2V51.6H156a1,1,0,0,0,1-.53A1.17,1.17,0,0,1,158,50.4a1.26,1.26,0,0,1,1.29,1.3,2.8,2.8,0,0,1-2.87,2.45H151a39.23,39.23,0,0,1-3.31,10.32,39.44,39.44,0,0,1-4.8,7.39,42.19,42.19,0,0,0,18,9.79,1.3,1.3,0,0,1-.38,2.55c-.82,0-1.3.91-2.3.91a2.31,2.31,0,0,1-.73-.15,45.24,45.24,0,0,1-17-10.51A43.83,43.83,0,0,1,121,85.2a1.33,1.33,0,1,1-.77-2.54,42.3,42.3,0,0,0,9.07-3.84,36.93,36.93,0,0,0,8.93-6.72,35.8,35.8,0,0,1-6.14-9.55,27.07,27.07,0,0,1-2.11-6c-.39-1.82,2.35-2.68,2.83-.86a35.48,35.48,0,0,0,7.73,13.68,32.35,32.35,0,0,0,6.62-15.26H122.35a1.28,1.28,0,1,1-.09-2.55Z"/><path class="cls-2" d="M171.67,60.91c-.81,1-5.71,6.58-7,6.58a1.34,1.34,0,0,1-1-2.3,56.11,56.11,0,0,0,7.87-9.56,60.1,60.1,0,0,0,5-11,1.75,1.75,0,0,1,1.73-1.39,1.89,1.89,0,0,1,1.92,2.35,42.53,42.53,0,0,1-6.63,12.82,1.81,1.81,0,0,1,1.68,1.77V83.62a1.69,1.69,0,0,1-1.82,1.78,1.66,1.66,0,0,1-1.78-1.78Zm32.5,17.24a3.71,3.71,0,0,0,.91,2.49,1.79,1.79,0,0,1-1.2,3,68.94,68.94,0,0,1-8.06.48c-5,0-11.57-.05-11.57-6.87V46.22a1.9,1.9,0,0,1,3.79,0V77.28c0,3.84,4.37,3.6,7.11,3.6,2.2,0,4.46-.24,6.43-.38a.37.37,0,0,0,.34-.38V71.86a1.05,1.05,0,0,1,1.1-1.11,1.07,1.07,0,0,1,1.15,1.11ZM190.59,62.93a2.54,2.54,0,0,1-.53.1,1.33,1.33,0,0,1-.77-2.45,48.27,48.27,0,0,0,10.9-8.5A1.88,1.88,0,1,1,203,54.62C201.1,57.12,193.56,61.87,190.59,62.93Z"/><path class="cls-2" d="M212.52,85.2a1.2,1.2,0,0,1-1.59-1.77,33.26,33.26,0,0,0,5.62-7.35,1.72,1.72,0,0,1,1.49-.91,1.75,1.75,0,0,1,1.53,2.64A24.11,24.11,0,0,1,212.52,85.2Zm15.21-12.33a1.77,1.77,0,0,1-1.82,1.77,1.58,1.58,0,0,1-1.68-1.58h-7a1.7,1.7,0,0,1-1.78,1.73,1.61,1.61,0,0,1-1.68-1.68V46.32a1.73,1.73,0,0,1,1.78-1.73,1.68,1.68,0,0,1,1.3.63h7.77a1.73,1.73,0,0,1,3.07,1.1Zm-10.46-25.3v6.09h7V47.57Zm0,8.4v6.14h7V56Zm0,8.45v6.19h7V64.42ZM227.93,85a1.68,1.68,0,0,1-1.59-.91,61.87,61.87,0,0,0-4-6.77,1.24,1.24,0,0,1,1.1-2,1.31,1.31,0,0,1,.72.23,23.57,23.57,0,0,1,5.47,6.63A1.88,1.88,0,0,1,227.93,85Zm19.58-30.72H251a1,1,0,0,0,.91-.53,1.12,1.12,0,0,1,1.06-.67,1.25,1.25,0,0,1,1.29,1.25,2.67,2.67,0,0,1-2.78,2.45h-3.94V83.81a1.71,1.71,0,0,1-1.82,1.73,1.67,1.67,0,0,1-1.59-1.1c-.76-2.12-3.21-2.55-5.52-2.55a1,1,0,1,1,0-2.06,13,13,0,0,1,4.9.81c.05,0,.1,0,.14,0a.41.41,0,0,0,.39-.33V61.78a63.65,63.65,0,0,1-7.44,10.41c-.77.87-5.24,5.81-6.48,5.81a1.23,1.23,0,0,1-.92-2.11,59.77,59.77,0,0,0,13.4-19.15H232.15a1.25,1.25,0,0,1,0-2.5H244v-9a1.56,1.56,0,0,1,1.63-1.64,1.79,1.79,0,0,1,1.87,1.78Z"/><path class="cls-3" d="M62.21,80a39.94,39.94,0,0,1-6.09,3.5,2,2,0,0,1-.6.1c-1.06,0-1.85-1.07-.83-1.64A55.05,55.05,0,0,0,60,78.23,41.11,41.11,0,0,0,64.29,74a2,2,0,0,1,1.48-.65c1.34,0,2.54,1.15,1.61,2.25A27.84,27.84,0,0,1,62.21,80Zm9.42-8.67c-10.8.5-13.43.53-14.82.53-1.94,0-2-2.25-.09-2.32,0,0,7.48-.07,9.88-.14a98,98,0,0,0,12.74-12A2.18,2.18,0,0,1,81,56.71c1.29,0,2.54,1.18,1.61,2.39C80.4,61.92,74,67,70.48,69.31c2.91-.07,4.06-.11,5.17-.18,1.61-.07,3.28-.17,9.65-.5-1.25-1.21-2.08-2-3.28-3C81.14,65,81.93,64,83,64a1.39,1.39,0,0,1,.78.18,32.68,32.68,0,0,1,7.81,6.57C92.46,72,91.25,73,90,73a1.91,1.91,0,0,1-1.48-.68c-.28-.32-1.34-1.56-1.62-1.92-12.18.82-10.39.71-11.72.75V83.34c0,.93-.93,1.43-1.85,1.43s-1.71-.43-1.71-1.33ZM63.92,63c-.83-.71-2.17-1.82-3.05-2.5s-.09-1.64.88-1.64a1.55,1.55,0,0,1,.69.14,24.1,24.1,0,0,1,2.73,1.54,86.93,86.93,0,0,0,5.68-6.71A1.88,1.88,0,0,1,72.42,53c1.24,0,2.4,1,1.61,2.21a32.18,32.18,0,0,1-6.79,6.57,25.19,25.19,0,0,1,2.36,1.81c1.15,1.11,0,2.43-1.43,2.43a2.06,2.06,0,0,1-1.34-.5ZM89.78,83.05a1.93,1.93,0,0,1-1.48-.64,46.85,46.85,0,0,0-3.74-3.93,34.7,34.7,0,0,0-4.43-3.39c-.93-.68-.23-1.71.83-1.71a1.48,1.48,0,0,1,.64.14c3.37,1.61,7.71,4.64,9.79,7.25C92.32,82,91.07,83.05,89.78,83.05Z"/><path class="cls-3" d="M70.79,51.84V48.1a1.82,1.82,0,0,1,1.92-1.83,1.85,1.85,0,0,1,2,1.92v3.65H88.46a1.81,1.81,0,0,1,1.29-.53,1.78,1.78,0,0,1,1.78,1.78v5.38a1.76,1.76,0,0,1-1.83,1.82A1.58,1.58,0,0,1,88,58.56V54.34H58.12v4.13a1.75,1.75,0,0,1-1.88,1.82,1.61,1.61,0,0,1-1.68-1.68V53.09a1.8,1.8,0,0,1,3.08-1.25Z"/><path class="cls-3" d="M84.19,48.1A2.66,2.66,0,0,0,87,45.65a1.19,1.19,0,0,0-1.2-1.2,1.17,1.17,0,0,0-1.1.67,1,1,0,0,1-.87.53H74.59v-2.5a1.81,1.81,0,0,0-1.92-1.87,1.76,1.76,0,0,0-1.83,1.83v2.54H60.15c-1.63,0-1.49,2.45.09,2.45h10.6v2.17h3.75V48.1Z"/><path class="cls-4" d="M112.7,24.61l0-.1-.07.12S112.68,24.65,112.7,24.61Z"/><path class="cls-4" d="M112.74,24.51c.12-.18.26-.39.4-.62a5.89,5.89,0,0,0,.47-1,4,4,0,0,0,.33-1.47c0-.08-.1.06-.19.24-.08.37-.17.7-.27,1A19.84,19.84,0,0,1,112.74,24.51Z"/><path class="cls-4" d="M95.07,34.41a7.11,7.11,0,0,0,.8,0h.33l.29,0,1.25-.09q.45,0,.87-.09c.28,0,.55-.06.81-.11l.79-.14.81-.17c.24,0,.49-.11.76-.17l.53-.13c0,.13,0,.26,0,.39a.19.19,0,0,0,.12.23,1.48,1.48,0,0,0,.87-.12,1.89,1.89,0,0,0,.39-.26c.13-.09.2-.26.4-.24a.42.42,0,0,0,.07-.11c0-.11-.06,0-.1,0s-.29,0-.35-.09a.31.31,0,0,0-.12-.09,1.78,1.78,0,0,1,.65-.11s0,.08,0,.1a1.39,1.39,0,0,0,.23,0l.13-.06a2.57,2.57,0,0,0,.35-.24,1.13,1.13,0,0,1,.42-.18l.42-.14.69-.29a2.24,2.24,0,0,0,.35-.28c.06-.06-.06,0,0-.09l.43-.27a2,2,0,0,1,.27-.13s0,0,.06.05l.16-.05.36-.29c.18-.16.3-.28.5-.48l.65-.64c.11-.11.21-.23.31-.35l.31-.36c.11-.14.25-.29.34-.42s.18-.2.21-.16c.14-.16.28-.3.41-.43s.25-.25.35-.37l.58-.66c.19-.21.35-.41.52-.63l.25-.36q.14-.2.27-.42c.06-.11.07-.05.08,0l0,.05s0,.06,0,.1l-.09.21c-.23.45-.65,1.08-.73,1.29s.06,0,.22-.26l.45-.76a6.78,6.78,0,0,0,.36-.67,2.53,2.53,0,0,0,.18-.37c.06-.14.11-.27.16-.4s.14-.42.2-.58c-.34.49-.74,1-1.21,1.58h0l.09-.13a12.93,12.93,0,0,0,1-1.85c.09-.21.16-.36.23-.51a5.24,5.24,0,0,0,.3-1,9.43,9.43,0,0,0,.18-1.52s0-.06,0,0a11.92,11.92,0,0,1-.65,2.49l-.26.62-.3.6c-.18.33-.3.41-.56.92a5.9,5.9,0,0,1-.45.74l-.21.31-.11.15v0a1.4,1.4,0,0,0-.13.18h0c-.3.3-.61.57-.93.84l-.09.14.09-.14h0l.07-.11.13-.23L111,27c.11-.2.24-.4.35-.64,0,0,0,0,0,0a5.68,5.68,0,0,0,.48-.52,6.29,6.29,0,0,0,.5-.63,6.07,6.07,0,0,1,.33-.53v0c0-.14.09-.3.14-.43a13.22,13.22,0,0,0,.4-1.53l-.06.07c-.14.15-.45.71-.88,1.34s-.77,1-1.15,1.43l-.06.06v0H111v.05h0c-.17.19-.41.41-.62.61l-.44.36a.62.62,0,0,0-.19-.07c-.14,0-.27-.09-.42-.1.27-.24.53-.5.83-.75,0,0,0-.1,0-.12s-.16-.14-.5,0c-.11.05-.23.1-.18,0a.75.75,0,0,0,.13-.35.1.1,0,0,0,.07,0s.11,0,.16-.06l0-.1a.78.78,0,0,0-.31-.29c-.06,0,0-.17,0-.22l.2-.12a.57.57,0,0,1,0,.12c0,.09.06.11.15,0a3.37,3.37,0,0,0,.52-.75h0a.85.85,0,0,0,.26-.44.61.61,0,0,1,.19-.46,1.1,1.1,0,0,0,.24-.72.81.81,0,0,1,0-.22c0-.05.05-.11.06-.11a1.12,1.12,0,0,0,.22-.48v0h0c0-.07,0-.14,0-.22s.21,0,.32,0,.09.21.08.4c0,.36,0,.45.23.35s.11-.09.16,0,.1.09.11.07a.78.78,0,0,0,.11-.36c0-.21,0-.3.12-.28v-.14c-.14,0-.08-.1,0-.22a.92.92,0,0,0,.09-.29c-.13-.27,0-.29.09-.36s.08,0,.11,0a.37.37,0,0,0,0-.19s0-.11-.07-.1-.1.11-.16.14,0,0,0-.06a.37.37,0,0,1,0-.19s.07,0,.1,0a.76.76,0,0,0,.09-.09l-.06-.06c-.09,0-.15-.09-.15-.29a2,2,0,0,1,0-.44c.16,0,.05-.37.12-.5s0-.21-.15-.45l-.06-.08a3.94,3.94,0,0,1,0-.69c.08-.22-.11-.61,0-.78-.19-.39,0-.54,0-.82l0-.06a3.19,3.19,0,0,1-.35-1c-.1-.28,0-.51-.29-.87a.39.39,0,0,1-.08-.22.43.43,0,0,0,0,.07,13.17,13.17,0,0,1,1,2.25,14.65,14.65,0,0,1,.7,4,12.57,12.57,0,0,1-.23,2.79,3.18,3.18,0,0,0,.17-.27c.08-.14.16-.3.23-.44l.15-.32a9.43,9.43,0,0,0,.17-1.06c.08-.91.14-1.45.14-2.15a1.9,1.9,0,0,1,0-.39c0-.09.12.27.16.69a14,14,0,0,1,0,2.89c0,.32-.08.67-.15,1,0,.12,0,.27,0,.41a1.31,1.31,0,0,1,0-.15,14.72,14.72,0,0,0,.37-1.45c0-.11,0,0,.06,0,0,.25-.06.58-.09.74s-.12.43-.19.74c-.13.46-.21.68-.28.68s-.08.05-.16.25l-.19.56.1-.15c.36-.53.65-1,.88-1.44.11-.18.19-.35.28-.51s.17-.34.25-.51a7.13,7.13,0,0,0,.4-1.21c.06-.27.14-.53.16-.36,0,.37.1.13.12-.22a4.12,4.12,0,0,1,0-.6,1.93,1.93,0,0,0,0-.41v-.63c0-.16,0-.25.06-.16a1,1,0,0,0,0-.23c-.11-.73-.11-1-.16-1.47,0-.16-.08-.41-.13-.63a1.86,1.86,0,0,1-.09-.41.63.63,0,0,0,0-.23c0-.11-.06-.24-.1-.38s-.09-.3-.14-.45-.05-.15-.07-.23,0-.14-.08-.2c-.12-.33-.39-1-.22-.77l0-.15c0-.09-.08-.2-.11-.26s-.11-.28-.18-.43a5.06,5.06,0,0,0-.24-.46c-.18-.31-.36-.63-.54-.91s-.54-.84-.84-1.23c-.14-.19-.27-.39-.42-.57l-.43-.54c-.16-.21-.36-.4-.53-.6s-.36-.4-.53-.56a8.43,8.43,0,0,0-1-1,8.81,8.81,0,0,0-1.25-1c-.07,0-.4-.31-.61-.47a7.27,7.27,0,0,1-.85-.5c-.4-.23-.83-.45-1.26-.66a5.48,5.48,0,0,0-.59-.26l-.61-.24L104,3.11l-.42-.1-.4-.1-.38-.08-.39-.06c-.26,0-.51-.08-.71-.12a3.55,3.55,0,0,1-.73,0c-.24,0-.48,0-.72,0a16.11,16.11,0,0,0-2.44.24c-.15,0-.35.09-.58.16l-.36.11-.35.13-.57.19-.59.22a4.08,4.08,0,0,1-.45.1L94,4l-.84.29c-.53.21-1,.37-1.31.47a3.61,3.61,0,0,0-1,.52c-.19.13-.38.24-.55.37L89.79,6c-.17.13-.34.27-.53.44L89,6.73a2.91,2.91,0,0,0-.31.3c-.24.26-.61.61-.77.76a14.13,14.13,0,0,0-2,2.42,7.61,7.61,0,0,0-.6,1c-.09.19-.19.38-.28.58s-.18.42-.26.65a17.68,17.68,0,0,0-1,3.65c-.05.32-.11.64-.13,1s-.06.65-.08,1l0,1,0,1.06c0,.21,0,.43.06.65a2.87,2.87,0,0,0,0,.31l0,.3a7.42,7.42,0,0,0,.19.91,18.37,18.37,0,0,1,.53,2,1.08,1.08,0,0,0,.07.27,7.94,7.94,0,0,0,.35,1c.25.51-.1-.36,0-.18s-.08-.25-.08-.31,0-.05.06,0a4.73,4.73,0,0,1,.2.47c.05.15.1.28.16.42a3.06,3.06,0,0,0,.24.48c0,.06.16.29.19.36a19.27,19.27,0,0,0,.85,1.81,3.25,3.25,0,0,0,.42.63,7.56,7.56,0,0,0,1.06,1,3.37,3.37,0,0,0,.64.52c.06,0,0-.11-.28-.39s-.26-.39.1-.08.79.69,1.3,1.08c.23.18.45.32.57.43s.19.15.12.15l-.54,0-.25-.11a.77.77,0,0,1-.11-.15c0-.08.11-.14.15-.22l-.07-.07-.14-.11-.11-.08s0,.05-.06.05c-.18,0,0,.28-.51.05s-.41-.11-.51-.08-.17,0-.4-.09a5.59,5.59,0,0,0-.66-.29,5.41,5.41,0,0,0,.39.41,3.92,3.92,0,0,0,.33.27,9.23,9.23,0,0,1,.79.67c.25.16.49.33.75.48l.38.22.4.2a2.58,2.58,0,0,0,.28.12,5.79,5.79,0,0,0,.55.28l.32.12c.17,0,.29.08.6.19a4,4,0,0,0,.89.27c.17,0,.29,0,.57.08s.7.14,1,.19S95.11,34.46,95.07,34.41Zm3.8-15.9c.06,0,0,.06,0,.12l-.05.06,0-.19Zm-.78,2.84Zm10.29,6.44-.54.4-.36.26c-.14-.05-.26-.12-.39-.18l.11-.12c.06-.09,0-.17.07-.2l.33-.24.12,0Q108.05,27.78,108.38,27.79Zm2.55-1-.22.31-.3.4c-.1.13-.21.25-.32.38s-.21.23-.32.35l-.13.13-.19.19-.2.18-.11.1-.28.24h0c-.24.13-.5.28-.44.16s-.15,0-.43.16-.28.09,0-.15.39-.37.63-.57h.13l0-.11-.07,0c.16-.14.36-.29.6-.47a6.55,6.55,0,0,0,.67-.54l.19-.1c.1,0,.11-.14.14-.21l.08-.09h0s0,0,0-.05l.58-.52.12-.11Zm-1.65-1.67-.12,0a1.88,1.88,0,0,1-.52.08l.07-.06.06-.05a.17.17,0,0,1,.1,0s.13-.1.16-.09A.73.73,0,0,0,109.28,25.15Zm-10-16.9s.08,0,.07-.05A1.52,1.52,0,0,0,99,8.12c-.21,0-.31,0-.3-.06h-.13c0,.07-.1,0-.22,0A.87.87,0,0,0,98,8c-.27.06-.29,0-.35,0s0,0,0,0a.3.3,0,0,0-.17,0s-.11,0-.1,0,.1,0,.13.08,0,0-.06,0a.47.47,0,0,1-.18,0s0,0,0,0l-.07,0-.06,0S97,8,96.83,8a2,2,0,0,1-.39,0c0-.08-.32,0-.43-.06h0l.61-.21c.54-.16.8-.22.79-.27s0-.16-.71,0c-.2,0-.35.08-.34,0A1.64,1.64,0,0,1,97,7.23c.34-.13.48-.17.46-.2s-.16,0-.35,0c-.68.13-.74.11-.65,0s.35-.24.33-.3l.08,0L97,6.66l.44-.11a4.86,4.86,0,0,1,.55-.1,2.61,2.61,0,0,1,.42,0c.35,0,.83,0,1.31,0h.73c.24,0,.47,0,.68,0a7.67,7.67,0,0,1,1.47.23,10.85,10.85,0,0,1,1.95.73l.48.22a2,2,0,0,0,.35.11,3.91,3.91,0,0,1,1.41.72c.07.06.3.21.49.34s.38.23.39.19a3.5,3.5,0,0,1,.4.27A20.79,20.79,0,0,1,110,11a5.23,5.23,0,0,1,.46.57c.27.38.57.82.85,1.29h0s0,.07,0,.11.1,0,.11,0a.19.19,0,0,0,0-.08l.22.38c-.13,0,0,.25,0,.38s0,.25,0,.28-.13,0-.27-.1a1.43,1.43,0,0,0-.21-.11,4.38,4.38,0,0,0-.83-.17c-.1,0-.19-.17-.3-.11s-.51,0-.77-.43a5,5,0,0,0-.47-.79,1.64,1.64,0,0,1-.43-.94.77.77,0,0,0-.25-.51c-.22-.16-.39-.3-.38-.5a.16.16,0,0,0-.07-.12c-.32-.13-.42-.46-.71-.59,0,0-.08-.08-.09-.12a2,2,0,0,1,0-.25c0-.07.09-.15-.08-.19s-.09.09-.12.15,0,.08,0,.11c0,.19-.12.2-.4.16a.74.74,0,0,0-.39,0c-.06,0-.08.08-.12.13,0-.11-.1-.11-.19-.08a.25.25,0,0,1-.32-.11c-.09-.15-.21,0-.28-.09a1.51,1.51,0,0,1-.23-.21h0c-.17-.17-.4-.1-.59-.19s-.09,0-.14,0a.45.45,0,0,0-.6-.2c-.14,0-.17,0-.14-.16a2.24,2.24,0,0,1-.31-.11c-.16-.1-.12.13-.27.09s-.19,0-.29.06-.31.06-.37.14a1.76,1.76,0,0,0-.4-.07,1,1,0,0,1-.23-.07.67.67,0,0,0-.19-.09l-.27-.05a3.31,3.31,0,0,0-.34,0h-.84l-.12-.16c-.06-.07-.06,0-.1,0s-.08.1-.13.11h-.06l-.08-.06h0S99.23,8.26,99.27,8.25Zm-1,9.73h0l-.08,0A.05.05,0,0,1,98.24,18Zm-.09.06a.44.44,0,0,1,.13-.05v0l-.12,0h0Zm.08,0h0a0,0,0,0,0,0,0h0v0h0Zm-.1,0,.08,0h0v0h-.07ZM96.89,19c0-.07,0-.13,0-.2s0-.07-.07-.12a.14.14,0,0,1,0-.11l.08,0a1.15,1.15,0,0,1,.28-.07.6.6,0,0,1,.19,0l-.1.08-.07.06-.06.07c0,.06-.08.1-.12.17a2.09,2.09,0,0,0-.1.21s0,0,0,0S96.88,19,96.89,19Zm2-.05c0-.07,0-.14,0-.2l.06,0s0,0,0,0,0,0,0,0a.09.09,0,0,1,0,.05l.08,0,.06-.05h0a0,0,0,0,1,0,0l-.06.05,0,0h0l.09,0h.16s.08,0,0,0a1.23,1.23,0,0,1-.38.33S98.86,19,98.84,18.91Zm-.09.25h0a.05.05,0,0,1,0,0l0,0Zm-1.61,3,0,0L97,22l0,0s0,0,0-.05v0l.12.06c.06,0,.06-.1.12-.05s0,0,.06,0-.07-.12,0-.15a.23.23,0,0,1,0,0c-.1-.05-.08-.13-.1-.2s-.08-.11-.07-.13,0-.16,0-.23,0-.07,0-.09l0,0h0a.56.56,0,0,1,0-.07c0-.09-.07-.16-.11-.24s0,0,0,0l0,0,.12-.09.22-.17c.16,0,.37,0,.53.06s-.07.14.14.08c.27-.58.45-.93.58-1.15a.14.14,0,0,0,0-.06.48.48,0,0,0,.18-.06c.08,0,.18-.08.26-.13a1.13,1.13,0,0,0,.24-.17l0,0v0a.65.65,0,0,1-.26.43l-.06,0L99,19.5a.37.37,0,0,1-.14.06s0,0,0,0a0,0,0,0,1,0,0l0,0s0,0,0,0l.07.08h0s0,0,0,0h0l0,0h0c-.08,0,0,0,0,.07s0,0,0,0l-.16,0a.07.07,0,0,0,0,.05s0,.08-.11.06a.06.06,0,0,0-.06,0s0,0,0,0,.16.2.3.21.11,0,.11.09a.11.11,0,0,0,.1.11.23.23,0,0,1,.18.08s0,.05,0,.07-.15.06-.19.13a.12.12,0,0,1,0,0,1.71,1.71,0,0,1-.49.1.23.23,0,0,0-.23.12.05.05,0,0,1,0,0c-.08,0-.1.1-.17.13h0a.12.12,0,0,1,0,.11H98a.09.09,0,0,0-.06,0s0,0,0,0h0l-.44.12h-.07l0,0s0,0,0,0h.18l.43,0a1,1,0,0,0,0,.16h0s0,0-.07,0,0,.06,0,.07h-.08s0,0,0,0a.32.32,0,0,1,0,.09s0,0,0,.05l0,0,0,0,0,0v.07s0,.08-.09.05-.06,0-.08,0-.09,0-.12,0,0,0,0,0h0c0,.06,0,.1,0,.17s0,.1,0,.11,0,.09,0,.15,0,.06,0,.09-.15-.18-.26-.33Zm-.36.24a.73.73,0,0,0,0-.12l0,0a.29.29,0,0,1,0,.09Zm.29.74v0C97,23.08,97,23,97,23a.56.56,0,0,1-.07-.17v0h0l0,0v0a.67.67,0,0,1-.11-.14.51.51,0,0,0,0-.09h0v-.05h0l-.06,0h0l0,0h0l-.08,0a1.16,1.16,0,0,0,0-.18l0,0,0,.05s0,0,0,0,0,.06,0,.07,0,0,0,0v0a.15.15,0,0,1,0,.06v0s0,0,0,.05v0l0,0v.08a0,0,0,0,0,.07,0h0l0,.05,0-.06,0,0h0v0h0l0,0a3.12,3.12,0,0,0,.44.09.05.05,0,0,1,0,0v0a.48.48,0,0,1,0,.26s0,0,0,0l0,.06a1.07,1.07,0,0,0,0,.18c0,.07,0,.12,0,0s0-.13-.07-.07a1.16,1.16,0,0,0,0,.17v0h0l0,0h0v-.07l0-.06S97.07,23.11,97.07,23.13ZM92.8,27s0,0,0,0a.13.13,0,0,0,0,.05v0Zm-.13.17.11-.14h0a.24.24,0,0,0,0,.12l0,0a0,0,0,0,0,0,0Z"/><path class="cls-4" d="M86.93,30.61c-.05,0,0,.06,0,.16l.23.16s0,0,0,0S87,30.63,86.93,30.61Z"/><path class="cls-4" d="M111.64,26.25l-.09.23.15-.19a.94.94,0,0,0,.07-.19S111.68,26.2,111.64,26.25Z"/><path class="cls-4" d="M111.26,27l-.06.13.09-.12,0-.12Z"/><path class="cls-4" d="M98.91,19.44l0,0h0l.07,0Z"/><path class="cls-4" d="M96.86,22.6l0,0v0l.07-.05Z"/><path class="cls-4" d="M97.19,22a.43.43,0,0,0,0,.05s0,0,0,0l0-.07Z"/><path class="cls-4" d="M97.17,22.63v.05h0s0,0,0-.05S97.19,22.63,97.17,22.63Z"/><path class="cls-4" d="M97,22.66l0,0h0s0,0,0,0Z"/><path class="cls-4" d="M105.17,8.19a1.07,1.07,0,0,0,.19-.13,1.08,1.08,0,0,0-.2-.16s-.12,0-.18,0-.4-.09-.59-.15-.39.06-.6,0a2.68,2.68,0,0,0-.69,0c-.12,0-.09-.08-.15-.09s-.27,0-.27.16.13.12.19.12.46.13.67,0a.14.14,0,0,1,.09,0,1.14,1.14,0,0,1,.11.11.53.53,0,0,1,.15-.11.47.47,0,0,1,.17,0c.1,0,.28,0,.29,0s.22,0,.31.11a.39.39,0,0,0,.31.05C105,8.28,105.11,8.22,105.17,8.19Z"/><path class="cls-4" d="M110.34,29.28c0,.08.15.11.22.15l.1-.27c.07-.17,0-.2-.12-.26l0,0-.11,0,0,.12C110.36,29.07,110.31,29.21,110.34,29.28Z"/><path class="cls-4" d="M110.86,25.31c0,.06,0,.14-.11.33a1.82,1.82,0,0,0,.21-.21c0-.07.12-.18,0-.21S110.89,25.27,110.86,25.31Z"/><path class="cls-4" d="M101.61,7.59l-.16,0s0,.06,0,.08h.21Z"/><path class="cls-4" d="M103.31,8.55a.17.17,0,0,0,.1,0l-.09-.13-.11.06A.31.31,0,0,0,103.31,8.55Z"/><path class="cls-4" d="M111.31,23l0-.07s0,0,0,0a.16.16,0,0,0,0,.07S111.3,22.94,111.31,23Z"/><path class="cls-4" d="M104.24,33.27h.07s0,0,0,0h-.07S104.24,33.25,104.24,33.27Z"/><path class="cls-4" d="M102.75,8.06l0,0,0,0s0,0,0,0S102.75,8.08,102.75,8.06Z"/><path class="cls-4" d="M110.43,29.86l.07,0v0l-.07,0Z"/><path class="cls-5" d="M163.59,33.28l0,0,0,0Z"/><path class="cls-5" d="M164.64,33.91h0Z"/><path class="cls-5" d="M167.43,35.27c-.32-.2-.9-.49-.37-.38,0,0-.06-.08-.15-.13s-.1,0-.18,0a1.88,1.88,0,0,0-.41-.13,2.51,2.51,0,0,1-.43-.18,2.18,2.18,0,0,1-.27-.15s0,0,.06,0,.37.11.54.15.09-.07-.22-.22l-.56-.28c-.17-.08-.23-.1-.23-.06s0,0,0,0a1.48,1.48,0,0,1-.31-.13,1.91,1.91,0,0,1-.31-.19c-.13-.11-.58-.34-.42-.34l.14,0a2.86,2.86,0,0,0,.31.08s.09,0,.08,0l-.25-.15L164,32.8c.18.08.09,0,.4.13a1.89,1.89,0,0,0,.35.13c.1,0,.12,0-.06-.09s-.14-.11-.16-.14-.08-.08-.11-.1a1.65,1.65,0,0,1-.56-.39,2.39,2.39,0,0,0-.56-.4c-.21-.14-.49-.27-.66-.39a1.79,1.79,0,0,0-.39-.24,2.18,2.18,0,0,1-.27-.11c-.13-.07-.34-.22-.42-.25a1.15,1.15,0,0,1-.5-.36,2,2,0,0,0-.37-.33,4.72,4.72,0,0,1-.59-.45,1.31,1.31,0,0,0-.23-.15,2.14,2.14,0,0,1-.64-.44,1.6,1.6,0,0,0-.44-.3,1.21,1.21,0,0,0-.43-.19l-.2-.11s0-.06,0-.07a.52.52,0,0,1,.19,0,2.83,2.83,0,0,1,.36.15c.15.09,0,0,.31.13s-.17-.16.1,0l.47.3c.07,0-.24-.2,0-.08s.48.21.8.39c.13.07.34.18.34.12s0-.06.32.13H161l-.1,0,.11.08.58.27c.14.07-.19-.17,0,0l0,0c-.26-.22,0-.11.14,0s.38.19.39.17l-.36-.29-1-.76a7.32,7.32,0,0,0-.7-.5s-.12-.06-.12,0,0,0,.07.08c.28.21.54.42.84.62s.13.14.11.15-.18-.09-.28-.15l-.16-.13a4.78,4.78,0,0,0-.87-.54,1,1,0,0,1-.19-.12c-.17-.14-.25-.27-.09-.18.4.2.28,0,.15-.1s0-.07.12,0l.17.07c.05,0,0,0-.1-.09a.79.79,0,0,0-.13-.12h0a.57.57,0,0,1-.08-.08l.09.05,0,0,0,0h0a1.7,1.7,0,0,0,.55.27c.22.09.05-.06,0-.13S160,28,159.9,28c-.36-.25-.66-.5-1-.74a1.62,1.62,0,0,1-.2-.18l-.32-.25c-.42-.34-1-.7-1.36-1a4,4,0,0,0-.4-.26c-.35-.21-.7-.39-1.07-.63a1.51,1.51,0,0,0-.26-.15,4.41,4.41,0,0,1-.43-.22l-.47-.26-.61-.33c-.19-.11-.37-.18-.56-.27a5.17,5.17,0,0,1-.62-.3,1.22,1.22,0,0,1-.42-.39s0-.11.21.08a1.78,1.78,0,0,0,.45.24h.11l-.19-.12-.26-.13a.75.75,0,0,1-.28-.17.57.57,0,0,0-.11-.11,1,1,0,0,0-.42-.29c-.62-.26-1.41-.68-2-.93a4.48,4.48,0,0,1-.44-.22l-.31-.17a4.94,4.94,0,0,1-1-.54c-.3-.19-.35-.24-.26-.25s.11,0,.13,0,.76.37,1,.43a3.8,3.8,0,0,1,.49.25c.4.22.69.33.73.27s-.14-.21-.33-.37c-1.26-.62-2.49-1.31-3.67-2a72.92,72.92,0,0,1-7.19-5L137,12.65c-.3-.2-.56-.39-.8-.58-.07-.06-.16-.11-.24-.17s-.46-.25-.54-.23-.18-.08-.27-.17l-.27-.29-.09-.07a.86.86,0,0,1,.19.11,3.59,3.59,0,0,1,.57.4l.19.12a.65.65,0,0,0-.08-.09,5.74,5.74,0,0,0-.64-.54c-.17-.14-.35-.26-.53-.4s0-.05-.08-.14a3.89,3.89,0,0,1-.55-.4l-.23-.2-.31-.23a.56.56,0,0,1-.12-.13,3.15,3.15,0,0,0,.41.13,2.72,2.72,0,0,1,.4.12c-.37-.31-.74-.64-1.11-1h0C131.56,8,130.33,7,129.13,6c-1.48-1.24-2.93-2.51-4.47-3.68h0s-.49-.31-.69-.45l-.3-.24-.32-.22c-.2-.14-.4-.28-.57-.42l-.49-.35L121.5.17l-.09-.06-.15-.06H121l-.37,0-.7,0h-.76c-.14.09-.29.19-.43.3h0a1,1,0,0,1-.15.23l-.1.14-.13.14h0l-.11.12-.1.09-.05.08-.12.2a.87.87,0,0,1-.49.55.61.61,0,0,1-.54-.1l-.15.08-.15.08,0,0s0,0,0,0l-.12,0h0a6.81,6.81,0,0,1-1.29.21l-.06,0-.11,0,0,0h0l0,0-.39.16h0s0,0,0,0h0l-.06,0-.13,0a1.33,1.33,0,0,0-.31.18l-.17.14s0,0,.18-.08l-.35.3-.17.15a2.11,2.11,0,0,0-.15.15,4,4,0,0,0-.49.34l-.32.23-.31.23c-.18.14-.31.27-.26.28.21,0-.06.38,0,.53s-.16.23-.42.47l-.64.57c-.25.29-.53.57-.8.84a5.47,5.47,0,0,1,.5-.36l.11-.08.29-.19a2.67,2.67,0,0,1-.26.3c-.33.29-.48.52-.73.75s-.56.56-.86.84l-.93.87-1.6,1.52a5.93,5.93,0,0,0-.43.44,13.26,13.26,0,0,1-1.25,1.23h0a3.38,3.38,0,0,0-.36.27,2.68,2.68,0,0,1-.49.4c-.18.13-.32.23-.16,0,0,0,0-.11-.16.08s-.51.38-.42.24,0-.06-.13,0a1.34,1.34,0,0,1-.42.33,3.45,3.45,0,0,0-.3.24c-.11.07-.18.09-.28.16a2.59,2.59,0,0,0-.21.18c-.07,0-.19.17-.21.17s-.26.17-.48.38a6.8,6.8,0,0,0-.61.57c-.2.25-.3.25-.44.4l-.07,0c-.27.27-.56.53-.8.81a3.62,3.62,0,0,1-.48.49c-.08.07-.22.26-.35.38s-.3.27-.45.41-.16.18,0,.09,0,0,0,0a5.23,5.23,0,0,1-.58.7,3,3,0,0,0-.26.28A.48.48,0,0,0,97,19s0,0,0,.05-.1.15-.19.22a.48.48,0,0,0-.17.18s-.07.13,0,.1.22-.08.13.06a3.79,3.79,0,0,1-.53.53c-.25.23-.49.43-.73.64s-.31.26-.47.41L95,21.3l-.07.09s-.28.4-.23.41.29-.26.45-.4.24-.13.47-.34a2.48,2.48,0,0,1,.36-.24c.06,0,.16-.08.13,0a2,2,0,0,1-.3.4l-.33.32c-.42.42-.73.63-1.1,1l-.14.12.15-.16.35-.36c.1-.11.19-.21.16-.22s0-.07-.15.08-.4.36-.59.52l-1.1,1c-.21.18-.39.37-.56.52a5.41,5.41,0,0,0-.49.38,9.05,9.05,0,0,1-.87.76l-.33.31c-.12.09-.08,0-.29.19a9.52,9.52,0,0,1-1.25,1,2.07,2.07,0,0,0-.27.2c-.46.45-.92.77-1.38,1.17-.21.18-.42.34-.63.5l-.63.46c-.36.26-.7.46-1,.71s-.59.41-.88.6-.59.39-.88.56-.55.33-.83.51c-.08.05-.17.13-.26.2a1.3,1.3,0,0,0,.19-.06l.29-.2a4.53,4.53,0,0,0,.8-.45c.29-.22.51-.32.81-.54s.48-.33.68-.45.48-.34.67-.46a14.73,14.73,0,0,0,1.3-.95L87.7,28a1.66,1.66,0,0,1,.42-.23s0,0,0,0a.69.69,0,0,1-.15.14c-.24.19-.47.37-.71.54a1.06,1.06,0,0,0-.12.1.09.09,0,0,0,.08,0c.29-.2.58-.42.87-.64a6.81,6.81,0,0,1,.62-.44,2.41,2.41,0,0,1,.45-.25c.13,0,.41-.28.45-.25s.27-.14.41-.21a8.83,8.83,0,0,0,.9-.64.15.15,0,0,1,.08,0l-.1.1-.12.12-.09.1.1-.07.34-.34c.34-.36.69-.74,1.06-1.11a6.23,6.23,0,0,0,.67-.72.9.9,0,0,1,.17-.17c.2-.18.37-.33.53-.45a4.38,4.38,0,0,0,.58-.5l-.26.18a2,2,0,0,1-.28.21c-.07.05-.17.09-.14,0a1.86,1.86,0,0,1,.29-.27L94,23c.65-.62,1.28-1.2,1.85-1.65a2.68,2.68,0,0,1,.3-.23c.07,0,.42-.3.8-.6s.78-.65.95-.81.37-.29.39-.24.11-.05.25-.21c.3-.34.3-.34.48-.42l.18-.11c.19-.17.38-.36.57-.52s.28-.19.25-.12a1.26,1.26,0,0,1-.3.31,13.52,13.52,0,0,1-1,.93l-.81.73-.77.69c-.33.3-.65.56-1,.85l-1.21,1.07-.8.69-.16.18c0,.05-.07.11,0,.1a1.33,1.33,0,0,0,.24-.2c.28-.28.5-.43.75-.66s.43-.35.63-.55c.38-.4.68-.63,1-.94.12-.11.23-.18.35-.29.34-.33.66-.61,1-.88l.46-.4.49-.4c.39-.32.75-.58,1.15-.92s.83-.71,1.24-1.06,1-.79,1.46-1.22c.16-.14.34-.25.47-.38.4-.4.64-.51,1-.84a0,0,0,0,1,.06,0l-.08.1-.18.17a6.85,6.85,0,0,0-.56.5,3.61,3.61,0,0,0-.52.51,3.84,3.84,0,0,0-.46.45,8.91,8.91,0,0,1-.69.68,4.64,4.64,0,0,0-.4.36c-.47.48-.91.81-1.37,1.26-.37.28-.8.7-1.21,1.08a8,8,0,0,0-1.09,1.2c0,.1.22-.09.37-.23l1.21-1.12,1.37-1.28c.54-.51,1.06-1,1.59-1.45s1.18-1.05,1.75-1.49a17.1,17.1,0,0,0,1.44-1.24c.06-.06.15-.11.2-.16s.09,0,.08,0-.07.09-.12.14l-.93.88-.92.82a5.66,5.66,0,0,0-.45.49c0,.07.14,0,.33-.2l.18-.16a13.37,13.37,0,0,1,1-.91,11.38,11.38,0,0,0,.85-.76A19.7,19.7,0,0,1,107.33,13s.26-.2.18,0-.11.31,0,.31,0,0,.08,0c.38-.28.46-.2.87-.53,0,0,.07,0,.06,0-.15.19,0,.08.12,0a1.81,1.81,0,0,0,.37-.36.94.94,0,0,1,.31-.33c.11-.06-.06.12-.12.2a2.36,2.36,0,0,1-.28.31c-.19.2-.34.39-.53.59a6.32,6.32,0,0,1-.58.63l0,0c.26-.18,0,.08-.06.17s-.09.19.15,0,.33-.27.45-.4a6.75,6.75,0,0,0,.61-.67c.21-.27.57-.67.51-.75l.05-.07.07,0s0,.07.06,0,.19-.14.26-.18A8.61,8.61,0,0,0,111,11c.27-.25.49-.54.74-.81s0-.22.37-.53c0,0,0,0,0,0l-.24.09c-.11,0-.09,0,.13-.19s.51-.44.77-.67a1.54,1.54,0,0,0,.12-.13l-.1.08c-.34.32-.61.48-.91.74a4,4,0,0,1-.69.45c-.15.1-.08-.05.12-.26l.58-.62a3.45,3.45,0,0,1,.82-.74,13.75,13.75,0,0,0,1.43-1.11,6.15,6.15,0,0,1,1.13-.86l.2-.15a.7.7,0,0,1,.14-.08l.26-.11c.27-.12.21,0,.22,0s0,.08.09.09a1,1,0,0,0,.28,0l.12,0a6.37,6.37,0,0,0,.65-.17,4,4,0,0,0,1-.54l.06,0,.22-.14.16-.13a1.5,1.5,0,0,0,.21-.26c.09-.16.12-.28,0-.28s-.08,0,0-.13a1.19,1.19,0,0,0,.16-.23c0-.09.1-.17.14-.26a1.76,1.76,0,0,0,.09-.2c0-.08.07-.14.09-.21s0-.13.06-.21,0-.16,0-.24v0h0l0,0,.06,0,.12.08.23.13a2.18,2.18,0,0,1,.41.3,1.23,1.23,0,0,0,.47.32l.14.09a.53.53,0,0,1,.11.11,1,1,0,0,0,.2.3s0,.06,0,.07-.06.13.13.31l.54.51.27.26.14.13,0,0,.05,0,.1.09a2,2,0,0,1,.57.53,5.73,5.73,0,0,0,.66.67l.73.66.09.09h.06a.13.13,0,0,0,0-.09c-.05-.11.25,0,.5.23s.46.36.64.53a2.17,2.17,0,0,0,.52.37,3.46,3.46,0,0,1,.8.57,1.23,1.23,0,0,0,.45.3c.08,0,.5.22.44.07s.09,0,.17,0a1,1,0,0,1,.2.13c.12.09.22.19.33.28l0,0s-.26-.23,0,0a3.46,3.46,0,0,0,.55.39c.13,0-.43-.32-.43-.4l-.13-.1c-.21-.18-.06-.16-.36-.38l.27.1c.14.06.37.22.43.23a2.88,2.88,0,0,1,.47.26,4.07,4.07,0,0,1,.56.34,6.36,6.36,0,0,1,.53.44l.3.24.55.41c.15.11.12.11,0,.06s0,0-.08,0-.3-.17,0,.07l.45.33.46.31a1,1,0,0,1,.15.11s0,.13-.17.1-.5-.07-.54,0,0,.07-.09,0-.31-.11-.45-.16a.5.5,0,0,1-.14-.08c-.26-.2-.4-.22-.55-.34s-.16,0-.41-.22-.35-.24-.52-.35l-.18-.12c-.11-.06-.23-.13-.11,0l.17.18c.21.2.29.31.22.34s-.05,0,0,.11.3.43.45.65a1.74,1.74,0,0,0,.13.15s.07,0,.08,0-.07-.08-.06-.1a.34.34,0,0,1,.09-.19.7.7,0,0,1,.21.11.65.65,0,0,1,.17.17c0,.05,0,.1-.07.06s-.05,0,0,.08a.48.48,0,0,0,.11.09,4.18,4.18,0,0,1,.49.42c.2.17.23.23,0,.14,0,0,0,0,0,0,.48.34.14.16,0,.09l-.22-.1c-.11,0,0,.06.16.2.38.29.8.56,1.22.83s.3.2.13.16-.06,0-.07,0,.07.15.2.27.25.26.23.31,0,0,0,.1a2.88,2.88,0,0,0,.39.27c.45.28.83.58,1.26.87.25.17.27.19.13.15s-.23-.09-.21-.06a1.93,1.93,0,0,0,.25.25,2.06,2.06,0,0,0,.4.31l.64.42c.26.18.49.39.34.35s0,0,.11.11l.45.27a10.08,10.08,0,0,0,1.26.72,4,4,0,0,1,.49.28l1.64,1c.25.15.49.29.74.46l1.21.81a21.89,21.89,0,0,0,2,1.24,2.69,2.69,0,0,1,.57.38.92.92,0,0,0,.44.4h0c-.23-.1-.09,0,.08.1s.38.21.35.26,0,0,.11.08l.18.12a2,2,0,0,0,.32.17l.32.17a.23.23,0,0,0,.07.11l.19.15.58.37,0,0h0l-.39-.21c-.52-.33-1-.6-1.56-.94L145,24c-.13-.09-.24-.18-.37-.26s-.3-.17-.34-.21a2.92,2.92,0,0,0-.63-.39c0,.05,0,.05-.28-.11a1.24,1.24,0,0,0-.2-.1.64.64,0,0,1,.12.12s0,.07-.05.1a.74.74,0,0,0,.12.09c.45.26.9.52,1.37.82a2.84,2.84,0,0,1,.52.37,2.93,2.93,0,0,0,.42.33,2.73,2.73,0,0,0,.53.33l.52.42.15.12a.8.8,0,0,0,.19.11s-.2-.16,0-.06l.18.09.2.1a1.43,1.43,0,0,1,.2.14c.12.1,0,0-.09,0l-.14-.07s0,0,.08.06l.45.27c.34.16.73.38,1.08.56.19.09.41.22.61.33a3,3,0,0,0,.51.22l.13.08c.14.08.3.15.45.22a1.58,1.58,0,0,1,.42.27l.16.08c.13,0,.45.29.45.2.22.13.44.25.65.39a6.1,6.1,0,0,0,.79.47l.42.23a4.23,4.23,0,0,0,.42.22c.24.12.53.39.86.6a3.23,3.23,0,0,0,.51.34l.16.12c-.06,0,.15.16.29.25a5,5,0,0,1,.66.44,5.82,5.82,0,0,1,.79.54,4.31,4.31,0,0,0,.61.37l.62.35.17.09-.19-.13c-.12-.09-.24-.18-.35-.28h-.08l-.35-.27.13,0c-.09,0-.2-.14-.24-.16a3.27,3.27,0,0,1-.67-.46h.12s0,0,0-.08l-.2-.15.18.11.09.07-.07,0,.34.23.11.05,0,.05c.12.08.3.19.27.22a.65.65,0,0,0,.11.09c0-.09.36.19.52.28.51.29,1,.47,1.47.76.05,0,.05,0,.07,0l-.07,0c-.39-.26-.38-.26-.32-.31s0,0-.15-.11l-.71-.35a14.23,14.23,0,0,1-1.81-1.09.67.67,0,0,1-.14-.12c.15,0,0-.16.32,0s.55.23.87.39a.44.44,0,0,0,.14,0l-.24-.17c-.08-.07-.22-.15-.26-.19a2,2,0,0,0-.65-.41l-.38-.18a3.32,3.32,0,0,1-.4-.21c-.37-.32-.38-.2-.57-.31a.27.27,0,0,0-.11-.05,2.3,2.3,0,0,1-.42-.28c-.05-.07.11,0,.22.06.65.38,1.11.56,1.63.81l.09,0c-.28-.23.17,0,.11,0a6.59,6.59,0,0,1,.63.38c.16.11.34.2.46.27a11.07,11.07,0,0,1,1.4,1,4.15,4.15,0,0,0,.87.52l.27.13c.24.19.59.38.81.59a7.62,7.62,0,0,0,1.36.86c.36.17.73.33,1.08.48l.52.22L165,35c.09,0,.21.06.2,0s.22,0,.54.08.16,0,.2,0,.55.2.56.16.3,0,.72.2l.14,0-.14-.07c-.11-.06-.38-.16-.29-.15a.78.78,0,0,1,.5,0C167.68,35.42,167.64,35.4,167.43,35.27Zm-6.19-5.48.08.05-.07,0-.06-.05Zm-1.42-.85s.06.06.05.06-.05,0-.08,0l-.07-.08Zm0-.87,0,.05-.09-.06-.05,0Zm-.45.33a.1.1,0,0,0,0,.05l-.06,0s0,0,0,0Zm-.57-.25.15.12-.12-.06-.16-.13ZM101.64,16.79l0,0,0,0,0,0Zm2-2.27c-.05.09,0,.12-.27.34l-.12.12a6.39,6.39,0,0,1-1,.78c-.06,0-.15.13-.21.18s-.19.16-.09,0a3.34,3.34,0,0,1,1-1c.14-.11.32-.26.45-.35S103.74,14.4,103.68,14.52Zm1.06-1.86a4.22,4.22,0,0,0-.35.56s-.09.12-.08.13-.21.33-.43.55l-.37.35-.09.06c.22-.27.13-.28.22-.44s.11-.2.52-.56c0,0,.1-.11.16-.17l-.08,0-.27.22c-.24.19-.24.15,0-.12s.32-.37,0-.2a.24.24,0,0,1-.11.06s0,0,0-.05l.15-.15a2.79,2.79,0,0,0,.3-.15c.09-.05.06,0,.28-.19C104.68,12.62,104.79,12.59,104.74,12.66Zm.59,1-.19.2-.32.19s0,0,0,0c.2-.17.39-.34.62-.52Zm.4-.25-.07,0,.1-.22.31-.24S105.92,13.24,105.73,13.42Zm2.93-1.89-.17.13-.35.32c.09-.1.16-.2.26-.3a1.94,1.94,0,0,1,.43-.37h0Zm4.39-7.91-.4.44a1.39,1.39,0,0,1-.3.29c-.07.05-.08,0-.11,0a1.27,1.27,0,0,1,0-.26,2,2,0,0,1,.2-.19l.32-.22C113.14,3.45,113.23,3.41,113.05,3.62ZM121,4l-.11,0-.16-.14.21.08L121,4l0,0Zm23.92,17.36,0,0h-.06s0,0,0,0Zm-1.81-2a.83.83,0,0,0,.22.1c0-.07.28.08.57.28,0,0,0,0,0,0l-.17-.14c.08.06.2.12.26.17a1.48,1.48,0,0,1,.24.21c0,.05,0,.06.2.21s.1.13-.08,0-.45-.24-.56-.29c-.89-.52-1-.55-1-.58a.28.28,0,0,1,0-.09l.13.07.15.12a2.67,2.67,0,0,0,.58.28.94.94,0,0,0-.12-.09l-.18-.1-.64-.34,0,0S142.83,19.25,143.08,19.39Zm.29.72c-.31-.22-.41-.33-.44-.42s0,0,0,0a.57.57,0,0,1,.13.08c.07.05.14.12.21.16.4.25.29.24.27.28a1.64,1.64,0,0,0,.27.24,4.86,4.86,0,0,0,.41.27l.12.09-.15-.08-.32-.18C143.52,20.33,143.44,20.26,143.37,20.11Zm.26.49-.2-.11,0,0a.47.47,0,0,1,.12.07Zm-.58-.91h.06l.09.07,0,0Zm.58.38.06,0,0,0s0,0,0,0Zm-.85-.33-.06,0,0,0,.06,0Zm-1.65-.83c.39.25.64.47.94.7s.3.25.46.38a6,6,0,0,0,.58.35l.19.14a1.44,1.44,0,0,0-.2-.11,2.34,2.34,0,0,1-.63-.31,3.13,3.13,0,0,0-.36-.19,5.51,5.51,0,0,1-1-.64c-.09-.07-.22-.15-.33-.22s-.21-.15-.19-.18.1,0,.3.13.26.15.3.16,0-.05-.16-.15-.09-.09-.14-.12c-.28-.18-.21-.18-.17-.2s.18.11.29.17Zm-5-3.85.15.11-.2-.11c-.3-.18-.49-.37-.77-.55a7.63,7.63,0,0,1-.69-.49l-.25-.18c.1.06.2.11.31.19a2.21,2.21,0,0,1,.32.22C135.34,14.52,135.87,14.78,136.16,15.06Zm-3.37-4.17.23.17,1,.78.29.22.13.07s0,0-.05-.06c-.4-.3-.53-.49-1-.81-.2-.13-.23-.19-.07-.14s0,0,0-.09c-.23-.19-.13-.19-.21-.28s0-.09.4.13l.28.19,1,.67.11.09.67.58c.06.05.13.13.1.12-.35-.14,0,.15.17.28l.1.13c-.22-.13,0,.11-.26-.07-.1-.07-.19-.12-.09,0a3,3,0,0,1,.25.24c0,.05,0,.05,0,.07s-.22-.14-.32-.22a.87.87,0,0,1-.14-.12c-.11-.11-.15-.13-.18-.11s-.24,0-.5-.2-.33-.22-.39-.24-.05,0-.07.06,0,.06,0,0l-.39-.15-.18-.2a.46.46,0,0,0-.07-.07c-.36-.25-.19-.17,0-.1a2.4,2.4,0,0,0,.32.13s0,0,0,0l-.2-.12c-.26-.2-.52-.4-.76-.6-.06,0-.09-.09-.08-.1s.06-.08,0-.23S132.76,10.89,132.79,10.89Zm-1.08.76-.62-.49-.4-.3c-.66-.54-.91-.83-.92-1,0,0,0,0,.06,0s.26.16.36.24,0,.08.06.13a.81.81,0,0,0,.25.32,13.47,13.47,0,0,0,1.3,1.09l.17.17Zm.65.36a.86.86,0,0,1-.21-.17,2,2,0,0,0-.16-.23,1,1,0,0,0-.34-.25c-.11,0,0,0,0,.06s0,0-.22-.1-.25-.21-.16-.21.11,0-.11-.13-.3-.22-.25-.24.25.14.37.23.29.19.27.1,0,0,.05,0l.5.23a5.15,5.15,0,0,1,.82.53s0,0,0,0l-.11,0c-.22-.08-.22-.05,0,.13l.89.73c.19.14.14.12,0,.09A9.27,9.27,0,0,1,132.36,12Zm.65,2.35c-.27-.15-.26,0-.43-.14s-.49-.23-.75-.36a3.1,3.1,0,0,1-.49-.39,1.13,1.13,0,0,0-.11-.22s-.12-.12,0-.05.29.15.1,0a.94.94,0,0,1,.25.09,10.94,10.94,0,0,1,1.36,1l.08.09S133,14.36,133,14.36Zm-.48-.61c-.1-.08-.12-.14-.23-.23s-.29-.21-.4-.31-.09-.1-.05-.09a3.49,3.49,0,0,1,1.15.66c.31.24.58.46.5.5s.12.13.2.2l0,0A6.84,6.84,0,0,1,132.53,13.75Zm2,2.37-.68-.33-.19-.11a.15.15,0,0,1,0-.08c0-.07.12,0,.42.16l.35.23.14.09.11.09Zm.43-1.37-1.06-.6-1.06-.59-.07,0-.4-.27a2.24,2.24,0,0,1,.26.1l.31.16s-.11-.1-.1-.11.07,0,.12,0l.22.07c.21,0,.21,0,.69.36,0,0,.16.12.18.15a4.24,4.24,0,0,0,.9.71l.18.13A1.3,1.3,0,0,1,135,14.75Zm.52.08-.4-.25-.25-.18.19.08c.2.09.05,0-.07-.09l-.05,0h0l.7.46a6.39,6.39,0,0,1,.69.49c.3.16.64.41.91.56s.6.4.84.51a.5.5,0,0,1,.1.13s-.09,0-.09,0a7.25,7.25,0,0,0,.63.64.8.8,0,0,0,.25.18c.1.05.14.06.05,0s-.05-.09-.07-.13,0,0,.11,0,.28.19.29.15.11,0,.17,0c.34.21.63.36.95.54a4.25,4.25,0,0,1,.45.31c.13.13-.19-.06-.22,0s-.53-.21-.46-.06-.1,0-.21-.08c-.45-.24-.93-.53-1.42-.85a4.42,4.42,0,0,0-.52-.31c-.4-.3-.87-.6-1.23-.89-.08-.07-.15-.15-.14-.16s-.19-.22-.33-.34a1.54,1.54,0,0,0-.13-.12l.19.12.05,0-.05-.06C136.13,15.24,135.82,15,135.49,14.83Zm3.26,2.62-1-.56-.37-.21c-.19-.14-.42-.25-.42-.32s-.17-.18.13,0a2.91,2.91,0,0,1,.54.25,5.86,5.86,0,0,1,.56.32c.57.35,1.15.74,1.7,1l.13.09s0,0-.06,0C139.55,17.87,139.21,17.71,138.75,17.45Zm.05.39a5,5,0,0,1-.82-.44c-.18-.11-.25-.18-.16-.16a1,1,0,0,0,.15,0c.05,0,.09,0,.31.08a1.68,1.68,0,0,0,.3.15c.16.08.17.1.17.14a.31.31,0,0,0,.06.06C139.19,18,139.19,18,138.8,17.84Zm1.29,1.32.18.14-.26-.16-.17-.12A2,2,0,0,1,140.09,19.16Zm-3.66-2.67-.06,0,0,0,0,0ZM137.5,18a5.74,5.74,0,0,1-.71-.44l-.34-.23a.07.07,0,0,1,0-.05l.05,0c.33.22.63.37.94.56.1.06.26.16.26.2A.73.73,0,0,1,137.5,18Zm1,.42a6.13,6.13,0,0,1-1-.62c-.11-.08-.37-.28-.62-.44s.09,0-.24-.22a2.44,2.44,0,0,1-.37-.27c-.05,0-.12-.11-.09-.11a.86.86,0,0,1,.21.11c.22.13.45.28.63.41.47.36,1,.7,1.47,1.05a.45.45,0,0,1,.14.11S138.59,18.4,138.54,18.37Zm3.85,2.47s-.06-.08,0-.07l.21.11s0,0,.05.05Zm.62.3,0,0,.05,0,0,0Zm.44.25,0,0h.05l0,0Zm.44.26-.23-.18.12,0,.31.25Zm.81.41a.67.67,0,0,1-.12-.06l-.15-.09.13,0,.18.12.13.1Zm.48.14-.34-.14L144.7,22s0,0,0,0l.39.18a.77.77,0,0,1,.13.09S145.2,22.21,145.18,22.2Zm.57.27,0,0,.1.05s0,0,0,0Zm.48.17a6.14,6.14,0,0,0-.77-.43c-.18-.06-.44-.21-.62-.27s-.51-.26-.53-.19a2.41,2.41,0,0,1-.55-.3,2.32,2.32,0,0,0-.6-.37l-.23-.09c-.25-.12-.48-.22-.83-.42a2.93,2.93,0,0,0-.82-.41s-.32-.18-.48-.26a1,1,0,0,0-.25-.1c-.06,0,.09.09.2.17s.05.06,0,.07,0,.07.21.19a2.11,2.11,0,0,1,.22.17c.1.08.14.13,0,.08a5.89,5.89,0,0,1-.93-.5l-.35-.24a2.79,2.79,0,0,1-.44-.31,1.91,1.91,0,0,1-.14-.21s0,0,.07,0,.26.14.38.22a.6.6,0,0,0,.28.13c.18.07.11,0-.08-.1l-.56-.37.32.15-.18-.13a4,4,0,0,1-.56-.3l-.33-.23c.13.07.26.12.38.2l.51.33.19.09,0,0a.92.92,0,0,1-.16-.13s0-.09.14,0,.28.11.38.24l.18.13.57.26s0,0,0,0,0,0,.07,0l.29.19-.31-.15.08.06h0a2.62,2.62,0,0,1,.4.2l0,0-.08,0-.36-.2-.53-.25c.28.19.56.35.85.53,0,0,.05,0,0,0s0-.06.06,0l.43.2-.55-.36-.11-.09a.93.93,0,0,1,.1.05l.31.16c.18.09.42.23.38.13s.05,0,.08,0c.41.24.58.24.92.44s.24.05.49.21.31.11.54.22a3,3,0,0,0,.49.2,2.82,2.82,0,0,1,.78.41s.11.11.09.1a2.59,2.59,0,0,1-.87-.36.88.88,0,0,0-.22-.1l.22.16a2.72,2.72,0,0,0,.69.4,2.08,2.08,0,0,1,.38.25l.35.26.35.25.11.09Zm-2.44.64a.47.47,0,0,1,.12.07l.11.09-.19-.11Zm.31.32-.19-.13s0,0,0,0a1.22,1.22,0,0,1,.19.12S144.1,23.59,144.1,23.6Zm12.81,7.79.09.07-.06,0-.08-.07Zm1,.37.37.21.17.17-.18-.11-.21-.14-.14-.09-.18-.14Zm-1.16-1.09a1.27,1.27,0,0,1,.12.1l-.34-.2,0-.06Zm-.5-.3a.61.61,0,0,1,.07.1l-.11,0a.28.28,0,0,1,0-.08S156.18,30.37,156.2,30.37Zm-.25,0,.11.11H156l-.22-.19Zm0,.18.05.06-.2-.13,0-.05Zm-.21,0,.09.07,0,0-.09-.07Zm-.12-.35,0,0h-.05l0,0Zm-.4-.06.09.07-.05,0-.09-.07Zm3.17-2.32,0,0,.1.06,0,0Zm0-.13.15.12-.11-.06-.17-.13Zm-.15-.2.05.05-.06,0a.14.14,0,0,0,0,0Zm-1.43-.65c.16.06.52.3.49.19l.25.16s.1.1.1.12-.16,0-.35-.15-.28-.16-.09,0l.07.07-.22-.08-.18-.16a.6.6,0,0,1-.11-.14S156.73,26.75,156.77,26.76Zm.83.56,0,0s0,0,0,.05l-.05,0Zm0,2.33-.1,0,0,0,.09.05Zm-.79-1.9.35.15a.85.85,0,0,1,.36.24c0,.07,0,.11-.08.11a2.76,2.76,0,0,1-.56-.34,1.37,1.37,0,0,1-.2-.16S156.75,27.73,156.82,27.75Zm-.5-.09,0,0h0c.12,0,0,0,0-.05s.2,0,.29.11.27.23.25.24-.23-.14-.38-.22l-.17-.08h0l-.16-.09s-.06-.05-.09-.08Zm-1.77-2.51.12.1-.2-.11,0-.06Zm-5.85,1.09.12.06h0l0,0,.1,0-.07,0,0,0c.08,0,.1,0,.09,0l-.07,0h0l-.06,0h0l-.1,0Zm-.87-.6.22.15-.21-.11-.2-.13Zm.27.62h0l-.06,0h0l-.1,0s0,0,0,0l.11.06h0l0,0,.1,0-.07,0,0,0a.23.23,0,0,1,.09,0Zm.45.24-.19-.13.27.14.19.13Zm.64.34s0,0,0,0l.1.05.05,0Zm.65.32,0,0h0l.05,0Zm.42.24,0,0,.19.09s0,0,.06.06Zm.68-.11a.66.66,0,0,0-.36-.07,1.84,1.84,0,0,1-.38-.09L150,27l-.14-.07-.15-.07a7.05,7.05,0,0,0-.77-.37,4.1,4.1,0,0,1-.55-.28l-1.09-.62s0,0,0,0l.19.14-.18-.1-.15-.09-.2-.13c-.08-.06-.18-.14-.16-.14a.63.63,0,0,1,.21.08l.32.2a1.68,1.68,0,0,0,.3.15c.77.46,1.38.72,2,1l.11.06.1,0L150,27a.57.57,0,0,0,.22,0,1,1,0,0,1,.54.18.94.94,0,0,1,.18.11S151,27.31,150.94,27.29Zm.1-1.79c-.19-.11-.38-.21-.59-.31a3.58,3.58,0,0,1-.44-.26c-.11-.07-.18-.14-.27-.2a.72.72,0,0,1,.22.08c.29.17.4.22.47.19s.34.16.52.23l.33.12a1.36,1.36,0,0,0,.17.18,1.52,1.52,0,0,0,.23.16c.15.09.3.15.46.23l-.07-.06-.11-.07-.06,0,.28.1a3.48,3.48,0,0,1,.35.19c.1.07.18.14.28.2.25.16.56.32.75.46a6.1,6.1,0,0,0,.59.37,2.34,2.34,0,0,0,.61.33,3.27,3.27,0,0,1,.57.34s0,0,0,.05c-.32-.22-.17-.06-.28-.1l-.42-.2c-.05,0-.07,0-.11,0a8,8,0,0,0-1-.52c-.51-.34-1-.51-1.51-.85l-.48-.27Zm.72,2.33-.17,0-.09,0,0,0c0-.05.1,0,.22,0l0,0S151.77,27.83,151.76,27.83Zm1.79.47a1.18,1.18,0,0,0,.16.08l.13,0c-.2-.17,0-.08.1,0a5.31,5.31,0,0,1,.62.37l.15.12h0a5.81,5.81,0,0,1-1-.52Zm.29.89s0,0-.05-.05l.19.11.05.07Zm.89.45-.08-.06,0,0a.27.27,0,0,1,.08.07Zm1.52-.22c-.06,0-.11-.1-.17-.15l.19.1.23.17A1.47,1.47,0,0,1,156.25,29.42Zm1.61.53c-.29-.13-.65-.37-1.24-.73-.37-.23-.71-.48-1.06-.69s-.39-.19-.21,0-.19,0-.06.1l-.25-.15c-.17-.11-.21-.16-.12-.13s.09,0,0-.09-.11-.16.1-.08.05,0-.12-.12a2.79,2.79,0,0,0-.65-.36l-.31-.16c-.1-.06-.24-.15-.31-.18A2.34,2.34,0,0,1,153,27c-.12-.09-.38-.22-.41-.31a.87.87,0,0,0-.4-.26l-.28-.11-.38-.21s0-.06.1,0a1.84,1.84,0,0,1,.46.21l1.1.61a10.93,10.93,0,0,1,1.1.68,9.71,9.71,0,0,1,1,.66l.24.14.67.44c.19.12.42.29.48.26h0l.06,0,.18.12c.14.08.28.18.31.2l.6.42C158,29.94,158,30,157.86,30Zm-.17-2.74-.17-.14.25.15.17.13Zm.38.3.06,0,0,0,0,0Zm2.76,4.62-.09-.07,0,0,.1.07Zm.06-.13a.12.12,0,0,1,0-.05l.2.12s0,0,.06.06Zm5.78,2.77.05,0-.11,0s0,0-.05,0Zm-.54-.11c.26.13.39.21.35.24h-.06l-.11-.06-.1-.07-.19-.16Zm-.21-.07-.24-.1c-.12-.06-.29-.12-.31-.17h.09Zm-.46-.36.13.09-.22-.1-.12-.07Zm-.32-.09.07,0-.09-.06h-.05l0,0,.06,0-.06,0-.15-.08.09,0C165,34,164.94,34,165,34h0s0,0,.06,0,0,0,0,.05h0l.08,0ZM165,33.9l.13.09-.22-.09,0,0Zm-.66-.44,0,0-.06,0,0,0Zm-.4-.31.05.07-.22-.1-.11-.07Zm-.33-.21,0,0-.06,0,0,0Zm-.22,0s0,0,0,.05l-.06,0s0,0,0,0Zm0,.06.3.17.05,0a.11.11,0,0,1-.07,0,2.53,2.53,0,0,1-.23-.12l-.27-.17Zm-1.5-.59a.1.1,0,0,1,0,0l-.06,0,0,0Zm-.17-.44.09.07-.06,0-.09-.07Zm0,.13,0,0,0,0,0,0Zm.34.8,0,0,.05,0s0,0,0,0Zm.3-.15-.25-.11-.15-.09s0,0,0,0l.17.07-.07,0c-.27-.12-.19-.07-.11,0l-.25-.07-.32-.28.27.14.41.23.24.1-.17-.07.15.08.11.06Zm-.16-.27.06,0,.1.06-.06,0Zm0-.08,0,0,.29.13.14.09a.39.39,0,0,1-.14,0A2.1,2.1,0,0,1,162.05,32.43Zm1.82,2a2.54,2.54,0,0,1-.63-.26c-.2-.13-.39-.23-.58-.34l0,0,.07,0a4.2,4.2,0,0,0,.85.4l.3.17S163.88,34.45,163.87,34.46Zm-.92-.93.13,0-.12,0,0,0a1.07,1.07,0,0,1,.25.1l-.24-.08v0h-.07l-.09,0,0,0,.11.05h0Zm.45.45.21.16-.23-.11a2.12,2.12,0,0,1-.2-.12Zm.42,0,0,0h.06l.06,0Zm.19.3h-.11s-.08-.06-.09-.08h.06Zm0,.13a1.13,1.13,0,0,1-.21-.12l.07,0,.23.13S164,34.44,164,34.42Zm.1-.16,0,0,0,0,0,0Zm.14.17.05,0-.11,0,0,0Zm.38.38-.31-.16-.16-.08-.06,0c.2.1.39.21.59.3Zm.38.09c-.23-.12-.41-.17-.6-.26a.85.85,0,0,1-.14-.1s.06,0,.09,0c.2.11.43.21.64.32l.07.05Zm-.23-.18.07,0,.1.06-.06,0Zm1.92.41-.06,0h.07l.05,0Zm0-.07c-.22-.1-.45-.18-.66-.29s-.35-.16-.4-.1l.29.18a.91.91,0,0,0,.34.17l.17.07s0,0,0,0-.5-.18-.22,0c-.16,0-.33-.11-.48-.16a.79.79,0,0,1-.23-.12l-.27-.12.12.11.17.12-.24-.1a5,5,0,0,1-.73-.39v0l.05,0,.25.19-.15-.09,0,0c.05.06,0,0,0,0s-.28-.13-.29-.18,0,0,0,0l.09,0a.45.45,0,0,0,.07.07l.14.1-.12-.11-.12-.1-.13-.11a2.39,2.39,0,0,0-.71-.47c-.27-.14-.51-.31-.76-.46l-.07-.06.05,0,.4.2.31.14c-.16-.1,0-.12-.41-.3l-.21-.09-.1-.09-.22-.13-.2-.12.1,0a.68.68,0,0,1,.22.12l.12.09s0,0,0,0l.32.16-.32-.21-.26-.21h0l-.12-.09.09,0s0,0,0,0l.23.13a.13.13,0,0,0,0-.07c-.2-.15-.13-.12.11,0,.05,0,.06,0,.09,0l-.15-.08h0l-.1,0,0,0a.34.34,0,0,1,.12.06s0,0,0,0l.11,0,0,.05,0,0c.15.1.4.2.45.29l.15.09h0l0,0,.09,0h0l.07,0-.08,0h0s0,0,0,.07.15.13.21.11.21.06,0-.07a1.09,1.09,0,0,1,.17.05l.69.37s.09.07.08.08-.09,0-.18-.09a1.51,1.51,0,0,0-.25-.13.88.88,0,0,0-.2,0l.13.08.31.17h0l0,0,.09,0h0a.23.23,0,0,1,.09,0l-.08,0,0,0c-.12,0-.27-.07-.06.06s.28.16.32.14l.14.06a3.55,3.55,0,0,1,.31.23c.37.15.63.34,1,.49s.37.15.35.09l.11,0s.05,0,.05,0,0,0,0,0C167,35.2,167,35.19,166.66,35.06Zm-.75-.28-.06,0,0,0,.05,0Z"/><path class="cls-5" d="M140.16,19.51l.12.06-.09-.07-.24-.16-.16-.07.23.15Z"/><path class="cls-5" d="M140.43,19.55l-.12-.07-.51-.25s.1.07.15.11Z"/><path class="cls-5" d="M99.33,20.73c.19-.19.42-.45.53-.45l.11-.12a.5.5,0,0,0,.06-.08s0-.08.15-.2l.76-.8c.35-.37.37-.5.09-.31a8.91,8.91,0,0,0-1,.91c-.29.29-.57.58-.85.88s-.55.6-.85.89-.42.45-.67.67-.41.45-.63.69l0,.06c-.43.35-.85.87-1.3,1.26-.25.22-.38.41-.35.47s0,0,.23-.14a6.91,6.91,0,0,0,.76-.77c.1-.11.25-.28.3-.32A4.83,4.83,0,0,0,97,23c.3-.33.59-.58.88-.86C98.34,21.66,98.83,21.22,99.33,20.73Z"/><path class="cls-5" d="M105.34,15.44a2.22,2.22,0,0,1-.19.13,1.18,1.18,0,0,0-.45.38c-.44.49-.6.62-.77.64a0,0,0,0,1,0,0,1.75,1.75,0,0,0-.53.47l-.28.39c-.11.16-.33.43-.47.6-.31.35-.66.68-1,1s-.32.35-.29.4,0,0,.24-.15.49-.46.74-.7l1.86-1.82a3.69,3.69,0,0,1,.51-.47s.66-.7.7-.75C105.6,15.3,105.6,15.27,105.34,15.44Z"/><path class="cls-5" d="M122.31,5.93c-.26-.19,0,0,0-.08s0,0,0-.06a1.4,1.4,0,0,0-.41-.3s-.14-.08-.13-.12.06,0-.06-.09a.48.48,0,0,0-.19-.08c-.06,0-.15,0-.12,0s-.07.08-.06.15a.37.37,0,0,0,.14.23,2,2,0,0,1,.24.25,1.1,1.1,0,0,1,.17.28.64.64,0,0,0,.13.19l0,0h0l0,0,.09.08a.71.71,0,0,1,.12.13l.07,0s0,0,0,0-.16-.19-.2-.26.43.1.17-.19l.1,0c.1,0,.13,0,.07-.1S122.38,6,122.31,5.93Z"/><path class="cls-5" d="M90.92,26.32a3.32,3.32,0,0,0-.54.46c-.37.35-.81.78-1.19,1.21L89,28.2a2.92,2.92,0,0,0,.27-.17l1.18-1c.15-.16.36-.37.52-.55C91.26,26.13,91.23,26.12,90.92,26.32Z"/><path class="cls-5" d="M88,26.34a1.58,1.58,0,0,0,.52-.35c.1-.08.2-.18.3-.27l.18-.17c.25-.24.3-.32.3-.4s-.23.08-.42.2a2.51,2.51,0,0,0-.83.74C87.85,26.34,87.93,26.34,88,26.34Z"/><path class="cls-5" d="M100,21a4.69,4.69,0,0,0,.49-.5c.13-.16.36-.39.33-.44s0,0-.08,0l-.27.25c-.47.46-.84.89-1.23,1.35-.13.14-.31.38-.36.42a2,2,0,0,0-.44.49,1.06,1.06,0,0,1-.1.12l-.08.11s0,0,0,0c.15-.17.29-.26.46-.44s.51-.61.82-.92C99.77,21.36,99.86,21.15,100,21Z"/><path class="cls-5" d="M83,31.56a6.09,6.09,0,0,1,.66-.43c.35-.2.68-.42,1-.63a4.15,4.15,0,0,0,.45-.38c0-.06-.13,0-.28.12a7.3,7.3,0,0,0-.69.45l-.22.17-.23.15-.45.28-.22.13c-.22.16-.33.23-.3.27S82.83,31.66,83,31.56Z"/><path class="cls-5" d="M101.17,19.88c-.23.29-.6.65-.76.9a2.84,2.84,0,0,1-.26.31,1.49,1.49,0,0,0-.19.24c0,.06,0,.05,0,.07a2.78,2.78,0,0,0,.3-.3,11,11,0,0,1,.81-1,5.3,5.3,0,0,0,.43-.57C101.37,19.71,101.21,19.83,101.17,19.88Z"/><path class="cls-5" d="M95.55,23.09c.28-.3.55-.54.82-.78a.33.33,0,0,0,.06-.1s0,0-.05,0l-.82.78c-.49.49-1,.89-1.44,1.39l-.52.52,0,.07,0,0c.37-.38.75-.68,1.1-1.05S95.27,23.38,95.55,23.09Z"/><path class="cls-5" d="M85.33,27.82c.1-.06.26-.19.3-.2a5.76,5.76,0,0,0,.92-.54,1.53,1.53,0,0,0,.16-.13l-.08,0c-.18.09-.35.15-.57.28s-.43.28-.67.44a1,1,0,0,0-.1.14S85.3,27.84,85.33,27.82Z"/><path class="cls-5" d="M89.55,26l.44-.34c.28-.27.32-.35.18-.28a3.27,3.27,0,0,0-.32.19,1.37,1.37,0,0,0-.34.34C89.41,26,89.41,26.09,89.55,26Z"/><path class="cls-5" d="M101.57,19.05a1,1,0,0,0,.29-.42c.07-.1-.15,0-.32.22,0,0,0,0,0,.08C101.41,19.13,101.43,19.18,101.57,19.05Z"/><path class="cls-5" d="M97.76,22.52l-.3.31-.15.18a.85.85,0,0,0,.19-.14,4.11,4.11,0,0,0,.29-.3c.15-.17.45-.44.43-.48S97.91,22.38,97.76,22.52Z"/><path class="cls-5" d="M114.52,7.31c-.12.1-.36.27-.35.32s.26-.19.42-.31.33-.24.32-.3S114.65,7.2,114.52,7.31Z"/><path class="cls-5" d="M142.6,22.54l-.19-.07h-.12a2.69,2.69,0,0,1,.29.16,2,2,0,0,0,.58.3c-.11-.07-.26-.18-.33-.21C142.53,22.58,142.58,22.57,142.6,22.54Z"/><path class="cls-5" d="M129.21,11a1.08,1.08,0,0,0-.25-.14c-.14,0,.19.18.23.25l.39.24Z"/><path class="cls-5" d="M94.17,23.05l.72-.57s0-.05.06-.08,0,0,0,0l-.64.52-.11.12A0,0,0,0,0,94.17,23.05Z"/><path class="cls-5" d="M143.64,23.14s-.14-.13-.23-.18a6.37,6.37,0,0,0-.81-.42c.26.18.48.28.72.42Z"/><path class="cls-5" d="M102.59,17.25l.24-.34-.18.13c-.13.12-.23.24-.17.23Z"/><path class="cls-5" d="M88.59,26.52s.07,0,.08,0a3.28,3.28,0,0,1,.43-.36l.09-.1s0,0,0,0l-.57.45S88.58,26.52,88.59,26.52Z"/><path class="cls-5" d="M130.11,11l-.41-.25s0,0,0,0a2.49,2.49,0,0,0,.46.33l.19.11Z"/><path class="cls-5" d="M150.72,21.87a1.72,1.72,0,0,0-.18-.16l-.28-.13.25.2A1.79,1.79,0,0,0,150.72,21.87Z"/><path class="cls-5" d="M92.84,22.32a1.8,1.8,0,0,0,.3-.28l.1-.11a2.59,2.59,0,0,0-.43.37S92.81,22.33,92.84,22.32Z"/><path class="cls-5" d="M151.06,22c.08,0,.23.09.23.08s-.11-.12-.17-.18H151Z"/><path class="cls-5" d="M103.92,16.35l.15-.22a2.3,2.3,0,0,0-.2.16c-.16.15-.11.14-.09.14A.75.75,0,0,0,103.92,16.35Z"/><path class="cls-5" d="M111.52,10.67s.07,0,.12,0l.25-.28-.14.09C111.66,10.51,111.52,10.63,111.52,10.67Z"/><path class="cls-5" d="M104.35,11.81l.33-.34-.13.07c-.1.11-.27.23-.29.3S104.33,11.83,104.35,11.81Z"/><path class="cls-5" d="M95.64,22.48l.11-.12.14-.17-.12.11-.16.16-.16.2s0,0,0,0A1.19,1.19,0,0,1,95.64,22.48Z"/><path class="cls-5" d="M93.87,23.44s0,0,.08,0,.17-.21.31-.38l-.18.16C94,23.29,93.87,23.39,93.87,23.44Z"/><path class="cls-5" d="M97.35,21.41l-.23.27s0,0,0,0l.43-.47-.06,0Z"/><path class="cls-5" d="M128.17,10.19c0,.05.15.14.24.22a1.76,1.76,0,0,1,.21.13l-.37-.33S128.16,10.17,128.17,10.19Z"/><path class="cls-5" d="M130.41,13.6l.21.22s.07,0,.06,0-.08-.08-.14-.16S130.39,13.58,130.41,13.6Z"/><path class="cls-5" d="M88,28.39l-.08.09.31-.22a1.31,1.31,0,0,0,.13-.16Z"/><path class="cls-5" d="M113.72,8l-.06.07.22-.09.06-.08C114,7.83,113.81,8,113.72,8Z"/><path class="cls-5" d="M92.54,23.28l-.28.22-.09.1.25-.18A1.54,1.54,0,0,1,92.54,23.28Z"/><path class="cls-5" d="M108.24,13.18l-.18.13a.74.74,0,0,0-.12.16l.1-.07A2.53,2.53,0,0,0,108.24,13.18Z"/><path class="cls-5" d="M103.4,17.7l.19-.13c0-.06.09-.13.15-.21l-.13.11Z"/><path class="cls-5" d="M158.12,32.06s0,0,0,0,.08.1.12.16.08,0,.09,0l-.06-.05Z"/><path class="cls-5" d="M105.28,11.2l-.21.15c0,.05-.09.12-.14.18l.24-.2Z"/><path class="cls-5" d="M105,11.91l0-.05.18-.2-.22.2-.18.17-.08.1.07-.05Z"/><path class="cls-5" d="M157.26,32.31l.16.15a1.58,1.58,0,0,0,.26.13l-.18-.14Z"/><path class="cls-5" d="M98.68,19.21s-.05,0-.12.06a2,2,0,0,0-.11.17l.11-.07Z"/><path class="cls-5" d="M145.93,25c.06,0,.11.11.17.17l.12,0-.17-.13Z"/><path class="cls-5" d="M107.34,13.11l-.16.11a.72.72,0,0,1,0,.07.64.64,0,0,0,.15-.06C107.33,13.14,107.35,13.1,107.34,13.11Z"/><path class="cls-5" d="M93.34,22.69a1.22,1.22,0,0,0,.18-.16l0,0a.83.83,0,0,0-.18.13S93.32,22.7,93.34,22.69Z"/><path class="cls-5" d="M160,29.55l.1,0-.23-.18-.07,0Z"/><path class="cls-5" d="M87.57,29.54l-.25.15s0,.06,0,0l.17-.1A.88.88,0,0,1,87.57,29.54Z"/><path class="cls-5" d="M97.31,18.31l-.2.15-.07.08.13-.07Z"/><path class="cls-5" d="M129.18,10.83l.19.17.21.13-.16-.13Z"/><path class="cls-5" d="M129.71,11.29c.09.05.16.11.24.16l-.13-.12-.26-.18Z"/><path class="cls-5" d="M157.44,31.64a.42.42,0,0,0,.13.08l0,0,0-.05-.15-.1Z"/><path class="cls-5" d="M88,25.61l-.17.15,0,.06.16-.14Z"/><path class="cls-5" d="M92,23l-.07,0-.15.16.06,0Z"/><path class="cls-5" d="M96.25,21.28l-.13.15.11-.09.12-.15Z"/><path class="cls-5" d="M159.84,29.36s-.16-.14-.26-.21S159.74,29.28,159.84,29.36Z"/><path class="cls-5" d="M160.85,28.39l.05,0a.38.38,0,0,1-.08-.07h-.07Z"/><path class="cls-5" d="M161.73,30.29l.2.13s0,0,0,0l-.19-.11S161.72,30.29,161.73,30.29Z"/><path class="cls-5" d="M153,23.15l-.21-.12-.07,0,.19.12Z"/><path class="cls-5" d="M155,24.5l-.12-.09-.17-.09.1.08Z"/><path class="cls-5" d="M160,33l.06,0,.23.12-.13-.09A.6.6,0,0,0,160,33Z"/><path class="cls-5" d="M132.68,15.5s0,0,.06.06l.1,0-.07-.08S132.69,15.49,132.68,15.5Z"/><path class="cls-5" d="M160.06,32.83l-.17-.09.1.08.2.11Z"/><path class="cls-5" d="M144.3,23.46l-.19-.1.1.08.21.12Z"/><path class="cls-5" d="M122.31,6.65s0,.06,0,.09l.08,0-.06-.08Z"/><path class="cls-5" d="M142.63,22.82s0,0,0,.05l.13.07,0-.08Z"/><path class="cls-5" d="M97.17,20.58h0l-.08.1h0Z"/><path class="cls-5" d="M156.3,25.19s0,0,0,0l-.06,0,.05,0Z"/><path class="cls-5" d="M153.92,23.87l0,0,0,0s0,0,0,0Z"/><path class="cls-5" d="M93.57,25.28l.05,0,.07-.09,0,0Z"/><path class="cls-5" d="M163,30.37l0-.05-.05,0,0,.05Z"/><path class="cls-5" d="M165.7,32l0,0,0,0,0,0Z"/><path class="cls-5" d="M172.55,37.08h-.05l.05,0h.06Z"/><path class="cls-5" d="M105.64,15a.27.27,0,0,1,.08-.07l0-.05-.09.07Z"/><path class="cls-5" d="M114.72,6.85a.6.6,0,0,0-.08.08l0,0,.07-.07Z"/><path class="cls-5" d="M114,7.92l.08-.06,0,0-.07,0Z"/><path class="cls-5" d="M107.24,14.69l.09-.06,0-.05-.08.07Z"/><path class="cls-5" d="M95.14,19.14l0,0,0,.05.05,0S95.14,19.15,95.14,19.14Z"/><path class="cls-5" d="M130.69,13.17l.1.08.05,0-.09-.08Z"/><path class="cls-5" d="M128.88,10.48l-.07,0,.08.07.05,0Z"/><path class="cls-5" d="M119.91,5.69v0h0v0Z"/><path class="cls-5" d="M171.69,36.31l-.05,0h-.11l.08,0Z"/><path class="cls-5" d="M171.59,37.7l.06,0h.06l-.05,0Z"/><path class="cls-5" d="M159.69,32.62l.05,0-.09-.07-.06,0Z"/><path class="cls-5" d="M171.42,36.29h.11l-.13,0S171.41,36.28,171.42,36.29Z"/><path class="cls-5" d="M160.47,33.14l.05,0,.11.06,0,0Z"/><path class="cls-5" d="M130.15,11.65l.06,0,0-.05h0S130.14,11.63,130.15,11.65Z"/><path class="cls-5" d="M96.43,19.43s0,0-.06,0l0,0a.09.09,0,0,0,0,0Z"/><path class="cls-5" d="M145.25,24l-.1-.05,0,0,.1.06S145.26,24,145.25,24Z"/><path class="cls-5" d="M128.79,10.66l-.09-.06,0,.05.09.06Z"/><polygon class="cls-5" points="158.04 32.12 158.15 32.22 158.16 32.19 158.04 32.12"/><path class="cls-5" d="M105.45,10.93l0,0s0,0,0,0l0,0Z"/><path class="cls-5" d="M96.72,20.92l-.08.09,0,0,.07-.08S96.72,20.91,96.72,20.92Z"/><path class="cls-5" d="M145.15,24.59l.09.06.06,0-.09-.07Z"/><path class="cls-5" d="M145.67,24.89h-.06l0,0h.06Z"/><path class="cls-5" d="M97.41,20.2l-.06.07.06,0,0-.07Z"/><path class="cls-5" d="M154,31l0,0,.05,0,0-.05Z"/><path class="cls-5" d="M140.31,18l-.11-.08c-.12-.08-.29-.21-.3-.16l0,.05Z"/><path class="cls-5" d="M136.93,15.75l-.17-.14-.24-.13.13.1Z"/><path class="cls-5" d="M137.52,16.11l0,0-.1-.06s0,0,0,0Z"/><path class="cls-5" d="M139.8,17.85a.27.27,0,0,1-.08-.07l-.06,0,.09.07Z"/><path class="cls-5" d="M163.84,33.58l-.22-.15-.31-.11a2,2,0,0,0,.28.16A1.28,1.28,0,0,0,163.84,33.58Z"/><path class="cls-5" d="M165.14,34.36c.25.12.16,0,.19,0l-.44-.21Z"/><path class="cls-5" d="M165.15,34.38l-.08-.06-.42-.18s0,0,0,0,0,0,0,0Z"/><path class="cls-5" d="M165.44,34.6l-.33-.14.21.12.27.1Z"/><path class="cls-5" d="M165.57,34.76l.16.05-.11-.07-.2-.08Z"/><path class="cls-5" d="M163.84,33.69l-.19-.12h-.07l.12.08Z"/><path class="cls-5" d="M163.81,33.87l.06,0,.22.12s0-.05-.06-.06Z"/><path class="cls-5" d="M165.8,34.92h.09l-.09-.07s-.08,0-.08,0Z"/><path class="cls-5" d="M162.78,33.12l0,0,.31.18S162.89,33.19,162.78,33.12Z"/><path class="cls-5" d="M163.81,33.8l-.13-.06,0,0,.22.09Z"/><path class="cls-5" d="M163.13,33.1l-.1-.05.07.06.06,0A.13.13,0,0,0,163.13,33.1Z"/><path class="cls-5" d="M163.16,33.16l.08.06.06,0-.07-.05Z"/><path class="cls-5" d="M164.12,33.8l-.05,0,0,0h0S164.14,33.82,164.12,33.8Z"/><path class="cls-5" d="M164.42,34.2l.1.06.06,0-.1-.06Z"/><path class="cls-5" d="M164.75,34.48l-.06,0,.1.06.06,0Z"/><path class="cls-5" d="M164.83,34.59l.1.06.06,0-.1-.06Z"/><path class="cls-5" d="M163.26,33.13l.09,0v0l-.12-.06S163.25,33.12,163.26,33.13Z"/><path class="cls-5" d="M150.82,25.27l.06.05.21.1a.81.81,0,0,0-.12-.08Z"/><path class="cls-5" d="M152.22,26.07s0,0,0,0l0,0,0,0Z"/><path class="cls-5" d="M153,26.56l0,0,0,0H153Z"/><path class="cls-5" d="M150.72,25.25l.09,0h0l-.11-.05Z"/><path class="cls-5" d="M153,26.46l-.09-.07,0,0,.09.06Z"/><path class="cls-5" d="M132.74,12s0,0,0,0l.15.07s0,0,0-.07Z"/><path class="cls-5" d="M132.47,11.89s0,0,0,0l.28.18-.11-.1Z"/><path class="cls-5" d="M131.89,11.46l0,0,.1.06,0-.05Z"/><path class="cls-5" d="M131.41,11.12l-.09,0,.06.06.07,0A.14.14,0,0,1,131.41,11.12Z"/><path class="cls-5" d="M133,13.49l.18.13.09,0-.21-.14Z"/><path class="cls-5" d="M125.08,5.24c.25.09.48.32.74.31a.12.12,0,0,1,.08,0l.1.14a1,1,0,0,1,.18,0,.77.77,0,0,1,.17.07,1.11,1.11,0,0,1,.29.14c0,.16.2.13.28.21a.55.55,0,0,0,.3.16c0,.13.12.12.19.11a.93.93,0,0,0,.22,0,1.06,1.06,0,0,0-.16-.21s-.12,0-.17-.06a6.53,6.53,0,0,1-.56-.35c-.22-.15-.41-.1-.62-.22a3.94,3.94,0,0,0-.73-.32c-.14-.05-.09-.11-.15-.15s-.3-.08-.34,0S125,5.22,125.08,5.24Z"/><path class="cls-5" d="M146.54,17.19c.1-.05.11-.18.16-.28l-.38-.1c-.24-.07-.26.07-.33.15s0,0,0,0l0,.12.17,0C146.25,17.17,146.45,17.23,146.54,17.19Z"/><path class="cls-5" d="M130.23,7.42c0-.06.1-.1.15-.16s0,0,0-.06l-.07,0c-.14,0-.3-.06-.33,0l-.08.09s0,.07.07.08S130.18,7.53,130.23,7.42Z"/><path class="cls-5" d="M127.13,4.67c.06,0,0-.18-.12-.21s-.11,0-.14,0-.07.07-.08.1,0,.08,0,.13a.94.94,0,0,0,.18.06A.39.39,0,0,0,127.13,4.67Z"/><path class="cls-5" d="M128.7,6.45l0,.08.09,0c.05,0,.09-.06.09-.1a1.11,1.11,0,0,0,0-.17h-.15l-.18,0-.16,0,.17.13Z"/><path class="cls-5" d="M131.39,8.5l.21,0c.13,0,.08,0,.07-.09s-.15-.16-.15-.12-.26-.07-.16.1Z"/><path class="cls-5" d="M141.77,16.71c-.12-.17-.15-.22-.2-.25s-.16-.15-.22-.05,0,.11.07.15A3.33,3.33,0,0,0,141.77,16.71Z"/><path class="cls-5" d="M146.34,22.24c.07-.07.15-.14,0-.29s-.06-.07-.07-.07c-.17,0,0,.15,0,.23a.93.93,0,0,1,0,.13A.39.39,0,0,0,146.34,22.24Z"/><path class="cls-5" d="M120.21,3.89s0-.09-.06-.09a.21.21,0,0,0-.14,0s0,.06.06.13A.42.42,0,0,0,120.21,3.89Z"/><path class="cls-5" d="M156.2,28.52h-.09c0,.09,0,.18,0,.28s.09,0,.11,0S156.21,28.62,156.2,28.52Z"/><path class="cls-5" d="M123.76,4.34a1,1,0,0,0-.18-.09v.06l.24.12S123.79,4.36,123.76,4.34Z"/><path class="cls-5" d="M146.1,21.35s.08,0,.08,0a.47.47,0,0,0,0-.16l-.16,0Z"/><path class="cls-5" d="M125.42,6s.07,0,.1,0a.88.88,0,0,0,0-.15h-.15A.63.63,0,0,0,125.42,6Z"/><path class="cls-5" d="M131.2,7.08h-.07s0,.07,0,.1a.42.42,0,0,1,.12.06Z"/><path class="cls-5" d="M127.34,4.57a.94.94,0,0,0-.1-.1s0,0-.07,0l.11.1A.07.07,0,0,0,127.34,4.57Z"/><path class="cls-5" d="M126.59,4.62s0-.06,0-.07l-.13-.07s0,0,0,.06Z"/><path class="cls-5" d="M141.39,20.52h.12s0-.06,0-.09l-.12,0A.52.52,0,0,0,141.39,20.52Z"/><path class="cls-5" d="M132.27,10.87a.11.11,0,0,0,0-.08h-.07s0,.06,0,.09S132.26,10.89,132.27,10.87Z"/><path class="cls-5" d="M128.32,6.25a.11.11,0,0,0,0-.06l-.15-.06.06.08Z"/><path class="cls-5" d="M142.46,21.35v-.07s-.06,0-.06,0a.17.17,0,0,0,0,.07Z"/><path class="cls-5" d="M153.11,25.12l-.09,0,0,0a.18.18,0,0,0,.09,0S153.11,25.14,153.11,25.12Z"/><path class="cls-5" d="M141.75,16.36h-.05v.07h.05Z"/><path class="cls-5" d="M139,15.65l0-.06h-.06l0,.06Z"/><path class="cls-5" d="M137.5,14.88l.05.07s0,0,0,0l0-.07Z"/><path class="cls-5" d="M131.15,9.14s0,0,.06,0a.06.06,0,0,0,0,0l-.06,0S131.14,9.14,131.15,9.14Z"/><path class="cls-5" d="M153.94,25.48l0-.07h-.06l0,.08Z"/><path class="cls-5" d="M129.11,6l0,0H129l0,0Z"/><path class="cls-5" d="M147.08,20.93l-.06-.08H147l.06.08Z"/><path class="cls-5" d="M156.92,29.54v.07l0,0a.24.24,0,0,0,0-.08Z"/><path class="cls-5" d="M124.93,5.33l0,0h-.06l0,0Z"/><path class="cls-5" d="M147.3,17.05l-.06-.08h-.07a.27.27,0,0,0,.07.08Z"/><path class="cls-5" d="M87.32,29.32a3.2,3.2,0,0,0,.42-.55l.05-.06.1-.05a1.56,1.56,0,0,1,.06-.15.91.91,0,0,1,.1-.13c.06-.07.16-.2.17-.2s.13-.14.2-.19a.76.76,0,0,0,.18-.21c.05,0,.09-.08.12-.13s0-.12.08-.19l-.15.09s-.06.09-.1.13l-.36.38c-.14.15-.21.31-.34.46s-.29.35-.42.53-.08.05-.12.1-.15.22-.13.27S87.29,29.36,87.32,29.32Z"/><path class="cls-5" d="M98.8,16.37a.26.26,0,0,0,0-.14l-.15.22a.25.25,0,0,0-.06.22v0l0,0,.06-.1A2.71,2.71,0,0,0,98.8,16.37Z"/><path class="cls-5" d="M90.27,25.56a.81.81,0,0,1,0-.15s0,0,0,0a.1.1,0,0,0,0,.05c-.07.11-.15.23-.12.28v.08s0,0,.06,0S90.29,25.63,90.27,25.56Z"/><path class="cls-5" d="M88,27.54c0-.06-.07,0-.13.06a.8.8,0,0,0,0,.11c0,.05,0,.07,0,.09l0,0s.08-.1.09-.13A.34.34,0,0,0,88,27.54Z"/><path class="cls-5" d="M89.27,26.61l0,0s0-.06,0-.07,0-.08,0-.08,0,0-.07,0l-.06.13-.09.14-.08.12.12-.11A.76.76,0,0,0,89.27,26.61Z"/><path class="cls-5" d="M91.16,24.83l.1-.17c.07-.09,0-.07,0-.07s-.12.09-.11.1-.12.19,0,.15Z"/><path class="cls-5" d="M97.2,21.17l-.13.08s-.1.08-.08.13,0,0,.06,0Z"/><path class="cls-5" d="M99.59,16.93c0-.06,0-.12-.07-.08l0,0c0,.11,0,.05,0,.07l0,0S99.59,16.94,99.59,16.93Z"/><path class="cls-5" d="M104.38,11.9l0,0,.08.05s0-.05,0-.07S104.41,11.9,104.38,11.9Z"/><path class="cls-5" d="M86.44,30.21a.63.63,0,0,0-.11.12l0,0,.14-.17Z"/><path class="cls-5" d="M114.84,12.27l.09-.08s0,0,0,0l-.05,0Z"/><path class="cls-5" d="M115.15,11.28h0v-.06h0A.43.43,0,0,1,115.15,11.28Z"/><path class="cls-5" d="M99.27,16.94s0-.05,0-.05,0,0,0,0a.43.43,0,0,0-.06.09Z"/><path class="cls-5" d="M87.73,29.18l.06-.08-.08,0a.48.48,0,0,0-.06.11Z"/><path class="cls-5" d="M101.06,24.6l.07,0s0,0,0,0h-.07Z"/><path class="cls-5" d="M90.55,24.71l0,.06,0,0,.07-.08Z"/><path class="cls-5" d="M115.35,10.59v0h0l0-.05Z"/><path class="cls-5" d="M88,27.35l-.08.06a.16.16,0,0,0,0,.06A.27.27,0,0,0,88,27.4Z"/><path class="cls-5" d="M87.71,28h0l-.08.1s0,0,0,0A.76.76,0,0,0,87.71,28Z"/><path class="cls-5" d="M97.59,21.66a.41.41,0,0,0,0-.08h0l0,.07Z"/><path class="cls-5" d="M108.82,12.61h.05s0,0,0-.06h0Z"/><path class="cls-5" d="M112.66,11.93s0,0,0,0h0l0-.07Z"/><path class="cls-5" d="M92.42,24.58s0,0,0,0a.33.33,0,0,0,0,.06.05.05,0,0,0,0,0Z"/><path class="cls-5" d="M114.49,12.44l0,0a.13.13,0,0,0,0-.06h0Z"/><path class="cls-5" d="M113.83,11.66s0-.08,0,0S113.78,11.73,113.83,11.66Z"/><path class="cls-5" d="M89,26.88h0l-.08.1,0,0Z"/><path class="cls-5" d="M115.23,11.35v0h0v0Z"/><path class="cls-5" d="M115.21,11.54h0v0h0Z"/><path class="cls-5" d="M115.24,11.7l0,0,0,0v0Z"/><path class="cls-5" d="M115,12.07h0l0,0h0Z"/><path class="cls-5" d="M114.69,12.4h0l0-.05,0,0Z"/><path class="cls-5" d="M114.55,12.22l0,0s0,0,0,0h0Z"/><path class="cls-5" d="M98.15,21.13h0l0,0s0,0,0,0Z"/><path class="cls-5" d="M102.48,13.26l0,.06v0l0-.06S102.48,13.27,102.48,13.26Z"/><path class="cls-5" d="M97.09,21.13v0s0,0,0,0l0,0Z"/><path class="cls-5" d="M96.05,22.68l0,0,0,0,0,0A.1.1,0,0,0,96.05,22.68Z"/><path class="cls-5" d="M95.37,23.47l0,0,0,0,0,0Z"/><path class="cls-5" d="M91.3,25.15l0,0h0l0,0Z"/><path class="cls-5" d="M102.83,12.82h0l0,0,0,0Z"/><path class="cls-5" d="M89.28,26.2h0l0,.05h0A.08.08,0,0,1,89.28,26.2Z"/><path class="cls-5" d="M99.45,16.29l0,0,0,0,0,0Z"/><path class="cls-5" d="M115.05,12l0-.06,0,.06Z"/><path class="cls-5" d="M110.61,13.48h0v0a0,0,0,0,0,0,0Z"/><path class="cls-5" d="M87.29,29.45h0l0,.05h0A.08.08,0,0,0,87.29,29.45Z"/><path class="cls-5" d="M108.94,12.89h0a.21.21,0,0,0,0-.06h0Z"/><path class="cls-5" d="M99,15.89l0,0,0,0,0,0S99,15.9,99,15.89Z"/><path class="cls-6" d="M156,34.29s0,0,0-.06l-.08.05-.13,0s-.06-.08-.07-.11a.53.53,0,0,1,0-.12l-.08.07-.05.07a.47.47,0,0,0-.06-.09c-.07-.07-.09-.18-.26-.16s-.35-.06-.32.1a.14.14,0,0,1,0,.12.16.16,0,0,1-.12,0c-.08,0-.09,0,0-.08.22-.19.2-.25-.05-.5-.06-.06-.13-.17-.15-.17-.22,0-.16-.13-.25-.19s-.08-.09-.13-.11a.88.88,0,0,1-.45-.42l-.25-.29c-.19-.19-.19-.19.05-.25l.21-.07c.11-.07.24-.14.12-.3l-.08.09s-.09-.08-.09-.11,0-.18.14-.14,0-.25,0-.37.06-.06.1-.08l.1.07c.16.13.16.13.23,0a.18.18,0,0,0,0-.22,1,1,0,0,0-.14-.15c-.12-.1.13,0,0-.12a2.82,2.82,0,0,1-.21-.31c-.15-.25-.45-.47-.59-.74a.22.22,0,0,0-.2-.14.73.73,0,0,1-.49-.32,1,1,0,0,0-.41-.41c-.07,0-.12-.12-.16-.18s-.18-.37-.27-.54-.17-.36-.25-.53a.3.3,0,0,0-.09-.08c-.12,0-.13-.05-.17-.12a.86.86,0,0,0-.16-.18c0-.06-.11-.15-.16-.16a.35.35,0,0,1-.25-.15,2.74,2.74,0,0,1-.35-.49A1.41,1.41,0,0,0,150,26c-.22-.2-.48-.41-.72-.62-.05,0-.11,0-.14,0s-.2,0-.26-.1-.09-.17-.06-.22-.11-.21-.14-.32-.06.14-.18,0a.45.45,0,0,1-.12-.16c-.06-.18-.11-.36-.16-.53s0-.19-.15-.08-.23,0-.33-.14a.26.26,0,0,1,0-.11.26.26,0,0,1,.06-.09c.32.18.44,0,.64-.06s.15-.12.13-.19c0-.24-.29-.42-.49-.61a2.35,2.35,0,0,0-.39-.21c-.13-.07-.31-.07-.37-.24a.42.42,0,0,0-.13,0c-.1,0,0,.05,0,.09s.1.23.07.3a.22.22,0,0,0,.06.3.23.23,0,0,1,.05.15s-.09,0-.15.05-.09,0-.1-.09a.53.53,0,0,1,0-.21c.06-.13-.16-.05-.13-.12s-.13-.28-.25-.3-.08-.17-.23-.15-.2-.13-.3-.22,0-.1,0-.14c-.14-.07-.23-.06-.29,0a.56.56,0,0,1-.2.12s-.16,0-.11-.06-.13-.19-.1-.28,0-.07-.07-.11-.09,0-.1.08,0,.1,0,.15c0,.23-.17.31-.44.17a1.31,1.31,0,0,1-.21-.08c-.05,0-.09-.13-.13-.15a.51.51,0,0,1-.39-.4c0-.07,0-.15-.07-.23A1.71,1.71,0,0,0,144,21s-.12.1-.12.17-.13.29,0,.5,0,0-.09.05-.07.09-.17,0-.18-.13-.2-.19c-.08-.24-.15-.47-.22-.7,0-.06,0-.15,0-.17-.24-.16-.13-.3-.21-.45s-.12-.34-.19-.51-.05-.06-.07-.07-.09,0-.1,0-.15.19-.13.31c.07.41-.43.24-.63.38,0,0-.09,0-.13-.05-.23-.09-.19-.26-.32-.39,0,.06-.08.1-.08.17,0,.32-.15.58-.16.9,0,.05-.06.09-.1.12s-.13,0-.26-.08a.55.55,0,0,1-.24-.35c0-.21-.06-.42-.08-.63-.05-.49-.16-1-.2-1.49a.41.41,0,0,0-.25-.37s-.07-.06-.06-.07-.07-.19-.14-.3-.31-.07-.34-.23a1.1,1.1,0,0,0-.48-.06c-.05.07-.17.13-.14.21s-.06.26-.06.4-.1.26-.06.44a1.5,1.5,0,0,1,0,.42.28.28,0,0,1,0,.13l-.14.8c0,.14-.2.2-.4.13a.74.74,0,0,1-.22-.14c-.1-.09,0-.11,0-.17a.08.08,0,0,0,0,0l0-.11a.25.25,0,0,0-.09,0l-.33.44a.25.25,0,0,1-.09,0,.25.25,0,0,1,0-.09l.13-.29c.12-.25-.11-.58-.1-.87,0,0-.1-.12-.09-.15a.69.69,0,0,0,.1-.45c0-.07.08-.11.1-.17s0-.09,0-.14l-.09,0c-.11.07-.24.12-.3.24s-.16,0-.2-.05-.08-.17-.12-.25a.49.49,0,0,0-.11-.2,1.32,1.32,0,0,1-.29-.39c-.07-.11-.2-.27-.31-.29a.42.42,0,0,1-.31-.24.93.93,0,0,0-.47-.39,2.58,2.58,0,0,1-.46-.29.48.48,0,0,1-.13-.16c-.09-.21.14-.26.17-.41s.19,0,.3.09.31.12.34-.06,0-.11.08-.11.11-.05.1-.06-.1-.17-.16-.19-.2-.08-.11-.17l-.08-.05c-.08.1-.1,0-.14-.06a.29.29,0,0,0-.1-.16c-.22,0-.15-.12-.14-.19s.06,0,.06-.08a.18.18,0,0,0-.07-.09.16.16,0,0,0-.1,0,.88.88,0,0,0,0,.16.08.08,0,0,1-.07,0s-.08-.06-.08-.09,0,0,0-.08,0-.06,0-.09l-.07,0a.16.16,0,0,1-.23,0c-.06-.07-.18-.2-.16-.22s-.12-.19-.11-.3,0-.12-.26-.15h-.06c-.08-.13-.2-.27-.2-.38s-.24-.29-.2-.44c-.22-.16-.13-.31-.18-.47l0,0c-.25-.15-.27-.35-.38-.54s0-.34-.27-.5c-.08-.05,0-.26-.14-.26s0,.17,0,.27,0,.27-.25.2l-.17,0c-.26,0-.45,0-.69,0-.09,0-.16-.11-.26,0s-.45,0-.67-.27a4.18,4.18,0,0,0-.37-.65,1.14,1.14,0,0,1-.28-.8.64.64,0,0,0-.17-.45c-.17-.16-.31-.3-.27-.48s0-.1,0-.11c-.28-.17-.3-.45-.55-.63a.18.18,0,0,1-.05-.12.65.65,0,0,1,.06-.21c0-.06.12-.11,0-.18s-.11.05-.15.09,0,.08,0,.11-.15.14-.4,0a1.29,1.29,0,0,0-.39-.08c-.06,0-.1,0-.14.07s-.09-.13-.19-.13a.33.33,0,0,1-.3-.2c0-.15-.19-.1-.26-.16a1.59,1.59,0,0,1-.18-.27h-.05c-.13-.2-.39-.24-.56-.39s-.1,0-.13-.08a.63.63,0,0,0-.57-.44c-.17,0-.19-.06-.12-.2a1.89,1.89,0,0,1-.31-.22c-.16-.16-.18.05-.33,0a.78.78,0,0,0-.34-.09c-.16,0-.38-.11-.47-.06s-.36-.07-.51-.05a.79.79,0,0,1-.54-.23c-.16-.12-.44-.12-.46-.37,0,0-.09-.08-.11-.08-.24,0-.3-.19-.45-.27s-.17-.3-.4-.25l-.21-.38c0-.09-.07-.05-.13,0a.25.25,0,0,1-.35-.1l-.09,0c-.12.06,0,.2-.08.3s-.13.39-.15.6a.8.8,0,0,1-.5.75c-.06,0-.06.11-.06.17a.69.69,0,0,1-.19.52l-.09.05c-.17-.15-.45-.11-.6-.29a1.63,1.63,0,0,0-.49-.33s-.1.1-.16.14a.46.46,0,0,1-.17,0c-.11,0-.23,0-.27.09a.92.92,0,0,0-.05.25c0,.14.08.22.24.31l.66.39c.08.05.15.13.23.18a1,1,0,0,0,.31.13,1.76,1.76,0,0,1,.57.27c.23.13.36.32.33.45a1.47,1.47,0,0,0,0,.42c0,.14,0,.32,0,.39s-.31,0-.49-.14a1.88,1.88,0,0,1-.34-.14.56.56,0,0,0-.47-.13c-.09,0-.18-.05-.25-.06-.25,0-.44-.25-.68-.26a.54.54,0,0,1-.34-.12A.72.72,0,0,0,117,7.5c-.13,0-.19.06-.14.18s.08.19,0,.25,0,.18,0,.29.16,0,.24.11a3.49,3.49,0,0,0,1,.45.9.9,0,0,1,.7.82c0,.32,0,.62,0,1,0,.09,0,.22-.07.23s-.13.12-.07.18,0,.19.09.29.16.19,0,.26,0,.06,0,.06c.18.09.15.22.21.33s.19.18.17.21.11.25.18.37.2.17.06.23,0,.08,0,.12.23.27.35.39a3.33,3.33,0,0,1,.25.28,2,2,0,0,1,.22.29,3.33,3.33,0,0,1,.24.32c.06.12,0,.23.18.35s.08.24.28.29c0,0,0,.13.07.21s.12.11.19.16a1.54,1.54,0,0,1,.26.25c.08.07.14.15.22.22a2.31,2.31,0,0,1,.33.28c.07.1.22.15.24.27.19,0,.19.14.27.22s.34.2.47.37.23.06.36.11a1,1,0,0,1,.27.18s0,.1,0,.15a2.74,2.74,0,0,1,0,1.18.46.46,0,0,0,0,.36c.13.2.14.42.39.61a.38.38,0,0,1,.13.25c0,.26.26.5.39.76a1.1,1.1,0,0,0,.49.43,7.94,7.94,0,0,1,1.72,1.09l.26.2c.08.05.16.13.22.14a.45.45,0,0,1,.44.38.11.11,0,0,0,0,.08.68.68,0,0,0,.2.21c.15.06,0-.12.06-.13s0-.08,0-.11a.05.05,0,0,1,.07-.05.29.29,0,0,1,.12.07c0,.09.06.16.2.18s.08.05.08.07a3.73,3.73,0,0,1,.2.59c0,.09,0,.11.13.16s.3,0,.45.05.34,0,.27-.18,0-.17.14-.16a.87.87,0,0,1,.43.19c.14.08.22.15.13.22l-.42.31s-.08,0-.12,0a.25.25,0,0,1,0-.09l.29-.35s0,0,0-.06h0a.81.81,0,0,1-.09.1c-.12.11-.2.25-.34.36.25.08.49.18.74.28a.31.31,0,0,1,.09-.11l.33-.22s.07-.1.13-.1a1.81,1.81,0,0,1,.34.13l.42.28c.12.11.35.17.44.35,0,0,.12.08.13.07a.23.23,0,0,1,.28.06c.21.16.54.29.66.47a1.91,1.91,0,0,1,.15.28c0,.06,0,.12-.09.08s-.26.07-.42-.09c0,0-.07,0-.09,0s-.23-.06-.32-.17a.84.84,0,0,0-.21-.21c-.15,0-.35-.12-.42-.08h-.05a4,4,0,0,1,.71.61l.36.06a1.55,1.55,0,0,1,.36.08c.18.05.26.18.2.3s-.08.1-.11.16,0,0,0,.05h0a1.4,1.4,0,0,0,.17-.09c.05,0,.07,0,.09,0a.54.54,0,0,0,0,.1l.08.12a.67.67,0,0,0,.15-.06s0-.07.09-.09.07,0,.1,0,0,.05,0,.06-.06.07-.08.11l0,.08a.33.33,0,0,0,.1,0,1.55,1.55,0,0,1,.21,0,3.23,3.23,0,0,1,.44,0c.08,0,.19,0,.09.11a1.38,1.38,0,0,1,.05.45l.29.17c0-.18,0-.36,0-.55,0,0,0-.07.05-.11s0-.17.12-.12,0,0,0,.06,0,.06,0,.09,0,.27.1.42,0,.24,0,.37v0l.07.06.2.2a2.8,2.8,0,0,0,0-.57s0,0,0-.05l.08.06a7.82,7.82,0,0,1,1.05,1.46c.15.33.44.63.56,1a.19.19,0,0,0,.1.12,1.4,1.4,0,0,1,.47.37.17.17,0,0,0,.11,0c.09-.11.22,0,.24.08.07.19.19.23.32.17s.15,0,.19.09a2.22,2.22,0,0,0,.2.45.51.51,0,0,0,.24.21.57.57,0,0,1,.38.43.35.35,0,0,0,.11.18.29.29,0,0,0,.15.06c.14-.15.48-.15.38-.48,0-.1,0-.22.2-.16s.26-.05.23-.14a.27.27,0,0,1,.1-.33c.07-.07.12,0,.19.06a1.92,1.92,0,0,0,.48.51.49.49,0,0,1,.15.13c.24.36.54.71.75,1.09a1,1,0,0,0,.58.5.53.53,0,0,1,.14.12c.14.17.36.19.53.33h0c0-.21.34-.08.45-.18s.09-.07.13,0,0,.17.16.2.1-.05.14-.09,0,0,0-.08a.16.16,0,0,1,0-.13l.06,0s0,.06,0,.08,0,0-.06,0,.1.09.09.11,0,.12.1.15.1,0,.13,0,.09.11.15.16h.1s.07-.09.11-.12a.42.42,0,0,1,.12,0l0,.09,0,.09a.34.34,0,0,0,.13,0c.06,0,.09,0,.14,0s.2,0,.26.14.15.09.16.12a.28.28,0,0,0,.31.19.22.22,0,0,1,.23.13c.07.19.25.06.34.19l.23.28h.18c.19.3.21.12.3.06a3.68,3.68,0,0,1,.35-.15.22.22,0,0,1,.28,0l.1,0c.06-.08.22-.12.07-.28,0,0,0,0,0,0s-.06,0-.06,0h.07v0c.13-.06.23,0,.23.08s-.11.16-.16.25a.25.25,0,0,0,0,.15s0,.13.11.08a.13.13,0,0,1,.19,0s0,.09,0,.12,0,0,0,.06a1.12,1.12,0,0,0,.05.13s.13,0,.15,0,.09-.23.31-.24.32,0,.32-.09-.05-.23.17-.21c-.16-.24.1-.25.23-.33a1.82,1.82,0,0,1,.93.12l-.12.1s0,0,0,0l.07.12h.12l.14-.07s.05.12.13.08a2.46,2.46,0,0,0,.41-.28s0-.09-.06-.13h-.1c-.1,0-.23,0-.3,0s0-.11,0-.16.12-.15,0-.28c.19,0,.2-.11.18-.25s.15-.2.12-.32.11-.09.15-.08a.91.91,0,0,1,.24.16c.23.18.3.23.53.22a.68.68,0,0,1,.51.19.21.21,0,0,0,.1,0s.05,0,.08-.06l0,.09v.23s0,0,0,.06l.07,0,.11-.2s0,0,.07,0l0,0a.14.14,0,0,0,0,.06c0,.08-.17.14,0,.22s0-.16.23-.14c0,0,0-.06,0-.08l.13-.15v.17s0,.09,0,.1.21.1,0,.11.18.39.15.58h0s0,0,0,0,0,0,0,0l-.05,0h0c-.07-.06.18.4.21.35s0,0,.09,0,.08.08.08.11.33.51.28.37-.06-.05-.06-.07,0-.05.05-.07l.11.07c.05,0,.16-.25.31-.32s.08-.14,0-.24a1.62,1.62,0,0,1-.18-.1s0,0,0,0a.08.08,0,0,1,.08,0c.15,0,.18,0,.19,0s-.22-.18,0-.19.26.08.31.05-.25-.22,0-.22S156,34.45,156,34.29ZM125.09,6.19s-.07.07-.1.08l-.18,0a2.9,2.9,0,0,1-.2-.33s0,0,.07,0a.12.12,0,0,1,.1,0c.07,0,.15-.06.22.08S125.24,6.17,125.09,6.19Zm9.24,19.86s-.09,0-.14,0l0-.12.1,0A.36.36,0,0,1,134.33,26.05Zm1.42.17a1.07,1.07,0,0,0-.59-.11.53.53,0,0,1-.16,0,.37.37,0,0,1-.07-.12c0-.06,0-.11,0-.17l-.11.11-.08.1c0,.06-.09.06-.16,0a1,1,0,0,0-.13-.09c-.12-.08-.13-.16-.09-.24l.29-.52a.11.11,0,0,0,0-.11c-.13-.21-.09-.41-.2-.62s0-.22.23-.17a.94.94,0,0,1,.31.08c.05,0,0,.14,0,.22a.66.66,0,0,0,.13.3,1.59,1.59,0,0,1,.27.47,8.71,8.71,0,0,0,.42.79C135.88,26.2,135.84,26.26,135.75,26.22Zm10.18-3.09a.2.2,0,0,1,0-.16s.12,0,.16,0a1,1,0,0,1,.23.17s0,0,0,.05S146,23.22,145.93,23.13Zm.92,11.4-.09-.1H147s0,.06,0,.07Zm.43.24-.16-.28h0s.11.06.12.08a.79.79,0,0,1,0,.2Zm1.2-.4h-.13a.48.48,0,0,1-.08-.1l.21,0S148.49,34.37,148.48,34.37Zm-.08-.9v-.11l.08-.1h0l.05.06a.16.16,0,0,1-.06.08Zm.35,1.52s-.05,0-.08-.06l.2,0a.41.41,0,0,1,0,.1Zm.65-.44-.12,0s0-.08,0-.09l.24,0s0,.06,0,.07A1.21,1.21,0,0,1,149.4,34.55Zm5,.42a.74.74,0,0,0-.11-.16.55.55,0,0,1,.18,0c.1,0,.19.07.13.12S154.46,35,154.36,35Z"/><path class="cls-7" d="M115.21,10.68h0a.13.13,0,0,1,0,.06.21.21,0,0,1,0,.07l0,0h0V11l0,0s-.08,0-.12.13-.13.2-.07.2,0,0,0,0a.13.13,0,0,1,0,.07c0,.05,0,.05,0,0s0-.15-.16,0-.09,0-.09.07-.09.07-.13.12a.2.2,0,0,0-.07.06.91.91,0,0,1-.26.22.65.65,0,0,0-.15.1c-.12.09-.12.09-.06-.07a.33.33,0,0,0,0-.13c0-.07,0-.16,0-.11v.06s0,0-.06,0-.06,0,0-.1-.08,0-.1-.05,0,0,0-.07l0,0c.09-.08.09-.08.08-.13s0,0-.07,0l-.08.06c-.07.06,0-.08,0-.05a.55.55,0,0,1-.15.08,4.25,4.25,0,0,1-.39.25s0,0-.1.1a.72.72,0,0,1-.24.25.64.64,0,0,0-.24.19.2.2,0,0,1-.1.07l-.24.09-.22.07,0,0c0,.08,0,.07-.08.08l-.11.08a.31.31,0,0,0-.09.07c0,.07-.07.11-.12.13a2.1,2.1,0,0,1-.24.14.59.59,0,0,0-.23.14c-.13.1-.27.23-.4.34a.47.47,0,0,0,0,.09.18.18,0,0,1-.11.14s-.07,0-.08,0-.09,0-.13,0,0,0-.05.11l-.08.05-.2,0s-.06,0-.07.08a.19.19,0,0,1-.14.17s0,0,0,0,0,0,0,0a.87.87,0,0,0,.18-.39c0-.05,0-.11,0-.11s-.21.11-.32.21a1.8,1.8,0,0,0-.18.2c-.06.07-.11.18-.18.19l0,.07c0,.07,0,0,0,0s.1,0,.11,0,0,.06.1,0,.06,0,.06,0a.19.19,0,0,1,0,.09s0,0,0,0-.06,0-.07,0-.06.09-.07.07-.12,0-.16.1-.08,0-.12.12-.1.1-.15.15,0,0,0,0a.3.3,0,0,0-.09.18.39.39,0,0,1,0,.13s0,.09,0,.06-.09.05-.1,0,0,0-.06,0,0,.05,0,.07h0c.07,0,0,.15-.09.29l-.09.12-.08,0c-.1.14-.17.18-.23.18h-.09l-.1,0s0,.09,0,.1,0,.12.13.09,0,0,0,.06,0,.06-.06.1l-.11.1-.26,0s0,0-.06,0-.13,0-.19.06a.71.71,0,0,1-.2,0s0,0,0,0a.11.11,0,0,0,0,.06c0,.05,0,.12,0,.12s-.07.3-.09.44,0,0,0,.07-.14.08-.21.13,0,.07,0,.08.12.17.2.22,0,.05,0,.08,0,.08-.1.14-.14.11-.18.1l-.2,0c-.15-.05-.33-.05-.47-.1s-.09,0-.19.1l0,0s-.08,0-.13,0-.11.17-.17.17a1.28,1.28,0,0,0-.16.28s0,.12,0,.11.06.08.1.1,0,.09.1.09a.29.29,0,0,1,.13.05l0,0,.18.2s0,.15-.08.26l-.11.11c-.06.05,0,0,0,0h0l0,0a.21.21,0,0,0,0,.06l0,.26a.14.14,0,0,1,0,.06l0,0,0-.11c0-.12-.2,0-.27-.07l-.07,0a.14.14,0,0,0-.1-.12s0-.07,0-.09,0,0-.06,0,0,0,0,.06a.9.9,0,0,0,0,.22s0,.1-.08.11l-.1,0-.09,0a.75.75,0,0,1-.2.12.79.79,0,0,0-.18.14.26.26,0,0,1-.16.16.84.84,0,0,0-.25.22,1.33,1.33,0,0,1-.23.24.21.21,0,0,1-.08.06c-.08,0,0-.12-.06-.16s.06-.11.11-.17.13-.17.09-.21,0,0,0-.07,0-.07,0-.07a.36.36,0,0,0-.1.07c-.06.08-.09.11-.08,0l0,0c0,.07,0,.07-.06.08l-.08,0c-.07.13-.08.07-.09.05s0,0,0,0,0,0,0,0,0,.05,0,.06l0,0s0,0,0,0l-.05,0s0,0,0,0l0,0a.17.17,0,0,0,0,.05.19.19,0,0,1-.08.13s-.1.08-.1.07-.1,0-.13,0,0,0-.11.13l0,0c-.06,0-.14.08-.17.07s-.15.1-.18.05c-.11.11-.13,0-.19,0a0,0,0,0,0,0,0c-.12.13-.18.11-.27.15s-.1,0-.22.09-.09,0-.12.05,0,0,.08,0,.07.05,0,.18l-.06.1a4,4,0,0,0-.2.42c0,.05-.08.08-.1.15a.52.52,0,0,1-.28.36c-.1.06-.19.05-.29.13a.32.32,0,0,1-.32.06.13.13,0,0,0-.17,0c-.1.08-.18.14-.22.1a0,0,0,0,0,0,0c-.13.15-.22.12-.35.24s0,0,0,0a.16.16,0,0,1,0-.07s0-.08-.06,0a.36.36,0,0,0,0,.1s0,0,0,0,0,.1-.12.24l-.14.22a.54.54,0,0,0,0,.1S99,24,99,24s-.1.15-.15.16-.08.1-.12.13l-.13.07,0,0c-.1.05-.19.2-.28.28s0,.06-.07.06-.19.12-.29.29-.08.1-.1,0-.1.12-.15.16,0,.11-.12.18a1.74,1.74,0,0,0-.13.2,1.7,1.7,0,0,0-.16.27c0,.1-.13.21-.17.3a.82.82,0,0,1-.23.29c-.08.08-.17.25-.24.22l-.06.06c-.07.15-.14.15-.21.23s-.14.06-.2.21l-.17.07s0,0,0,.07a.28.28,0,0,1-.13.2s0,0,0,.05,0,.06.06.09a1,1,0,0,0,.12.17c.08.07.13.18.06.41a0,0,0,0,0,0,.06c.06,0,.08.09.09.19a.14.14,0,0,1,0,.06c-.09.08-.17.26-.26.32a1.18,1.18,0,0,0-.25.25s0,.07,0,.12,0,.06,0,.1-.08.14-.06.17a.12.12,0,0,0,.05.07s.09,0,.16-.1l.31-.34a1.36,1.36,0,0,0,.12-.12.65.65,0,0,0,.13-.16,2,2,0,0,1,.25-.3c.11-.12.21-.17.24-.14s.08,0,.13,0,.1,0,.09.09a.9.9,0,0,1-.19.27,2.2,2.2,0,0,1-.14.18.8.8,0,0,0-.18.27.5.5,0,0,1-.1.14c-.08.15-.2.23-.28.37a.55.55,0,0,1-.14.19.87.87,0,0,0-.2.31c0,.08,0,.12,0,.11s.07,0,.07,0,0,0,.08,0,.06-.09.1-.13a4,4,0,0,0,.43-.53c.18-.24.33-.34.44-.3s.17.1.28.11a.07.07,0,0,1,0,.08c0,.09,0,.1,0,.07s.07,0,.11,0,.11-.06.09,0h0c.08-.1.11-.07.16-.09s.11-.08.11-.07.1,0,.16-.06.11-.09.08,0h0c.06,0,.14-.1.21-.15l.16-.12.15-.09a1.4,1.4,0,0,1,.16-.1c.06,0,.08,0,.16-.06s.09,0,.16-.12h.08c0-.1.07-.06.11-.09l.15-.13.13-.1a2,2,0,0,1,.17-.15s.11-.11.15-.11.1-.1.15-.13.16-.18.25-.23.08-.13.14-.2a.89.89,0,0,1,.13-.14s0,0,.05,0,.26.06.32.19a.08.08,0,0,0,.11,0c.1-.05.17,0,.29-.14a.17.17,0,0,1,.12-.05c.07,0,.21-.08.33-.12a.9.9,0,0,0,.27-.24,7.68,7.68,0,0,1,.83-.87l.14-.13.1-.11c.11-.17.18-.21.24-.21h0a.34.34,0,0,0,.12-.09c.06-.08,0,0,0-.05h0s0,0,0,0a.2.2,0,0,1,.06-.07s.06,0,.11-.09l0,0a.66.66,0,0,1,.23,0s0,0,.08-.06a2.71,2.71,0,0,0,.16-.27c.1-.16.11-.2,0-.19s0,0,0-.1a1,1,0,0,1,.18-.23c.07-.07.11-.11.1-.05l0,.3s0,.05,0,.08l0,0,0-.23,0,0v.09a2.26,2.26,0,0,1,0,.26c.1-.14.2-.27.31-.4a.21.21,0,0,1,0-.08l0-.22s0-.06,0-.09l.14-.19.2-.21c.07-.06.16-.19.24-.22l.06-.06a.28.28,0,0,1,.1-.17,3.39,3.39,0,0,1,.34-.33l.12-.05s0,0,0,.07-.07.17-.16.24,0,0,0,0a.36.36,0,0,1-.15.17.38.38,0,0,0-.12.1,1,1,0,0,0-.15.24l0,0a3.33,3.33,0,0,1,.39-.34c0-.07.1-.15.13-.21l.13-.21c.08-.1.13-.13.15-.07s0,.06,0,.09h0v0l0-.12s0-.05,0-.05h0l.06,0,0-.1s0,0,0-.07a.15.15,0,0,1,0-.06h0s0,0,0,.06,0,0,0,0a.33.33,0,0,0,0-.06c0-.05,0-.09,0-.13s.09-.18.14-.27.06-.11.06,0a.21.21,0,0,1,.14,0l.14-.15a.58.58,0,0,0-.17-.06s0,0,0-.05-.06,0,0-.09l0,0s0,0,0,0,.09,0,.15,0,.06.05.09.08h0l0,0a.47.47,0,0,1,.12-.09.33.33,0,0,0-.17-.07s0,0,0,0l0,0a3.48,3.48,0,0,1,.73-.42,3.36,3.36,0,0,1,.44-.2.13.13,0,0,0,.07,0,1.28,1.28,0,0,1,.24-.23l0-.06c0-.07.08-.13.1-.14s.12-.08.14-.17a.12.12,0,0,1,.08-.09l.19-.06a.54.54,0,0,0,.14-.12c.07-.09.17-.18.23-.16a.15.15,0,0,0,.08,0l.07-.08c0-.11.1-.31,0-.31s0,0,0-.14.07-.16,0-.16-.06,0-.06-.1a.12.12,0,0,1,.07-.11,1.23,1.23,0,0,0,.29-.21l.09-.08c.17-.09.36-.22.53-.29a.73.73,0,0,0,.32-.28l.07-.06a3.45,3.45,0,0,0,.26-.28v0s.09-.22.09-.29,0-.07.06-.08.06,0,.1-.07a.15.15,0,0,0,0-.09s0,0,0,0,0,0,0,0l0,0s0,0,0,0l0,0,.06,0s0,0,.07,0,0-.07,0-.08,0,0,.09-.07,0-.05,0-.06a.27.27,0,0,1,0-.09l0-.07v0l0,0s0-.05,0-.08a.26.26,0,0,1,0-.08c0-.06.06-.13.11-.14s.08-.08.09-.08.1-.08.14-.16.07-.11.11-.12.1-.14.16-.18a1.19,1.19,0,0,0,.15-.09l0-.05,0-.06c.14-.07.1-.11.11-.18s0-.16.06-.23a.32.32,0,0,1,.1-.16.14.14,0,0,0,0,0c0-.05,0-.15-.06-.08h0l0,0a.05.05,0,0,1,0,0h0c0-.09.08-.14.1-.12s0,.08,0,.12,0,0,0,0,0,0,0-.05a.17.17,0,0,1,.07-.11s0,0,0,0,0,0,0,0h0s0-.08,0-.09,0-.09,0-.22.09-.2.07-.2-.08,0,0-.14c-.12.07,0-.1,0-.18s.05-.15.18-.25,0-.05,0,0,0,0,0-.07l.15-.19V14s0,0,0,0l0,0,0-.07s0-.06,0-.09,0,0,.06-.07a1.77,1.77,0,0,0,0-.29s0,0,0,0l0,.06c0,.06-.07.14-.1.18s0,0,0,0,0-.09-.06-.07,0-.13,0-.14,0-.12,0-.12,0-.07,0-.09a.74.74,0,0,1,.12-.13.83.83,0,0,0,.22-.28.79.79,0,0,1,.21-.28s0,0,0-.06a.13.13,0,0,0,0-.06h0l.06,0h0s0,0,0-.05l0-.09s0,0,0-.05h0s0,0,0,0,0,.12,0,0,0,0,0-.16,0,0,0,0v-.1l0,0s0,0,0,0,.09-.11,0,0,0,.14,0,.12c.13-.17.13-.18.18-.13h0s0,0,0,0l0,0v0l-.09.08s0,.07,0,.07.07,0,.09.09l0,0,0-.11s0,0,0,0l.06,0a.37.37,0,0,0,0-.09s0,0,0-.06,0,0,0-.06l.06,0s.12,0,.12.05c0-.08.12-.17.07-.16l0,0s0,0,0,0l.06,0,.06-.09s0-.06,0-.05-.08,0-.06-.1,0-.06-.08,0l-.08.09s0,0,0,0l0-.05c0-.08.06-.1,0-.11s-.12.1,0,0,.06,0,.13-.12,0,0,0-.06-.14.12-.06,0,.08,0,.16-.13,0,0,0,0h0V11s0-.08,0-.12,0-.12,0,0h0C115.3,10.75,115.23,10.75,115.21,10.68ZM97.84,25.26a.17.17,0,0,1,0,.08.29.29,0,0,1-.06.1.51.51,0,0,1-.15.07s0,0,0-.05a.13.13,0,0,1,0-.05s0-.1.09-.13S97.88,25.17,97.84,25.26Zm8.4-2.71a.31.31,0,0,1,0,.09l0,0,0-.06S106.24,22.54,106.24,22.55Zm.48-.83a1.73,1.73,0,0,0-.21.34.35.35,0,0,1-.06.09l0,0h-.05v.15s0,.06,0,.09l-.07.07c0,.06-.08.06-.09,0l-.06-.25a0,0,0,0,0,0,0c-.09.06-.14,0-.23,0s-.07,0,0-.16a1.4,1.4,0,0,1,.12-.18s.05,0,.07,0,.07,0,.12,0a.69.69,0,0,1,.22-.1,1.59,1.59,0,0,0,.35-.14S106.76,21.67,106.72,21.72ZM109,15.16h0s0-.07,0-.1l.12-.11h0A.39.39,0,0,1,109,15.16Zm3.48,1.07s0,0-.06,0l.06-.11s0,0,0,0A.19.19,0,0,1,112.46,16.23Zm.2-.22-.13,0s0,0,0,0,0-.06.06-.06h.07Zm.26-.78,0,.08,0,0,.07-.13Zm-.28-.08h0a.15.15,0,0,1,0-.06l0,0h0s0,0,0,0S112.64,15.13,112.64,15.15Zm.53,0,0,0,.06-.12h0A.41.41,0,0,1,113.17,15.16Zm.08-.45,0,.06s0,0,0,0a1.47,1.47,0,0,1,.06-.14h0S113.25,14.67,113.25,14.71Zm1.64-2.93-.08,0,.06-.1c0-.06.08-.1.08-.06Z"/></g></g></svg>