<svg id="圖層_3" data-name="圖層 3" xmlns="http://www.w3.org/2000/svg" viewBox="0 0 250.55 80.51"><defs><style>.cls-1{fill:#9d1f24;}.cls-2{fill:#040000;}</style></defs><path class="cls-1" d="M138.37,14.75a4.37,4.37,0,0,0-.22-.71,6.29,6.29,0,0,1-.38-1c-.11-.37-.24-.77-.32-1.1a5.92,5.92,0,0,0-.47-1.18,13.36,13.36,0,0,0-1-1.58,1.67,1.67,0,0,1-.36-.73,1.71,1.71,0,0,0-.19-.53,3.63,3.63,0,0,0-.58-.75c-.11-.13-.64-.76-.51-.82a2,2,0,0,0-.27-.38c-.3-.3-.58-.61-.86-.91l-.43-.45-.43-.42a2.83,2.83,0,0,0-.53-.4A18.78,18.78,0,0,0,128.23,2,22.37,22.37,0,0,0,122.52.75L122.24.7s0-.06,0-.06c.49-.08.88-.18,1.28-.27l-.91-.11-.31-.05,0,0c-.24.08-.32.24-.67.26s-.62.17-1.08.22c-.08,0-.08.06-.15.08a.49.49,0,0,1-.21,0c-.43-.07-.1-.12-.05-.18s0-.1.09-.13q.59-.21,1.17-.39L120.3,0a7.22,7.22,0,0,1-1,.35c0,.16-.26.09-.47.05L117.71.18c-.18,0-.28-.09-.44-.13L117,0s-.07.07-.08.11,0,.09,0,.14-.12,0-.17.06a1,1,0,0,1-.31,0c-.06,0,0-.1,0-.14s-.2-.07-.3-.11l-.44.14-.25.12c-.16.08-.22.08-.29,0a.93.93,0,0,0-.3-.13h-.09s-.14.05-.14.07,0,.13,0,.21-.43.32-1,.41l-1.07.17-.74.09c-.54.27-1.14.57-1.83.89h.09a2.85,2.85,0,0,0,.84-.18,3.65,3.65,0,0,0,.56-.28,1.16,1.16,0,0,1,.73-.24.61.61,0,0,0,.19,0c.51-.23.73-.1,1.17-.2.25-.06.27,0,.1.11s-.5.27-.77.41c-.5.26-1.13.4-1.66.65-.35.16-.46.15-.57.11a1,1,0,0,0-.29.11,7.84,7.84,0,0,1-1.07.61c-.37.19-.66.38-1,.53a5.37,5.37,0,0,1-.68.34c-.12,0-.12-.06-.17-.09l-.44-.19a.26.26,0,0,1-.09-.14l-.75.44c-.25.15-.5.3-.74.46.19.08.23.27.39.38s.05.07.09.11l.08,0a.6.6,0,0,0,.12-.13c-.09-.15-.2-.28-.29-.42s0-.1,0-.15a.6.6,0,0,1,.19,0c.19.09.35.19.53.28s-.07.22-.35.44a6,6,0,0,1-.88.62c-.29.14-.33.11-.15-.18s.18-.43-.38-.11a3.28,3.28,0,0,0-.88.5,1,1,0,0,0-.33.43c-.17.4-.44.9-.65,1.39a1.08,1.08,0,0,1-.18.24,1.37,1.37,0,0,0-.41.63,2.62,2.62,0,0,1-.23.32c-.06.05-.1,0-.1,0s.1-.27.08-.26.23-.53,0-.2a4.75,4.75,0,0,0-.41.73.79.79,0,0,0-.07.22,4.68,4.68,0,0,1-.26.74,5.67,5.67,0,0,1-.48.81,3.31,3.31,0,0,0-.33.7,9.56,9.56,0,0,0-.35.94,27.12,27.12,0,0,0-.82,3.25c-.05.28-.09.56-.13.85,0,.13,0,.29,0,.41l0,.37c0,.48-.09,1-.12,1.46,0,12.93,16.18,29.93,16.39,30.17a4.11,4.11,0,0,0,6.17-.42c.16-.25,14.5-23.4,14.68-23.76a7.22,7.22,0,0,0,.44-1.29,16.57,16.57,0,0,0,.52-4.6c0-.2,0-.48,0-.72a8.67,8.67,0,0,0-.09-1.35,3.26,3.26,0,0,0-.05-.33l0-.26-.12-.53c-.1-.4-.12-.6,0-.61s.22-.07.4.47c.1.29.24.42.21-.27s.12-.42.23-.13c.35,1,.44.12.64.1A2.2,2.2,0,0,0,138.37,14.75ZM125.92,18.2a1.69,1.69,0,0,1-.14.45c0,.05,0,.14-.06.21a2,2,0,0,1-.13.34c0,.1-.11.2-.16.31l0,0c0-.16-.2.15-.26.12s-.05,0-.08.12A.7.7,0,0,1,125,20s-.06,0-.08,0,0,0,0-.05-.08.12-.07.13,0,.1-.08.17-.07,0-.09,0l-.13.18a.15.15,0,0,1-.07.05s0,0-.06,0l-.07,0v.05a.13.13,0,0,1,0,.06l-.09.07-.1,0a.41.41,0,0,0-.22.19,2,2,0,0,0-.16.14.54.54,0,0,1-.3.21.54.54,0,0,0-.2.1h0a.24.24,0,0,0,.09.37s0,.05,0,.08a.2.2,0,0,0,0,.24s0,0,0,0,.31,0,.45-.07a1.72,1.72,0,0,1,.39-.1s0,.05.07.07l.09,0c.07,0,.16,0,.16.05a.45.45,0,0,1,0,.11c0,.07-.11.1-.24.13l-.53.11a1.17,1.17,0,0,1-.2.06,1,1,0,0,1-.23,0,3.42,3.42,0,0,0-.45,0,.58.58,0,0,0-.37.15,1.57,1.57,0,0,1-.19.15c-.07.05-.15.11-.12.16s.22,0,.37,0a2.43,2.43,0,0,0,.27,0,.72.72,0,0,1,.36,0,.61.61,0,0,0,.19,0c.18,0,.39-.06.55-.05a.64.64,0,0,0,.27,0,1,1,0,0,1,.42,0c.09,0,.12,0,0,.09s-.12.08-.08.11,0,.08-.09.13-.13,0-.21,0a4.22,4.22,0,0,1-.86.11,1.45,1.45,0,0,0-.82.25,3.56,3.56,0,0,1-.45.37c-.06,0-.1.08-.06.1s0,.07,0,.07-.12.07-.21.09-.21.05-.16.09l0,0a1.17,1.17,0,0,0-.33.07c-.07,0-.23,0-.23,0s-.22.06-.35.09-.24,0-.17.06l-.1,0a1.52,1.52,0,0,1-.48,0h-.35c-.12,0-.23,0-.35,0l-.38,0a1.5,1.5,0,0,1-.37,0,1.33,1.33,0,0,1-.4-.06h-.2c-.08-.07-.17-.05-.26-.07l-.36-.1-.32-.1c-.14-.05-.3-.13-.43-.17s-.27-.13-.38-.15-.24-.13-.36-.19-.38-.25-.61-.38a3.73,3.73,0,0,1-.3-.29,2.37,2.37,0,0,0-.29-.25.52.52,0,0,0-.13-.06l-.53-.29a1.89,1.89,0,0,0-.44-.21.79.79,0,0,1-.3-.24c-.11-.12-.21-.21-.31-.33a2.73,2.73,0,0,1-.29-.42c-.07-.1-.16-.24-.21-.3a2.54,2.54,0,0,1-.29-.42l-.25-.49a2.87,2.87,0,0,1-.25-.75c0-.18-.06-.37-.09-.56l0-.13c0-.05,0-.11,0-.16l0-.33a11,11,0,0,1,0-1.28,2.58,2.58,0,0,1,0-.39,1.62,1.62,0,0,1,.06-.29c0-.13.08-.24.11-.34a1.51,1.51,0,0,0,0-.3.28.28,0,0,1,0-.09,2,2,0,0,1,.08-.31c.08-.15,0,.12,0,.07s0,.08,0,.11,0,0,0,0a.52.52,0,0,0,.06-.13.46.46,0,0,1,.1-.28.66.66,0,0,0,0-.11c0-.19.09-.41.12-.57a.31.31,0,0,1,.08-.19,1.16,1.16,0,0,1,.28-.27c.18-.17.21-.17.15,0s0,.13.07.05a1.67,1.67,0,0,0,.27-.31c.09-.11.15-.18.09-.2l-.22-.05s0,0-.07,0,0,.05,0,.05l.15.13a.33.33,0,0,1,0,.06s0,0,0,0,0,0,0,0-.1-.09-.18-.1l.24-.24a2.61,2.61,0,0,1,.24-.23l0,0,.18,0s0,0,.07,0a1.92,1.92,0,0,0,.23-.19l.3-.29a2.6,2.6,0,0,0,.35-.32l.09-.07s.09,0,.21-.09.39-.25.56-.4l.24-.22c.06,0,0-.08,0,0s-.25.05-.42.18l-.07,0a.47.47,0,0,0-.25.16l-.18.16a1.42,1.42,0,0,1-.3.14h0l.6-.5.26-.1a3.08,3.08,0,0,0,.38-.16c.2-.08.34-.18.33-.24s0-.05,0-.08a.14.14,0,0,0,0,0h0a.23.23,0,0,1,.12,0s0,0,.11,0L116,11a.78.78,0,0,1,.15-.1l.12,0s0,0,0,0,.08,0,.12,0l.06,0s0,0,0-.06a.08.08,0,0,1,0,0,.21.21,0,0,1,.11,0h.17l.44,0c.09,0,.2,0,.18-.06a3.76,3.76,0,0,0,.33-.22l.4-.06-.4.25s0,0,0,.06-.13.08,0,.06l.07,0s0,0,0,0,.21-.12.38-.18.15-.11.23-.16h.14l.35,0c-.15.06-.28.14-.46.21,0,0,0,0,0,0h.11a8.33,8.33,0,0,1,2.24-.07,6.92,6.92,0,0,1,1.5.35l.23.1.2.12.2.13.41.26a.52.52,0,0,1,.13.11s.22.22.27.26A1.43,1.43,0,0,1,124,12a.51.51,0,0,1,.12.18.66.66,0,0,0,.2.24,3.4,3.4,0,0,1,.52.49,2.22,2.22,0,0,1,.28.39l.22.39a3.38,3.38,0,0,0,.23.32,1.09,1.09,0,0,1,.15.25.79.79,0,0,1,.07.2c-.07,0,0,.35-.25,0-.06-.1-.13-.13-.07.07s0,.22-.05.12-.15-.15-.19-.14,0,.09.06.23a1.51,1.51,0,0,1,.09.18l0,.09,0,.12a3.22,3.22,0,0,1,.16.5c0,.08,0,.19.07.26a6.41,6.41,0,0,1,.22,1.77A2.78,2.78,0,0,1,125.92,18.2Z"/><path class="cls-2" d="M53.37,29.35H52.13a2.38,2.38,0,0,0-2.6,2.12L44.67,56.74,41.79,73h-.34c-1.17-5.48-2.33-10.89-3.56-16.24L31.45,31.4a2.42,2.42,0,0,0-2.67-2H27.2a2.42,2.42,0,0,0-2.67,2L18.16,56.74C16.93,62.16,15.69,67.57,14.53,73h-.27c-1-5.41-2-10.82-2.95-16.24L6.45,31.47a2.38,2.38,0,0,0-2.61-2.12H2.2A1.94,1.94,0,0,0,.08,32L9.67,77.5a2.49,2.49,0,0,0,2.67,2.12h3.22a2.36,2.36,0,0,0,2.6-2.05l7-28.22c.82-4,1.71-7.61,2.53-11.44H28c.83,3.83,1.58,7.46,2.47,11.44l7.06,28.22a2.42,2.42,0,0,0,2.67,2.05h3.29A2.43,2.43,0,0,0,46,77.5L55.49,32A1.94,1.94,0,0,0,53.37,29.35Z"/><path class="cls-2" d="M82.54,41.47c-5.07,0-8.9,2.81-12.33,6.23L70.42,40V27.5A2.2,2.2,0,0,0,68,25.1H66.58a2.2,2.2,0,0,0-2.39,2.4V77.22a2.2,2.2,0,0,0,2.39,2.4H68a2.2,2.2,0,0,0,2.4-2.4V52.63C74.19,48.87,76.79,47,80.62,47c4.94,0,7.06,2.94,7.06,9.93V77.22a2.2,2.2,0,0,0,2.4,2.4h1.44a2.2,2.2,0,0,0,2.39-2.4V56.06C93.91,46.54,90.35,41.47,82.54,41.47Z"/><path class="cls-2" d="M129.05,58H109.12a15,15,0,0,1,2.33-6.86c-1-1.23-2.18-2.7-3.39-4.33A20.83,20.83,0,0,0,103,61.06c0,12.26,8,19.45,17.81,19.45a21.55,21.55,0,0,0,10.69-2.87c1.09-.62,1.23-1.65.54-3s-1.84-1.5-3.22-.82a15.71,15.71,0,0,1-7.26,1.71c-7.05,0-11.91-5.07-12.32-13H132a2.19,2.19,0,0,0,2.47-2.26,7.67,7.67,0,0,0,.07-1.3c0-6.66-2.1-11.83-6-14.77-1,1.55-1.88,3-2.73,4.42C127.9,50.49,129.05,53.66,129.05,58Z"/><path class="cls-2" d="M162,41.61a14.25,14.25,0,0,0-1.85-.14c-4.17,0-7.94,3-10.54,7.74h-.21l-.34-4.45a2.32,2.32,0,0,0-2.54-2.33h-.41a2.2,2.2,0,0,0-2.4,2.4V77.22a2.2,2.2,0,0,0,2.4,2.4h1.44a2.2,2.2,0,0,0,2.4-2.4V55.72c2.46-6.37,6.3-8.57,9.38-8.57a7.4,7.4,0,0,1,1.85.14c1.17.14,1.92-.27,2.26-1.85l.21-1C163.91,43,163.5,41.81,162,41.61Z"/><path class="cls-2" d="M184.25,41.47c-8.63,0-16.78,7.53-16.78,19.59,0,12.26,7.95,19.45,17.81,19.45A21.49,21.49,0,0,0,196,77.64c1.1-.62,1.24-1.65.55-3s-1.85-1.5-3.22-.82A15.71,15.71,0,0,1,186,75.51c-7.05,0-11.92-5.07-12.33-13h22.81A2.19,2.19,0,0,0,199,60.24a7.67,7.67,0,0,0,.07-1.3C199.05,48.32,193.7,41.47,184.25,41.47ZM173.63,58c.76-7.26,5.42-11.51,10.69-11.51,5.82,0,9.25,4,9.25,11.51Z"/><path class="cls-2" d="M212.26,26.81h-1.78a2.09,2.09,0,0,0-2.33,2.4l.07,4.66,1,10.41c.14,1.51.89,2.26,2.12,2.26s2-.75,2.13-2.26l1-10.41.07-4.66A2.09,2.09,0,0,0,212.26,26.81Z"/><path class="cls-2" d="M239.18,58.18c-4.18-1.57-8-2.87-8-6.44,0-2.87,2.19-5.34,6.92-5.34a11.86,11.86,0,0,1,6.5,2,2.29,2.29,0,0,0,3.36-.55l.14-.21a2.1,2.1,0,0,0-.55-3.35A17.85,17.85,0,0,0,238,41.47c-8.08,0-12.88,4.66-12.88,10.55,0,6.3,5.68,8.83,10.89,10.75,4.11,1.58,8.49,3.22,8.49,7.06,0,3.22-2.39,5.82-7.32,5.82a15.94,15.94,0,0,1-9.11-2.94,2.18,2.18,0,0,0-3.36.47l-.21.28a2.14,2.14,0,0,0,.48,3.35,22.28,22.28,0,0,0,12,3.7c8.77,0,13.56-5,13.56-11C250.55,62.43,244.59,60.24,239.18,58.18Z"/></svg>