<svg id="圖層_3" data-name="圖層 3" xmlns="http://www.w3.org/2000/svg" viewBox="0 0 223.76 52.35"><defs><style>.cls-1{fill:#040000;}.cls-2{fill:#080707;}</style></defs><path class="cls-1" d="M202.5,23.34h17.37a1.07,1.07,0,0,0,1.07-.62,1.49,1.49,0,0,1,1.3-.79,1.46,1.46,0,0,1,1.52,1.46,3.15,3.15,0,0,1-3.33,2.93H202.5V48.15a2.18,2.18,0,0,1-2.2,2.26,2,2,0,0,1-2-1.41c-.84-2.65-4.85-3.33-8.51-3.33a1.27,1.27,0,1,1,0-2.54c1.35,0,5.13,0,7.72,1.3a.21.21,0,0,0,.17.06.44.44,0,0,0,.45-.46V26.32H178c-1.91,0-2.08-3-.11-3h20.3v-6.6a2,2,0,0,1,2.09-2.09,2.35,2.35,0,0,1,1.58.57,47.8,47.8,0,0,0,9.59-8.52H184.22c-2,0-2.2-2.93-.16-2.93h29.6a2.32,2.32,0,0,1,1.86-1.07,2.4,2.4,0,0,1,2,3.72c-1.18,2.08-5.52,5.86-7.5,7.44a46,46,0,0,1-7.55,4.68Z"/><path class="cls-1" d="M147.84,46.14a1.9,1.9,0,0,1-1.67,2.13c-.79,0-1.58-.69-1.58-2V46.2h-7.18c0,1.44-.88,2.18-1.71,2.18s-1.54-.68-1.54-2V9.06a1.94,1.94,0,0,1,1.63-2.13,1.69,1.69,0,0,1,1.4,1h1.32a54.56,54.56,0,0,0,1.72-6.21c.22-1,.84-1.44,1.45-1.44a1.91,1.91,0,0,1,1.54,2.53,20.55,20.55,0,0,1-2,5.12h3.08A1.46,1.46,0,0,1,145.6,7c.84,0,1.58.8,1.58,2.07V22.28c0,1.38-.79,2.19-1.62,2.19s-1.41-.58-1.54-1.84h-6.61v6.55h7.4A1.53,1.53,0,0,1,146.22,28c.79,0,1.62.75,1.62,2.13ZM137.41,10.73v9.08H144V10.73Zm0,21.27V43.27h7.18V32ZM166.32,3.37a1,1,0,0,0,.83-.64,1.05,1.05,0,0,1,1-.74c.57,0,1.1.51,1.1,1.43a2.69,2.69,0,0,1-2.51,2.88H159.8v7.82h5.06a1.4,1.4,0,0,1,1.24-.63,1.91,1.91,0,0,1,1.62,2.12V42.29c0,1.44-.83,2.24-1.62,2.24a1.65,1.65,0,0,1-1.46-1.15,2.22,2.22,0,0,0-1.18-1.32,5.59,5.59,0,0,0-1.81-.29c-1.32,0-1.32-2.47,0-2.47H162a5.91,5.91,0,0,1,2,.35h.09a.47.47,0,0,0,.4-.52V17.05H159.8V49a1.9,1.9,0,0,1-1.71,2.13c-.75,0-1.54-.69-1.54-2v-32h-4.36V42.18c0,1.43-.84,2.24-1.72,2.24s-1.54-.69-1.54-2.13V15.61c0-1.2.71-2.12,1.63-2.12a1.22,1.22,0,0,1,1.15.63h4.84V6.3h-7.88c-1.59,0-1.76-2.93,0-2.93Z"/><path class="cls-1" d="M132.42,34.88a116.74,116.74,0,0,0-1.9-18.07c-1.12-6-8.69-16.29-8.69-16.29A1.81,1.81,0,0,0,118.76,2s7.69,9.06,8.32,16.54A101.79,101.79,0,0,1,128.89,35a25.94,25.94,0,0,1-1,8.91s-1.16,3.07-3,2.86c-3-1.06-4.18-.57-6.25-.57a1,1,0,1,0,0,2.06c2.23,0,4.84.14,6.09,1.8a1.88,1.88,0,0,0,1.79,1.46h.09a1.84,1.84,0,0,0,1.75-1.16C131.89,46.17,132.55,40.63,132.42,34.88Z"/><path class="cls-1" d="M121.1,35.14a1.2,1.2,0,0,1-1.63-1.72c2.21-2.28,7.38-11.16,8-16.1.09-.72,1.18.94,1.75.92,1.14,0,1.9,1,1.61,2.58C130.25,24.07,123.1,34,121.1,35.14Z"/><path class="cls-1" d="M120,18.23c-1.47,1.11-3.41-.78-2.06-2.16A98.51,98.51,0,0,0,128.62,1.74a2.38,2.38,0,0,1,.52-.68,2.12,2.12,0,0,1,3,2.76C130.31,7.37,123.18,15.8,120,18.23Z"/><path class="cls-1" d="M2.27,28.35V8.14A1.86,1.86,0,0,1,4.22,6.08h7.54v-4A1.73,1.73,0,0,1,13.58.13a1.74,1.74,0,0,1,1.83,1.94v4h5.48a1.74,1.74,0,0,1,1.95,1.83c0,1.12-.71,1.7-1.95,1.7H5.39v5.25H8.63V12.21c0-1.24.53-2,1.42-2s1.35.71,1.35,2v2.65h3.77V12.21c0-1.24.53-2,1.42-2s1.29.71,1.29,2v2.65h4.6a1.72,1.72,0,0,1,1.88,1.94V26a1.75,1.75,0,0,1-1.88,2H5.39v.41C5.39,34.65,5,42.9,2.92,49,2.45,50.27,1.62,50.62.8,50c0,0-1.12-1.35-.71-2.47C2.15,41.78,2.27,34.3,2.27,28.35ZM6.16,46a9.3,9.3,0,0,0,1.35-.29V30.65C7.51,29.47,8,28.7,9,28.7s1.41.77,1.41,1.95v3.71h2.12c1.18,0,2,.65,2,1.65s-.77,1.59-2,1.59H10.4v7.48l2.12-.53c1.24-.29,2.12.06,2.24,1a1.73,1.73,0,0,1-1.53,2.06c-1.83.54-3.65,1-5.42,1.48A1.74,1.74,0,0,1,5.39,48C5,46.91,5.28,46.14,6.16,46ZM8.63,24.76V18H5.39v6.78Zm6.54,0V18H11.4v6.78Zm.59,5.89c0-1.18.53-1.95,1.48-1.95s1.47.77,1.47,1.95v4.53A25.21,25.21,0,0,0,21,33.06c.94-.94,1.76-1.06,2.47-.29S24,34.36,23,35.18a45,45,0,0,1-4.3,3.36v6.6c0,1,.23,1.12.82,1.12H21.6c.47,0,.7-.18.88-1.47.12-1.48.53-2,1.41-1.65,0,0,1.42,1.06,1.24,2.29-.41,3-1.35,3.72-3.12,3.72H19.18c-2.83,0-3.42-.83-3.42-4Zm5.72-5.89V18h-3.6v6.78Zm5.71,9.72h2.24V10.79H28.08c-1.24,0-2-.59-2-1.71a1.64,1.64,0,0,1,1.71-1.82h1.65V2.19a1.84,1.84,0,0,1,1.94-2,1.75,1.75,0,0,1,1.83,2V7.26h9.55V2.19a1.79,1.79,0,0,1,1.88-2,1.75,1.75,0,0,1,1.83,2V34.48h.72c1.24,0,2,.59,2,1.71a1.74,1.74,0,0,1-2,1.82h-20a1.76,1.76,0,0,1-1.94-1.82C25.25,35.07,26,34.48,27.19,34.48ZM42.75,16.39v-5.6H33.2v5.6Zm0,3.3H33.2V25.4h9.55Zm0,14.79V28.76H33.2v5.72Z"/><path class="cls-1" d="M48.24,10.79A3.49,3.49,0,0,0,51.3,7.37c0-1-.57-1.55-1.19-1.55a1.12,1.12,0,0,0-1,.81,1.06,1.06,0,0,1-.9.68h-19c-1.9,0-1.71,3.16,0,3.16h8.48v0c1.35-.83,2,.09,3.2.33l-.71-.22Z"/><path class="cls-2" d="M47.59,34.38a1.55,1.55,0,0,0,1.2-.71,1.9,1.9,0,0,1,1.63-1,1.86,1.86,0,0,1,1.77,1.84c0,1.84-1.84,3.47-4,3.47H30.66c-2.34,0-2.7-3.61-.22-3.61Z"/><path class="cls-2" d="M20.43,6.13a1.54,1.54,0,0,0,1.17-.69,1.83,1.83,0,0,1,1.58-1A1.81,1.81,0,0,1,24.9,6.26c0,1.79-1.79,3.37-3.92,3.37H7.89c-2.27,0-2.61-3.5-.2-3.5Z"/><path class="cls-1" d="M26.5,51.31A1.44,1.44,0,0,1,25,49c2-2,5.43-6.1,6.64-8.58a2.18,2.18,0,0,1,1.08-.92,2,2,0,0,1,2.4,2.94C33.91,44.46,28.56,50.6,26.5,51.31Z"/><path class="cls-1" d="M48,50.77A2.19,2.19,0,0,1,47,50a47,47,0,0,0-2.47-4.11c-.16-.28-1.31-2-2.8-4a1.29,1.29,0,0,1,1.86-1.75A28.25,28.25,0,0,1,50.28,48,2,2,0,0,1,48,50.77Z"/><path class="cls-1" d="M61.22,29.37V9.11a1.82,1.82,0,0,1,2-2h7.54V3a1.74,1.74,0,0,1,1.83-1.95c1.11,0,1.76.71,1.76,2V7.1h4.6c1.24,0,2,.65,2,1.77s-.76,1.71-2,1.71H64.35v5.24h3.06V13.11c0-1.18.53-1.88,1.35-1.88s1.36.7,1.36,1.88v2.71h3.65V13.11c0-1.18.47-1.88,1.3-1.88s1.35.7,1.35,1.88v2.71h4.42a1.77,1.77,0,0,1,2,1.95v4a26.59,26.59,0,0,0,9-7.66H85.91c-1.24,0-2-.59-2-1.65s.71-1.7,2-1.7h9V3.27a1.7,1.7,0,0,1,1.77-1.94,1.74,1.74,0,0,1,1.83,1.94v7.49l8.07.28c1.24,0,.63.36.63,1.42s-.77,1.65-2,1.65h-4a33.26,33.26,0,0,0,7.36,6.43c1.12.76,1.3,1.59.47,2.47-.11.12-1.76,1.12-2.71.35a39,39,0,0,1-7.83-8.3v8.42a1.74,1.74,0,0,1-1.83,1.95c-1.12,0-1.77-.71-1.77-1.95V14.94a31.31,31.31,0,0,1-8.36,8.78A1.64,1.64,0,0,1,84,23.48a13.21,13.21,0,0,0-1.17-1.24V27a1.77,1.77,0,0,1-2,1.94H64.35v.47c0,6.25-.42,14.55-2.48,20.56-.41,1.3-1.29,1.65-2.12,1.06A2.79,2.79,0,0,1,59,48.58C61.11,42.81,61.22,35.26,61.22,29.37Zm3.89,17.8a9.33,9.33,0,0,0,1.36-.3V31.67c0-1.24.59-2.06,1.47-2.06s1.47.82,1.47,2.06v3.71h2.06c1.24,0,1.89.59,1.89,1.59s-.65,1.59-1.89,1.59H69.41v7.66l2.18-.53c1.24-.29,2.12.06,2.24,1a1.78,1.78,0,0,1-1.65,2l-5.54,1.53a1.66,1.66,0,0,1-2.35-1.12C63.93,48,64.29,47.4,65.11,47.17Zm2.3-21.45V19H64.35v6.77Zm6.36,0V19H70.12v6.77Zm.59,6c0-1.24.59-2.06,1.53-2.06s1.42.82,1.42,2.06v4.6C78.07,35.5,79,34.79,79.6,34c1-.89,1.83-1.06,2.48-.3s.59,1.59-.47,2.48c-1.42,1.23-3,2.41-4.3,3.35v6.78c0,1.06.12,1.12.76,1.12h2.07c.47,0,.58-.18.76-1.41.12-1.54.59-2.07,1.42-1.77,0,0,1.35,1.12,1.17,2.3-.35,2.88-1.23,3.71-3.06,3.71H77.66c-2.65,0-3.3-.83-3.3-3.95Zm5.54-6V19H76.42v6.77Zm6.78,0c.35-1.18,1-1.77,2-1.59s1.41,1,1.06,2.24c-.18.82-.41,1.59-.65,2.36H93a3,3,0,0,1,1.59.11c.65.18.88.89.65,2.12C93.8,40.51,90.56,47.17,86,51.11c-1,.83-1.89.77-2.48-.12A2.66,2.66,0,0,1,84,48.58,21.2,21.2,0,0,0,89,41.74,29.92,29.92,0,0,0,85.14,38a10.6,10.6,0,0,1-.88,1.42c-.71,1.12-1.59,1.29-2.42.53a2.62,2.62,0,0,1,0-2.53A36,36,0,0,0,86.68,25.72Zm.11-22.51A1.86,1.86,0,0,1,89.33,4l2.06,3.48a1.66,1.66,0,0,1-.77,2.47c-1,.53-1.82.12-2.35-1.06a35.58,35.58,0,0,0-1.83-3.18C85.73,4.51,85.91,3.63,86.79,3.21Zm3.6,35.24A44.94,44.94,0,0,0,92,31.73h-4a30.48,30.48,0,0,1-1.53,3.48A36,36,0,0,1,90.39,38.45Zm5,2.29h1.59V33c-.83,0-1.36-.59-1.36-1.59s.77-1.6,2-1.6H103V26.31c0-1.24.59-1.95,1.6-1.95s1.64.71,1.64,1.95v3.53l.35.1.71,3.05-1.06,0v7.71h0c1.24,0,2,.59,2,1.65s-.71,1.71-2,1.71h0v6.31c0,1.23-.64,1.94-1.64,1.94s-1.6-.71-1.6-1.94V44.1H95.75c-1.24,0-2-.65-2-1.71S94.33,40.74,95.34,40.74Zm7.65,0V33H99.7v7.71Zm4-35.17c-.82,1.3-1.65,2.53-2.47,3.59a1.76,1.76,0,0,1-2.42.71c-.76-.41-.82-1.3-.12-2.41a40.55,40.55,0,0,0,2.18-3.54A1.69,1.69,0,0,1,106.53,3C107.53,3.45,107.71,4.39,106.94,5.57Z"/><path class="cls-1" d="M105.8,14.06a3.24,3.24,0,0,0,2.84-3.17c0-.92-.53-1.44-1.1-1.44a1,1,0,0,0-1,.75,1,1,0,0,1-.84.63H88.09c-1.76,0-1.59,2.93,0,2.93H96v0c1.25-.77,1.83.08,3,.31l-.66-.21Z"/><path class="cls-2" d="M79.8,7.1a1.51,1.51,0,0,0,1.14-.68,1.82,1.82,0,0,1,1.55-.94,1.77,1.77,0,0,1,1.69,1.75,3.67,3.67,0,0,1-3.85,3.3H67.49c-2.23,0-2.57-3.43-.21-3.43Z"/><path class="cls-2" d="M106.58,29.94a1.44,1.44,0,0,0,1-.54,1.64,1.64,0,0,1,1.25-.71,1.49,1.49,0,0,1,1.56,1.49A3.13,3.13,0,0,1,107.12,33H98.45c-2,0-2.81-3.05-.72-3.05Z"/><path class="cls-2" d="M106.52,40.73a1.56,1.56,0,0,0,1.11-.59,1.81,1.81,0,0,1,1.38-.78,1.63,1.63,0,0,1,1.7,1.64c0,1.7-1.7,3.07-3.6,3.07h-9.5c-2.22,0-3.07-3.34-.78-3.34Z"/></svg>