<svg id="圖層_3" data-name="圖層 3" xmlns="http://www.w3.org/2000/svg" viewBox="0 0 329.65 74.03"><defs><style>.cls-1{fill:#231815;}.cls-2{fill:#040000;stroke:#040000;stroke-miterlimit:10;stroke-width:0.5px;}</style></defs><path class="cls-1" d="M42.45,68a7,7,0,0,0,.19,3.46,1.82,1.82,0,0,1-1.73,2.3,2.05,2.05,0,0,1-1.2-.43c-4.56-3.65-6.09-9.27-6.82-15.22-.67-5.23-.52-11.9-.52-17V36.48H8.56V47.19c0,7.34-.44,13.39-3.22,20.3A31.25,31.25,0,0,1,2.6,73a1.29,1.29,0,0,1-1.15.72,1.37,1.37,0,0,1-1.29-2c4.17-8.2,4.75-15.55,4.75-24.57v-12a1.85,1.85,0,0,1,1.82-1.83A1.83,1.83,0,0,1,8.17,34H32.7A1.82,1.82,0,0,1,36,35.09v6.1c0,5.23-.15,11.8.43,16.56.43,3.5,1.2,7.29,3.26,10.27.1.19.63.24.67-.14l.77-4.23a1,1,0,0,1,1-.91,1.07,1.07,0,0,1,1.1,1.3ZM22.09,60.1v7.2c3.17-.48,3-.48,5.52-1-.14-.19-1.24-2-1.44-2.16a1.22,1.22,0,0,1,1.06-2,1.11,1.11,0,0,1,.77.34,27,27,0,0,1,5.57,7.73,1.79,1.79,0,0,1-1.64,2.49,1.67,1.67,0,0,1-1.53-1c-.48-1.05-1.06-2.44-1.49-3.21a84.88,84.88,0,0,1-9.41,2c-1,.2-5.38,1-9.31,1.3a1.64,1.64,0,0,1-.34-3.26c.48,0,2.83-.1,8.74-.82V60.1h-4a1.82,1.82,0,0,1-1.83,1.78A1.61,1.61,0,0,1,11.1,60.2V49a1.76,1.76,0,0,1,1.78-1.73,1.8,1.8,0,0,1,1.34.72h4.37V43.54c-3.79.33-5.47.33-6.67.33a1.22,1.22,0,0,1-.1-2.44A79.85,79.85,0,0,0,28,38.88a1.74,1.74,0,0,1,.48-.05A1.59,1.59,0,0,1,28.77,42a46.12,46.12,0,0,1-6.68,1.2V48h4.56A1.68,1.68,0,0,1,28,47.23,1.79,1.79,0,0,1,29.77,49V60a1.79,1.79,0,0,1-1.87,1.77,1.58,1.58,0,0,1-1.63-1.63Zm-7.48-10v7.87h4V50.07Zm7.48,0v7.87h4.18V50.07Z"/><path class="cls-1" d="M72.49,55.59a1.77,1.77,0,0,1-1.87,1.82,1.7,1.7,0,0,1-1.73-1.78H60.44A36.15,36.15,0,0,1,58,66.77a21,21,0,0,1-3.7,6.43,1.38,1.38,0,0,1-1.06.44,1.2,1.2,0,0,1-1-1.88C57,64.56,57,56.21,57,47.91V43.15A1.83,1.83,0,0,1,60.2,42h9.17a1.93,1.93,0,0,1,1.35-.57,1.8,1.8,0,0,1,1.77,1.77ZM70.86,34a1.13,1.13,0,0,0,.91-.53,1.42,1.42,0,0,1,1.16-.67,1.27,1.27,0,0,1,1.24,1.25,2.69,2.69,0,0,1-2.83,2.5H56.7A1.28,1.28,0,1,1,56.6,34Zm-2,19.2V44.35H60.64v3.51c0,2.4,0,3.21,0,5.37ZM80,45.79H91.7a1.07,1.07,0,0,0,.86-.52,1.21,1.21,0,0,1,1.1-.63,1.17,1.17,0,0,1,1.25,1.2A2.67,2.67,0,0,1,92,48.29h-3V71.91a1.81,1.81,0,0,1-1.87,1.87,1.7,1.7,0,0,1-1.77-1.73V48.29H79.88c-.57,9-3.11,18.38-9.93,24.82a1.32,1.32,0,0,1-.87.33,1.27,1.27,0,0,1-1-2.11c2.59-3.21,5.8-6.67,7.44-15.89A72.8,72.8,0,0,0,76.38,43V37.2a1.76,1.76,0,0,1,1.83-1.78,1.78,1.78,0,0,1,1.43.68,53.28,53.28,0,0,0,6.68-2,34.41,34.41,0,0,0,4.75-2,3.09,3.09,0,0,1,.82-.19,1.67,1.67,0,0,1,.57,3.17c-2.92,1.58-9.07,2.78-12.43,3.17Z"/><path class="cls-1" d="M173.23,35.81h14.88a1.07,1.07,0,0,0,.87-.48,1.29,1.29,0,0,1,1-.53,1.27,1.27,0,0,1,1.3,1.2,2.66,2.66,0,0,1-2.69,2.3H169.73a45.2,45.2,0,0,1-4.13,6.39c4.22-.38,9.89-1,14.11-1.68l-2.3-1.54a1.28,1.28,0,0,1,1.29-2.21c4.8,2.26,7.49,3.94,10,6.63a1.93,1.93,0,0,1-1.3,3.26,1.59,1.59,0,0,1-1.1-.48,39.57,39.57,0,0,0-3.89-3.55,194,194,0,0,1-26.36,3.17c-2-.1-2.16-3-.14-3.12,1-.05,1,0,5.81-.29a30,30,0,0,0,4.17-6.58H153.74c-1.68,0-1.87-2.49-.19-2.49h16V32.54a1.65,1.65,0,0,1,1.77-1.63,1.78,1.78,0,0,1,1.92,1.78ZM184.37,72a1.81,1.81,0,0,1-3.41.86c-1.06-2.16-4-2.3-6.43-2.3a1,1,0,1,1,0-2.07,13.75,13.75,0,0,1,5.71.91.35.35,0,0,0,.53-.28V64.75H162.62v7.11a1.8,1.8,0,0,1-1.87,1.82A1.66,1.66,0,0,1,159,72V50.45a1.81,1.81,0,0,1,1.83-1.78,1.77,1.77,0,0,1,1.34.63h19a1.77,1.77,0,0,1,1.34-.63,1.81,1.81,0,0,1,1.83,1.78ZM162.62,51.6v4.32h18.15V51.6Zm0,6.63v4.08h18.15V58.23Z"/><path class="cls-1" d="M245.49,73.78a1.21,1.21,0,0,1-.29-2.4A51.89,51.89,0,0,0,257,68.12a2,2,0,0,1,.67-.2,1.72,1.72,0,0,1,.63,3.27C255.38,72.58,248.71,73.73,245.49,73.78Zm36.63-30.34a1.85,1.85,0,0,1-1.92,1.87,1.64,1.64,0,0,1-1.73-1.77V39.6H249v3.89a1.76,1.76,0,0,1-1.83,1.82,1.61,1.61,0,0,1-1.68-1.68V38.26a1.78,1.78,0,0,1,1.78-1.78,1.65,1.65,0,0,1,1.34.72H254l-1.2-1.78-1.4-1.63c-.86-1-.28-2.16.77-2.16s3.84,2.69,4.51,3.55a1.65,1.65,0,0,1,0,2h5.09V32.3a1.6,1.6,0,0,1,1.68-1.63,1.72,1.72,0,0,1,1.83,1.73v4.8h4.61c0-.05.95-1.29,1.87-2.54.14-.24,1.49-2.45,1.53-2.45a1.76,1.76,0,0,1,1.35-.87,1.88,1.88,0,0,1,1.58,2.74,12.05,12.05,0,0,1-1.44,1.63,18.64,18.64,0,0,1-1.58,1.49h5.61a1.72,1.72,0,0,1,1.45-.77,1.84,1.84,0,0,1,1.87,1.83Zm-4.9,23.33a1.76,1.76,0,0,1-1.82,1.83,1.59,1.59,0,0,1-1.68-1.54h-20a1.81,1.81,0,0,1-1.83,1.63A1.61,1.61,0,0,1,250.19,67V52.23A1.77,1.77,0,0,1,252,50.5a1.65,1.65,0,0,1,1.34.72H274.1a1.61,1.61,0,0,1,1.34-.72,1.76,1.76,0,0,1,1.78,1.73Zm-2.21-18a1.74,1.74,0,0,1-1.82,1.73,1.58,1.58,0,0,1-1.68-1.58H256a1.63,1.63,0,0,1-1.72,1.63,1.66,1.66,0,0,1-1.78-1.68V42.39a1.73,1.73,0,0,1,1.78-1.73,1.65,1.65,0,0,1,1.39.67h16.27a1.62,1.62,0,0,1,1.35-.67A1.7,1.7,0,0,1,275,42.39ZM253.7,53.33v2.55h20V53.33Zm0,4.51v2.45h20V57.84Zm0,4.42V65h20V62.26ZM256,43.49v3.26h15.56V43.49Zm11.86,24.63a64.37,64.37,0,0,1,12.34,2.16,1.71,1.71,0,0,1-.39,3.36,2.35,2.35,0,0,1-.52-.1c-.82-.24-2.07-.72-5.86-1.68-.87-.24-4.27-1.06-5.95-1.34a1.21,1.21,0,0,1,.29-2.4Z"/><path class="cls-1" d="M290.17,72.68a1.22,1.22,0,0,1-.67.19,1.14,1.14,0,0,1-.9-2,33.84,33.84,0,0,0,5.57-7.34,1.68,1.68,0,0,1,1.47-.91,1.74,1.74,0,0,1,1.52,2.63A23.92,23.92,0,0,1,290.17,72.68Z"/><path class="cls-1" d="M303.49,32.11a1.72,1.72,0,0,0-1.28.62H294.5a1.66,1.66,0,0,0-1.29-.62,1.72,1.72,0,0,0-1.76,1.72V60.59a1.6,1.6,0,0,0,1.67,1.68,1.69,1.69,0,0,0,1.76-1.72h6.9a1.57,1.57,0,0,0,1.66,1.58,1.76,1.76,0,0,0,1.81-1.77V33.83A1.75,1.75,0,0,0,303.49,32.11Zm-1.71,26h-6.9V51.91h6.9Zm0-8.49h-6.9V43.47h6.9Zm0-8.44h-6.9V35.08h6.9Z"/><path class="cls-1" d="M305.44,72.44a1.65,1.65,0,0,1-1.57-.91,60.59,60.59,0,0,0-3.95-6.76,1.26,1.26,0,0,1,1.1-2,1.31,1.31,0,0,1,.71.24,23.56,23.56,0,0,1,5.42,6.62A1.88,1.88,0,0,1,305.44,72.44Z"/><path class="cls-2" d="M327.58,53.25a.94.94,0,0,1,.75-.48c.55,0,1.07.63,1.07,1.73,0,6.86-.58,14.1-4,18.9a.85.85,0,0,1-.7.38c-.45,0-.91-.38-1.06-1.15a2.89,2.89,0,0,0-3.13-2.45c-.88,0-.88-2.06,0-2.06a3.94,3.94,0,0,1,3.64,1.82c.13.19.28.19.4,0,2.52-4.41,2.7-11.08,2.73-14.24h-3a32.25,32.25,0,0,1-3.59,9.11c-3.82,6.28-7.44,8.11-8,8.35-1,.43-1.64-1.68-.67-2.35,4-2.83,8.29-8.64,9.87-15.11h-3.16a25.45,25.45,0,0,1-3.77,6.91c-3.94,5.13-7.89,7-8.47,7.19-.88.48-1.67-1.68-.64-2.3a27.8,27.8,0,0,0,10.36-11.8h-3.43c-2.7,3.64-4.1,4.94-6.41,6.43-.91.57-1.55-1.44-.7-2.16a30.58,30.58,0,0,0,7.93-10.17c.21-.43.48-.62.76-.62.7,0,1.49,1.2.91,2.59a13.29,13.29,0,0,1-.82,1.48Zm-1.16-4.55c0,1.2-.55,1.77-1.12,1.77s-1.06-.53-1.06-1.63h-12.3c0,1.15-.55,1.78-1.13,1.78s-1.06-.58-1.06-1.68V33.88c0-1,.49-1.73,1.09-1.73a.88.88,0,0,1,.76.48h13a1,1,0,0,1,.76-.48c.64,0,1.09.77,1.09,1.73ZM311.94,35.13v4.5h12.3v-4.5Zm0,6.76v4.46h12.3V41.89Z"/><path class="cls-1" d="M110.88,49.28c-.85.89-4.78,5-6,5a1.26,1.26,0,0,1-.89-2.17c5.29-5.06,9.94-11,10.85-17.2h-8.4a1.25,1.25,0,0,1-.09-2.5H133a1,1,0,0,0,.9-.52,1.19,1.19,0,0,1,1-.62,1.27,1.27,0,0,1,1.28,1.28A2.68,2.68,0,0,1,133.38,35H119.72c-1.2,4.71-3.41,8-6.72,11.91Z"/><path class="cls-1" d="M135.79,33.65l-.56,1.28c-.53,1.11-3,6.27-4.16,6.65a1.26,1.26,0,0,1-1.52-1.79,69.74,69.74,0,0,0,3.32-7"/><path class="cls-1" d="M125.16,57.05H140.7a1.2,1.2,0,0,0,1-.52,1.12,1.12,0,0,1,1-.66,1.27,1.27,0,0,1,1.28,1.23,2.64,2.64,0,0,1-2.79,2.36h-16V72a1.73,1.73,0,0,1-1.84,1.75,1.7,1.7,0,0,1-1.56-1c-.76-1.79-7-3.44-9.75-3.44a1.07,1.07,0,1,1,0-2.13,16.51,16.51,0,0,1,5.24.71c.24.09,4.36.36,4.36,0V59.46H103.24a1.21,1.21,0,1,1,0-2.41h18.42V53.41a1.68,1.68,0,0,1,1.71-1.65c.37,0,.73.63,1.13.38a6.82,6.82,0,0,0,3.41-4.63H115.65a1.16,1.16,0,0,1-.05-2.32h13.73a1.6,1.6,0,0,1,1.37-.71,1.81,1.81,0,0,1,1.56,2.6c-1.09,2.55-4.74,6.24-7.1,7.66Z"/><path class="cls-1" d="M139.75,37.9a1.76,1.76,0,0,0-1.32.61h-5.85l-1.18,2.27H138s-2.49,9.81-2.6,10.1-.81-1.39-3.28-1.47c-1.41,0-2,2-.58,2.23,2.19.39,2.08.59,2.67,1.6a1.74,1.74,0,0,0,1.51.95,1.79,1.79,0,0,0,1.91-1.13l3.91-13.42A1.78,1.78,0,0,0,139.75,37.9Z"/><path class="cls-1" d="M204.85,67.1c-1.6.45-2-.66-.14-1.26,4.1-1.33,17.21-14.48,20.91-24.43h-24c-2.19,0-2.59-2.93.33-2.93H213.7V32.35a1.63,1.63,0,0,1,1.66-1.7,1.81,1.81,0,0,1,1.89,1.89v5.94H231a1,1,0,0,0,.92-.51,1.12,1.12,0,0,1,1-.64,1.21,1.21,0,0,1,1.24,1.24c0,1.24-1.94,3-3.37,3,0,0-7.06,12.34-13,17.08C215.09,60.84,208.17,66.18,204.85,67.1Z"/><path class="cls-1" d="M206.94,65.59c4.88.14,8.89,2.54,16.59,3.09,1.1.09,2.21.14,3.18.14a53.93,53.93,0,0,0,10.78-1.2,1,1,0,0,1,.13,2.07c-.64,0-.41,1.52-1.84,1.8a40.86,40.86,0,0,1-7.05.55,49.55,49.55,0,0,1-5.48-.27c-6-.69-10-2.63-14.1-3.46a15.42,15.42,0,0,0-2.72-.27c-4,0-5.62,2.12-6.91,3.17a1.46,1.46,0,0,1-.92.42,1.61,1.61,0,0,1-1.06-2.72,13,13,0,0,1,6.08-3.08"/><path class="cls-1" d="M140.06,29.76v0h0Z"/><path class="cls-1" d="M145.1,19.61l0,0h0Z"/><path class="cls-1" d="M136.14,28.38c-.18.29-.25.24-.51-.19a4.41,4.41,0,0,0-.39-.49.19.19,0,0,0-.19,0,.18.18,0,0,0,0,.18,2.71,2.71,0,0,1,.29.43c.05.13.1.38-.1.36s-.36.05-.41.32a.33.33,0,0,1-.49.25c-.28-.15-.34.2-.6.09-.5-.21-.17.31-.29.42s-.43.57-.93.39a.48.48,0,0,0-.29,0,.51.51,0,0,1-.57-.19c-.21-.21-.19,0-.17.1s0,.32-.11.42a1.08,1.08,0,0,0-.31.33.75.75,0,0,0-.12.48c0,.1.24.19.37.3l.13.13A10.54,10.54,0,0,0,132.54,33c.07.05.15.2.13.25a1.27,1.27,0,0,1-.28.57c-.24.18-.48.3-.32.7,0,0-.14.17-.25.19a.66.66,0,0,0-.52.6,1.13,1.13,0,0,1-.23.57c-.14.28-.15.27.29.57.47.06.55.13.41.35s-.19.43-.29.42c-.32,0,0,.31-.29.3s-.2.26-.35.34-.08.17-.09.27c0,.26.21.41.38.59a3.52,3.52,0,0,1,.34.44c0,.22.13.35.41.48a2.45,2.45,0,0,1,.56.46c.11.1.15.22,0,.25s-.27.17-.14.32a1,1,0,0,0,.45.12c.63.11.66.13.92-.07s.35-.17.36-.37a.18.18,0,0,1,.18-.16c.31,0,.38-.15.37-.38a.63.63,0,0,1,.12-.45c.14-.17,0-.44.12-.6s.28-.16.35-.26-.08-.38-.11-.58a.49.49,0,0,1,0-.21,1.72,1.72,0,0,0,.16-.5c0-.33-.15-.77.37-.74,0,0,0-.1,0-.16l0-.64c0-.45,0-.46.14-.67s.18-.36-.11-.62-.11-.24,0-.29.14-.29.31-.08.35.1.52.09.15-.32.31-.4a5.6,5.6,0,0,0-.4-.45c-.09-.09-.22-.13-.33-.22a.6.6,0,0,1-.11-.21l.14.07c.73.29.89.17,1.27-.3s.44-1.38,1.11-1.64c0,0,0,0,0-.05a.28.28,0,0,1,.26-.38c.25,0,.33.34.5.51s0,.05.06.07.07,0,.07,0,0-.08,0-.11a1.77,1.77,0,0,0-.16-.22.67.67,0,0,1-.17-.53l.35.37.05.07c.16.15.22,0,.28,0s-.09-.15-.15-.21-.07-.1-.11-.14l-.22-.16c.17,0,0-.34.22-.28s.14,0,.19.19a.83.83,0,0,0,.19.36c.23.18.06-.13.13-.16a.72.72,0,0,0,.24-.18c.1-.11,0-.21-.17-.33v0s-.07,0,0-.05-.09-.08-.08-.07l.11,0v.06l.61,0s.07-.05.1-.07a11.65,11.65,0,0,1,1.1-.73c.1-.06,0-.43.25-.22a1.1,1.1,0,0,0-.06-.41c-.14-.28-.18-.32-.06-.34.37-.06.32-.5.45-.78,0-.1,0-.27.17,0,.31.41.32.41.57.25a1.41,1.41,0,0,0,.4-.27c.12-.14.16-.39.29-.51s.34-.13.51-.2,0-.24,0-.38a1,1,0,0,0-.19-.15c-.13-.08-.22-.2-.11-.3s.15-.23.32,0a1.28,1.28,0,0,0,.29.28s.14,0,.13,0c0-.3.41.16.32-.22s.28,0,.34-.27.36-.44.58-.62.12-.24-.1-.38-.33-.5-.57-.38c0-.07-.11-.2-.09-.22s.15-.17.23-.14a2.07,2.07,0,0,1,.56.4,1.56,1.56,0,0,1,.18.45c.12.34.23.41.44.28.41-.23.41-.24,0-.84a2.8,2.8,0,0,0-.56-.78c-.1-.08-.23-.47-.12-.5.29-.07.11-.4,0-.56-.13-.36,0-.42.2-.4.08,0,.18,0,.23,0a.57.57,0,0,1,.84,0c.06.05.19-.05.3-.05a.28.28,0,0,1,.17.12c0,.05,0,.17,0,.19l-.6.35c-.43.26-.45.65-.13,1.32.08.16.19.3.16.47,0,0,.16.17.2.17s.28-.17.39-.1c.3.21.08-.36.33-.2s.11-.25.25-.27.14-.13.22-.11c.41.11.63-.16.89-.32.55-.33,1.25-.34,1.76-.75.12-.09.09.09.1.19,0,.3.23.3.36.35S152,23,152,23s-.19-.24-.31-.32l-.07,0c0-.06-.15-.16-.14-.18s.07-.17.13-.19a.27.27,0,0,1,.22.09c.14.14.28.27.42.18s.14-.24.22-.21.19-.13.26-.14c.28,0,.37-.35.63-.39a1.83,1.83,0,0,0,.49-.23c.16-.07.33-.27.49-.2s.25-.2.4-.24.51.1.7-.09c0,0,.12.2.19.22s.17-.08.16-.11c-.1-.28-.06-.44.16-.25s.15-.35.36-.13a1.6,1.6,0,0,1,.28.4c.11.31.22.24.36.2s.22-.21.18-.46c0-.06,0-.17,0-.17a2.7,2.7,0,0,0,1.42-.22s0,0,.06,0c.31.6.56.28.81.19s.16,0,.25.17.26.25.33,0a1.31,1.31,0,0,1,.25-.43l-.14-.5a.92.92,0,0,0,.28.05c.13,0,.26-.08.4-.11s.15,0,.16.07c.08.47.3.3.47.35s.19.16.13-.07c-.13-.49.28-.38.31-.68a3,3,0,0,1,.51.25c.07,0,.23,0,.17.28s-.07.21-.19.07c-.06.12-.11.23-.25.07s-.11,0-.12.1a.34.34,0,0,0,.07.22c.16.1.33.43.47.14.28.28.45-.22.74.07.07.08.3,0,.31-.09,0-.37.31.07.4-.18s.28,0,.43,0,.21.08.28.06a.7.7,0,0,1,1,.26c.27,0,.59.57.81,0,.05-.14.22-.09.3.23s.34.26.33.08c0-.33,0-.37.18-.14.23.42.47.29.7.34.06,0,.1-.21.15-.32-.24-.23-.06-.23,0-.26a.14.14,0,0,1,.11,0l.92.39c.16.06.44,0,.53.09s.27-.2.44-.16.4,0,.6.06a2.43,2.43,0,0,1,.86.22,3.31,3.31,0,0,0,1.22.52,2.25,2.25,0,0,1,.57.27,3.35,3.35,0,0,1,.36.21c.1.06.23.1.29.22s.26,0,.28,0c.07.27.16.27.3.26s.3-.18.48,0c0,0,.11,0,.17-.06s.32,0,.37.25.06.47.09.71c.07.44.21.66.47.65s.47-.18.64,0a.57.57,0,0,0,.63.05c.2-.09.42.4.57,0,0,0,.08,0,.08.06,0,.39.17.2.28.24a.36.36,0,0,1,.08.18,3.25,3.25,0,0,1-.18.5c-.07.15-.15,0-.23-.05s-.12.16-.06.36.09.28,0,.33-.16,0-.21,0-.26.05-.09.46.15.75.46.77a.29.29,0,0,1,.17.21c.15.62.49.6.76.75s.87.39,1.3.58c0,0,.11.07.14,0a2,2,0,0,0,.69-1.26c0-.26.15-.52-.08-.74a.59.59,0,0,1-.09-.3.35.35,0,0,1,0-.23s.1,0,.14,0,.17.32.32.3.43,0,.64-.06c.06,0,.11-.09.17-.14l.25-.19.26-.18c.18.12.4.17.53.37s-.08.32-.14.48,0,.21-.06.31c-.09.4-.09.4.17.56a.47.47,0,0,1,.22.24c.19.71.57.47.87.58,0,0,.1-.1.11-.09.16.28.34.43.57.38a5.06,5.06,0,0,0,1.11.95c.26.23.45.26.65-.12a1.16,1.16,0,0,1,.33-.39c.06-.06.16.21.22,0,.19.11.44.13.55.35.27.53.48.35.7,0a1.37,1.37,0,0,1,.13-.2c0-.07.1-.1.15-.16a.79.79,0,0,0,.15-.25c.06-.36.23-.51.42-.47s.43-.2.6-.48a1.12,1.12,0,0,0,.21-.78l0-.16c.07-.38,0-.51-.18-.58s-.24,0-.3-.13-.31-.15-.38-.26-.23.13-.3,0-.24,0-.33.12-.09,0-.1-.06c-.06-.41-.17-.49-.34-.13,0,0-.09,0-.1,0a1.66,1.66,0,0,1-.11-.38c0-.06,0-.21,0-.22a.89.89,0,0,1,.37-.12.7.7,0,0,0,.64-.34c.1-.16.16-.25.31-.31.35-.16.42-.35.4-1,0-.16.11-.41-.12-.49s-.13-.35-.22-.43a1,1,0,0,0-.42-.13c-.1,0-.27-.05-.29-.14-.1-.41-.31-.48-.53-.63s-.3-.53-.56-.48c0-.48-.27-.34-.43-.3s-.16.4-.36.36-.12.41-.29.53,0,.35.06.48.13.06.19.13a1,1,0,0,1,.11.25c-.07.08-.18.25-.21.22-.28-.29-.3,0-.32.32a.45.45,0,0,1-.1.23c-.2.11-.36.33-.57.41a.78.78,0,0,1-.54.11c-.22-.06-.33-.33-.5-.47a1.27,1.27,0,0,1-.3-.59c-.07-.39-.41-.34-.44-.79,0-.06-.23,0-.35-.16s-.28-.19-.38-.11-.18.13-.28,0a4.27,4.27,0,0,0-.3-.44c-.06-.06-.18-.14-.19-.12-.19.39-.31,0-.45-.12a2.74,2.74,0,0,0-.49-.37,4.09,4.09,0,0,1-1-.52,3.19,3.19,0,0,0-.7-.45,1.29,1.29,0,0,1-.3-.22.35.35,0,0,1,0-.23.13.13,0,0,1,.14-.07,1.7,1.7,0,0,1,.3.23c.1.08.2.15.3.24s.27-.16.32.19.13-.15.21,0,.31.21.44.32.29-.09.43-.11a1,1,0,0,0,.88-.5c0-.05.14,0,.19,0,.32.38.63.78.94,1.17,0,.06.1.23.16.06.18-.46.48-.22.72-.3.11.31.2,0,.31,0a2.27,2.27,0,0,0,.45,0c.05,0,.11-.07.13-.14a2.68,2.68,0,0,0,.17-.69c0-.26-.11-.41-.28-.43a.07.07,0,0,1,0-.05,1,1,0,0,1,0-.24s.07-.08.09-.07c.21.1.47.11.61.32s.49,0,.67.37.31.27.34.44c.05.38.2.33.33.25s.11-.13.21,0c.31.41.65.77,1,1.15a.85.85,0,0,0,.68.32c.06,0,.13.09.19.14s.4.36.59.58.32.62.62.37c0,0,.1.05.13.11a1.53,1.53,0,0,1,.35,1,4.29,4.29,0,0,0,.25,1.09,5.87,5.87,0,0,1,.16.6c.07.43,0,.52-.28.49-.05,0-.09-.08-.14-.12.18-.32,0-.27-.09-.2a1.42,1.42,0,0,0-.27.45c0,.05,0,.2.09.29s.1.07.11.06c.16-.37.4-.23.6-.31s.25-.16.29.08c.06.4.14.36.32.15s.26,0,.34.18a9.23,9.23,0,0,1,.4,1.08,2.72,2.72,0,0,0,.5.91,1.3,1.3,0,0,0,.15.18,1.67,1.67,0,0,0,.08-.2c0-.32.09-.5.29-.51s.18,0,.18-.23,0-.3,0-.45a1,1,0,0,1,0-.17.94.94,0,0,1,.12.09c.35.45.38.45.92.44a.19.19,0,0,1,.16.14,1.08,1.08,0,0,0,.45.69,3.56,3.56,0,0,1,.93,1.62,6,6,0,0,0,.33,1c.05.08,0,.31.15.25a.49.49,0,0,0,.2-.29c0-.2,0-.42,0-.63s.08-.1.14,0a.72.72,0,0,0,.23.2c.27.13.33.11.33-.38,0-.29-.2-.56-.08-.82a.9.9,0,0,0-.11-1,.21.21,0,0,1-.07-.13,1,1,0,0,1,0-.34c0-.07.13-.08.19-.12.23-.13.42.5.66,0a.18.18,0,0,1,.08.09c.09.4.33.51.52.73s.29.48.53.14c0,0,.12.06.19.08.23.07.32.5.61.49s.3.57.59.41c.16.44.55.31.74.68.1-.16.2,0,.29,0a1.35,1.35,0,0,0-.07-.37,1.48,1.48,0,0,0-.25-.31l-.36-.36a.29.29,0,0,1,0-.13s.08-.08.1-.06c.31.31.66.17,1,.22.14,0,.38-.57.32-.78,0-.05,0-.11-.08-.11-.26.07-.29-.16-.24-.47s-.08-.29-.2-.27-.1.08-.16.08a1,1,0,0,1-.5,0c-.09,0-.15-.31-.17-.49,0-.41-.36-.42-.41-.81,0-.1-.1-.18-.15-.26s0-.07,0-.07a.34.34,0,0,1-.39-.27c-.07-.28-.23-.2-.36-.24s-.07-.12-.1-.19l.1-.06s.08,0,.12,0c.21-.09.34.41.57.14l-.31-.68c0-.1-.08-.19-.11-.29a.87.87,0,0,1-.06-.37c.06-.19.21-.34.34-.22s.52.27.68.75.35,1,.79.94c0,0,.06.11.09.18l0,.15a.48.48,0,0,0,.08-.16c0-.12,0-.24,0-.36s.15-.23.21-.11.08.26.14.36a.46.46,0,0,0,.17.14c.07-.31.19,0,.3-.06a.66.66,0,0,1,.39-.08c.27,0,.46-.25.64-.53s0-.15-.07-.17l-.21-.09c.07-.09.14-.25.22-.26a3.56,3.56,0,0,1,.65,0,2.09,2.09,0,0,0,.52-.14c.11,0,.21-.07.17-.25a.49.49,0,0,0-.19-.3.17.17,0,0,0-.22,0c-.19.25-.39.14-.56.1s-.44-.15-.65-.23-.19-.57-.45-.61a1.42,1.42,0,0,1,.11-.18.34.34,0,0,1,.48,0c.28.18.55.16.59,0,.08-.32-.08-.48-.19-.68s.09-.39.11-.56c.07-.51.29-.14.42-.25.2.36.54.11.79.36a.5.5,0,0,0,.62,0,.59.59,0,0,1,.56,0c.11,0,.23,0,.35.09s.31,0,.46.05c.37.12.59-.25.74-.6s.1-.63.38-.66a.41.41,0,0,0,0-.12c-.12-.16-.06-.28,0-.44.34-.56.16-1.24.21-1.87,0,0-.06-.06-.09-.06s-.06-.49-.29-.4c0-.23,0-.46,0-.69,0-.07.07-.14.08-.22a3.73,3.73,0,0,0,.2-1.06,4.42,4.42,0,0,0-.61-2.12,10,10,0,0,1-.78-1.32,3.41,3.41,0,0,1-.47-1.22,3.68,3.68,0,0,0-.6-1.34s-.07,0-.08,0c-.22.4-.37-.09-.56-.09s-.29-.22-.27-.53a.82.82,0,0,0,0-.33c-.15-.23,0-.35.07-.52A.67.67,0,0,0,206,8.7c-.06-.13-.25-.28-.26-.26-.26.45-.48,0-.68-.08a.77.77,0,0,1-.42-.84.7.7,0,0,0-.41-.8,4.54,4.54,0,0,0-.83-.47c-.14,0-.25-.35-.35-.56s-.19-.43-.28-.64-.32-.35-.06-.64c0,0-.08-.12-.11-.11s-.21-.09-.3-.22a.42.42,0,0,0-.25-.17c-.14,0-.29,0-.42,0s-.18-.3-.36-.09-.22-.09-.34-.1a.59.59,0,0,1-.53-.43c-.07-.37-.24-.28-.39-.35s-.37.11-.59,0c-.69-.25-1.27-.81-2-1.08a12.72,12.72,0,0,0-1.79-.74c-.25-.06-.49.17-.71,0a.81.81,0,0,0-.58-.19c-.16-.45-.36.1-.52,0a.5.5,0,0,0-.73,0c-.07.06-.22,0-.21-.19s0-.3,0-.45,0-.26-.18-.26a1.77,1.77,0,0,0-.59.15c-.26.11-.56,0-.84,0s-.34.22-.45.15c-.35-.25-.66.13-1,0-.11.44-.39-.25-.5.15-.22,0-.49.12-.64,0s-.51.29-.7-.11c-.69.35-1.41.06-2.11.17-.2,0-.41-.05-.61.16s-.39.06-.57,0a1,1,0,0,0-1.05.09,1.33,1.33,0,0,1-.66.22c-.11,0-.23-.12-.35-.15s-.28,0-.32,0c-.12-.24-.19.09-.29,0-.36-.31-.76.08-1.14-.23-.07-.06-.24.34-.44,0a.21.21,0,0,0-.25,0c-.3.37-.69.14-1,.26s-.65-.22-1,0c-.28-.24-.5,0-.72.13s-.13.21,0,.34.11.17.16.17c.3,0,.28.17.14.44a1.77,1.77,0,0,0-.22.67c0,.14.18.32.3.45s.31.83.69,1c0,0,0,.16,0,.18a3.45,3.45,0,0,0-.7,1l-.49.2c-.21-.31-.46-.1-.69-.11s-.31.33-.47,0c0,0-.15,0-.17.09a.39.39,0,0,1-.52.24c-.27-.06-.52-.25-.78-.33a2.25,2.25,0,0,1-.69-.35l-.65-.29a3.15,3.15,0,0,0-.64-.48,4,4,0,0,1-.67-.36,8,8,0,0,1-1-.58c-.37-.31-.74-.18-1.11-.3-.12,0-.27-.12-.37-.08s-.15.25-.19,0c-.08-.53-.17-.24-.28,0,0,0-.1.08-.14.06a4.51,4.51,0,0,0-.89-.07,9.74,9.74,0,0,1-1-.25l-.31-.08,0,.43c0,.25.18.32.35.39.36.17.73.29,1.09.44s.94.35,1.4.56c.2.09.37.09.48.38,0,.1.2.43.35.08,0,0,.15,0,.17,0,.19.39.53.12.74.38.3-.19.48.33.75.3a.23.23,0,0,1,0,.14c0,.07,0,.16-.09.17a1.55,1.55,0,0,1-.47.08c-.17,0-.34-.09-.51-.09a6.29,6.29,0,0,0-.74.11,5.84,5.84,0,0,1-.73.11c-.26,0-.51.24-.78,0-.17.28-.43,0-.64.1s-.33,0-.52-.06c-.8-.3-.8-.28-1.51.12a.82.82,0,0,1-.27.06c-.25.06-.5.1-.74.17a1.74,1.74,0,0,0-.49.2c-.15.08-.4-.22-.47.17,0,.14-.33-.18-.42.12,0,0-.08,0-.12,0a1.8,1.8,0,0,0-1.47.41c-.11.08-.31.17-.4.1-.27-.21-.45,0-.67,0a1.5,1.5,0,0,1-.67,0c-.31-.09-.73-.13-.92.08a2.71,2.71,0,0,1-1.33.57,2.44,2.44,0,0,1-1,0,2.53,2.53,0,0,0-1.42,0c-.15.08-.22,0-.27-.19a2,2,0,0,0-.09-.26s-.07-.08-.1-.13-.06.07-.07.11,0,.32-.05.47-.1.18-.15.17c-.34-.08-.57.18-.87.24-.09,0-.24.05-.26,0-.2-.37-.47-.19-.7-.25-.05,0-.14-.06-.17,0s-.11.27-.21.32-.27,0-.4.06-.17.15-.08.32a.35.35,0,0,1,.06.16c0,.29.19.64.06.85s-.4,0-.61-.11-.37-.09-.39,0c-.12.33-.46.49-.38.94a2.73,2.73,0,0,1,.06.49c0,.09,0,.23,0,.26a1.12,1.12,0,0,1-1.53,0c-.35-.34-.25.07-.24.11.12.67-.21,1.24,0,1.92-.22.35-.08.83-.08,1.25.11,0,.21-.19.34.07a2,2,0,0,0,.59.89c0-.06.07-.14.05-.18-.09-.2,0-.32.1-.27.63.27.56-.43.78-.73,0,0,0-.15-.05-.23l.16.15c.46.36.53.35.73-.16,0,0,0-.15,0-.15.22,0,.09-.56.38-.39s.14.4.16.62a1,1,0,0,1,0,.31.62.62,0,0,0,.15.64,3,3,0,0,1,.53.88.83.83,0,0,0,.34.31.41.41,0,0,0,0-.15c-.29-.26,0-.75-.41-.95,0-.23-.05-.56.06-.67a1.9,1.9,0,0,1,.85-.55,2.57,2.57,0,0,1,.57-.05c.15,0,.2-.52.45,0a.62.62,0,0,0,.1-.24c0-.19-.05-.38-.06-.57a.28.28,0,0,1,0-.15s.08.05.11.09.06.17.1.25c.24.54.29.58.69.45a.4.4,0,0,1,.45,0c.1.09.28.23.31.2a.53.53,0,0,0,.14-.42c0-.29.12-.27.22-.38a2.19,2.19,0,0,0,.2-.58s.1-.09.1-.09c.32.52.44.11.62,0,0,0,.11,0,.17.06s.09.14.07.25-.06.47-.11.69-.23.47.13.69c0,.14-.26.17-.14.44a.46.46,0,0,1-.19.13,1.28,1.28,0,0,0-.74.46.68.68,0,0,0,.05.8c.13.16.24.38.44.39a.26.26,0,0,1,.2.14,4.25,4.25,0,0,1,.28.75.7.7,0,0,1,0,.46,1.17,1.17,0,0,1-.46.38.88.88,0,0,1-.48,0,3.66,3.66,0,0,0-.43-.15c-.1,0-.18.07-.27.12s.08.49-.21.28-.14.36-.37.13c-.15.41-.36.18-.57-.12-.09-.14-.2-.26-.28-.41s-.16-.38-.26-.57a.75.75,0,0,0-.14-.17c0,.08,0,.18,0,.24a.89.89,0,0,1,.05.79,3.75,3.75,0,0,1-.21.5.43.43,0,0,1-.76.05c-.35-.39-.6-.18-.88-.15,0,.24-.26,0-.29.27s-.27.17-.43.22a.43.43,0,0,0-.28.33c-.14.54-.66.26-1,.37-.33-.28-.3,0-.34.23a.49.49,0,0,1-.78.36c-.25-.54-.62.05-.89-.41,0,0-.11.09-.1.14a2.44,2.44,0,0,0,.13.44c-.24-.14-.21,0-.11.19s-.31.77-.37.72c-.26-.19,0-.35-.1-.55a1.09,1.09,0,0,1-.14-.23,2.87,2.87,0,0,1-.49-1.1c0-.12-.12-.34-.32-.23s-.58-.45-.91-.39c0,0-.16-.13-.24-.21a.67.67,0,0,1-.08-.17c-.08-.14-.14-.37-.24-.41-.27-.14-.3-.43-.47-.63a.62.62,0,0,1-.75-.46.56.56,0,0,0,0-.08l-.17-.14c-.06.06-.15.14-.13.22s.12.31.14.46c0,.4.55.91,0,1.16,0,0,0,.14,0,.2s.17.3.36.6l0-.07a.34.34,0,0,1,0-.1c.05,0,.1,0,.13.08a4.12,4.12,0,0,1,.27.45.83.83,0,0,1,.08.22l-.2-.2a3.78,3.78,0,0,1-.21-.34h0a2.58,2.58,0,0,1-.95-.17c-.3-.11-.37-.43-.54-.65l0-.07c-.15-.37-.32,0-.48-.22,0,.09-.14.2-.11.27.21.42-.17.43-.14.72-.37.15-.17.82-.5,1a.23.23,0,0,0,0,.23c.25.43-.09.26-.18.24-.25-.08-.32.07-.23.28a.65.65,0,0,1,0,.51c-.11.36-.09.37.24.71s.33.47.16.7c-.28-.19-.15.33-.45.21s-.47,0-.74,0c-.1,0-.17.13-.26.21.18.21.09.28,0,.35s-.28.23-.13.55a.19.19,0,0,1,0,.18,1.48,1.48,0,0,1-.44.21c-.07,0-.2-.1-.11.11a3.12,3.12,0,0,0,.17.46,4.34,4.34,0,0,0,.35.49c.08.09.16-.18.24.07,0,.05-.14.12-.24.15s-.24,0-.35.07a3.17,3.17,0,0,1-.84.32c-.18,0-.41.13-.66-.14-.06-.06-.22-.11-.23-.09-.12.45-.32.15-.53-.11s-.23-.09-.24,0c0,.31.05.7-.31.71s.15.69-.24.77c-.1,0-.13.23-.33.22A.86.86,0,0,0,136.14,28.38Zm68.27-6.05.05.24-.11.06c0-.05,0-.11,0-.15A.55.55,0,0,1,204.41,22.33ZM180.49,12.22a.21.21,0,0,0,0,.06l0,.12s-.05,0,0-.06A.27.27,0,0,1,180.49,12.22Zm-2.2,7.23c-.11.08-.52-.15-.49-.22a1.19,1.19,0,0,1,.31-.45s.18.22.3.37C178.35,19.3,178.34,19.42,178.29,19.45Zm1,.1a.54.54,0,0,1-.19-.18c-.12-.18-.22-.21-.33,0,0,0-.16,0-.18-.05a1.25,1.25,0,0,1,0-.35s.05-.07.07-.06.07.08.1.12c.24-.29.43.22.65.22a1.93,1.93,0,0,1,0,.24S179.33,19.57,179.31,19.55ZM179,4l0,.06,0,.12s0,0,0-.06A.53.53,0,0,1,179,4Zm-8.07,6.64s.08-.07.1-.05c.29.23.62.16.89.31s.27-.12.41-.08a1.53,1.53,0,0,1,.41.14c.2.14.32.08.43-.14a.54.54,0,0,0,.15.12c.37.14.75.08,1.13.21a.7.7,0,0,0,.65-.16.6.6,0,0,1,.87.08c.18.19.46.17.69.21s.56,0,.76.13.27-.14.41-.07a2.91,2.91,0,0,0,.39.12s.11-.12.12-.11c.21.32.47-.08.7.19s.24.07.37-.07.43.12.36.33c-.15.43.07.4.22.46s.16,0,.24,0,.05.07.07.11,0,.06,0,.06l-.3,0c-.22,0-.45.08-.54-.38,0-.05-.13-.06-.19-.09s0,.2,0,.3a1.06,1.06,0,0,0,.06.19s-.08,0-.12,0-.23-.16-.33-.13-.18-.33-.29-.06-.21-.23-.26,0c-.1-.05-.24-.06-.3-.16a.51.51,0,0,0-.63-.26.74.74,0,0,1-.59-.1c-.16-.1-.33.07-.54-.06s-.48.1-.65,0-.38-.08-.53.1c-.23-.26-.42.24-.63,0s-.5.14-.7-.29c-.11-.23-.14.19-.28.12a2.37,2.37,0,0,0-1.63-.12.61.61,0,0,1-.42,0,1.64,1.64,0,0,1-.49-.71A.16.16,0,0,1,170.92,10.63Zm-5.5-.06h0a.93.93,0,0,1,.07-.2l.14.16.21,0A2.74,2.74,0,0,0,166,10l-.05.34H166c.16-.3.21-.33.24-.3.18.2.37-.05.49.05s.27-.11.41-.11l1.14,0c.05,0,.12.11.16.19a1.38,1.38,0,0,1,.14.3,2.45,2.45,0,0,1,.08.29c-.07,0-.15,0-.22,0a2.39,2.39,0,0,0-1.06,0,1.22,1.22,0,0,1-1.23-.31.25.25,0,0,0-.15,0,.3.3,0,0,1,0,.08l-.05,0a.46.46,0,0,1-.07.19l-.14-.15-.21,0a.94.94,0,0,0,0,.09v-.08c0,.12,0,.15,0,.18s-.06-.09,0-.1S165.39,10.6,165.42,10.57Zm-.16,2.18c.06.19.08.41.26.5a1.09,1.09,0,0,1-.23.32s-.16-.09-.23-.16-.38,0-.47-.33l.51-.39C165.15,12.71,165.24,12.71,165.26,12.75ZM164,10.2c.2.25.39,0,.56.06s.18.06.24-.08.19,0,.21.05,0,.26-.12.28a1.83,1.83,0,0,0-.25.06v.07l-.63-.09c-.05,0-.09-.06-.14-.09Zm-.59.36s0,0,.06,0l-.07.09-.06,0S163.42,10.58,163.45,10.56ZM161,12.94l.13.2-.08.1a.51.51,0,0,1-.09-.13A.47.47,0,0,1,161,12.94Zm-1-1-.07,0a.85.85,0,0,0,.26-.13l0,.14c.13,0,.17,0,.16.05a.36.36,0,0,1-.11.2s-.08,0-.11,0l.06-.2L160,12h0l0,.09-.09-.08ZM159.66,20a.18.18,0,0,1,.07.05s0,.06-.06.07,0,0-.06,0Zm-.78-6.22.1,0s0,.07,0,.07l-.1,0A.64.64,0,0,0,158.88,13.82ZM155,9.59c0,.06-.12.06-.13.06a.73.73,0,0,1-.86-.17c-.24-.19-.11-.34,0-.39A.85.85,0,0,1,155,9a.26.26,0,0,1,.09.17A1.36,1.36,0,0,1,155,9.59Zm-6.62,12a1.27,1.27,0,0,1,.12.23l-.07,0a1.13,1.13,0,0,1-.12-.21S148.35,21.59,148.38,21.56Z"/><path class="cls-1" d="M130.11,22.18a.44.44,0,0,0,.26.17c.18,0,.49.08.51,0,.13-.37.52-.11.7-.26a5.15,5.15,0,0,1,1.4-.67c.11,0,.14-.25.18-.4s-.16-.13-.25-.19a1.68,1.68,0,0,0-.34-.2c-.48-.17-.48-.16-.69-.39-.06-.07-.11-.17-.17-.19-.56-.18-.83-.68-1.16-1.11l-.4-.47c-.19.18.07.48,0,.57-.22.24-.08.5,0,.76,0,.08,0,.22,0,.24-.26.12-.24.38-.27.62a.16.16,0,0,1-.15.13c-.06,0-.15-.08-.19-.14s-.09-.31-.17-.46a.9.9,0,0,0-.25-.22c0,.07,0,.14,0,.22a1.71,1.71,0,0,0,.58,1.37C129.8,21.81,130,22,130.11,22.18Z"/><path class="cls-1" d="M138.66,19c.21,0,.3-.33.59-.16-.07-.5.4-.1.52-.29s.11-.33.37-.29.35-.18.53-.29.38-.22.55-.36,0-.43-.13-.59-.2,0-.28,0-.15.12-.25.14a3.81,3.81,0,0,1-.59.08c-.31-.43-.66-.29-1-.42-.69-.27-.8-.17-.81.62a.45.45,0,0,0,0,.23c.2.46,0,.66-.18.9,0,0-.09,0-.08.09a.6.6,0,0,0,.08.22A2.83,2.83,0,0,0,138.66,19Z"/><path class="cls-1" d="M141.64,15.78a3.61,3.61,0,0,0,.82.14.64.64,0,0,1,.44.14c.65.43.67.42.9-.26,0-.06.1-.09.13-.15s0-.1-.06-.15l-.05-.06c-.3.15-.37-.18-.54-.35s-.56-.56-1-.35c-.24.11-.43.35-.81.21-.23-.09-.36.15-.27.39A.61.61,0,0,0,141.64,15.78Z"/><path class="cls-1" d="M138.25,24.42c-.19.22,0,.45.14.7s.34.36.3.6c.3,0,.15.5.34.49s.34-.2.48-.34,0-.16,0-.22.07-.09.11-.08c.27.09.25-.18.19-.31s0-.58-.38-.77a4.1,4.1,0,0,1-1.28-1.09.65.65,0,0,0-.16-.13c-.05.05-.09.07-.1.11-.07.22,0,.41.19.62S138.39,24.26,138.25,24.42Z"/><path class="cls-1" d="M134.44,27.89h0v-.07l0,0Z"/><path class="cls-1" d="M133.19,27.79c.21.28.45.55.69.82a.41.41,0,0,0,.19.08c.18-.24.66-.26.37-.8,0,0-.05,0,0,0s-.09-.07-.08-.07h.12v0a1.43,1.43,0,0,0,.31-.27c.19-.22-.1-.51-.12-.75s-.3-.2-.4-.37c-.07,0-.17,0-.2,0a3.23,3.23,0,0,0-.49.66c-.06.11-.07.19-.21.21S133,27.59,133.19,27.79Z"/><path class="cls-1" d="M134.94,19.59s0,.05.05.08l0,.06c.32.05.61.26.92.34a.38.38,0,0,0,.54-.3c.29.19.12-.21.27-.27s0-.49-.18-.46-.24-.07-.35-.21a.38.38,0,0,0-.24-.08,1.07,1.07,0,0,1-1.23-.65,1.45,1.45,0,0,0-.18-.16.71.71,0,0,0,0,.25C134.7,18.65,135,19.11,134.94,19.59Z"/><path class="cls-1" d="M146.15,16.09a5.45,5.45,0,0,0,.25.94.17.17,0,0,0,.12.1c.12,0,.27,0,.35,0a.48.48,0,0,0,.13-.36,2.69,2.69,0,0,0-.11-.79c-.07-.2,0-.23.1-.3s.13-.1.12-.15c-.07-.37-.13-.74-.2-1.07l-.22-.23a1.34,1.34,0,0,0-.07.27c0,.52-.12.7-.49.85a.27.27,0,0,0-.09.23C146.17,15.73,146.12,15.9,146.15,16.09Z"/><path class="cls-1" d="M136.14,25.57s-.07.07-.1.1.28.41,0,.55-.11.39-.19.56-.25.14-.05.36.23.37.43.36.47-.06.57-.07c.36-.27.35-.41.13-.77s-.6-.59-.59-1A.79.79,0,0,0,136.14,25.57Z"/><path class="cls-1" d="M191.14,32.9s.1-.07.11-.13,0-.23,0-.34c.09-.4.07-.5-.13-.6s-.4-.16-.59-.24v.05a.54.54,0,0,0-.22,0,.32.32,0,0,0-.14.16s0,.16.06.21a5.21,5.21,0,0,0,.48.63A1.45,1.45,0,0,0,191.14,32.9Z"/><path class="cls-1" d="M168.17,21.87l-.33-.16c-.16,0-.22,0-.26.08a.27.27,0,0,0,0,.19.21.21,0,0,0,.07.13l.31.19a2.28,2.28,0,0,0,.92.41c.14,0,.13-.11.15-.19a.49.49,0,0,0-.07-.28.72.72,0,0,0-.27-.15Z"/><path class="cls-1" d="M171.5,23.7s.1-.05.1-.11a.94.94,0,0,0-.11-.4c-.19-.22-.36-.5-.6-.53l-.12,0a2.2,2.2,0,0,0,.24.79C171.15,23.7,171.27,23.78,171.5,23.7Z"/><path class="cls-1" d="M147.2,14.73l.26.48s.08.07.12.1,0-.1,0-.14c-.12-.4.06-.9-.46-1.16-.12-.06-.09-.38-.28-.3s0,.31,0,.46A5,5,0,0,0,147.2,14.73Z"/><path class="cls-1" d="M162.55,21.32c-.16.2-.29.37-.41.55a.5.5,0,0,0,.07.17c.23.36.28-.28.51,0a.54.54,0,0,0,.11-.21.47.47,0,0,0,0-.29A1,1,0,0,0,162.55,21.32Z"/><path class="cls-1" d="M149.37,16c0-.08.13-.14.12-.22a6.85,6.85,0,0,0-.07-.78c0-.1,0-.2,0-.31l-.12-.05c-.08.27,0,.6-.16.83a.28.28,0,0,0,0,.22A1.89,1.89,0,0,0,149.37,16Z"/><path class="cls-1" d="M160.7,21c0-.11,0-.23,0-.3s-.09-.43-.28-.37l-.21.07a2,2,0,0,0,.2.45C160.49,20.94,160.61,21,160.7,21Z"/><path class="cls-1" d="M146.25,27.21c.06,0,.11-.12.1-.2s-.11-.35-.11-.38c-.13-.19-.15-.25-.19-.29a1.29,1.29,0,0,0-.17-.16.54.54,0,0,0,0,.22c.08.2.19.4.27.6S146.1,27.2,146.25,27.21Z"/><path class="cls-1" d="M157.77,13.77a1.67,1.67,0,0,0-.05-.39c-.05-.1-.1-.18-.14-.25a1.43,1.43,0,0,0-.12.21c0,.1-.1.22-.07.3a.89.89,0,0,0,.26.29S157.77,13.84,157.77,13.77Z"/><path class="cls-1" d="M161.55,22.39a1.86,1.86,0,0,0,.36.4c.05-.18.07-.3.1-.41L161.6,22C161.58,22.16,161.51,22.32,161.55,22.39Z"/><path class="cls-1" d="M198.78,30.35a.76.76,0,0,0,.16-.26,1.05,1.05,0,0,0,0-.35s0-.13,0-.24l-.17.23s-.08.08-.08.12a3.27,3.27,0,0,0,0,.44S198.78,30.36,198.78,30.35Z"/><path class="cls-1" d="M152.71,17a1,1,0,0,0,.07-.15c0-.07,0-.15.05-.23.06-.25-.05-.16-.16-.17s-.27,0-.13.27a.59.59,0,0,0,0,.08Z"/><path class="cls-1" d="M134.42,20.88a.88.88,0,0,0,0-.38c-.07-.09-.22-.12-.34-.17s0,.17,0,.27Z"/><path class="cls-1" d="M127.92,21.1s-.1-.06-.16-.08c0,.15,0,.25,0,.36l.33,0A2.22,2.22,0,0,0,127.92,21.1Z"/><path class="cls-1" d="M132.49,15.49a1.73,1.73,0,0,0-.21-.17c-.05.1-.08.13-.1.17l.33.15C132.5,15.59,132.52,15.52,132.49,15.49Z"/><path class="cls-1" d="M151,16.86c0,.06-.06.11-.05.13l.14.19s0-.07,0-.1S151,17,151,16.86Z"/><path class="cls-1" d="M150.3,16c.17-.1,0-.25,0-.38C150.08,15.7,150.25,15.85,150.3,16Z"/><path class="cls-1" d="M147.9,15.76a.43.43,0,0,0,0-.16h-.2a1.37,1.37,0,0,0,0,.16S147.88,15.78,147.9,15.76Z"/><path class="cls-1" d="M131.58,32.32c-.2-.18-.23,0-.33.09C131.46,32.58,131.49,32.38,131.58,32.32Z"/><path class="cls-1" d="M128,30.86a1.51,1.51,0,0,0,.22.11s0-.11,0-.13a1.4,1.4,0,0,0-.22-.14C128,30.78,127.94,30.85,128,30.86Z"/><path class="cls-1" d="M162.93,21.5a1.51,1.51,0,0,0,.11.22s.05-.06,0-.09-.06-.15-.09-.24S162.92,21.49,162.93,21.5Z"/><path class="cls-1" d="M164.3,22l.07,0a1.4,1.4,0,0,0-.06-.24s-.08,0-.08,0A1.55,1.55,0,0,0,164.3,22Z"/><path class="cls-1" d="M166.08,22.18a.5.5,0,0,0,.08.14l.07-.09-.12-.22A1.22,1.22,0,0,0,166.08,22.18Z"/><path class="cls-1" d="M131.92,15.82c0-.05,0-.12,0-.15a1.3,1.3,0,0,0-.18-.15,1.41,1.41,0,0,0,0,.18Z"/><path class="cls-1" d="M150.3,16.16l0-.1,0-.08a.23.23,0,0,0-.07.1S150.27,16.13,150.3,16.16Z"/><path class="cls-1" d="M145.7,17.5l-.07,0,0,.11.1,0Z"/><path class="cls-1" d="M177.07,25.43a.36.36,0,0,1,0-.07l-.06-.11s0,.05,0,.06A.61.61,0,0,0,177.07,25.43Z"/><path class="cls-1" d="M131.75,32.3l-.12,0,0,0,.13.06S131.74,32.33,131.75,32.3Z"/><path class="cls-1" d="M131.21,32.45l0-.1h-.12s0,0,0,.08Z"/><path class="cls-1" d="M134.2,26.38l.1,0c0-.05,0-.09,0-.13s0,0-.07,0Z"/><path class="cls-1" d="M208.91,8.66a.16.16,0,0,1,0-.07l-.08.07s0,.06,0,.05S208.88,8.68,208.91,8.66Z"/></svg>