<svg id="圖層_1" data-name="圖層 1" xmlns="http://www.w3.org/2000/svg" viewBox="0 0 9.91 34.24"><defs><style>.cls-1{fill:#fff;}</style></defs><path class="cls-1" d="M72.19-33.5c-.76,1.75-1.47,2.39-2.74,2.39-1.55,0-2.58-1.22-2.58-3.27a5.15,5.15,0,0,1,.7-2.66l2,.07v.66l-1.9.5a2.93,2.93,0,0,0-.24,1.28c0,1.21.57,1.94,1.55,1.94.83,0,1.24-.4,1.68-1.44l.23-.55c.65-1.49,1.42-2.34,2.78-2.34,1.56,0,2.45,1.28,2.45,3.06a4.14,4.14,0,0,1-.66,2.3l-1.86-.09v-.66l1.82-.49a2,2,0,0,0,.18-.89c0-1-.52-1.76-1.45-1.76s-1.29.48-1.67,1.36Z" transform="translate(-66.87 37.04)"/><path class="cls-1" d="M73.11-26.15a1.42,1.42,0,0,0,.06-.46c0-1.12-1-1.91-2.78-1.91s-2.71.86-2.71,2.14a2,2,0,0,0,.89,1.7l-.13.25A2.68,2.68,0,0,1,66.9-27a3.06,3.06,0,0,1,3.34-3.14,3.21,3.21,0,0,1,3.37,3.35,2.27,2.27,0,0,1-1.77,2.37.67.67,0,0,1-.56-.69c0-.45.25-.78.91-.85Z" transform="translate(-66.87 37.04)"/><path class="cls-1" d="M71.85-21.1a2.27,2.27,0,0,1,1.76,1.88,1,1,0,0,1-.76,1.07c-.53,0-.9-.26-.9-.82a1.22,1.22,0,0,1,.57-.93l.14-.13a3.2,3.2,0,0,0-1.73-1.07H69.87l-2.27,0L67.46-20h-.37v-3.56h.37l.11.86,2.3,0h.85c.77,0,1.2,0,1.77,0l.09-.94h.3l.72,2.27-.11.17Z" transform="translate(-66.87 37.04)"/><path class="cls-1" d="M70.27-17.62a3.13,3.13,0,0,1,3.34,3.19,3.13,3.13,0,0,1-3.34,3.2,3.11,3.11,0,0,1-3.37-3.2A3.1,3.1,0,0,1,70.27-17.62Zm0,4.72c1.95,0,2.91-.57,2.91-1.53s-1-1.52-2.91-1.52-2.92.54-2.92,1.52S68.3-12.9,70.26-12.9Z" transform="translate(-66.87 37.04)"/><path class="cls-1" d="M67.46-6.95h-.37v-3.43h.37l.11.91c.74,0,1.56,0,2.3,0h6l.07-1h.33L76.78-8l-.11.17L74.79-7.9H69.87c-.74,0-1.56,0-2.32,0Z" transform="translate(-66.87 37.04)"/><path class="cls-1" d="M67.46-2.8h-.37V-6.23h.37l.11.91c.74,0,1.56,0,2.3,0h6l.07-1h.33l.51,2.38-.11.16-1.88,0H69.87c-.74,0-1.56,0-2.32,0Z" transform="translate(-66.87 37.04)"/></svg>